<svg version="1.1" viewBox="0.0 0.0 600.0 371.0" fill="none" stroke="none" stroke-linecap="square" stroke-miterlimit="10" width="600" height="371" xmlns:xlink="http://www.w3.org/1999/xlink" xmlns="http://www.w3.org/2000/svg"><path fill="#ffffff" d="M0 0L600.0 0L600.0 371.0L0 371.0L0 0Z" fill-rule="nonzero"/><path stroke="#cccccc" stroke-width="1.0" stroke-linecap="butt" d="M55.5 61.5L55.5 274.5" fill-rule="nonzero"/><path stroke="#cccccc" stroke-width="1.0" stroke-linecap="butt" d="M184.5 61.5L184.5 274.5" fill-rule="nonzero"/><path stroke="#cccccc" stroke-width="1.0" stroke-linecap="butt" d="M313.5 61.5L313.5 274.5" fill-rule="nonzero"/><path stroke="#cccccc" stroke-width="1.0" stroke-linecap="butt" d="M442.5 61.5L442.5 274.5" fill-rule="nonzero"/><path stroke="#cccccc" stroke-width="1.0" stroke-linecap="butt" d="M571.5 61.5L571.5 274.5" fill-rule="nonzero"/><path stroke="#333333" stroke-width="1.0" stroke-linecap="butt" d="M45.5 274.5L581.5 274.5" fill-rule="nonzero"/><path stroke="#cccccc" stroke-width="1.0" stroke-linecap="butt" d="M45.5 231.5L581.5 231.5" fill-rule="nonzero"/><path stroke="#cccccc" stroke-width="1.0" stroke-linecap="butt" d="M45.5 189.5L581.5 189.5" fill-rule="nonzero"/><path stroke="#cccccc" stroke-width="1.0" stroke-linecap="butt" d="M45.5 146.5L581.5 146.5" fill-rule="nonzero"/><path stroke="#cccccc" stroke-width="1.0" stroke-linecap="butt" d="M45.5 104.5L581.5 104.5" fill-rule="nonzero"/><path stroke="#cccccc" stroke-width="1.0" stroke-linecap="butt" d="M45.5 61.5L581.5 61.5" fill-rule="nonzero"/><clipPath id="id_0"><path d="M45.55 61.916668L581.45 61.916668L581.45 274.08334L45.55 274.08334L45.55 61.916668Z" clip-rule="nonzero"/></clipPath><path stroke="#783f04" stroke-width="2.0" stroke-linecap="butt" clip-path="url(#id_0)" d="M55.190224 231.65L313.5 231.65L339.33096 231.65L365.16196 189.21666L390.99292 146.78334L416.8239 104.35L442.65488 61.916668L468.48587 61.916668L494.31683 104.35L520.1478 146.78334L545.9788 189.21666L571.80975 231.65" fill-rule="nonzero"/><path stroke="#38761d" stroke-width="2.0" stroke-linecap="butt" clip-path="url(#id_0)" d="M55.190224 231.65L313.5 231.65L339.33096 231.65L365.16196 231.65L390.99292 231.65L416.8239 231.65L442.65488 231.65L468.48587 231.65L494.31683 231.65L520.1478 231.65L545.9788 231.65L571.80975 231.65" fill-rule="nonzero"/><path fill="#783f04" clip-path="url(#id_0)" d="M59.690224 231.65C59.690224 234.13528 57.675503 236.15 55.190224 236.15C52.70494 236.15 50.690224 234.13528 50.690224 231.65C50.690224 229.16472 52.70494 227.15 55.190224 227.15C57.675503 227.15 59.690224 229.16472 59.690224 231.65Z" fill-rule="nonzero"/><path fill="#783f04" clip-path="url(#id_0)" d="M318.0 231.65C318.0 234.13528 315.9853 236.15 313.5 236.15C311.0147 236.15 309.0 234.13528 309.0 231.65C309.0 229.16472 311.0147 227.15 313.5 227.15C315.9853 227.15 318.0 229.16472 318.0 231.65Z" fill-rule="nonzero"/><path fill="#783f04" clip-path="url(#id_0)" d="M343.83096 231.65C343.83096 234.13528 341.81625 236.15 339.33096 236.15C336.8457 236.15 334.83096 234.13528 334.83096 231.65C334.83096 229.16472 336.8457 227.15 339.33096 227.15C341.81625 227.15 343.83096 229.16472 343.83096 231.65Z" fill-rule="nonzero"/><path fill="#783f04" clip-path="url(#id_0)" d="M369.66196 189.21666C369.66196 191.70195 367.64725 193.71666 365.16196 193.71666C362.67667 193.71666 360.66196 191.70195 360.66196 189.21666C360.66196 186.73138 362.67667 184.71666 365.16196 184.71666C367.64725 184.71666 369.66196 186.73138 369.66196 189.21666Z" fill-rule="nonzero"/><path fill="#783f04" clip-path="url(#id_0)" d="M395.49292 146.78334C395.49292 149.26862 393.4782 151.28334 390.99292 151.28334C388.50766 151.28334 386.49292 149.26862 386.49292 146.78334C386.49292 144.29805 388.50766 142.28334 390.99292 142.28334C393.4782 142.28334 395.49292 144.29805 395.49292 146.78334Z" fill-rule="nonzero"/><path fill="#783f04" clip-path="url(#id_0)" d="M421.3239 104.35C421.3239 106.83528 419.3092 108.85 416.8239 108.85C414.33862 108.85 412.3239 106.83528 412.3239 104.35C412.3239 101.864716 414.33862 99.85 416.8239 99.85C419.3092 99.85 421.3239 101.864716 421.3239 104.35Z" fill-rule="nonzero"/><path fill="#783f04" clip-path="url(#id_0)" d="M447.15488 61.916668C447.15488 64.40195 445.14017 66.416664 442.65488 66.416664C440.16962 66.416664 438.15488 64.40195 438.15488 61.916668C438.15488 59.431385 440.16962 57.416668 442.65488 57.416668C445.14017 57.416668 447.15488 59.431385 447.15488 61.916668Z" fill-rule="nonzero"/><path fill="#783f04" clip-path="url(#id_0)" d="M472.98587 61.916668C472.98587 64.40195 470.97116 66.416664 468.48587 66.416664C466.00058 66.416664 463.98587 64.40195 463.98587 61.916668C463.98587 59.431385 466.00058 57.416668 468.48587 57.416668C470.97116 57.416668 472.98587 59.431385 472.98587 61.916668Z" fill-rule="nonzero"/><path fill="#783f04" clip-path="url(#id_0)" d="M498.81683 104.35C498.81683 106.83528 496.80212 108.85 494.31683 108.85C491.83157 108.85 489.81683 106.83528 489.81683 104.35C489.81683 101.864716 491.83157 99.85 494.31683 99.85C496.80212 99.85 498.81683 101.864716 498.81683 104.35Z" fill-rule="nonzero"/><path fill="#783f04" clip-path="url(#id_0)" d="M524.6478 146.78334C524.6478 149.26862 522.6331 151.28334 520.1478 151.28334C517.66254 151.28334 515.6478 149.26862 515.6478 146.78334C515.6478 144.29805 517.66254 142.28334 520.1478 142.28334C522.6331 142.28334 524.6478 144.29805 524.6478 146.78334Z" fill-rule="nonzero"/><path fill="#783f04" clip-path="url(#id_0)" d="M550.4788 189.21666C550.4788 191.70195 548.46405 193.71666 545.9788 193.71666C543.4935 193.71666 541.4788 191.70195 541.4788 189.21666C541.4788 186.73138 543.4935 184.71666 545.9788 184.71666C548.46405 184.71666 550.4788 186.73138 550.4788 189.21666Z" fill-rule="nonzero"/><path fill="#783f04" clip-path="url(#id_0)" d="M576.30975 231.65C576.30975 234.13528 574.29504 236.15 571.80975 236.15C569.3245 236.15 567.30975 234.13528 567.30975 231.65C567.30975 229.16472 569.3245 227.15 571.80975 227.15C574.29504 227.15 576.30975 229.16472 576.30975 231.65Z" fill-rule="nonzero"/><path fill="#38761d" clip-path="url(#id_0)" d="M55.190224 225.65L56.537308 229.7959L60.89656 229.7959L57.36985 232.3582L58.716934 236.5041L55.190224 233.9418L51.663513 236.5041L53.010597 232.3582L49.483883 229.7959L53.84314 229.7959Z" fill-rule="nonzero"/><path fill="#38761d" clip-path="url(#id_0)" d="M313.5 225.65L314.84708 229.7959L319.20633 229.7959L315.67963 232.3582L317.0267 236.5041L313.5 233.9418L309.9733 236.5041L311.32037 232.3582L307.79367 229.7959L312.15292 229.7959Z" fill-rule="nonzero"/><path fill="#38761d" clip-path="url(#id_0)" d="M339.33096 225.65L340.67807 229.7959L345.03732 229.7959L341.51062 232.3582L342.8577 236.5041L339.33096 233.9418L335.80426 236.5041L337.15134 232.3582L333.62463 229.7959L337.9839 229.7959Z" fill-rule="nonzero"/><path fill="#38761d" clip-path="url(#id_0)" d="M365.16196 225.65L366.50903 229.7959L370.8683 229.7959L367.34158 232.3582L368.68866 236.5041L365.16196 233.9418L361.63525 236.5041L362.98233 232.3582L359.45563 229.7959L363.81488 229.7959Z" fill-rule="nonzero"/><path fill="#38761d" clip-path="url(#id_0)" d="M390.99292 225.65L392.34003 229.7959L396.69928 229.7959L393.17255 232.3582L394.51965 236.5041L390.99292 233.9418L387.46622 236.5041L388.8133 232.3582L385.2866 229.7959L389.64584 229.7959Z" fill-rule="nonzero"/><path fill="#38761d" clip-path="url(#id_0)" d="M416.8239 225.65L418.171 229.7959L422.53024 229.7959L419.00354 232.3582L420.35062 236.5041L416.8239 233.9418L413.2972 236.5041L414.6443 232.3582L411.11758 229.7959L415.47684 229.7959Z" fill-rule="nonzero"/><path fill="#38761d" clip-path="url(#id_0)" d="M442.65488 225.65L444.00198 229.7959L448.36124 229.7959L444.8345 232.3582L446.1816 236.5041L442.65488 233.9418L439.12817 236.5041L440.47525 232.3582L436.94855 229.7959L441.3078 229.7959Z" fill-rule="nonzero"/><path fill="#38761d" clip-path="url(#id_0)" d="M468.48587 225.65L469.83295 229.7959L474.1922 229.7959L470.6655 232.3582L472.01257 236.5041L468.48587 233.9418L464.95917 236.5041L466.30624 232.3582L462.77954 229.7959L467.1388 229.7959Z" fill-rule="nonzero"/><path fill="#38761d" clip-path="url(#id_0)" d="M494.31683 225.65L495.66394 229.7959L500.0232 229.7959L496.49646 232.3582L497.84357 236.5041L494.31683 233.9418L490.79013 236.5041L492.1372 232.3582L488.6105 229.7959L492.96976 229.7959Z" fill-rule="nonzero"/><path fill="#38761d" clip-path="url(#id_0)" d="M520.1478 225.65L521.49493 229.7959L525.8542 229.7959L522.32745 232.3582L523.67456 236.5041L520.1478 233.9418L516.6211 236.5041L517.9682 232.3582L514.44147 229.7959L518.8007 229.7959Z" fill-rule="nonzero"/><path fill="#38761d" clip-path="url(#id_0)" d="M545.9788 225.65L547.32587 229.7959L551.6851 229.7959L548.15845 232.3582L549.5055 236.5041L545.9788 233.9418L542.4521 236.5041L543.7992 232.3582L540.27246 229.7959L544.6317 229.7959Z" fill-rule="nonzero"/><path fill="#38761d" clip-path="url(#id_0)" d="M571.80975 225.65L573.15686 229.7959L577.5161 229.7959L573.9894 232.3582L575.3365 236.5041L571.80975 233.9418L568.2831 236.5041L569.6301 232.3582L566.10345 229.7959L570.4627 229.7959Z" fill-rule="nonzero"/><path fill="#000000" d="M302.60938 323.08334L302.60938 315.50522L299.78125 315.50522L299.78125 314.4896L306.59375 314.4896L306.59375 315.50522L303.75 315.50522L303.75 323.08334L302.60938 323.08334ZM307.29688 315.70834L307.29688 314.4896L308.35938 314.4896L308.35938 315.70834L307.29688 315.70834ZM307.29688 323.08334L307.29688 316.8646L308.35938 316.8646L308.35938 323.08334L307.29688 323.08334ZM310.29688 323.08334L310.29688 316.8646L311.23438 316.8646L311.23438 317.7396Q311.53125 317.27084 312.01562 317.00522Q312.5 316.72397 313.125 316.72397Q313.8125 316.72397 314.25 317.00522Q314.70312 317.28647 314.875 317.8021Q315.625 316.72397 316.79688 316.72397Q317.73438 316.72397 318.21875 317.2396Q318.71875 317.7396 318.71875 318.81772L318.71875 323.08334L317.67188 323.08334L317.67188 319.16147Q317.67188 318.53647 317.5625 318.25522Q317.46875 317.97397 317.20312 317.8021Q316.9375 317.63022 316.5625 317.63022Q315.90625 317.63022 315.46875 318.06772Q315.04688 318.50522 315.04688 319.47397L315.04688 323.08334L313.98438 323.08334L313.98438 319.03647Q313.98438 318.33334 313.71875 317.9896Q313.46875 317.63022 312.89062 317.63022Q312.4375 317.63022 312.0625 317.8646Q311.6875 318.09897 311.51562 318.5521Q311.34375 319.00522 311.34375 319.84897L311.34375 323.08334L310.29688 323.08334ZM325.54688 321.08334L326.64062 321.20834Q326.39062 322.16147 325.6875 322.69272Q324.98438 323.22397 323.90625 323.22397Q322.54688 323.22397 321.73438 322.38022Q320.9375 321.53647 320.9375 320.02084Q320.9375 318.45834 321.75 317.59897Q322.5625 316.72397 323.84375 316.72397Q325.09375 316.72397 325.875 317.56772Q326.67188 318.41147 326.67188 319.95834Q326.67188 320.0521 326.67188 320.2396L322.03125 320.2396Q322.09375 321.27084 322.60938 321.81772Q323.125 322.34897 323.90625 322.34897Q324.48438 322.34897 324.89062 322.0521Q325.3125 321.7396 325.54688 321.08334ZM322.09375 319.38022L325.5625 319.38022Q325.5 318.58334 325.17188 318.19272Q324.65625 317.58334 323.85938 317.58334Q323.125 317.58334 322.625 318.06772Q322.14062 318.5521 322.09375 319.38022Z" fill-rule="nonzero"/><path fill="#000000" d="M33.05 273.84897Q33.05 272.31772 33.3625 271.39584Q33.675 270.45834 34.284374 269.95834Q34.909374 269.45834 35.846874 269.45834Q36.534374 269.45834 37.05 269.7396Q37.58125 270.02084 37.925 270.5521Q38.26875 271.06772 38.45625 271.81772Q38.64375 272.56772 38.64375 273.84897Q38.64375 275.3646 38.33125 276.28647Q38.034374 277.20834 37.409374 277.72397Q36.8 278.22397 35.846874 278.22397Q34.6125 278.22397 33.89375 277.33334Q33.05 276.27084 33.05 273.84897ZM34.128124 273.84897Q34.128124 275.95834 34.628124 276.66147Q35.128124 277.3646 35.846874 277.3646Q36.58125 277.3646 37.065624 276.66147Q37.565624 275.95834 37.565624 273.84897Q37.565624 271.72397 37.065624 271.03647Q36.58125 270.33334 35.83125 270.33334Q35.1125 270.33334 34.675 270.94272Q34.128124 271.72397 34.128124 273.84897Z" fill-rule="nonzero"/><path fill="#000000" d="M37.01875 235.65L35.971874 235.65L35.971874 228.93124Q35.58125 229.29062 34.95625 229.66562Q34.346874 230.025 33.8625 230.19687L33.8625 229.18124Q34.7375 228.75937 35.39375 228.18124Q36.065624 227.5875 36.346874 227.025L37.01875 227.025L37.01875 235.65Z" fill-rule="nonzero"/><path fill="#000000" d="M38.596874 192.20103L38.596874 193.21666L32.909374 193.21666Q32.909374 192.84166 33.034374 192.48228Q33.253124 191.90416 33.721874 191.34166Q34.20625 190.77916 35.1125 190.04478Q36.51875 188.88853 37.003124 188.21666Q37.503124 187.54478 37.503124 186.95103Q37.503124 186.32603 37.05 185.90416Q36.596874 185.46666 35.878124 185.46666Q35.1125 185.46666 34.659374 185.91978Q34.20625 186.37291 34.190624 187.18541L33.1125 187.07603Q33.221874 185.85728 33.940624 185.23228Q34.675 184.59166 35.909374 184.59166Q37.14375 184.59166 37.8625 185.27916Q38.58125 185.96666 38.58125 186.98228Q38.58125 187.49791 38.3625 187.99791Q38.159374 188.48228 37.659374 189.04478Q37.175 189.59166 36.05 190.54478Q35.096874 191.34166 34.815624 191.63853Q34.55 191.91978 34.378124 192.20103L38.596874 192.20103Z" fill-rule="nonzero"/><path fill="#000000" d="M33.05 148.51772L34.1125 148.37709Q34.284374 149.26772 34.721874 149.67397Q35.159374 150.06459 35.784374 150.06459Q36.534374 150.06459 37.05 149.54897Q37.565624 149.03334 37.565624 148.26772Q37.565624 147.54897 37.08125 147.08022Q36.6125 146.59584 35.878124 146.59584Q35.58125 146.59584 35.128124 146.72084L35.253124 145.78334Q35.3625 145.79897 35.425 145.79897Q36.096874 145.79897 36.628124 145.45522Q37.175 145.09584 37.175 144.36147Q37.175 143.78334 36.784374 143.40834Q36.39375 143.01772 35.76875 143.01772Q35.159374 143.01772 34.7375 143.40834Q34.33125 143.79897 34.221874 144.56459L33.159374 144.37709Q33.346874 143.33022 34.034374 142.75209Q34.721874 142.15834 35.7375 142.15834Q36.440624 142.15834 37.034374 142.47084Q37.628124 142.76772 37.940624 143.28334Q38.253124 143.79897 38.253124 144.39272Q38.253124 144.93959 37.95625 145.40834Q37.659374 145.86147 37.08125 146.12709Q37.83125 146.29897 38.253124 146.86147Q38.675 147.40834 38.675 148.25209Q38.675 149.37709 37.846874 150.15834Q37.034374 150.93959 35.784374 150.93959Q34.659374 150.93959 33.909374 150.26772Q33.159374 149.58022 33.05 148.51772Z" fill-rule="nonzero"/><path fill="#000000" d="M36.425 108.35L36.425 106.2875L32.70625 106.2875L32.70625 105.31875L36.628124 99.75625L37.4875 99.75625L37.4875 105.31875L38.64375 105.31875L38.64375 106.2875L37.4875 106.2875L37.4875 108.35L36.425 108.35ZM36.425 105.31875L36.425 101.45937L33.7375 105.31875L36.425 105.31875Z" fill-rule="nonzero"/><path fill="#000000" d="M33.05 63.666664L34.159374 63.572914Q34.284374 64.385414 34.721874 64.791664Q35.175 65.197914 35.815624 65.197914Q36.565624 65.197914 37.096874 64.61979Q37.628124 64.041664 37.628124 63.104164Q37.628124 62.197914 37.1125 61.68229Q36.6125 61.15104 35.784374 61.15104Q35.284374 61.15104 34.8625 61.385414Q34.45625 61.61979 34.221874 61.979164L33.2375 61.854164L34.065624 57.447914L38.346874 57.447914L38.346874 58.447914L34.909374 58.447914L34.45625 60.760414Q35.221874 60.21354 36.065624 60.21354Q37.190624 60.21354 37.95625 60.99479Q38.7375 61.77604 38.7375 63.010414Q38.7375 64.166664 38.065624 65.02604Q37.2375 66.05729 35.815624 66.05729Q34.64375 66.05729 33.89375 65.40104Q33.159374 64.74479 33.05 63.666664Z" fill-rule="nonzero"/><path fill="#000000" d="M35.190224 286.84897Q35.190224 285.31772 35.502724 284.39584Q35.815224 283.45834 36.4246 282.95834Q37.0496 282.45834 37.9871 282.45834Q38.6746 282.45834 39.190224 282.7396Q39.721474 283.02084 40.065224 283.5521Q40.408974 284.06772 40.596474 284.81772Q40.783974 285.56772 40.783974 286.84897Q40.783974 288.3646 40.471474 289.28647Q40.1746 290.20834 39.5496 290.72397Q38.940224 291.22397 37.9871 291.22397Q36.752724 291.22397 36.033974 290.33334Q35.190224 289.27084 35.190224 286.84897ZM36.26835 286.84897Q36.26835 288.95834 36.76835 289.66147Q37.26835 290.3646 37.9871 290.3646Q38.721474 290.3646 39.20585 289.66147Q39.70585 288.95834 39.70585 286.84897Q39.70585 284.72397 39.20585 284.03647Q38.721474 283.33334 37.971474 283.33334Q37.252724 283.33334 36.815224 283.94272Q36.26835 284.72397 36.26835 286.84897ZM42.76835 286.06772L42.76835 284.8646L43.971474 284.8646L43.971474 286.06772L42.76835 286.06772ZM42.76835 291.08334L42.76835 289.88022L43.971474 289.88022L43.971474 291.08334L42.76835 291.08334ZM45.190224 286.84897Q45.190224 285.31772 45.502724 284.39584Q45.815224 283.45834 46.4246 282.95834Q47.0496 282.45834 47.9871 282.45834Q48.6746 282.45834 49.190224 282.7396Q49.721474 283.02084 50.065224 283.5521Q50.408974 284.06772 50.596474 284.81772Q50.783974 285.56772 50.783974 286.84897Q50.783974 288.3646 50.471474 289.28647Q50.1746 290.20834 49.5496 290.72397Q48.940224 291.22397 47.9871 291.22397Q46.752724 291.22397 46.033974 290.33334Q45.190224 289.27084 45.190224 286.84897ZM46.26835 286.84897Q46.26835 288.95834 46.76835 289.66147Q47.26835 290.3646 47.9871 290.3646Q48.721474 290.3646 49.20585 289.66147Q49.70585 288.95834 49.70585 286.84897Q49.70585 284.72397 49.20585 284.03647Q48.721474 283.33334 47.971474 283.33334Q47.252724 283.33334 46.815224 283.94272Q46.26835 284.72397 46.26835 286.84897ZM52.190224 286.84897Q52.190224 285.31772 52.502724 284.39584Q52.815224 283.45834 53.4246 282.95834Q54.0496 282.45834 54.9871 282.45834Q55.6746 282.45834 56.190224 282.7396Q56.721474 283.02084 57.065224 283.5521Q57.408974 284.06772 57.596474 284.81772Q57.783974 285.56772 57.783974 286.84897Q57.783974 288.3646 57.471474 289.28647Q57.1746 290.20834 56.5496 290.72397Q55.940224 291.22397 54.9871 291.22397Q53.752724 291.22397 53.033974 290.33334Q52.190224 289.27084 52.190224 286.84897ZM53.26835 286.84897Q53.26835 288.95834 53.76835 289.66147Q54.26835 290.3646 54.9871 290.3646Q55.721474 290.3646 56.20585 289.66147Q56.70585 288.95834 56.70585 286.84897Q56.70585 284.72397 56.20585 284.03647Q55.721474 283.33334 54.971474 283.33334Q54.252724 283.33334 53.815224 283.94272Q53.26835 284.72397 53.26835 286.84897ZM59.76835 286.06772L59.76835 284.8646L60.971474 284.8646L60.971474 286.06772L59.76835 286.06772ZM59.76835 291.08334L59.76835 289.88022L60.971474 289.88022L60.971474 291.08334L59.76835 291.08334ZM62.190224 286.84897Q62.190224 285.31772 62.502724 284.39584Q62.815224 283.45834 63.4246 282.95834Q64.0496 282.45834 64.9871 282.45834Q65.6746 282.45834 66.19022 282.7396Q66.72147 283.02084 67.06522 283.5521Q67.40897 284.06772 67.59647 284.81772Q67.78397 285.56772 67.78397 286.84897Q67.78397 288.3646 67.47147 289.28647Q67.1746 290.20834 66.5496 290.72397Q65.94022 291.22397 64.9871 291.22397Q63.752724 291.22397 63.033974 290.33334Q62.190224 289.27084 62.190224 286.84897ZM63.26835 286.84897Q63.26835 288.95834 63.76835 289.66147Q64.26835 290.3646 64.9871 290.3646Q65.72147 290.3646 66.20585 289.66147Q66.70585 288.95834 66.70585 286.84897Q66.70585 284.72397 66.20585 284.03647Q65.72147 283.33334 64.97147 283.33334Q64.25272 283.33334 63.815224 283.94272Q63.26835 284.72397 63.26835 286.84897ZM69.19022 286.84897Q69.19022 285.31772 69.50272 284.39584Q69.81522 283.45834 70.4246 282.95834Q71.0496 282.45834 71.9871 282.45834Q72.6746 282.45834 73.19022 282.7396Q73.72147 283.02084 74.06522 283.5521Q74.40897 284.06772 74.59647 284.81772Q74.78397 285.56772 74.78397 286.84897Q74.78397 288.3646 74.47147 289.28647Q74.1746 290.20834 73.5496 290.72397Q72.94022 291.22397 71.9871 291.22397Q70.75272 291.22397 70.03397 290.33334Q69.19022 289.27084 69.19022 286.84897ZM70.26835 286.84897Q70.26835 288.95834 70.76835 289.66147Q71.26835 290.3646 71.9871 290.3646Q72.72147 290.3646 73.20585 289.66147Q73.70585 288.95834 73.70585 286.84897Q73.70585 284.72397 73.20585 284.03647Q72.72147 283.33334 71.97147 283.33334Q71.25272 283.33334 70.81522 283.94272Q70.26835 284.72397 70.26835 286.84897Z" fill-rule="nonzero"/><path fill="#000000" d="M164.34511 286.84897Q164.34511 285.31772 164.65761 284.39584Q164.97011 283.45834 165.57948 282.95834Q166.20448 282.45834 167.14198 282.45834Q167.82948 282.45834 168.34511 282.7396Q168.87636 283.02084 169.22011 283.5521Q169.56386 284.06772 169.75136 284.81772Q169.93886 285.56772 169.93886 286.84897Q169.93886 288.3646 169.62636 289.28647Q169.32948 290.20834 168.70448 290.72397Q168.09511 291.22397 167.14198 291.22397Q165.90761 291.22397 165.18886 290.33334Q164.34511 289.27084 164.34511 286.84897ZM165.42323 286.84897Q165.42323 288.95834 165.92323 289.66147Q166.42323 290.3646 167.14198 290.3646Q167.87636 290.3646 168.36073 289.66147Q168.86073 288.95834 168.86073 286.84897Q168.86073 284.72397 168.36073 284.03647Q167.87636 283.33334 167.12636 283.33334Q166.40761 283.33334 165.97011 283.94272Q165.42323 284.72397 165.42323 286.84897ZM171.92323 286.06772L171.92323 284.8646L173.12636 284.8646L173.12636 286.06772L171.92323 286.06772ZM171.92323 291.08334L171.92323 289.88022L173.12636 289.88022L173.12636 291.08334L171.92323 291.08334ZM174.34511 286.84897Q174.34511 285.31772 174.65761 284.39584Q174.97011 283.45834 175.57948 282.95834Q176.20448 282.45834 177.14198 282.45834Q177.82948 282.45834 178.34511 282.7396Q178.87636 283.02084 179.22011 283.5521Q179.56386 284.06772 179.75136 284.81772Q179.93886 285.56772 179.93886 286.84897Q179.93886 288.3646 179.62636 289.28647Q179.32948 290.20834 178.70448 290.72397Q178.09511 291.22397 177.14198 291.22397Q175.90761 291.22397 175.18886 290.33334Q174.34511 289.27084 174.34511 286.84897ZM175.42323 286.84897Q175.42323 288.95834 175.92323 289.66147Q176.42323 290.3646 177.14198 290.3646Q177.87636 290.3646 178.36073 289.66147Q178.86073 288.95834 178.86073 286.84897Q178.86073 284.72397 178.36073 284.03647Q177.87636 283.33334 177.12636 283.33334Q176.40761 283.33334 175.97011 283.94272Q175.42323 284.72397 175.42323 286.84897ZM181.34511 286.84897Q181.34511 285.31772 181.65761 284.39584Q181.97011 283.45834 182.57948 282.95834Q183.20448 282.45834 184.14198 282.45834Q184.82948 282.45834 185.34511 282.7396Q185.87636 283.02084 186.22011 283.5521Q186.56386 284.06772 186.75136 284.81772Q186.93886 285.56772 186.93886 286.84897Q186.93886 288.3646 186.62636 289.28647Q186.32948 290.20834 185.70448 290.72397Q185.09511 291.22397 184.14198 291.22397Q182.90761 291.22397 182.18886 290.33334Q181.34511 289.27084 181.34511 286.84897ZM182.42323 286.84897Q182.42323 288.95834 182.92323 289.66147Q183.42323 290.3646 184.14198 290.3646Q184.87636 290.3646 185.36073 289.66147Q185.86073 288.95834 185.86073 286.84897Q185.86073 284.72397 185.36073 284.03647Q184.87636 283.33334 184.12636 283.33334Q183.40761 283.33334 182.97011 283.94272Q182.42323 284.72397 182.42323 286.84897ZM188.92323 286.06772L188.92323 284.8646L190.12636 284.8646L190.12636 286.06772L188.92323 286.06772ZM188.92323 291.08334L188.92323 289.88022L190.12636 289.88022L190.12636 291.08334L188.92323 291.08334ZM191.34511 288.81772L192.40761 288.6771Q192.57948 289.56772 193.01698 289.97397Q193.45448 290.3646 194.07948 290.3646Q194.82948 290.3646 195.34511 289.84897Q195.86073 289.33334 195.86073 288.56772Q195.86073 287.84897 195.37636 287.38022Q194.90761 286.89584 194.17323 286.89584Q193.87636 286.89584 193.42323 287.02084L193.54823 286.08334Q193.65761 286.09897 193.72011 286.09897Q194.39198 286.09897 194.92323 285.75522Q195.47011 285.39584 195.47011 284.66147Q195.47011 284.08334 195.07948 283.70834Q194.68886 283.31772 194.06386 283.31772Q193.45448 283.31772 193.03261 283.70834Q192.62636 284.09897 192.51698 284.8646L191.45448 284.6771Q191.64198 283.63022 192.32948 283.0521Q193.01698 282.45834 194.03261 282.45834Q194.73573 282.45834 195.32948 282.77084Q195.92323 283.06772 196.23573 283.58334Q196.54823 284.09897 196.54823 284.69272Q196.54823 285.2396 196.25136 285.70834Q195.95448 286.16147 195.37636 286.4271Q196.12636 286.59897 196.54823 287.16147Q196.97011 287.70834 196.97011 288.5521Q196.97011 289.6771 196.14198 290.45834Q195.32948 291.2396 194.07948 291.2396Q192.95448 291.2396 192.20448 290.56772Q191.45448 289.88022 191.34511 288.81772ZM198.34511 286.84897Q198.34511 285.31772 198.65761 284.39584Q198.97011 283.45834 199.57948 282.95834Q200.20448 282.45834 201.14198 282.45834Q201.82948 282.45834 202.34511 282.7396Q202.87636 283.02084 203.22011 283.5521Q203.56386 284.06772 203.75136 284.81772Q203.93886 285.56772 203.93886 286.84897Q203.93886 288.3646 203.62636 289.28647Q203.32948 290.20834 202.70448 290.72397Q202.09511 291.22397 201.14198 291.22397Q199.90761 291.22397 199.18886 290.33334Q198.34511 289.27084 198.34511 286.84897ZM199.42323 286.84897Q199.42323 288.95834 199.92323 289.66147Q200.42323 290.3646 201.14198 290.3646Q201.87636 290.3646 202.36073 289.66147Q202.86073 288.95834 202.86073 286.84897Q202.86073 284.72397 202.36073 284.03647Q201.87636 283.33334 201.12636 283.33334Q200.40761 283.33334 199.97011 283.94272Q199.42323 284.72397 199.42323 286.84897Z" fill-rule="nonzero"/><path fill="#000000" d="M293.5 286.84897Q293.5 285.31772 293.8125 284.39584Q294.125 283.45834 294.73438 282.95834Q295.35938 282.45834 296.29688 282.45834Q296.98438 282.45834 297.5 282.7396Q298.03125 283.02084 298.375 283.5521Q298.71875 284.06772 298.90625 284.81772Q299.09375 285.56772 299.09375 286.84897Q299.09375 288.3646 298.78125 289.28647Q298.48438 290.20834 297.85938 290.72397Q297.25 291.22397 296.29688 291.22397Q295.0625 291.22397 294.34375 290.33334Q293.5 289.27084 293.5 286.84897ZM294.57812 286.84897Q294.57812 288.95834 295.07812 289.66147Q295.57812 290.3646 296.29688 290.3646Q297.03125 290.3646 297.51562 289.66147Q298.01562 288.95834 298.01562 286.84897Q298.01562 284.72397 297.51562 284.03647Q297.03125 283.33334 296.28125 283.33334Q295.5625 283.33334 295.125 283.94272Q294.57812 284.72397 294.57812 286.84897ZM301.07812 286.06772L301.07812 284.8646L302.28125 284.8646L302.28125 286.06772L301.07812 286.06772ZM301.07812 291.08334L301.07812 289.88022L302.28125 289.88022L302.28125 291.08334L301.07812 291.08334ZM303.5 286.84897Q303.5 285.31772 303.8125 284.39584Q304.125 283.45834 304.73438 282.95834Q305.35938 282.45834 306.29688 282.45834Q306.98438 282.45834 307.5 282.7396Q308.03125 283.02084 308.375 283.5521Q308.71875 284.06772 308.90625 284.81772Q309.09375 285.56772 309.09375 286.84897Q309.09375 288.3646 308.78125 289.28647Q308.48438 290.20834 307.85938 290.72397Q307.25 291.22397 306.29688 291.22397Q305.0625 291.22397 304.34375 290.33334Q303.5 289.27084 303.5 286.84897ZM304.57812 286.84897Q304.57812 288.95834 305.07812 289.66147Q305.57812 290.3646 306.29688 290.3646Q307.03125 290.3646 307.51562 289.66147Q308.01562 288.95834 308.01562 286.84897Q308.01562 284.72397 307.51562 284.03647Q307.03125 283.33334 306.28125 283.33334Q305.5625 283.33334 305.125 283.94272Q304.57812 284.72397 304.57812 286.84897ZM314.46875 291.08334L313.42188 291.08334L313.42188 284.3646Q313.03125 284.72397 312.40625 285.09897Q311.79688 285.45834 311.3125 285.63022L311.3125 284.6146Q312.1875 284.19272 312.84375 283.6146Q313.51562 283.02084 313.79688 282.45834L314.46875 282.45834L314.46875 291.08334ZM318.07812 286.06772L318.07812 284.8646L319.28125 284.8646L319.28125 286.06772L318.07812 286.06772ZM318.07812 291.08334L318.07812 289.88022L319.28125 289.88022L319.28125 291.08334L318.07812 291.08334ZM320.5 286.84897Q320.5 285.31772 320.8125 284.39584Q321.125 283.45834 321.73438 282.95834Q322.35938 282.45834 323.29688 282.45834Q323.98438 282.45834 324.5 282.7396Q325.03125 283.02084 325.375 283.5521Q325.71875 284.06772 325.90625 284.81772Q326.09375 285.56772 326.09375 286.84897Q326.09375 288.3646 325.78125 289.28647Q325.48438 290.20834 324.85938 290.72397Q324.25 291.22397 323.29688 291.22397Q322.0625 291.22397 321.34375 290.33334Q320.5 289.27084 320.5 286.84897ZM321.57812 286.84897Q321.57812 288.95834 322.07812 289.66147Q322.57812 290.3646 323.29688 290.3646Q324.03125 290.3646 324.51562 289.66147Q325.01562 288.95834 325.01562 286.84897Q325.01562 284.72397 324.51562 284.03647Q324.03125 283.33334 323.28125 283.33334Q322.5625 283.33334 322.125 283.94272Q321.57812 284.72397 321.57812 286.84897ZM327.5 286.84897Q327.5 285.31772 327.8125 284.39584Q328.125 283.45834 328.73438 282.95834Q329.35938 282.45834 330.29688 282.45834Q330.98438 282.45834 331.5 282.7396Q332.03125 283.02084 332.375 283.5521Q332.71875 284.06772 332.90625 284.81772Q333.09375 285.56772 333.09375 286.84897Q333.09375 288.3646 332.78125 289.28647Q332.48438 290.20834 331.85938 290.72397Q331.25 291.22397 330.29688 291.22397Q329.0625 291.22397 328.34375 290.33334Q327.5 289.27084 327.5 286.84897ZM328.57812 286.84897Q328.57812 288.95834 329.07812 289.66147Q329.57812 290.3646 330.29688 290.3646Q331.03125 290.3646 331.51562 289.66147Q332.01562 288.95834 332.01562 286.84897Q332.01562 284.72397 331.51562 284.03647Q331.03125 283.33334 330.28125 283.33334Q329.5625 283.33334 329.125 283.94272Q328.57812 284.72397 328.57812 286.84897Z" fill-rule="nonzero"/><path fill="#000000" d="M422.65488 286.84897Q422.65488 285.31772 422.96738 284.39584Q423.27988 283.45834 423.88925 282.95834Q424.51425 282.45834 425.45175 282.45834Q426.13925 282.45834 426.65488 282.7396Q427.18613 283.02084 427.52988 283.5521Q427.87363 284.06772 428.06113 284.81772Q428.24863 285.56772 428.24863 286.84897Q428.24863 288.3646 427.93613 289.28647Q427.63925 290.20834 427.01425 290.72397Q426.40488 291.22397 425.45175 291.22397Q424.21738 291.22397 423.49863 290.33334Q422.65488 289.27084 422.65488 286.84897ZM423.733 286.84897Q423.733 288.95834 424.233 289.66147Q424.733 290.3646 425.45175 290.3646Q426.18613 290.3646 426.6705 289.66147Q427.1705 288.95834 427.1705 286.84897Q427.1705 284.72397 426.6705 284.03647Q426.18613 283.33334 425.43613 283.33334Q424.71738 283.33334 424.27988 283.94272Q423.733 284.72397 423.733 286.84897ZM430.233 286.06772L430.233 284.8646L431.43613 284.8646L431.43613 286.06772L430.233 286.06772ZM430.233 291.08334L430.233 289.88022L431.43613 289.88022L431.43613 291.08334L430.233 291.08334ZM432.65488 286.84897Q432.65488 285.31772 432.96738 284.39584Q433.27988 283.45834 433.88925 282.95834Q434.51425 282.45834 435.45175 282.45834Q436.13925 282.45834 436.65488 282.7396Q437.18613 283.02084 437.52988 283.5521Q437.87363 284.06772 438.06113 284.81772Q438.24863 285.56772 438.24863 286.84897Q438.24863 288.3646 437.93613 289.28647Q437.63925 290.20834 437.01425 290.72397Q436.40488 291.22397 435.45175 291.22397Q434.21738 291.22397 433.49863 290.33334Q432.65488 289.27084 432.65488 286.84897ZM433.733 286.84897Q433.733 288.95834 434.233 289.66147Q434.733 290.3646 435.45175 290.3646Q436.18613 290.3646 436.6705 289.66147Q437.1705 288.95834 437.1705 286.84897Q437.1705 284.72397 436.6705 284.03647Q436.18613 283.33334 435.43613 283.33334Q434.71738 283.33334 434.27988 283.94272Q433.733 284.72397 433.733 286.84897ZM443.62363 291.08334L442.57675 291.08334L442.57675 284.3646Q442.18613 284.72397 441.56113 285.09897Q440.95175 285.45834 440.46738 285.63022L440.46738 284.6146Q441.34238 284.19272 441.99863 283.6146Q442.6705 283.02084 442.95175 282.45834L443.62363 282.45834L443.62363 291.08334ZM447.233 286.06772L447.233 284.8646L448.43613 284.8646L448.43613 286.06772L447.233 286.06772ZM447.233 291.08334L447.233 289.88022L448.43613 289.88022L448.43613 291.08334L447.233 291.08334ZM449.65488 288.81772L450.71738 288.6771Q450.88925 289.56772 451.32675 289.97397Q451.76425 290.3646 452.38925 290.3646Q453.13925 290.3646 453.65488 289.84897Q454.1705 289.33334 454.1705 288.56772Q454.1705 287.84897 453.68613 287.38022Q453.21738 286.89584 452.483 286.89584Q452.18613 286.89584 451.733 287.02084L451.858 286.08334Q451.96738 286.09897 452.02988 286.09897Q452.70175 286.09897 453.233 285.75522Q453.77988 285.39584 453.77988 284.66147Q453.77988 284.08334 453.38925 283.70834Q452.99863 283.31772 452.37363 283.31772Q451.76425 283.31772 451.34238 283.70834Q450.93613 284.09897 450.82675 284.8646L449.76425 284.6771Q449.95175 283.63022 450.63925 283.0521Q451.32675 282.45834 452.34238 282.45834Q453.0455 282.45834 453.63925 282.77084Q454.233 283.06772 454.5455 283.58334Q454.858 284.09897 454.858 284.69272Q454.858 285.2396 454.56113 285.70834Q454.26425 286.16147 453.68613 286.4271Q454.43613 286.59897 454.858 287.16147Q455.27988 287.70834 455.27988 288.5521Q455.27988 289.6771 454.45175 290.45834Q453.63925 291.2396 452.38925 291.2396Q451.26425 291.2396 450.51425 290.56772Q449.76425 289.88022 449.65488 288.81772ZM456.65488 286.84897Q456.65488 285.31772 456.96738 284.39584Q457.27988 283.45834 457.88925 282.95834Q458.51425 282.45834 459.45175 282.45834Q460.13925 282.45834 460.65488 282.7396Q461.18613 283.02084 461.52988 283.5521Q461.87363 284.06772 462.06113 284.81772Q462.24863 285.56772 462.24863 286.84897Q462.24863 288.3646 461.93613 289.28647Q461.63925 290.20834 461.01425 290.72397Q460.40488 291.22397 459.45175 291.22397Q458.21738 291.22397 457.49863 290.33334Q456.65488 289.27084 456.65488 286.84897ZM457.733 286.84897Q457.733 288.95834 458.233 289.66147Q458.733 290.3646 459.45175 290.3646Q460.18613 290.3646 460.6705 289.66147Q461.1705 288.95834 461.1705 286.84897Q461.1705 284.72397 460.6705 284.03647Q460.18613 283.33334 459.43613 283.33334Q458.71738 283.33334 458.27988 283.94272Q457.733 284.72397 457.733 286.84897Z" fill-rule="nonzero"/><path fill="#000000" d="M551.80975 286.84897Q551.80975 285.31772 552.12225 284.39584Q552.43475 283.45834 553.0441 282.95834Q553.6691 282.45834 554.6066 282.45834Q555.2941 282.45834 555.80975 282.7396Q556.341 283.02084 556.68475 283.5521Q557.0285 284.06772 557.216 284.81772Q557.4035 285.56772 557.4035 286.84897Q557.4035 288.3646 557.091 289.28647Q556.7941 290.20834 556.1691 290.72397Q555.55975 291.22397 554.6066 291.22397Q553.37225 291.22397 552.6535 290.33334Q551.80975 289.27084 551.80975 286.84897ZM552.8879 286.84897Q552.8879 288.95834 553.3879 289.66147Q553.8879 290.3646 554.6066 290.3646Q555.341 290.3646 555.8254 289.66147Q556.3254 288.95834 556.3254 286.84897Q556.3254 284.72397 555.8254 284.03647Q555.341 283.33334 554.591 283.33334Q553.87225 283.33334 553.43475 283.94272Q552.8879 284.72397 552.8879 286.84897ZM559.3879 286.06772L559.3879 284.8646L560.591 284.8646L560.591 286.06772L559.3879 286.06772ZM559.3879 291.08334L559.3879 289.88022L560.591 289.88022L560.591 291.08334L559.3879 291.08334ZM561.80975 286.84897Q561.80975 285.31772 562.12225 284.39584Q562.43475 283.45834 563.0441 282.95834Q563.6691 282.45834 564.6066 282.45834Q565.2941 282.45834 565.80975 282.7396Q566.341 283.02084 566.68475 283.5521Q567.0285 284.06772 567.216 284.81772Q567.4035 285.56772 567.4035 286.84897Q567.4035 288.3646 567.091 289.28647Q566.7941 290.20834 566.1691 290.72397Q565.55975 291.22397 564.6066 291.22397Q563.37225 291.22397 562.6535 290.33334Q561.80975 289.27084 561.80975 286.84897ZM562.8879 286.84897Q562.8879 288.95834 563.3879 289.66147Q563.8879 290.3646 564.6066 290.3646Q565.341 290.3646 565.8254 289.66147Q566.3254 288.95834 566.3254 286.84897Q566.3254 284.72397 565.8254 284.03647Q565.341 283.33334 564.591 283.33334Q563.87225 283.33334 563.43475 283.94272Q562.8879 284.72397 562.8879 286.84897ZM574.3566 290.06772L574.3566 291.08334L568.6691 291.08334Q568.6691 290.70834 568.7941 290.34897Q569.0129 289.77084 569.4816 289.20834Q569.966 288.64584 570.87225 287.91147Q572.2785 286.75522 572.7629 286.08334Q573.2629 285.41147 573.2629 284.81772Q573.2629 284.19272 572.80975 283.77084Q572.3566 283.33334 571.6379 283.33334Q570.87225 283.33334 570.4191 283.78647Q569.966 284.2396 569.9504 285.0521L568.87225 284.94272Q568.9816 283.72397 569.7004 283.09897Q570.43475 282.45834 571.6691 282.45834Q572.9035 282.45834 573.62225 283.14584Q574.341 283.83334 574.341 284.84897Q574.341 285.3646 574.12225 285.8646Q573.9191 286.34897 573.4191 286.91147Q572.93475 287.45834 571.80975 288.41147Q570.8566 289.20834 570.5754 289.50522Q570.30975 289.78647 570.1379 290.06772L574.3566 290.06772ZM576.3879 286.06772L576.3879 284.8646L577.591 284.8646L577.591 286.06772L576.3879 286.06772ZM576.3879 291.08334L576.3879 289.88022L577.591 289.88022L577.591 291.08334L576.3879 291.08334ZM578.80975 286.84897Q578.80975 285.31772 579.12225 284.39584Q579.43475 283.45834 580.0441 282.95834Q580.6691 282.45834 581.6066 282.45834Q582.2941 282.45834 582.80975 282.7396Q583.341 283.02084 583.68475 283.5521Q584.0285 284.06772 584.216 284.81772Q584.4035 285.56772 584.4035 286.84897Q584.4035 288.3646 584.091 289.28647Q583.7941 290.20834 583.1691 290.72397Q582.55975 291.22397 581.6066 291.22397Q580.37225 291.22397 579.6535 290.33334Q578.80975 289.27084 578.80975 286.84897ZM579.8879 286.84897Q579.8879 288.95834 580.3879 289.66147Q580.8879 290.3646 581.6066 290.3646Q582.341 290.3646 582.8254 289.66147Q583.3254 288.95834 583.3254 286.84897Q583.3254 284.72397 582.8254 284.03647Q582.341 283.33334 581.591 283.33334Q580.87225 283.33334 580.43475 283.94272Q579.8879 284.72397 579.8879 286.84897ZM585.80975 286.84897Q585.80975 285.31772 586.12225 284.39584Q586.43475 283.45834 587.0441 282.95834Q587.6691 282.45834 588.6066 282.45834Q589.2941 282.45834 589.80975 282.7396Q590.341 283.02084 590.68475 283.5521Q591.0285 284.06772 591.216 284.81772Q591.4035 285.56772 591.4035 286.84897Q591.4035 288.3646 591.091 289.28647Q590.7941 290.20834 590.1691 290.72397Q589.55975 291.22397 588.6066 291.22397Q587.37225 291.22397 586.6535 290.33334Q585.80975 289.27084 585.80975 286.84897ZM586.8879 286.84897Q586.8879 288.95834 587.3879 289.66147Q587.8879 290.3646 588.6066 290.3646Q589.341 290.3646 589.8254 289.66147Q590.3254 288.95834 590.3254 286.84897Q590.3254 284.72397 589.8254 284.03647Q589.341 283.33334 588.591 283.33334Q587.87225 283.33334 587.43475 283.94272Q586.8879 284.72397 586.8879 286.84897Z" fill-rule="nonzero"/><path fill="#783f04" d="M203.5 345.45C203.5 348.7637 200.8137 351.45 197.5 351.45C194.1863 351.45 191.5 348.7637 191.5 345.45C191.5 342.1363 194.1863 339.45 197.5 339.45C200.8137 339.45 203.5 342.1363 203.5 345.45Z" fill-rule="nonzero"/><path fill="#1a1a1a" d="M212.42188 349.45L212.42188 340.85626L215.67188 340.85626Q216.51562 340.85626 216.96875 340.9344Q217.60938 341.04376 218.03125 341.34064Q218.46875 341.6375 218.71875 342.16876Q218.98438 342.7 218.98438 343.34064Q218.98438 344.4344 218.28125 345.2Q217.59375 345.95 215.76562 345.95L213.5625 345.95L213.5625 349.45L212.42188 349.45ZM213.5625 344.95L215.78125 344.95Q216.89062 344.95 217.34375 344.54376Q217.8125 344.1219 217.8125 343.3719Q217.8125 342.84064 217.53125 342.46564Q217.26562 342.075 216.82812 341.95Q216.53125 341.8719 215.76562 341.8719L213.5625 341.8719L213.5625 344.95ZM220.28125 349.45L220.28125 343.23126L221.23438 343.23126L221.23438 344.16876Q221.59375 343.5125 221.89062 343.3094Q222.20312 343.09064 222.57812 343.09064Q223.10938 343.09064 223.65625 343.41876L223.29688 344.40314Q222.90625 344.16876 222.53125 344.16876Q222.17188 344.16876 221.89062 344.3875Q221.625 344.59064 221.51562 344.96564Q221.32812 345.52814 221.32812 346.1844L221.32812 349.45L220.28125 349.45ZM223.90625 346.34064Q223.90625 344.60626 224.85938 343.77814Q225.65625 343.09064 226.8125 343.09064Q228.09375 343.09064 228.90625 343.9344Q229.73438 344.7625 229.73438 346.2469Q229.73438 347.45 229.375 348.1375Q229.01562 348.825 228.3125 349.21564Q227.625 349.59064 226.8125 349.59064Q225.51562 349.59064 224.70312 348.7625Q223.90625 347.91876 223.90625 346.34064ZM224.98438 346.34064Q224.98438 347.52814 225.5 348.1219Q226.03125 348.71564 226.8125 348.71564Q227.60938 348.71564 228.125 348.1219Q228.64062 347.52814 228.64062 346.3094Q228.64062 345.15314 228.10938 344.5594Q227.59375 343.96564 226.8125 343.96564Q226.03125 343.96564 225.5 344.5594Q224.98438 345.1375 224.98438 346.34064ZM235.32812 349.45L235.32812 348.66876Q234.73438 349.59064 233.59375 349.59064Q232.84375 349.59064 232.21875 349.1844Q231.59375 348.7625 231.25 348.02814Q230.90625 347.29376 230.90625 346.34064Q230.90625 345.41876 231.21875 344.65314Q231.53125 343.8875 232.15625 343.4969Q232.78125 343.09064 233.54688 343.09064Q234.10938 343.09064 234.54688 343.325Q234.98438 343.5594 235.26562 343.9344L235.26562 340.85626L236.3125 340.85626L236.3125 349.45L235.32812 349.45ZM232.0 346.34064Q232.0 347.54376 232.5 348.1375Q233.0 348.71564 233.6875 348.71564Q234.375 348.71564 234.85938 348.15314Q235.34375 347.59064 235.34375 346.4344Q235.34375 345.15314 234.84375 344.5594Q234.35938 343.96564 233.64062 343.96564Q232.9375 343.96564 232.46875 344.54376Q232.0 345.10626 232.0 346.34064ZM242.375 349.45L242.375 348.52814Q241.64062 349.59064 240.39062 349.59064Q239.84375 349.59064 239.35938 349.3875Q238.89062 349.16876 238.65625 348.85626Q238.42188 348.52814 238.32812 348.0594Q238.26562 347.7625 238.26562 347.075L238.26562 343.23126L239.32812 343.23126L239.32812 346.6844Q239.32812 347.4969 239.39062 347.79376Q239.48438 348.2 239.79688 348.45Q240.125 348.6844 240.60938 348.6844Q241.07812 348.6844 241.48438 348.45Q241.90625 348.2 242.07812 347.77814Q242.26562 347.35626 242.26562 346.5594L242.26562 343.23126L243.3125 343.23126L243.3125 349.45L242.375 349.45ZM249.35938 347.16876L250.39062 347.3094Q250.21875 348.3719 249.51562 348.98126Q248.8125 349.59064 247.79688 349.59064Q246.51562 349.59064 245.73438 348.7625Q244.96875 347.91876 244.96875 346.35626Q244.96875 345.35626 245.29688 344.60626Q245.64062 343.84064 246.3125 343.46564Q247.0 343.09064 247.8125 343.09064Q248.8125 343.09064 249.45312 343.60626Q250.10938 344.10626 250.29688 345.0594L249.26562 345.21564Q249.125 344.59064 248.75 344.27814Q248.375 343.95 247.84375 343.95Q247.04688 343.95 246.54688 344.52814Q246.04688 345.09064 246.04688 346.325Q246.04688 347.59064 246.53125 348.15314Q247.01562 348.71564 247.78125 348.71564Q248.40625 348.71564 248.8125 348.34064Q249.23438 347.96564 249.35938 347.16876ZM255.54688 347.45L256.64062 347.575Q256.39062 348.52814 255.6875 349.0594Q254.98438 349.59064 253.90625 349.59064Q252.54688 349.59064 251.73438 348.7469Q250.9375 347.90314 250.9375 346.3875Q250.9375 344.825 251.75 343.96564Q252.5625 343.09064 253.84375 343.09064Q255.09375 343.09064 255.875 343.9344Q256.67188 344.77814 256.67188 346.325Q256.67188 346.41876 256.67188 346.60626L252.03125 346.60626Q252.09375 347.6375 252.60938 348.1844Q253.125 348.71564 253.90625 348.71564Q254.48438 348.71564 254.89062 348.41876Q255.3125 348.10626 255.54688 347.45ZM252.09375 345.7469L255.5625 345.7469Q255.5 344.95 255.17188 344.5594Q254.65625 343.95 253.85938 343.95Q253.125 343.95 252.625 344.4344Q252.14062 344.91876 252.09375 345.7469ZM258.28125 349.45L258.28125 343.23126L259.23438 343.23126L259.23438 344.16876Q259.59375 343.5125 259.89062 343.3094Q260.20312 343.09064 260.57812 343.09064Q261.10938 343.09064 261.65625 343.41876L261.29688 344.40314Q260.90625 344.16876 260.53125 344.16876Q260.17188 344.16876 259.89062 344.3875Q259.625 344.59064 259.51562 344.96564Q259.32812 345.52814 259.32812 346.1844L259.32812 349.45L258.28125 349.45ZM267.60938 349.45L267.60938 341.8719L264.78125 341.8719L264.78125 340.85626L271.59375 340.85626L271.59375 341.8719L268.75 341.8719L268.75 349.45L267.60938 349.45ZM272.42188 349.45L272.42188 340.85626L275.67188 340.85626Q276.51562 340.85626 276.96875 340.9344Q277.60938 341.04376 278.03125 341.34064Q278.46875 341.6375 278.71875 342.16876Q278.98438 342.7 278.98438 343.34064Q278.98438 344.4344 278.28125 345.2Q277.59375 345.95 275.76562 345.95L273.5625 345.95L273.5625 349.45L272.42188 349.45ZM273.5625 344.95L275.78125 344.95Q276.89062 344.95 277.34375 344.54376Q277.8125 344.1219 277.8125 343.3719Q277.8125 342.84064 277.53125 342.46564Q277.26562 342.075 276.82812 341.95Q276.53125 341.8719 275.76562 341.8719L273.5625 341.8719L273.5625 344.95ZM280.04688 346.6844L281.10938 346.59064Q281.1875 347.2469 281.46875 347.65314Q281.75 348.0594 282.32812 348.325Q282.92188 348.575 283.65625 348.575Q284.29688 348.575 284.79688 348.3875Q285.29688 348.1844 285.53125 347.85626Q285.78125 347.5125 285.78125 347.1219Q285.78125 346.71564 285.54688 346.41876Q285.3125 346.10626 284.78125 345.90314Q284.42188 345.7625 283.23438 345.48126Q282.0625 345.2 281.59375 344.95Q280.96875 344.6219 280.67188 344.15314Q280.375 343.66876 280.375 343.075Q280.375 342.4344 280.73438 341.8719Q281.10938 341.29376 281.8125 341.0125Q282.53125 340.71564 283.39062 340.71564Q284.34375 340.71564 285.07812 341.02814Q285.8125 341.325 286.20312 341.9344Q286.59375 342.52814 286.625 343.27814L285.53125 343.35626Q285.4375 342.54376 284.92188 342.1375Q284.42188 341.71564 283.4375 341.71564Q282.40625 341.71564 281.9375 342.09064Q281.46875 342.46564 281.46875 342.9969Q281.46875 343.46564 281.79688 343.7625Q282.125 344.0594 283.5 344.3719Q284.89062 344.6844 285.40625 344.91876Q286.15625 345.27814 286.51562 345.8094Q286.875 346.325 286.875 347.02814Q286.875 347.71564 286.48438 348.325Q286.09375 348.91876 285.35938 349.2625Q284.625 349.59064 283.70312 349.59064Q282.53125 349.59064 281.73438 349.2625Q280.95312 348.91876 280.5 348.23126Q280.0625 347.54376 280.04688 346.6844Z" fill-rule="nonzero"/><path fill="#38761d" d="M309.5 339.45L310.84708 343.5959L315.20633 343.5959L311.67963 346.1582L313.0267 350.3041L309.5 347.7418L305.9733 350.3041L307.32037 346.1582L303.79367 343.5959L308.15292 343.5959Z" fill-rule="nonzero"/><path fill="#1a1a1a" d="M330.5625 346.4344L331.6875 346.73126Q331.32812 348.1219 330.40625 348.85626Q329.48438 349.59064 328.14062 349.59064Q326.75 349.59064 325.875 349.02814Q325.0 348.46564 324.54688 347.40314Q324.09375 346.325 324.09375 345.09064Q324.09375 343.7469 324.60938 342.7469Q325.125 341.7469 326.0625 341.23126Q327.01562 340.71564 328.15625 340.71564Q329.4375 340.71564 330.3125 341.3719Q331.20312 342.02814 331.54688 343.21564L330.42188 343.48126Q330.125 342.54376 329.54688 342.1219Q328.98438 341.6844 328.125 341.6844Q327.14062 341.6844 326.46875 342.16876Q325.8125 342.6375 325.53125 343.4344Q325.26562 344.23126 325.26562 345.09064Q325.26562 346.1844 325.57812 346.9969Q325.90625 347.8094 326.57812 348.21564Q327.25 348.6219 328.04688 348.6219Q329.0 348.6219 329.65625 348.075Q330.32812 347.52814 330.5625 346.4344ZM332.90625 346.34064Q332.90625 344.60626 333.85938 343.77814Q334.65625 343.09064 335.8125 343.09064Q337.09375 343.09064 337.90625 343.9344Q338.73438 344.7625 338.73438 346.2469Q338.73438 347.45 338.375 348.1375Q338.01562 348.825 337.3125 349.21564Q336.625 349.59064 335.8125 349.59064Q334.51562 349.59064 333.70312 348.7625Q332.90625 347.91876 332.90625 346.34064ZM333.98438 346.34064Q333.98438 347.52814 334.5 348.1219Q335.03125 348.71564 335.8125 348.71564Q336.60938 348.71564 337.125 348.1219Q337.64062 347.52814 337.64062 346.3094Q337.64062 345.15314 337.10938 344.5594Q336.59375 343.96564 335.8125 343.96564Q335.03125 343.96564 334.5 344.5594Q333.98438 345.1375 333.98438 346.34064ZM340.29688 349.45L340.29688 343.23126L341.23438 343.23126L341.23438 344.10626Q341.92188 343.09064 343.21875 343.09064Q343.78125 343.09064 344.25 343.29376Q344.73438 343.4969 344.96875 343.825Q345.20312 344.15314 345.29688 344.59064Q345.34375 344.8875 345.34375 345.6219L345.34375 349.45L344.29688 349.45L344.29688 345.66876Q344.29688 345.0125 344.17188 344.7Q344.04688 344.3875 343.73438 344.2Q343.42188 343.9969 343.0 343.9969Q342.32812 343.9969 341.82812 344.4344Q341.34375 344.85626 341.34375 346.04376L341.34375 349.45L340.29688 349.45ZM346.875 347.59064L347.90625 347.4344Q348.0 348.0594 348.39062 348.3875Q348.79688 348.71564 349.53125 348.71564Q350.25 348.71564 350.59375 348.4344Q350.95312 348.1375 350.95312 347.73126Q350.95312 347.3719 350.64062 347.16876Q350.42188 347.02814 349.5625 346.8094Q348.40625 346.5125 347.95312 346.3094Q347.51562 346.09064 347.28125 345.71564Q347.04688 345.34064 347.04688 344.8719Q347.04688 344.46564 347.23438 344.10626Q347.42188 343.7469 347.75 343.5125Q348.0 343.34064 348.42188 343.21564Q348.84375 343.09064 349.34375 343.09064Q350.0625 343.09064 350.60938 343.3094Q351.17188 343.5125 351.4375 343.8719Q351.70312 344.23126 351.79688 344.825L350.76562 344.96564Q350.70312 344.4969 350.35938 344.23126Q350.03125 343.95 349.40625 343.95Q348.6875 343.95 348.375 344.2Q348.0625 344.4344 348.0625 344.7625Q348.0625 344.96564 348.1875 345.1219Q348.32812 345.29376 348.59375 345.40314Q348.75 345.46564 349.53125 345.66876Q350.65625 345.98126 351.09375 346.16876Q351.53125 346.35626 351.78125 346.71564Q352.03125 347.075 352.03125 347.6219Q352.03125 348.15314 351.71875 348.6219Q351.42188 349.075 350.84375 349.34064Q350.26562 349.59064 349.53125 349.59064Q348.3125 349.59064 347.67188 349.09064Q347.04688 348.575 346.875 347.59064ZM358.375 349.45L358.375 348.52814Q357.64062 349.59064 356.39062 349.59064Q355.84375 349.59064 355.35938 349.3875Q354.89062 349.16876 354.65625 348.85626Q354.42188 348.52814 354.32812 348.0594Q354.26562 347.7625 354.26562 347.075L354.26562 343.23126L355.32812 343.23126L355.32812 346.6844Q355.32812 347.4969 355.39062 347.79376Q355.48438 348.2 355.79688 348.45Q356.125 348.6844 356.60938 348.6844Q357.07812 348.6844 357.48438 348.45Q357.90625 348.2 358.07812 347.77814Q358.26562 347.35626 358.26562 346.5594L358.26562 343.23126L359.3125 343.23126L359.3125 349.45L358.375 349.45ZM361.29688 349.45L361.29688 343.23126L362.23438 343.23126L362.23438 344.10626Q362.53125 343.6375 363.01562 343.3719Q363.5 343.09064 364.125 343.09064Q364.8125 343.09064 365.25 343.3719Q365.70312 343.65314 365.875 344.16876Q366.625 343.09064 367.79688 343.09064Q368.73438 343.09064 369.21875 343.60626Q369.71875 344.10626 369.71875 345.1844L369.71875 349.45L368.67188 349.45L368.67188 345.52814Q368.67188 344.90314 368.5625 344.6219Q368.46875 344.34064 368.20312 344.16876Q367.9375 343.9969 367.5625 343.9969Q366.90625 343.9969 366.46875 344.4344Q366.04688 344.8719 366.04688 345.84064L366.04688 349.45L364.98438 349.45L364.98438 345.40314Q364.98438 344.7 364.71875 344.35626Q364.46875 343.9969 363.89062 343.9969Q363.4375 343.9969 363.0625 344.23126Q362.6875 344.46564 362.51562 344.91876Q362.34375 345.3719 362.34375 346.21564L362.34375 349.45L361.29688 349.45ZM376.54688 347.45L377.64062 347.575Q377.39062 348.52814 376.6875 349.0594Q375.98438 349.59064 374.90625 349.59064Q373.54688 349.59064 372.73438 348.7469Q371.9375 347.90314 371.9375 346.3875Q371.9375 344.825 372.75 343.96564Q373.5625 343.09064 374.84375 343.09064Q376.09375 343.09064 376.875 343.9344Q377.67188 344.77814 377.67188 346.325Q377.67188 346.41876 377.67188 346.60626L373.03125 346.60626Q373.09375 347.6375 373.60938 348.1844Q374.125 348.71564 374.90625 348.71564Q375.48438 348.71564 375.89062 348.41876Q376.3125 348.10626 376.54688 347.45ZM373.09375 345.7469L376.5625 345.7469Q376.5 344.95 376.17188 344.5594Q375.65625 343.95 374.85938 343.95Q374.125 343.95 373.625 344.4344Q373.14062 344.91876 373.09375 345.7469ZM379.28125 349.45L379.28125 343.23126L380.23438 343.23126L380.23438 344.16876Q380.59375 343.5125 380.89062 343.3094Q381.20312 343.09064 381.57812 343.09064Q382.10938 343.09064 382.65625 343.41876L382.29688 344.40314Q381.90625 344.16876 381.53125 344.16876Q381.17188 344.16876 380.89062 344.3875Q380.625 344.59064 380.51562 344.96564Q380.32812 345.52814 380.32812 346.1844L380.32812 349.45L379.28125 349.45ZM388.60938 349.45L388.60938 341.8719L385.78125 341.8719L385.78125 340.85626L392.59375 340.85626L392.59375 341.8719L389.75 341.8719L389.75 349.45L388.60938 349.45ZM393.42188 349.45L393.42188 340.85626L396.67188 340.85626Q397.51562 340.85626 397.96875 340.9344Q398.60938 341.04376 399.03125 341.34064Q399.46875 341.6375 399.71875 342.16876Q399.98438 342.7 399.98438 343.34064Q399.98438 344.4344 399.28125 345.2Q398.59375 345.95 396.76562 345.95L394.5625 345.95L394.5625 349.45L393.42188 349.45ZM394.5625 344.95L396.78125 344.95Q397.89062 344.95 398.34375 344.54376Q398.8125 344.1219 398.8125 343.3719Q398.8125 342.84064 398.53125 342.46564Q398.26562 342.075 397.82812 341.95Q397.53125 341.8719 396.76562 341.8719L394.5625 341.8719L394.5625 344.95ZM401.04688 346.6844L402.10938 346.59064Q402.1875 347.2469 402.46875 347.65314Q402.75 348.0594 403.32812 348.325Q403.92188 348.575 404.65625 348.575Q405.29688 348.575 405.79688 348.3875Q406.29688 348.1844 406.53125 347.85626Q406.78125 347.5125 406.78125 347.1219Q406.78125 346.71564 406.54688 346.41876Q406.3125 346.10626 405.78125 345.90314Q405.42188 345.7625 404.23438 345.48126Q403.0625 345.2 402.59375 344.95Q401.96875 344.6219 401.67188 344.15314Q401.375 343.66876 401.375 343.075Q401.375 342.4344 401.73438 341.8719Q402.10938 341.29376 402.8125 341.0125Q403.53125 340.71564 404.39062 340.71564Q405.34375 340.71564 406.07812 341.02814Q406.8125 341.325 407.20312 341.9344Q407.59375 342.52814 407.625 343.27814L406.53125 343.35626Q406.4375 342.54376 405.92188 342.1375Q405.42188 341.71564 404.4375 341.71564Q403.40625 341.71564 402.9375 342.09064Q402.46875 342.46564 402.46875 342.9969Q402.46875 343.46564 402.79688 343.7625Q403.125 344.0594 404.5 344.3719Q405.89062 344.6844 406.40625 344.91876Q407.15625 345.27814 407.51562 345.8094Q407.875 346.325 407.875 347.02814Q407.875 347.71564 407.48438 348.325Q407.09375 348.91876 406.35938 349.2625Q405.625 349.59064 404.70312 349.59064Q403.53125 349.59064 402.73438 349.2625Q401.95312 348.91876 401.5 348.23126Q401.0625 347.54376 401.04688 346.6844Z" fill-rule="nonzero"/><path fill="#757575" d="M19.45625 32.95625L21.2375 32.8Q21.3625 33.8625 21.815624 34.55Q22.284374 35.2375 23.253124 35.675Q24.2375 36.096874 25.471874 36.096874Q26.55 36.096874 27.378124 35.784374Q28.20625 35.45625 28.6125 34.89375Q29.01875 34.33125 29.01875 33.659374Q29.01875 32.9875 28.628124 32.4875Q28.2375 31.9875 27.346874 31.64375Q26.76875 31.409374 24.784374 30.940624Q22.815624 30.471874 22.034374 30.05Q21.003124 29.51875 20.503124 28.721874Q20.003124 27.925 20.003124 26.940624Q20.003124 25.846874 20.6125 24.909374Q21.221874 23.971874 22.409374 23.4875Q23.596874 22.9875 25.034374 22.9875Q26.628124 22.9875 27.846874 23.503124Q29.065624 24.01875 29.70625 25.01875Q30.3625 26.003124 30.409374 27.26875L28.596874 27.409374Q28.45625 26.05 27.6125 25.3625Q26.76875 24.659374 25.1125 24.659374Q23.39375 24.659374 22.596874 25.3Q21.815624 25.925 21.815624 26.8Q21.815624 27.58125 22.378124 28.08125Q22.925 28.58125 25.2375 29.096874Q27.55 29.6125 28.409374 30.003124Q29.659374 30.58125 30.253124 31.471874Q30.846874 32.346874 30.846874 33.503124Q30.846874 34.64375 30.190624 35.659374Q29.534374 36.675 28.3 37.2375Q27.08125 37.8 25.55 37.8Q23.6125 37.8 22.3 37.2375Q20.9875 36.659374 20.2375 35.51875Q19.4875 34.378124 19.45625 32.95625ZM39.64375 33.753124L41.3625 33.971874Q41.08125 35.76875 39.909374 36.784374Q38.753124 37.784374 37.05 37.784374Q34.925 37.784374 33.628124 36.39375Q32.33125 35.003124 32.33125 32.409374Q32.33125 30.721874 32.878124 29.471874Q33.440624 28.20625 34.58125 27.58125Q35.721874 26.940624 37.065624 26.940624Q38.753124 26.940624 39.815624 27.8Q40.89375 28.659374 41.20625 30.221874L39.4875 30.4875Q39.253124 29.440624 38.628124 28.925Q38.003124 28.39375 37.128124 28.39375Q35.8 28.39375 34.971874 29.346874Q34.14375 30.3 34.14375 32.346874Q34.14375 34.440624 34.940624 35.39375Q35.7375 36.33125 37.034374 36.33125Q38.065624 36.33125 38.753124 35.70625Q39.45625 35.065624 39.64375 33.753124ZM49.971874 34.20625L51.784374 34.440624Q51.3625 36.01875 50.190624 36.909374Q49.034374 37.784374 47.221874 37.784374Q44.95625 37.784374 43.6125 36.39375Q42.284374 34.9875 42.284374 32.45625Q42.284374 29.83125 43.628124 28.39375Q44.971874 26.940624 47.128124 26.940624Q49.20625 26.940624 50.51875 28.3625Q51.846874 29.76875 51.846874 32.346874Q51.846874 32.503124 51.83125 32.815624L44.096874 32.815624Q44.190624 34.51875 45.065624 35.425Q45.940624 36.33125 47.2375 36.33125Q48.20625 36.33125 48.878124 35.83125Q49.565624 35.315624 49.971874 34.20625ZM44.190624 31.3625L49.9875 31.3625Q49.878124 30.065624 49.33125 29.409374Q48.4875 28.39375 47.14375 28.39375Q45.940624 28.39375 45.1125 29.20625Q44.284374 30.003124 44.190624 31.3625ZM53.8625 37.55L53.8625 27.175L55.45625 27.175L55.45625 28.659374Q56.596874 26.940624 58.753124 26.940624Q59.690624 26.940624 60.471874 27.284374Q61.26875 27.6125 61.659374 28.159374Q62.05 28.70625 62.20625 29.45625Q62.3 29.95625 62.3 31.175L62.3 37.55L60.534374 37.55L60.534374 31.2375Q60.534374 30.159374 60.33125 29.628124Q60.128124 29.096874 59.596874 28.784374Q59.08125 28.471874 58.378124 28.471874Q57.253124 28.471874 56.440624 29.190624Q55.628124 29.89375 55.628124 31.878124L55.628124 37.55L53.8625 37.55ZM70.64375 36.26875Q69.65938 37.096874 68.75313 37.440624Q67.84688 37.784374 66.81563 37.784374Q65.1125 37.784374 64.19063 36.95625Q63.26875 36.1125 63.26875 34.815624Q63.26875 34.05 63.6125 33.425Q63.971874 32.8 64.53438 32.425Q65.09688 32.034374 65.8 31.83125Q66.31563 31.70625 67.3625 31.565624Q69.4875 31.315624 70.4875 30.971874Q70.50313 30.6125 70.50313 30.503124Q70.50313 29.440624 70.00313 28.9875Q69.33125 28.39375 68.00313 28.39375Q66.75313 28.39375 66.15938 28.83125Q65.58125 29.26875 65.3 30.378124L63.58125 30.14375Q63.815624 29.034374 64.34688 28.3625Q64.87813 27.675 65.89375 27.315624Q66.90938 26.940624 68.25313 26.940624Q69.58125 26.940624 70.40938 27.253124Q71.2375 27.565624 71.62813 28.05Q72.01875 28.51875 72.175 29.2375Q72.26875 29.690624 72.26875 30.8625L72.26875 33.20625Q72.26875 35.659374 72.37813 36.315624Q72.4875 36.95625 72.83125 37.55L70.9875 37.55Q70.72188 37.003124 70.64375 36.26875ZM70.4875 32.346874Q69.53438 32.7375 67.6125 33.003124Q66.53438 33.159374 66.08125 33.3625Q65.64375 33.55 65.39375 33.925Q65.14375 34.3 65.14375 34.76875Q65.14375 35.471874 65.675 35.940624Q66.20625 36.409374 67.2375 36.409374Q68.25313 36.409374 69.03438 35.971874Q69.83125 35.51875 70.20625 34.753124Q70.4875 34.14375 70.4875 32.9875L70.4875 32.346874ZM74.84688 37.55L74.84688 27.175L76.425 27.175L76.425 28.753124Q77.03438 27.64375 77.55 27.3Q78.06563 26.940624 78.675 26.940624Q79.56563 26.940624 80.4875 27.503124L79.87813 29.14375Q79.2375 28.753124 78.59688 28.753124Q78.01875 28.753124 77.55 29.1125Q77.09688 29.45625 76.89375 30.065624Q76.6125 31.003124 76.6125 32.1125L76.6125 37.55L74.84688 37.55ZM81.87813 25.253124L81.87813 23.2375L83.64375 23.2375L83.64375 25.253124L81.87813 25.253124ZM81.87813 37.55L81.87813 27.175L83.64375 27.175L83.64375 37.55L81.87813 37.55ZM85.22188 32.3625Q85.22188 29.4875 86.81563 28.096874Q88.15938 26.940624 90.08125 26.940624Q92.22188 26.940624 93.56563 28.346874Q94.925 29.753124 94.925 32.221874Q94.925 34.221874 94.33125 35.378124Q93.7375 36.51875 92.58125 37.159374Q91.44063 37.784374 90.08125 37.784374Q87.89375 37.784374 86.55 36.39375Q85.22188 34.9875 85.22188 32.3625ZM87.01875 32.3625Q87.01875 34.3625 87.87813 35.346874Q88.75313 36.33125 90.08125 36.33125Q91.39375 36.33125 92.25313 35.346874Q93.12813 34.346874 93.12813 32.3Q93.12813 30.378124 92.25313 29.39375Q91.37813 28.39375 90.08125 28.39375Q88.75313 28.39375 87.87813 29.39375Q87.01875 30.378124 87.01875 32.3625Z" fill-rule="nonzero"/></svg>