<svg version="1.1" viewBox="0.0 0.0 600.0 371.0" fill="none" stroke="none" stroke-linecap="square" stroke-miterlimit="10" width="600" height="371" xmlns:xlink="http://www.w3.org/1999/xlink" xmlns="http://www.w3.org/2000/svg"><path fill="#ffffff" d="M0 0L600.0 0L600.0 371.0L0 371.0L0 0Z" fill-rule="nonzero"/><path stroke="#cccccc" stroke-width="1.0" stroke-linecap="butt" d="M45.5 88.5L45.5 300.5" fill-rule="nonzero"/><path stroke="#cccccc" stroke-width="1.0" stroke-linecap="butt" d="M179.5 88.5L179.5 300.5" fill-rule="nonzero"/><path stroke="#cccccc" stroke-width="1.0" stroke-linecap="butt" d="M313.5 88.5L313.5 300.5" fill-rule="nonzero"/><path stroke="#cccccc" stroke-width="1.0" stroke-linecap="butt" d="M447.5 88.5L447.5 300.5" fill-rule="nonzero"/><path stroke="#cccccc" stroke-width="1.0" stroke-linecap="butt" d="M581.5 88.5L581.5 300.5" fill-rule="nonzero"/><path stroke="#333333" stroke-width="1.0" stroke-linecap="butt" d="M45.5 300.5L581.5 300.5" fill-rule="nonzero"/><path stroke="#cccccc" stroke-width="1.0" stroke-linecap="butt" d="M45.5 258.5L581.5 258.5" fill-rule="nonzero"/><path stroke="#cccccc" stroke-width="1.0" stroke-linecap="butt" d="M45.5 215.5L581.5 215.5" fill-rule="nonzero"/><path stroke="#cccccc" stroke-width="1.0" stroke-linecap="butt" d="M45.5 173.5L581.5 173.5" fill-rule="nonzero"/><path stroke="#cccccc" stroke-width="1.0" stroke-linecap="butt" d="M45.5 130.5L581.5 130.5" fill-rule="nonzero"/><path stroke="#cccccc" stroke-width="1.0" stroke-linecap="butt" d="M45.5 88.5L581.5 88.5" fill-rule="nonzero"/><clipPath id="id_0"><path d="M45.55 88.28333L581.45 88.28333L581.45 300.45L45.55 300.45L45.55 88.28333Z" clip-rule="nonzero"/></clipPath><path stroke="#4285f4" stroke-width="2.0" stroke-linecap="butt" clip-path="url(#id_0)" d="M45.55 300.45L313.5 300.45L340.295 300.45L367.09 290.266L393.885 269.898L420.68 239.346L447.475 198.61L474.27 157.874L501.065 127.322L527.86 106.954L554.655 96.77L581.45 96.77" fill-rule="nonzero"/><path stroke="#ea4335" stroke-width="2.0" stroke-linecap="butt" clip-path="url(#id_0)" d="M45.55 266.50333L313.5 266.50333L340.295 266.50333L367.09 266.50333L393.885 266.50333L420.68 266.50333L447.475 266.50333L474.27 266.50333L501.065 266.50333L527.86 266.50333L554.655 266.50333L581.45 266.50333" fill-rule="nonzero"/><path fill="#000000" fill-opacity="0.0" clip-path="url(#id_0)" d="M48.55 300.45C48.55 302.10684 47.206856 303.45 45.55 303.45C43.893147 303.45 42.55 302.10684 42.55 300.45C42.55 298.79315 43.893147 297.45 45.55 297.45C47.206856 297.45 48.55 298.79315 48.55 300.45Z" fill-rule="nonzero"/><path fill="#000000" fill-opacity="0.0" clip-path="url(#id_0)" d="M316.5 300.45C316.5 302.10684 315.15686 303.45 313.5 303.45C311.84314 303.45 310.5 302.10684 310.5 300.45C310.5 298.79315 311.84314 297.45 313.5 297.45C315.15686 297.45 316.5 298.79315 316.5 300.45Z" fill-rule="nonzero"/><path fill="#000000" fill-opacity="0.0" clip-path="url(#id_0)" d="M343.295 300.45C343.295 302.10684 341.95184 303.45 340.295 303.45C338.63815 303.45 337.295 302.10684 337.295 300.45C337.295 298.79315 338.63815 297.45 340.295 297.45C341.95184 297.45 343.295 298.79315 343.295 300.45Z" fill-rule="nonzero"/><path fill="#000000" fill-opacity="0.0" clip-path="url(#id_0)" d="M370.09 290.266C370.09 291.92285 368.74686 293.266 367.09 293.266C365.43314 293.266 364.09 291.92285 364.09 290.266C364.09 288.60913 365.43314 287.266 367.09 287.266C368.74686 287.266 370.09 288.60913 370.09 290.266Z" fill-rule="nonzero"/><path fill="#000000" fill-opacity="0.0" clip-path="url(#id_0)" d="M396.885 269.898C396.885 271.55484 395.54184 272.898 393.885 272.898C392.22815 272.898 390.885 271.55484 390.885 269.898C390.885 268.24115 392.22815 266.898 393.885 266.898C395.54184 266.898 396.885 268.24115 396.885 269.898Z" fill-rule="nonzero"/><path fill="#000000" fill-opacity="0.0" clip-path="url(#id_0)" d="M423.68 239.346C423.68 241.00285 422.33685 242.346 420.68 242.346C419.02313 242.346 417.68 241.00285 417.68 239.346C417.68 237.68915 419.02313 236.346 420.68 236.346C422.33685 236.346 423.68 237.68915 423.68 239.346Z" fill-rule="nonzero"/><path fill="#000000" fill-opacity="0.0" clip-path="url(#id_0)" d="M450.475 198.61C450.475 200.26686 449.13187 201.61 447.475 201.61C445.81815 201.61 444.475 200.26686 444.475 198.61C444.475 196.95314 445.81815 195.61 447.475 195.61C449.13187 195.61 450.475 196.95314 450.475 198.61Z" fill-rule="nonzero"/><path fill="#000000" fill-opacity="0.0" clip-path="url(#id_0)" d="M477.27 157.874C477.27 159.53085 475.92685 160.874 474.27 160.874C472.61316 160.874 471.27 159.53085 471.27 157.874C471.27 156.21715 472.61316 154.874 474.27 154.874C475.92685 154.874 477.27 156.21715 477.27 157.874Z" fill-rule="nonzero"/><path fill="#000000" fill-opacity="0.0" clip-path="url(#id_0)" d="M504.065 127.322C504.065 128.97885 502.72186 130.322 501.065 130.322C499.40814 130.322 498.065 128.97885 498.065 127.322C498.065 125.665146 499.40814 124.322 501.065 124.322C502.72186 124.322 504.065 125.665146 504.065 127.322Z" fill-rule="nonzero"/><path fill="#000000" fill-opacity="0.0" clip-path="url(#id_0)" d="M530.86 106.954C530.86 108.610855 529.51685 109.954 527.86 109.954C526.2031 109.954 524.86 108.610855 524.86 106.954C524.86 105.29714 526.2031 103.954 527.86 103.954C529.51685 103.954 530.86 105.29714 530.86 106.954Z" fill-rule="nonzero"/><path fill="#000000" fill-opacity="0.0" clip-path="url(#id_0)" d="M557.655 96.77C557.655 98.42686 556.3118 99.77 554.655 99.77C552.99817 99.77 551.655 98.42686 551.655 96.77C551.655 95.113144 552.99817 93.77 554.655 93.77C556.3118 93.77 557.655 95.113144 557.655 96.77Z" fill-rule="nonzero"/><path fill="#000000" fill-opacity="0.0" clip-path="url(#id_0)" d="M584.45 96.77C584.45 98.42686 583.1069 99.77 581.45 99.77C579.79315 99.77 578.45 98.42686 578.45 96.77C578.45 95.113144 579.79315 93.77 581.45 93.77C583.1069 93.77 584.45 95.113144 584.45 96.77Z" fill-rule="nonzero"/><path fill="#000000" fill-opacity="0.0" clip-path="url(#id_0)" d="M48.55 266.50333C48.55 268.1602 47.206856 269.50333 45.55 269.50333C43.893147 269.50333 42.55 268.1602 42.55 266.50333C42.55 264.84647 43.893147 263.50333 45.55 263.50333C47.206856 263.50333 48.55 264.84647 48.55 266.50333Z" fill-rule="nonzero"/><path fill="#000000" fill-opacity="0.0" clip-path="url(#id_0)" d="M316.5 266.50333C316.5 268.1602 315.15686 269.50333 313.5 269.50333C311.84314 269.50333 310.5 268.1602 310.5 266.50333C310.5 264.84647 311.84314 263.50333 313.5 263.50333C315.15686 263.50333 316.5 264.84647 316.5 266.50333Z" fill-rule="nonzero"/><path fill="#000000" fill-opacity="0.0" clip-path="url(#id_0)" d="M343.295 266.50333C343.295 268.1602 341.95184 269.50333 340.295 269.50333C338.63815 269.50333 337.295 268.1602 337.295 266.50333C337.295 264.84647 338.63815 263.50333 340.295 263.50333C341.95184 263.50333 343.295 264.84647 343.295 266.50333Z" fill-rule="nonzero"/><path fill="#000000" fill-opacity="0.0" clip-path="url(#id_0)" d="M370.09 266.50333C370.09 268.1602 368.74686 269.50333 367.09 269.50333C365.43314 269.50333 364.09 268.1602 364.09 266.50333C364.09 264.84647 365.43314 263.50333 367.09 263.50333C368.74686 263.50333 370.09 264.84647 370.09 266.50333Z" fill-rule="nonzero"/><path fill="#000000" fill-opacity="0.0" clip-path="url(#id_0)" d="M396.885 266.50333C396.885 268.1602 395.54184 269.50333 393.885 269.50333C392.22815 269.50333 390.885 268.1602 390.885 266.50333C390.885 264.84647 392.22815 263.50333 393.885 263.50333C395.54184 263.50333 396.885 264.84647 396.885 266.50333Z" fill-rule="nonzero"/><path fill="#000000" fill-opacity="0.0" clip-path="url(#id_0)" d="M423.68 266.50333C423.68 268.1602 422.33685 269.50333 420.68 269.50333C419.02313 269.50333 417.68 268.1602 417.68 266.50333C417.68 264.84647 419.02313 263.50333 420.68 263.50333C422.33685 263.50333 423.68 264.84647 423.68 266.50333Z" fill-rule="nonzero"/><path fill="#000000" fill-opacity="0.0" clip-path="url(#id_0)" d="M450.475 266.50333C450.475 268.1602 449.13187 269.50333 447.475 269.50333C445.81815 269.50333 444.475 268.1602 444.475 266.50333C444.475 264.84647 445.81815 263.50333 447.475 263.50333C449.13187 263.50333 450.475 264.84647 450.475 266.50333Z" fill-rule="nonzero"/><path fill="#000000" fill-opacity="0.0" clip-path="url(#id_0)" d="M477.27 266.50333C477.27 268.1602 475.92685 269.50333 474.27 269.50333C472.61316 269.50333 471.27 268.1602 471.27 266.50333C471.27 264.84647 472.61316 263.50333 474.27 263.50333C475.92685 263.50333 477.27 264.84647 477.27 266.50333Z" fill-rule="nonzero"/><path fill="#000000" fill-opacity="0.0" clip-path="url(#id_0)" d="M504.065 266.50333C504.065 268.1602 502.72186 269.50333 501.065 269.50333C499.40814 269.50333 498.065 268.1602 498.065 266.50333C498.065 264.84647 499.40814 263.50333 501.065 263.50333C502.72186 263.50333 504.065 264.84647 504.065 266.50333Z" fill-rule="nonzero"/><path fill="#000000" fill-opacity="0.0" clip-path="url(#id_0)" d="M530.86 266.50333C530.86 268.1602 529.51685 269.50333 527.86 269.50333C526.2031 269.50333 524.86 268.1602 524.86 266.50333C524.86 264.84647 526.2031 263.50333 527.86 263.50333C529.51685 263.50333 530.86 264.84647 530.86 266.50333Z" fill-rule="nonzero"/><path fill="#000000" fill-opacity="0.0" clip-path="url(#id_0)" d="M557.655 266.50333C557.655 268.1602 556.3118 269.50333 554.655 269.50333C552.99817 269.50333 551.655 268.1602 551.655 266.50333C551.655 264.84647 552.99817 263.50333 554.655 263.50333C556.3118 263.50333 557.655 264.84647 557.655 266.50333Z" fill-rule="nonzero"/><path fill="#000000" fill-opacity="0.0" clip-path="url(#id_0)" d="M584.45 266.50333C584.45 268.1602 583.1069 269.50333 581.45 269.50333C579.79315 269.50333 578.45 268.1602 578.45 266.50333C578.45 264.84647 579.79315 263.50333 581.45 263.50333C583.1069 263.50333 584.45 264.84647 584.45 266.50333Z" fill-rule="nonzero"/><path fill="#000000" d="M302.60938 349.45L302.60938 341.8719L299.78125 341.8719L299.78125 340.85626L306.59375 340.85626L306.59375 341.8719L303.75 341.8719L303.75 349.45L302.60938 349.45ZM307.29688 342.075L307.29688 340.85626L308.35938 340.85626L308.35938 342.075L307.29688 342.075ZM307.29688 349.45L307.29688 343.23126L308.35938 343.23126L308.35938 349.45L307.29688 349.45ZM310.29688 349.45L310.29688 343.23126L311.23438 343.23126L311.23438 344.10626Q311.53125 343.6375 312.01562 343.3719Q312.5 343.09064 313.125 343.09064Q313.8125 343.09064 314.25 343.3719Q314.70312 343.65314 314.875 344.16876Q315.625 343.09064 316.79688 343.09064Q317.73438 343.09064 318.21875 343.60626Q318.71875 344.10626 318.71875 345.1844L318.71875 349.45L317.67188 349.45L317.67188 345.52814Q317.67188 344.90314 317.5625 344.6219Q317.46875 344.34064 317.20312 344.16876Q316.9375 343.9969 316.5625 343.9969Q315.90625 343.9969 315.46875 344.4344Q315.04688 344.8719 315.04688 345.84064L315.04688 349.45L313.98438 349.45L313.98438 345.40314Q313.98438 344.7 313.71875 344.35626Q313.46875 343.9969 312.89062 343.9969Q312.4375 343.9969 312.0625 344.23126Q311.6875 344.46564 311.51562 344.91876Q311.34375 345.3719 311.34375 346.21564L311.34375 349.45L310.29688 349.45ZM325.54688 347.45L326.64062 347.575Q326.39062 348.52814 325.6875 349.0594Q324.98438 349.59064 323.90625 349.59064Q322.54688 349.59064 321.73438 348.7469Q320.9375 347.90314 320.9375 346.3875Q320.9375 344.825 321.75 343.96564Q322.5625 343.09064 323.84375 343.09064Q325.09375 343.09064 325.875 343.9344Q326.67188 344.77814 326.67188 346.325Q326.67188 346.41876 326.67188 346.60626L322.03125 346.60626Q322.09375 347.6375 322.60938 348.1844Q323.125 348.71564 323.90625 348.71564Q324.48438 348.71564 324.89062 348.41876Q325.3125 348.10626 325.54688 347.45ZM322.09375 345.7469L325.5625 345.7469Q325.5 344.95 325.17188 344.5594Q324.65625 343.95 323.85938 343.95Q323.125 343.95 322.625 344.4344Q322.14062 344.91876 322.09375 345.7469Z" fill-rule="nonzero"/><path fill="#000000" d="M33.05 300.21564Q33.05 298.6844 33.3625 297.7625Q33.675 296.825 34.284374 296.325Q34.909374 295.825 35.846874 295.825Q36.534374 295.825 37.05 296.10626Q37.58125 296.3875 37.925 296.91876Q38.26875 297.4344 38.45625 298.1844Q38.64375 298.9344 38.64375 300.21564Q38.64375 301.73126 38.33125 302.65314Q38.034374 303.575 37.409374 304.09064Q36.8 304.59064 35.846874 304.59064Q34.6125 304.59064 33.89375 303.7Q33.05 302.6375 33.05 300.21564ZM34.128124 300.21564Q34.128124 302.325 34.628124 303.02814Q35.128124 303.73126 35.846874 303.73126Q36.58125 303.73126 37.065624 303.02814Q37.565624 302.325 37.565624 300.21564Q37.565624 298.09064 37.065624 297.40314Q36.58125 296.7 35.83125 296.7Q35.1125 296.7 34.675 297.3094Q34.128124 298.09064 34.128124 300.21564Z" fill-rule="nonzero"/><path fill="#000000" d="M31.596874 261.00104L31.596874 262.01666L25.909374 262.01666Q25.909374 261.64166 26.034374 261.2823Q26.253124 260.70416 26.721874 260.14166Q27.20625 259.57916 28.1125 258.8448Q29.51875 257.68854 30.003124 257.01666Q30.503124 256.3448 30.503124 255.75104Q30.503124 255.12604 30.05 254.70416Q29.596874 254.26666 28.878124 254.26666Q28.1125 254.26666 27.659374 254.71979Q27.20625 255.17291 27.190624 255.98541L26.1125 255.87604Q26.221874 254.65729 26.940624 254.03229Q27.675 253.39166 28.909374 253.39166Q30.14375 253.39166 30.8625 254.07916Q31.58125 254.76666 31.58125 255.78229Q31.58125 256.2979 31.3625 256.7979Q31.159374 257.2823 30.659374 257.8448Q30.175 258.39166 29.05 259.3448Q28.096874 260.14166 27.815624 260.43854Q27.55 260.7198 27.378124 261.00104L31.596874 261.00104ZM33.05 259.76666L34.159374 259.6729Q34.284374 260.4854 34.721874 260.89166Q35.175 261.2979 35.815624 261.2979Q36.565624 261.2979 37.096874 260.7198Q37.628124 260.14166 37.628124 259.20416Q37.628124 258.2979 37.1125 257.7823Q36.6125 257.25104 35.784374 257.25104Q35.284374 257.25104 34.8625 257.4854Q34.45625 257.7198 34.221874 258.07916L33.2375 257.95416L34.065624 253.54791L38.346874 253.54791L38.346874 254.54791L34.909374 254.54791L34.45625 256.8604Q35.221874 256.31354 36.065624 256.31354Q37.190624 256.31354 37.95625 257.0948Q38.7375 257.87604 38.7375 259.1104Q38.7375 260.26666 38.065624 261.12604Q37.2375 262.1573 35.815624 262.1573Q34.64375 262.1573 33.89375 261.50104Q33.159374 260.8448 33.05 259.76666Z" fill-rule="nonzero"/><path fill="#000000" d="M26.05 217.33333L27.159374 217.23958Q27.284374 218.05208 27.721874 218.45833Q28.175 218.86458 28.815624 218.86458Q29.565624 218.86458 30.096874 218.28645Q30.628124 217.70833 30.628124 216.77083Q30.628124 215.86458 30.1125 215.34895Q29.6125 214.8177 28.784374 214.8177Q28.284374 214.8177 27.8625 215.05208Q27.45625 215.28645 27.221874 215.64583L26.2375 215.52083L27.065624 211.11458L31.346874 211.11458L31.346874 212.11458L27.909374 212.11458L27.45625 214.42708Q28.221874 213.8802 29.065624 213.8802Q30.190624 213.8802 30.95625 214.66145Q31.7375 215.4427 31.7375 216.67708Q31.7375 217.83333 31.065624 218.6927Q30.2375 219.72395 28.815624 219.72395Q27.64375 219.72395 26.89375 219.0677Q26.159374 218.41145 26.05 217.33333ZM33.05 215.34895Q33.05 213.8177 33.3625 212.89583Q33.675 211.95833 34.284374 211.45833Q34.909374 210.95833 35.846874 210.95833Q36.534374 210.95833 37.05 211.23958Q37.58125 211.52083 37.925 212.05208Q38.26875 212.5677 38.45625 213.3177Q38.64375 214.0677 38.64375 215.34895Q38.64375 216.86458 38.33125 217.78645Q38.034374 218.70833 37.409374 219.22395Q36.8 219.72395 35.846874 219.72395Q34.6125 219.72395 33.89375 218.83333Q33.05 217.77083 33.05 215.34895ZM34.128124 215.34895Q34.128124 217.45833 34.628124 218.16145Q35.128124 218.86458 35.846874 218.86458Q36.58125 218.86458 37.065624 218.16145Q37.565624 217.45833 37.565624 215.34895Q37.565624 213.22395 37.065624 212.53645Q36.58125 211.83333 35.83125 211.83333Q35.1125 211.83333 34.675 212.4427Q34.128124 213.22395 34.128124 215.34895Z" fill-rule="nonzero"/><path fill="#000000" d="M26.1125 169.68124L26.1125 168.66562L31.675 168.66562L31.675 169.49374Q30.8625 170.36874 30.05 171.82187Q29.253124 173.25937 28.815624 174.79062Q28.4875 175.86874 28.409374 177.15L27.315624 177.15Q27.33125 176.13437 27.70625 174.69687Q28.096874 173.25937 28.8 171.93124Q29.51875 170.60312 30.33125 169.68124L26.1125 169.68124ZM33.05 174.9L34.159374 174.80624Q34.284374 175.61874 34.721874 176.025Q35.175 176.43124 35.815624 176.43124Q36.565624 176.43124 37.096874 175.85312Q37.628124 175.275 37.628124 174.3375Q37.628124 173.43124 37.1125 172.91562Q36.6125 172.38437 35.784374 172.38437Q35.284374 172.38437 34.8625 172.61874Q34.45625 172.85312 34.221874 173.2125L33.2375 173.0875L34.065624 168.68124L38.346874 168.68124L38.346874 169.68124L34.909374 169.68124L34.45625 171.99374Q35.221874 171.44687 36.065624 171.44687Q37.190624 171.44687 37.95625 172.22812Q38.7375 173.00937 38.7375 174.24374Q38.7375 175.4 38.065624 176.25937Q37.2375 177.29062 35.815624 177.29062Q34.64375 177.29062 33.89375 176.63437Q33.159374 175.97812 33.05 174.9Z" fill-rule="nonzero"/><path fill="#000000" d="M23.01875 134.71666L21.971874 134.71666L21.971874 127.99791Q21.58125 128.35728 20.95625 128.73228Q20.346874 129.09166 19.8625 129.26353L19.8625 128.24791Q20.7375 127.826035 21.39375 127.24791Q22.065624 126.65416 22.346874 126.09166L23.01875 126.09166L23.01875 134.71666ZM26.05 130.48228Q26.05 128.95103 26.3625 128.02916Q26.675 127.09166 27.284374 126.59166Q27.909374 126.09166 28.846874 126.09166Q29.534374 126.09166 30.05 126.37291Q30.58125 126.65416 30.925 127.18541Q31.26875 127.701035 31.45625 128.45103Q31.64375 129.20103 31.64375 130.48228Q31.64375 131.99791 31.33125 132.91978Q31.034374 133.84166 30.409374 134.35728Q29.8 134.85728 28.846874 134.85728Q27.6125 134.85728 26.89375 133.96666Q26.05 132.90416 26.05 130.48228ZM27.128124 130.48228Q27.128124 132.59166 27.628124 133.29478Q28.128124 133.99791 28.846874 133.99791Q29.58125 133.99791 30.065624 133.29478Q30.565624 132.59166 30.565624 130.48228Q30.565624 128.35728 30.065624 127.669785Q29.58125 126.96666 28.83125 126.96666Q28.1125 126.96666 27.675 127.576035Q27.128124 128.35728 27.128124 130.48228ZM33.05 130.48228Q33.05 128.95103 33.3625 128.02916Q33.675 127.09166 34.284374 126.59166Q34.909374 126.09166 35.846874 126.09166Q36.534374 126.09166 37.05 126.37291Q37.58125 126.65416 37.925 127.18541Q38.26875 127.701035 38.45625 128.45103Q38.64375 129.20103 38.64375 130.48228Q38.64375 131.99791 38.33125 132.91978Q38.034374 133.84166 37.409374 134.35728Q36.8 134.85728 35.846874 134.85728Q34.6125 134.85728 33.89375 133.96666Q33.05 132.90416 33.05 130.48228ZM34.128124 130.48228Q34.128124 132.59166 34.628124 133.29478Q35.128124 133.99791 35.846874 133.99791Q36.58125 133.99791 37.065624 133.29478Q37.565624 132.59166 37.565624 130.48228Q37.565624 128.35728 37.065624 127.669785Q36.58125 126.96666 35.83125 126.96666Q35.1125 126.96666 34.675 127.576035Q34.128124 128.35728 34.128124 130.48228Z" fill-rule="nonzero"/><path fill="#000000" d="M23.01875 92.28333L21.971874 92.28333L21.971874 85.56458Q21.58125 85.92396 20.95625 86.29896Q20.346874 86.65833 19.8625 86.83021L19.8625 85.81458Q20.7375 85.39271 21.39375 84.81458Q22.065624 84.22083 22.346874 83.65833L23.01875 83.65833L23.01875 92.28333ZM31.596874 91.26771L31.596874 92.28333L25.909374 92.28333Q25.909374 91.90833 26.034374 91.54896Q26.253124 90.97083 26.721874 90.40833Q27.20625 89.84583 28.1125 89.11146Q29.51875 87.95521 30.003124 87.28333Q30.503124 86.61146 30.503124 86.01771Q30.503124 85.39271 30.05 84.97083Q29.596874 84.53333 28.878124 84.53333Q28.1125 84.53333 27.659374 84.98646Q27.20625 85.43958 27.190624 86.25208L26.1125 86.14271Q26.221874 84.92396 26.940624 84.29896Q27.675 83.65833 28.909374 83.65833Q30.14375 83.65833 30.8625 84.34583Q31.58125 85.03333 31.58125 86.04896Q31.58125 86.56458 31.3625 87.06458Q31.159374 87.54896 30.659374 88.11146Q30.175 88.65833 29.05 89.61146Q28.096874 90.40833 27.815624 90.70521Q27.55 90.98646 27.378124 91.26771L31.596874 91.26771ZM33.05 90.03333L34.159374 89.93958Q34.284374 90.75208 34.721874 91.15833Q35.175 91.56458 35.815624 91.56458Q36.565624 91.56458 37.096874 90.98646Q37.628124 90.40833 37.628124 89.47083Q37.628124 88.56458 37.1125 88.04896Q36.6125 87.51771 35.784374 87.51771Q35.284374 87.51771 34.8625 87.75208Q34.45625 87.98646 34.221874 88.34583L33.2375 88.22083L34.065624 83.81458L38.346874 83.81458L38.346874 84.81458L34.909374 84.81458L34.45625 87.12708Q35.221874 86.58021 36.065624 86.58021Q37.190624 86.58021 37.95625 87.36146Q38.7375 88.14271 38.7375 89.37708Q38.7375 90.53333 38.065624 91.39271Q37.2375 92.42396 35.815624 92.42396Q34.64375 92.42396 33.89375 91.76771Q33.159374 91.11146 33.05 90.03333Z" fill-rule="nonzero"/><path fill="#000000" d="M25.55 313.21564Q25.55 311.6844 25.8625 310.7625Q26.175 309.825 26.784374 309.325Q27.409374 308.825 28.346874 308.825Q29.034374 308.825 29.55 309.10626Q30.08125 309.3875 30.425 309.91876Q30.76875 310.4344 30.95625 311.1844Q31.14375 311.9344 31.14375 313.21564Q31.14375 314.73126 30.83125 315.65314Q30.534374 316.575 29.909374 317.09064Q29.3 317.59064 28.346874 317.59064Q27.1125 317.59064 26.39375 316.7Q25.55 315.6375 25.55 313.21564ZM26.628124 313.21564Q26.628124 315.325 27.128124 316.02814Q27.628124 316.73126 28.346874 316.73126Q29.08125 316.73126 29.565624 316.02814Q30.065624 315.325 30.065624 313.21564Q30.065624 311.09064 29.565624 310.40314Q29.08125 309.7 28.33125 309.7Q27.6125 309.7 27.175 310.3094Q26.628124 311.09064 26.628124 313.21564ZM33.128124 312.4344L33.128124 311.23126L34.33125 311.23126L34.33125 312.4344L33.128124 312.4344ZM33.128124 317.45L33.128124 316.2469L34.33125 316.2469L34.33125 317.45L33.128124 317.45ZM35.55 313.21564Q35.55 311.6844 35.8625 310.7625Q36.175 309.825 36.784374 309.325Q37.409374 308.825 38.346874 308.825Q39.034374 308.825 39.55 309.10626Q40.08125 309.3875 40.425 309.91876Q40.76875 310.4344 40.95625 311.1844Q41.14375 311.9344 41.14375 313.21564Q41.14375 314.73126 40.83125 315.65314Q40.534374 316.575 39.909374 317.09064Q39.3 317.59064 38.346874 317.59064Q37.1125 317.59064 36.39375 316.7Q35.55 315.6375 35.55 313.21564ZM36.628124 313.21564Q36.628124 315.325 37.128124 316.02814Q37.628124 316.73126 38.346874 316.73126Q39.08125 316.73126 39.565624 316.02814Q40.065624 315.325 40.065624 313.21564Q40.065624 311.09064 39.565624 310.40314Q39.08125 309.7 38.33125 309.7Q37.6125 309.7 37.175 310.3094Q36.628124 311.09064 36.628124 313.21564ZM42.55 313.21564Q42.55 311.6844 42.8625 310.7625Q43.175 309.825 43.784374 309.325Q44.409374 308.825 45.346874 308.825Q46.034374 308.825 46.55 309.10626Q47.08125 309.3875 47.425 309.91876Q47.76875 310.4344 47.95625 311.1844Q48.14375 311.9344 48.14375 313.21564Q48.14375 314.73126 47.83125 315.65314Q47.534374 316.575 46.909374 317.09064Q46.3 317.59064 45.346874 317.59064Q44.1125 317.59064 43.39375 316.7Q42.55 315.6375 42.55 313.21564ZM43.628124 313.21564Q43.628124 315.325 44.128124 316.02814Q44.628124 316.73126 45.346874 316.73126Q46.08125 316.73126 46.565624 316.02814Q47.065624 315.325 47.065624 313.21564Q47.065624 311.09064 46.565624 310.40314Q46.08125 309.7 45.33125 309.7Q44.6125 309.7 44.175 310.3094Q43.628124 311.09064 43.628124 313.21564ZM50.128124 312.4344L50.128124 311.23126L51.33125 311.23126L51.33125 312.4344L50.128124 312.4344ZM50.128124 317.45L50.128124 316.2469L51.33125 316.2469L51.33125 317.45L50.128124 317.45ZM52.55 313.21564Q52.55 311.6844 52.8625 310.7625Q53.175 309.825 53.784374 309.325Q54.409374 308.825 55.346874 308.825Q56.034374 308.825 56.55 309.10626Q57.08125 309.3875 57.425 309.91876Q57.76875 310.4344 57.95625 311.1844Q58.14375 311.9344 58.14375 313.21564Q58.14375 314.73126 57.83125 315.65314Q57.534374 316.575 56.909374 317.09064Q56.3 317.59064 55.346874 317.59064Q54.1125 317.59064 53.39375 316.7Q52.55 315.6375 52.55 313.21564ZM53.628124 313.21564Q53.628124 315.325 54.128124 316.02814Q54.628124 316.73126 55.346874 316.73126Q56.08125 316.73126 56.565624 316.02814Q57.065624 315.325 57.065624 313.21564Q57.065624 311.09064 56.565624 310.40314Q56.08125 309.7 55.33125 309.7Q54.6125 309.7 54.175 310.3094Q53.628124 311.09064 53.628124 313.21564ZM59.55 313.21564Q59.55 311.6844 59.8625 310.7625Q60.175 309.825 60.784374 309.325Q61.409374 308.825 62.346874 308.825Q63.034374 308.825 63.55 309.10626Q64.08125 309.3875 64.425 309.91876Q64.76875 310.4344 64.95625 311.1844Q65.14375 311.9344 65.14375 313.21564Q65.14375 314.73126 64.83125 315.65314Q64.53438 316.575 63.909374 317.09064Q63.3 317.59064 62.346874 317.59064Q61.1125 317.59064 60.39375 316.7Q59.55 315.6375 59.55 313.21564ZM60.628124 313.21564Q60.628124 315.325 61.128124 316.02814Q61.628124 316.73126 62.346874 316.73126Q63.08125 316.73126 63.565624 316.02814Q64.06563 315.325 64.06563 313.21564Q64.06563 311.09064 63.565624 310.40314Q63.08125 309.7 62.33125 309.7Q61.6125 309.7 61.175 310.3094Q60.628124 311.09064 60.628124 313.21564Z" fill-rule="nonzero"/><path fill="#000000" d="M159.525 313.21564Q159.525 311.6844 159.8375 310.7625Q160.15 309.825 160.75937 309.325Q161.38437 308.825 162.32187 308.825Q163.00937 308.825 163.525 309.10626Q164.05624 309.3875 164.4 309.91876Q164.74374 310.4344 164.93124 311.1844Q165.11874 311.9344 165.11874 313.21564Q165.11874 314.73126 164.80624 315.65314Q164.50937 316.575 163.88437 317.09064Q163.275 317.59064 162.32187 317.59064Q161.0875 317.59064 160.36874 316.7Q159.525 315.6375 159.525 313.21564ZM160.60312 313.21564Q160.60312 315.325 161.10312 316.02814Q161.60312 316.73126 162.32187 316.73126Q163.05624 316.73126 163.54062 316.02814Q164.04062 315.325 164.04062 313.21564Q164.04062 311.09064 163.54062 310.40314Q163.05624 309.7 162.30624 309.7Q161.5875 309.7 161.15 310.3094Q160.60312 311.09064 160.60312 313.21564ZM167.10312 312.4344L167.10312 311.23126L168.30624 311.23126L168.30624 312.4344L167.10312 312.4344ZM167.10312 317.45L167.10312 316.2469L168.30624 316.2469L168.30624 317.45L167.10312 317.45ZM169.525 313.21564Q169.525 311.6844 169.8375 310.7625Q170.15 309.825 170.75937 309.325Q171.38437 308.825 172.32187 308.825Q173.00937 308.825 173.525 309.10626Q174.05624 309.3875 174.4 309.91876Q174.74374 310.4344 174.93124 311.1844Q175.11874 311.9344 175.11874 313.21564Q175.11874 314.73126 174.80624 315.65314Q174.50937 316.575 173.88437 317.09064Q173.275 317.59064 172.32187 317.59064Q171.0875 317.59064 170.36874 316.7Q169.525 315.6375 169.525 313.21564ZM170.60312 313.21564Q170.60312 315.325 171.10312 316.02814Q171.60312 316.73126 172.32187 316.73126Q173.05624 316.73126 173.54062 316.02814Q174.04062 315.325 174.04062 313.21564Q174.04062 311.09064 173.54062 310.40314Q173.05624 309.7 172.30624 309.7Q171.5875 309.7 171.15 310.3094Q170.60312 311.09064 170.60312 313.21564ZM176.525 313.21564Q176.525 311.6844 176.8375 310.7625Q177.15 309.825 177.75937 309.325Q178.38437 308.825 179.32187 308.825Q180.00937 308.825 180.525 309.10626Q181.05624 309.3875 181.4 309.91876Q181.74374 310.4344 181.93124 311.1844Q182.11874 311.9344 182.11874 313.21564Q182.11874 314.73126 181.80624 315.65314Q181.50937 316.575 180.88437 317.09064Q180.275 317.59064 179.32187 317.59064Q178.0875 317.59064 177.36874 316.7Q176.525 315.6375 176.525 313.21564ZM177.60312 313.21564Q177.60312 315.325 178.10312 316.02814Q178.60312 316.73126 179.32187 316.73126Q180.05624 316.73126 180.54062 316.02814Q181.04062 315.325 181.04062 313.21564Q181.04062 311.09064 180.54062 310.40314Q180.05624 309.7 179.30624 309.7Q178.5875 309.7 178.15 310.3094Q177.60312 311.09064 177.60312 313.21564ZM184.10312 312.4344L184.10312 311.23126L185.30624 311.23126L185.30624 312.4344L184.10312 312.4344ZM184.10312 317.45L184.10312 316.2469L185.30624 316.2469L185.30624 317.45L184.10312 317.45ZM186.525 315.1844L187.5875 315.04376Q187.75937 315.9344 188.19687 316.34064Q188.63437 316.73126 189.25937 316.73126Q190.00937 316.73126 190.525 316.21564Q191.04062 315.7 191.04062 314.9344Q191.04062 314.21564 190.55624 313.7469Q190.0875 313.2625 189.35312 313.2625Q189.05624 313.2625 188.60312 313.3875L188.72812 312.45Q188.8375 312.46564 188.9 312.46564Q189.57187 312.46564 190.10312 312.1219Q190.65 311.7625 190.65 311.02814Q190.65 310.45 190.25937 310.075Q189.86874 309.6844 189.24374 309.6844Q188.63437 309.6844 188.2125 310.075Q187.80624 310.46564 187.69687 311.23126L186.63437 311.04376Q186.82187 309.9969 187.50937 309.41876Q188.19687 308.825 189.2125 308.825Q189.91562 308.825 190.50937 309.1375Q191.10312 309.4344 191.41562 309.95Q191.72812 310.46564 191.72812 311.0594Q191.72812 311.60626 191.43124 312.075Q191.13437 312.52814 190.55624 312.79376Q191.30624 312.96564 191.72812 313.52814Q192.15 314.075 192.15 314.91876Q192.15 316.04376 191.32187 316.825Q190.50937 317.60626 189.25937 317.60626Q188.13437 317.60626 187.38437 316.9344Q186.63437 316.2469 186.525 315.1844ZM193.525 313.21564Q193.525 311.6844 193.8375 310.7625Q194.15 309.825 194.75937 309.325Q195.38437 308.825 196.32187 308.825Q197.00937 308.825 197.525 309.10626Q198.05624 309.3875 198.4 309.91876Q198.74374 310.4344 198.93124 311.1844Q199.11874 311.9344 199.11874 313.21564Q199.11874 314.73126 198.80624 315.65314Q198.50937 316.575 197.88437 317.09064Q197.275 317.59064 196.32187 317.59064Q195.0875 317.59064 194.36874 316.7Q193.525 315.6375 193.525 313.21564ZM194.60312 313.21564Q194.60312 315.325 195.10312 316.02814Q195.60312 316.73126 196.32187 316.73126Q197.05624 316.73126 197.54062 316.02814Q198.04062 315.325 198.04062 313.21564Q198.04062 311.09064 197.54062 310.40314Q197.05624 309.7 196.30624 309.7Q195.5875 309.7 195.15 310.3094Q194.60312 311.09064 194.60312 313.21564Z" fill-rule="nonzero"/><path fill="#000000" d="M293.5 313.21564Q293.5 311.6844 293.8125 310.7625Q294.125 309.825 294.73438 309.325Q295.35938 308.825 296.29688 308.825Q296.98438 308.825 297.5 309.10626Q298.03125 309.3875 298.375 309.91876Q298.71875 310.4344 298.90625 311.1844Q299.09375 311.9344 299.09375 313.21564Q299.09375 314.73126 298.78125 315.65314Q298.48438 316.575 297.85938 317.09064Q297.25 317.59064 296.29688 317.59064Q295.0625 317.59064 294.34375 316.7Q293.5 315.6375 293.5 313.21564ZM294.57812 313.21564Q294.57812 315.325 295.07812 316.02814Q295.57812 316.73126 296.29688 316.73126Q297.03125 316.73126 297.51562 316.02814Q298.01562 315.325 298.01562 313.21564Q298.01562 311.09064 297.51562 310.40314Q297.03125 309.7 296.28125 309.7Q295.5625 309.7 295.125 310.3094Q294.57812 311.09064 294.57812 313.21564ZM301.07812 312.4344L301.07812 311.23126L302.28125 311.23126L302.28125 312.4344L301.07812 312.4344ZM301.07812 317.45L301.07812 316.2469L302.28125 316.2469L302.28125 317.45L301.07812 317.45ZM303.5 313.21564Q303.5 311.6844 303.8125 310.7625Q304.125 309.825 304.73438 309.325Q305.35938 308.825 306.29688 308.825Q306.98438 308.825 307.5 309.10626Q308.03125 309.3875 308.375 309.91876Q308.71875 310.4344 308.90625 311.1844Q309.09375 311.9344 309.09375 313.21564Q309.09375 314.73126 308.78125 315.65314Q308.48438 316.575 307.85938 317.09064Q307.25 317.59064 306.29688 317.59064Q305.0625 317.59064 304.34375 316.7Q303.5 315.6375 303.5 313.21564ZM304.57812 313.21564Q304.57812 315.325 305.07812 316.02814Q305.57812 316.73126 306.29688 316.73126Q307.03125 316.73126 307.51562 316.02814Q308.01562 315.325 308.01562 313.21564Q308.01562 311.09064 307.51562 310.40314Q307.03125 309.7 306.28125 309.7Q305.5625 309.7 305.125 310.3094Q304.57812 311.09064 304.57812 313.21564ZM314.46875 317.45L313.42188 317.45L313.42188 310.73126Q313.03125 311.09064 312.40625 311.46564Q311.79688 311.825 311.3125 311.9969L311.3125 310.98126Q312.1875 310.5594 312.84375 309.98126Q313.51562 309.3875 313.79688 308.825L314.46875 308.825L314.46875 317.45ZM318.07812 312.4344L318.07812 311.23126L319.28125 311.23126L319.28125 312.4344L318.07812 312.4344ZM318.07812 317.45L318.07812 316.2469L319.28125 316.2469L319.28125 317.45L318.07812 317.45ZM320.5 313.21564Q320.5 311.6844 320.8125 310.7625Q321.125 309.825 321.73438 309.325Q322.35938 308.825 323.29688 308.825Q323.98438 308.825 324.5 309.10626Q325.03125 309.3875 325.375 309.91876Q325.71875 310.4344 325.90625 311.1844Q326.09375 311.9344 326.09375 313.21564Q326.09375 314.73126 325.78125 315.65314Q325.48438 316.575 324.85938 317.09064Q324.25 317.59064 323.29688 317.59064Q322.0625 317.59064 321.34375 316.7Q320.5 315.6375 320.5 313.21564ZM321.57812 313.21564Q321.57812 315.325 322.07812 316.02814Q322.57812 316.73126 323.29688 316.73126Q324.03125 316.73126 324.51562 316.02814Q325.01562 315.325 325.01562 313.21564Q325.01562 311.09064 324.51562 310.40314Q324.03125 309.7 323.28125 309.7Q322.5625 309.7 322.125 310.3094Q321.57812 311.09064 321.57812 313.21564ZM327.5 313.21564Q327.5 311.6844 327.8125 310.7625Q328.125 309.825 328.73438 309.325Q329.35938 308.825 330.29688 308.825Q330.98438 308.825 331.5 309.10626Q332.03125 309.3875 332.375 309.91876Q332.71875 310.4344 332.90625 311.1844Q333.09375 311.9344 333.09375 313.21564Q333.09375 314.73126 332.78125 315.65314Q332.48438 316.575 331.85938 317.09064Q331.25 317.59064 330.29688 317.59064Q329.0625 317.59064 328.34375 316.7Q327.5 315.6375 327.5 313.21564ZM328.57812 313.21564Q328.57812 315.325 329.07812 316.02814Q329.57812 316.73126 330.29688 316.73126Q331.03125 316.73126 331.51562 316.02814Q332.01562 315.325 332.01562 313.21564Q332.01562 311.09064 331.51562 310.40314Q331.03125 309.7 330.28125 309.7Q329.5625 309.7 329.125 310.3094Q328.57812 311.09064 328.57812 313.21564Z" fill-rule="nonzero"/><path fill="#000000" d="M427.475 313.21564Q427.475 311.6844 427.7875 310.7625Q428.1 309.825 428.70938 309.325Q429.33438 308.825 430.27188 308.825Q430.95938 308.825 431.475 309.10626Q432.00626 309.3875 432.35 309.91876Q432.69376 310.4344 432.88126 311.1844Q433.06876 311.9344 433.06876 313.21564Q433.06876 314.73126 432.75626 315.65314Q432.45938 316.575 431.83438 317.09064Q431.225 317.59064 430.27188 317.59064Q429.0375 317.59064 428.31876 316.7Q427.475 315.6375 427.475 313.21564ZM428.55313 313.21564Q428.55313 315.325 429.05313 316.02814Q429.55313 316.73126 430.27188 316.73126Q431.00626 316.73126 431.49063 316.02814Q431.99063 315.325 431.99063 313.21564Q431.99063 311.09064 431.49063 310.40314Q431.00626 309.7 430.25626 309.7Q429.5375 309.7 429.1 310.3094Q428.55313 311.09064 428.55313 313.21564ZM435.05313 312.4344L435.05313 311.23126L436.25626 311.23126L436.25626 312.4344L435.05313 312.4344ZM435.05313 317.45L435.05313 316.2469L436.25626 316.2469L436.25626 317.45L435.05313 317.45ZM437.475 313.21564Q437.475 311.6844 437.7875 310.7625Q438.1 309.825 438.70938 309.325Q439.33438 308.825 440.27188 308.825Q440.95938 308.825 441.475 309.10626Q442.00626 309.3875 442.35 309.91876Q442.69376 310.4344 442.88126 311.1844Q443.06876 311.9344 443.06876 313.21564Q443.06876 314.73126 442.75626 315.65314Q442.45938 316.575 441.83438 317.09064Q441.225 317.59064 440.27188 317.59064Q439.0375 317.59064 438.31876 316.7Q437.475 315.6375 437.475 313.21564ZM438.55313 313.21564Q438.55313 315.325 439.05313 316.02814Q439.55313 316.73126 440.27188 316.73126Q441.00626 316.73126 441.49063 316.02814Q441.99063 315.325 441.99063 313.21564Q441.99063 311.09064 441.49063 310.40314Q441.00626 309.7 440.25626 309.7Q439.5375 309.7 439.1 310.3094Q438.55313 311.09064 438.55313 313.21564ZM448.44376 317.45L447.39688 317.45L447.39688 310.73126Q447.00626 311.09064 446.38126 311.46564Q445.77188 311.825 445.2875 311.9969L445.2875 310.98126Q446.1625 310.5594 446.81876 309.98126Q447.49063 309.3875 447.77188 308.825L448.44376 308.825L448.44376 317.45ZM452.05313 312.4344L452.05313 311.23126L453.25626 311.23126L453.25626 312.4344L452.05313 312.4344ZM452.05313 317.45L452.05313 316.2469L453.25626 316.2469L453.25626 317.45L452.05313 317.45ZM454.475 315.1844L455.5375 315.04376Q455.70938 315.9344 456.14688 316.34064Q456.58438 316.73126 457.20938 316.73126Q457.95938 316.73126 458.475 316.21564Q458.99063 315.7 458.99063 314.9344Q458.99063 314.21564 458.50626 313.7469Q458.0375 313.2625 457.30313 313.2625Q457.00626 313.2625 456.55313 313.3875L456.67813 312.45Q456.7875 312.46564 456.85 312.46564Q457.52188 312.46564 458.05313 312.1219Q458.6 311.7625 458.6 311.02814Q458.6 310.45 458.20938 310.075Q457.81876 309.6844 457.19376 309.6844Q456.58438 309.6844 456.1625 310.075Q455.75626 310.46564 455.64688 311.23126L454.58438 311.04376Q454.77188 309.9969 455.45938 309.41876Q456.14688 308.825 457.1625 308.825Q457.86563 308.825 458.45938 309.1375Q459.05313 309.4344 459.36563 309.95Q459.67813 310.46564 459.67813 311.0594Q459.67813 311.60626 459.38126 312.075Q459.08438 312.52814 458.50626 312.79376Q459.25626 312.96564 459.67813 313.52814Q460.1 314.075 460.1 314.91876Q460.1 316.04376 459.27188 316.825Q458.45938 317.60626 457.20938 317.60626Q456.08438 317.60626 455.33438 316.9344Q454.58438 316.2469 454.475 315.1844ZM461.475 313.21564Q461.475 311.6844 461.7875 310.7625Q462.1 309.825 462.70938 309.325Q463.33438 308.825 464.27188 308.825Q464.95938 308.825 465.475 309.10626Q466.00626 309.3875 466.35 309.91876Q466.69376 310.4344 466.88126 311.1844Q467.06876 311.9344 467.06876 313.21564Q467.06876 314.73126 466.75626 315.65314Q466.45938 316.575 465.83438 317.09064Q465.225 317.59064 464.27188 317.59064Q463.0375 317.59064 462.31876 316.7Q461.475 315.6375 461.475 313.21564ZM462.55313 313.21564Q462.55313 315.325 463.05313 316.02814Q463.55313 316.73126 464.27188 316.73126Q465.00626 316.73126 465.49063 316.02814Q465.99063 315.325 465.99063 313.21564Q465.99063 311.09064 465.49063 310.40314Q465.00626 309.7 464.25626 309.7Q463.5375 309.7 463.1 310.3094Q462.55313 311.09064 462.55313 313.21564Z" fill-rule="nonzero"/><path stroke="#4285f4" stroke-width="4.0" stroke-linecap="butt" d="M241.0 61.916668L253.0 61.916668" fill-rule="nonzero"/><path fill="#1a1a1a" d="M261.76562 65.916664L261.76562 57.322914L262.82812 57.322914L262.82812 65.916664L261.76562 65.916664ZM268.85938 65.15104Q268.26562 65.65104 267.71875 65.854164Q267.1875 66.05729 266.5625 66.05729Q265.53125 66.05729 264.98438 65.55729Q264.4375 65.05729 264.4375 64.27604Q264.4375 63.822914 264.64062 63.447914Q264.84375 63.05729 265.1875 62.83854Q265.53125 62.604164 265.95312 62.49479Q266.25 62.40104 266.89062 62.322914Q268.15625 62.18229 268.76562 61.96354Q268.76562 61.74479 268.76562 61.697914Q268.76562 61.041664 268.46875 60.77604Q268.0625 60.43229 267.26562 60.43229Q266.53125 60.43229 266.17188 60.697914Q265.8125 60.947914 265.64062 61.604164L264.60938 61.46354Q264.75 60.80729 265.07812 60.40104Q265.40625 59.99479 266.01562 59.77604Q266.625 59.55729 267.42188 59.55729Q268.21875 59.55729 268.71875 59.74479Q269.21875 59.93229 269.45312 60.21354Q269.6875 60.49479 269.78125 60.93229Q269.82812 61.197914 269.82812 61.90104L269.82812 63.30729Q269.82812 64.77604 269.89062 65.166664Q269.96875 65.55729 270.17188 65.916664L269.0625 65.916664Q268.90625 65.58854 268.85938 65.15104ZM268.76562 62.791664Q268.1875 63.02604 267.04688 63.197914Q266.39062 63.291664 266.125 63.416664Q265.85938 63.52604 265.70312 63.74479Q265.5625 63.96354 265.5625 64.24479Q265.5625 64.666664 265.875 64.947914Q266.20312 65.229164 266.8125 65.229164Q267.42188 65.229164 267.89062 64.96354Q268.375 64.697914 268.59375 64.229164Q268.76562 63.86979 268.76562 63.18229L268.76562 62.791664ZM271.59375 66.43229L272.625 66.58854Q272.6875 67.05729 272.98438 67.27604Q273.375 67.572914 274.04688 67.572914Q274.78125 67.572914 275.17188 67.27604Q275.57812 66.979164 275.71875 66.46354Q275.8125 66.135414 275.79688 65.104164Q275.10938 65.916664 274.07812 65.916664Q272.79688 65.916664 272.09375 64.99479Q271.39062 64.05729 271.39062 62.77604Q271.39062 61.885414 271.70312 61.135414Q272.03125 60.36979 272.64062 59.96354Q273.25 59.55729 274.07812 59.55729Q275.1875 59.55729 275.90625 60.447914L275.90625 59.697914L276.875 59.697914L276.875 65.072914Q276.875 66.52604 276.57812 67.135414Q276.28125 67.74479 275.64062 68.08854Q275.0 68.447914 274.0625 68.447914Q272.95312 68.447914 272.26562 67.947914Q271.57812 67.447914 271.59375 66.43229ZM272.46875 62.697914Q272.46875 63.916664 272.95312 64.479164Q273.4375 65.041664 274.17188 65.041664Q274.90625 65.041664 275.39062 64.479164Q275.89062 63.916664 275.89062 62.729164Q275.89062 61.58854 275.375 61.010414Q274.875 60.43229 274.15625 60.43229Q273.45312 60.43229 272.95312 61.010414Q272.46875 61.572914 272.46875 62.697914Z" fill-rule="nonzero"/><path stroke="#ea4335" stroke-width="4.0" stroke-linecap="butt" d="M294.0 61.916668L306.0 61.916668" fill-rule="nonzero"/><path fill="#1a1a1a" d="M317.09375 64.979164L317.25 65.90104Q316.79688 65.99479 316.45312 65.99479Q315.875 65.99479 315.5625 65.822914Q315.25 65.635414 315.10938 65.33854Q314.98438 65.041664 314.98438 64.08854L314.98438 60.510414L314.21875 60.510414L314.21875 59.697914L314.98438 59.697914L314.98438 58.15104L316.03125 57.52604L316.03125 59.697914L317.09375 59.697914L317.09375 60.510414L316.03125 60.510414L316.03125 64.15104Q316.03125 64.604164 316.07812 64.729164Q316.14062 64.854164 316.26562 64.93229Q316.39062 65.010414 316.625 65.010414Q316.8125 65.010414 317.09375 64.979164ZM317.79688 65.916664L317.79688 57.322914L318.84375 57.322914L318.84375 60.40104Q319.57812 59.55729 320.70312 59.55729Q321.40625 59.55729 321.90625 59.83854Q322.42188 60.104164 322.64062 60.58854Q322.85938 61.05729 322.85938 61.979164L322.85938 65.916664L321.8125 65.916664L321.8125 61.979164Q321.8125 61.18229 321.46875 60.822914Q321.125 60.46354 320.5 60.46354Q320.03125 60.46354 319.60938 60.71354Q319.20312 60.947914 319.01562 61.36979Q318.84375 61.77604 318.84375 62.510414L318.84375 65.916664L317.79688 65.916664ZM324.78125 65.916664L324.78125 59.697914L325.73438 59.697914L325.73438 60.635414Q326.09375 59.979164 326.39062 59.77604Q326.70312 59.55729 327.07812 59.55729Q327.60938 59.55729 328.15625 59.885414L327.79688 60.86979Q327.40625 60.635414 327.03125 60.635414Q326.67188 60.635414 326.39062 60.854164Q326.125 61.05729 326.01562 61.43229Q325.82812 61.99479 325.82812 62.65104L325.82812 65.916664L324.78125 65.916664ZM333.04688 63.916664L334.14062 64.041664Q333.89062 64.99479 333.1875 65.52604Q332.48438 66.05729 331.40625 66.05729Q330.04688 66.05729 329.23438 65.21354Q328.4375 64.36979 328.4375 62.854164Q328.4375 61.291664 329.25 60.43229Q330.0625 59.55729 331.34375 59.55729Q332.59375 59.55729 333.375 60.40104Q334.17188 61.24479 334.17188 62.791664Q334.17188 62.885414 334.17188 63.072914L329.53125 63.072914Q329.59375 64.104164 330.10938 64.65104Q330.625 65.18229 331.40625 65.18229Q331.98438 65.18229 332.39062 64.885414Q332.8125 64.572914 333.04688 63.916664ZM329.59375 62.21354L333.0625 62.21354Q333.0 61.416664 332.67188 61.02604Q332.15625 60.416664 331.35938 60.416664Q330.625 60.416664 330.125 60.90104Q329.64062 61.385414 329.59375 62.21354ZM335.375 64.05729L336.40625 63.90104Q336.5 64.52604 336.89062 64.854164Q337.29688 65.18229 338.03125 65.18229Q338.75 65.18229 339.09375 64.90104Q339.45312 64.604164 339.45312 64.197914Q339.45312 63.83854 339.14062 63.635414Q338.92188 63.49479 338.0625 63.27604Q336.90625 62.979164 336.45312 62.77604Q336.01562 62.55729 335.78125 62.18229Q335.54688 61.80729 335.54688 61.33854Q335.54688 60.93229 335.73438 60.572914Q335.92188 60.21354 336.25 59.979164Q336.5 59.80729 336.92188 59.68229Q337.34375 59.55729 337.84375 59.55729Q338.5625 59.55729 339.10938 59.77604Q339.67188 59.979164 339.9375 60.33854Q340.20312 60.697914 340.29688 61.291664L339.26562 61.43229Q339.20312 60.96354 338.85938 60.697914Q338.53125 60.416664 337.90625 60.416664Q337.1875 60.416664 336.875 60.666664Q336.5625 60.90104 336.5625 61.229164Q336.5625 61.43229 336.6875 61.58854Q336.82812 61.760414 337.09375 61.86979Q337.25 61.93229 338.03125 62.135414Q339.15625 62.447914 339.59375 62.635414Q340.03125 62.822914 340.28125 63.18229Q340.53125 63.541664 340.53125 64.08854Q340.53125 64.61979 340.21875 65.08854Q339.92188 65.541664 339.34375 65.80729Q338.76562 66.05729 338.03125 66.05729Q336.8125 66.05729 336.17188 65.55729Q335.54688 65.041664 335.375 64.05729ZM342.40625 62.80729Q342.40625 61.072914 343.35938 60.24479Q344.15625 59.55729 345.3125 59.55729Q346.59375 59.55729 347.40625 60.40104Q348.23438 61.229164 348.23438 62.71354Q348.23438 63.916664 347.875 64.604164Q347.51562 65.291664 346.8125 65.68229Q346.125 66.05729 345.3125 66.05729Q344.01562 66.05729 343.20312 65.229164Q342.40625 64.385414 342.40625 62.80729ZM343.48438 62.80729Q343.48438 63.99479 344.0 64.58854Q344.53125 65.18229 345.3125 65.18229Q346.10938 65.18229 346.625 64.58854Q347.14062 63.99479 347.14062 62.77604Q347.14062 61.61979 346.60938 61.02604Q346.09375 60.43229 345.3125 60.43229Q344.53125 60.43229 344.0 61.02604Q343.48438 61.604164 343.48438 62.80729ZM349.76562 65.916664L349.76562 57.322914L350.82812 57.322914L350.82812 65.916664L349.76562 65.916664ZM356.82812 65.916664L356.82812 65.135414Q356.23438 66.05729 355.09375 66.05729Q354.34375 66.05729 353.71875 65.65104Q353.09375 65.229164 352.75 64.49479Q352.40625 63.760414 352.40625 62.80729Q352.40625 61.885414 352.71875 61.11979Q353.03125 60.354164 353.65625 59.96354Q354.28125 59.55729 355.04688 59.55729Q355.60938 59.55729 356.04688 59.791664Q356.48438 60.02604 356.76562 60.40104L356.76562 57.322914L357.8125 57.322914L357.8125 65.916664L356.82812 65.916664ZM353.5 62.80729Q353.5 64.010414 354.0 64.604164Q354.5 65.18229 355.1875 65.18229Q355.875 65.18229 356.35938 64.61979Q356.84375 64.05729 356.84375 62.90104Q356.84375 61.61979 356.34375 61.02604Q355.85938 60.43229 355.14062 60.43229Q354.4375 60.43229 353.96875 61.010414Q353.5 61.572914 353.5 62.80729Z" fill-rule="nonzero"/><path fill="#757575" d="M30.315624 32.534374L32.20625 33.003124Q31.6125 35.346874 30.065624 36.58125Q28.51875 37.8 26.26875 37.8Q23.95625 37.8 22.503124 36.8625Q21.065624 35.909374 20.3 34.128124Q19.55 32.33125 19.55 30.284374Q19.55 28.05 20.39375 26.39375Q21.253124 24.721874 22.83125 23.8625Q24.409374 22.9875 26.3 22.9875Q28.45625 22.9875 29.909374 24.08125Q31.378124 25.175 31.95625 27.159374L30.096874 27.596874Q29.596874 26.034374 28.64375 25.33125Q27.70625 24.6125 26.26875 24.6125Q24.6125 24.6125 23.503124 25.409374Q22.39375 26.190624 21.940624 27.534374Q21.503124 28.8625 21.503124 30.26875Q21.503124 32.096874 22.034374 33.471874Q22.565624 34.83125 23.690624 35.503124Q24.815624 36.175 26.1125 36.175Q27.70625 36.175 28.815624 35.253124Q29.925 34.33125 30.315624 32.534374ZM33.221874 32.3625Q33.221874 29.4875 34.815624 28.096874Q36.159374 26.940624 38.08125 26.940624Q40.221874 26.940624 41.565624 28.346874Q42.925 29.753124 42.925 32.221874Q42.925 34.221874 42.33125 35.378124Q41.7375 36.51875 40.58125 37.159374Q39.440624 37.784374 38.08125 37.784374Q35.89375 37.784374 34.55 36.39375Q33.221874 34.9875 33.221874 32.3625ZM35.01875 32.3625Q35.01875 34.3625 35.878124 35.346874Q36.753124 36.33125 38.08125 36.33125Q39.39375 36.33125 40.253124 35.346874Q41.128124 34.346874 41.128124 32.3Q41.128124 30.378124 40.253124 29.39375Q39.378124 28.39375 38.08125 28.39375Q36.753124 28.39375 35.878124 29.39375Q35.01875 30.378124 35.01875 32.3625ZM44.8625 37.55L44.8625 27.175L46.45625 27.175L46.45625 28.659374Q47.596874 26.940624 49.753124 26.940624Q50.690624 26.940624 51.471874 27.284374Q52.26875 27.6125 52.659374 28.159374Q53.05 28.70625 53.20625 29.45625Q53.3 29.95625 53.3 31.175L53.3 37.55L51.534374 37.55L51.534374 31.2375Q51.534374 30.159374 51.33125 29.628124Q51.128124 29.096874 50.596874 28.784374Q50.08125 28.471874 49.378124 28.471874Q48.253124 28.471874 47.440624 29.190624Q46.628124 29.89375 46.628124 31.878124L46.628124 37.55L44.8625 37.55ZM54.159374 34.45625L55.909374 34.175Q56.05 35.221874 56.721874 35.784374Q57.39375 36.33125 58.596874 36.33125Q59.8 36.33125 60.378124 35.846874Q60.971874 35.346874 60.971874 34.690624Q60.971874 34.096874 60.45625 33.753124Q60.096874 33.51875 58.659374 33.159374Q56.721874 32.659374 55.971874 32.315624Q55.2375 31.95625 54.846874 31.33125Q54.45625 30.690624 54.45625 29.925Q54.45625 29.2375 54.76875 28.64375Q55.096874 28.05 55.64375 27.659374Q56.05 27.3625 56.753124 27.159374Q57.471874 26.940624 58.284374 26.940624Q59.503124 26.940624 60.425 27.3Q61.346874 27.64375 61.784374 28.253124Q62.221874 28.846874 62.39375 29.846874L60.675 30.08125Q60.55 29.284374 59.9875 28.846874Q59.425 28.39375 58.409374 28.39375Q57.190624 28.39375 56.675 28.8Q56.159374 29.190624 56.159374 29.721874Q56.159374 30.065624 56.378124 30.346874Q56.58125 30.628124 57.05 30.815624Q57.315624 30.909374 58.596874 31.253124Q60.471874 31.753124 61.20625 32.08125Q61.940624 32.39375 62.3625 33.003124Q62.784374 33.596874 62.784374 34.503124Q62.784374 35.378124 62.26875 36.159374Q61.753124 36.940624 60.784374 37.3625Q59.815624 37.784374 58.596874 37.784374Q56.58125 37.784374 55.51875 36.940624Q54.45625 36.096874 54.159374 34.45625ZM71.65938 37.55L71.65938 36.01875Q70.45625 37.784374 68.37813 37.784374Q67.45625 37.784374 66.65938 37.440624Q65.8625 37.08125 65.47188 36.55Q65.09688 36.01875 64.94063 35.2375Q64.83125 34.721874 64.83125 33.596874L64.83125 27.175L66.58125 27.175L66.58125 32.925Q66.58125 34.3 66.69063 34.784374Q66.8625 35.471874 67.39375 35.878124Q67.94063 36.26875 68.72188 36.26875Q69.51875 36.26875 70.20625 35.8625Q70.90938 35.45625 71.19063 34.76875Q71.4875 34.065624 71.4875 32.7375L71.4875 27.175L73.2375 27.175L73.2375 37.55L71.65938 37.55ZM74.8625 37.55L74.8625 27.175L76.44063 27.175L76.44063 28.628124Q76.925 27.878124 77.7375 27.409374Q78.55 26.940624 79.58125 26.940624Q80.7375 26.940624 81.47188 27.425Q82.20625 27.89375 82.51875 28.753124Q83.75313 26.940624 85.72188 26.940624Q87.26875 26.940624 88.09688 27.8Q88.925 28.659374 88.925 30.425L88.925 37.55L87.175 37.55L87.175 31.01875Q87.175 29.95625 87.00313 29.503124Q86.83125 29.034374 86.37813 28.753124Q85.94063 28.471874 85.33125 28.471874Q84.2375 28.471874 83.50313 29.20625Q82.78438 29.925 82.78438 31.51875L82.78438 37.55L81.03438 37.55L81.03438 30.815624Q81.03438 29.64375 80.59688 29.065624Q80.175 28.471874 79.19063 28.471874Q78.45625 28.471874 77.81563 28.8625Q77.19063 29.253124 76.90938 30.003124Q76.62813 30.753124 76.62813 32.175L76.62813 37.55L74.8625 37.55ZM97.97188 34.20625L99.78438 34.440624Q99.3625 36.01875 98.19063 36.909374Q97.03438 37.784374 95.22188 37.784374Q92.95625 37.784374 91.6125 36.39375Q90.28438 34.9875 90.28438 32.45625Q90.28438 29.83125 91.62813 28.39375Q92.97188 26.940624 95.12813 26.940624Q97.20625 26.940624 98.51875 28.3625Q99.84688 29.76875 99.84688 32.346874Q99.84688 32.503124 99.83125 32.815624L92.09688 32.815624Q92.19063 34.51875 93.06563 35.425Q93.94063 36.33125 95.2375 36.33125Q96.20625 36.33125 96.87813 35.83125Q97.56563 35.315624 97.97188 34.20625ZM92.19063 31.3625L97.9875 31.3625Q97.87813 30.065624 97.33125 29.409374Q96.4875 28.39375 95.14375 28.39375Q93.94063 28.39375 93.1125 29.20625Q92.28438 30.003124 92.19063 31.3625ZM101.84688 37.55L101.84688 27.175L103.425 27.175L103.425 28.753124Q104.03438 27.64375 104.55 27.3Q105.06563 26.940624 105.675 26.940624Q106.56563 26.940624 107.4875 27.503124L106.87813 29.14375Q106.2375 28.753124 105.59688 28.753124Q105.01875 28.753124 104.55 29.1125Q104.09688 29.45625 103.89375 30.065624Q103.6125 31.003124 103.6125 32.1125L103.6125 37.55L101.84688 37.55ZM115.01875 37.55L115.01875 23.2375L116.90938 23.2375L116.90938 35.8625L123.95625 35.8625L123.95625 37.55L115.01875 37.55ZM132.64375 36.26875Q131.65938 37.096874 130.75313 37.440624Q129.84688 37.784374 128.81563 37.784374Q127.1125 37.784374 126.19063 36.95625Q125.26875 36.1125 125.26875 34.815624Q125.26875 34.05 125.6125 33.425Q125.97188 32.8 126.53438 32.425Q127.09688 32.034374 127.8 31.83125Q128.31563 31.70625 129.3625 31.565624Q131.4875 31.315624 132.4875 30.971874Q132.50313 30.6125 132.50313 30.503124Q132.50313 29.440624 132.00313 28.9875Q131.33125 28.39375 130.00313 28.39375Q128.75313 28.39375 128.15938 28.83125Q127.58125 29.26875 127.3 30.378124L125.58125 30.14375Q125.81563 29.034374 126.34688 28.3625Q126.87813 27.675 127.89375 27.315624Q128.90938 26.940624 130.25313 26.940624Q131.58125 26.940624 132.40938 27.253124Q133.2375 27.565624 133.62813 28.05Q134.01875 28.51875 134.175 29.2375Q134.26875 29.690624 134.26875 30.8625L134.26875 33.20625Q134.26875 35.659374 134.37813 36.315624Q134.4875 36.95625 134.83125 37.55L132.9875 37.55Q132.72188 37.003124 132.64375 36.26875ZM132.4875 32.346874Q131.53438 32.7375 129.6125 33.003124Q128.53438 33.159374 128.08125 33.3625Q127.64375 33.55 127.39375 33.925Q127.14375 34.3 127.14375 34.76875Q127.14375 35.471874 127.675 35.940624Q128.20625 36.409374 129.2375 36.409374Q130.25313 36.409374 131.03438 35.971874Q131.83125 35.51875 132.20625 34.753124Q132.4875 34.14375 132.4875 32.9875L132.4875 32.346874ZM136.55 38.409374L138.25313 38.659374Q138.3625 39.45625 138.84688 39.815624Q139.50313 40.3 140.64375 40.3Q141.8625 40.3 142.51875 39.815624Q143.19063 39.33125 143.425 38.45625Q143.56563 37.909374 143.55 36.190624Q142.39375 37.55 140.675 37.55Q138.53438 37.55 137.3625 36.003124Q136.19063 34.45625 136.19063 32.3Q136.19063 30.815624 136.72188 29.565624Q137.26875 28.315624 138.28438 27.628124Q139.31563 26.940624 140.69063 26.940624Q142.51875 26.940624 143.72188 28.425L143.72188 27.175L145.33125 27.175L145.33125 36.14375Q145.33125 38.565624 144.83125 39.565624Q144.34688 40.58125 143.26875 41.159374Q142.20625 41.753124 140.64375 41.753124Q138.8 41.753124 137.64375 40.925Q136.50313 40.096874 136.55 38.409374ZM138.00313 32.175Q138.00313 34.221874 138.81563 35.159374Q139.62813 36.096874 140.84688 36.096874Q142.05 36.096874 142.8625 35.159374Q143.69063 34.221874 143.69063 32.2375Q143.69063 30.33125 142.84688 29.3625Q142.00313 28.39375 140.81563 28.39375Q139.64375 28.39375 138.81563 29.346874Q138.00313 30.3 138.00313 32.175Z" fill-rule="nonzero"/></svg>