<svg version="1.1" viewBox="0.0 0.0 600.0 371.0" fill="none" stroke="none" stroke-linecap="square" stroke-miterlimit="10" width="600" height="371" xmlns:xlink="http://www.w3.org/1999/xlink" xmlns="http://www.w3.org/2000/svg"><path fill="#ffffff" d="M0 0L600.0 0L600.0 371.0L0 371.0L0 0Z" fill-rule="nonzero"/><path stroke="#cccccc" stroke-width="1.0" stroke-linecap="butt" d="M45.5 88.5L45.5 300.5" fill-rule="nonzero"/><path stroke="#cccccc" stroke-width="1.0" stroke-linecap="butt" d="M152.5 88.5L152.5 300.5" fill-rule="nonzero"/><path stroke="#cccccc" stroke-width="1.0" stroke-linecap="butt" d="M259.5 88.5L259.5 300.5" fill-rule="nonzero"/><path stroke="#cccccc" stroke-width="1.0" stroke-linecap="butt" d="M367.5 88.5L367.5 300.5" fill-rule="nonzero"/><path stroke="#cccccc" stroke-width="1.0" stroke-linecap="butt" d="M474.5 88.5L474.5 300.5" fill-rule="nonzero"/><path stroke="#cccccc" stroke-width="1.0" stroke-linecap="butt" d="M581.5 88.5L581.5 300.5" fill-rule="nonzero"/><path stroke="#333333" stroke-width="1.0" stroke-linecap="butt" d="M45.5 300.5L581.5 300.5" fill-rule="nonzero"/><path stroke="#cccccc" stroke-width="1.0" stroke-linecap="butt" d="M45.5 229.5L581.5 229.5" fill-rule="nonzero"/><path stroke="#cccccc" stroke-width="1.0" stroke-linecap="butt" d="M45.5 159.5L581.5 159.5" fill-rule="nonzero"/><path stroke="#cccccc" stroke-width="1.0" stroke-linecap="butt" d="M45.5 88.5L581.5 88.5" fill-rule="nonzero"/><clipPath id="id_0"><path d="M45.55 88.28333L581.45 88.28333L581.45 300.45L45.55 300.45L45.55 88.28333Z" clip-rule="nonzero"/></clipPath><path stroke="#4285f4" stroke-width="2.0" stroke-linecap="butt" clip-path="url(#id_0)" d="M45.55 300.45L152.73 300.45L161.66167 300.45L170.59334 265.0889L179.525 194.36667L188.45667 88.28333L197.38834 123.64445L206.32 123.64445L474.27 123.64445L483.20166 159.00555L492.13333 229.72778L501.065 300.45L509.99667 300.45L518.92834 300.45L581.45 300.45" fill-rule="nonzero"/><path stroke="#ea4335" stroke-width="2.0" stroke-linecap="butt" clip-path="url(#id_0)" d="M45.55 229.72778L152.73 229.72778L161.66167 229.72778L170.59334 229.72778L179.525 229.72778L188.45667 229.72778L197.38834 229.72778L206.32 229.72778L474.27 229.72778L483.20166 229.72778L492.13333 229.72778L501.065 229.72778L509.99667 229.72778L518.92834 229.72778L581.45 229.72778" fill-rule="nonzero"/><path fill="#000000" fill-opacity="0.0" clip-path="url(#id_0)" d="M48.55 300.45C48.55 302.10684 47.206856 303.45 45.55 303.45C43.893147 303.45 42.55 302.10684 42.55 300.45C42.55 298.79315 43.893147 297.45 45.55 297.45C47.206856 297.45 48.55 298.79315 48.55 300.45Z" fill-rule="nonzero"/><path fill="#000000" fill-opacity="0.0" clip-path="url(#id_0)" d="M155.73 300.45C155.73 302.10684 154.38686 303.45 152.73 303.45C151.07315 303.45 149.73 302.10684 149.73 300.45C149.73 298.79315 151.07315 297.45 152.73 297.45C154.38686 297.45 155.73 298.79315 155.73 300.45Z" fill-rule="nonzero"/><path fill="#000000" fill-opacity="0.0" clip-path="url(#id_0)" d="M164.66167 300.45C164.66167 302.10684 163.31853 303.45 161.66167 303.45C160.0048 303.45 158.66167 302.10684 158.66167 300.45C158.66167 298.79315 160.0048 297.45 161.66167 297.45C163.31853 297.45 164.66167 298.79315 164.66167 300.45Z" fill-rule="nonzero"/><path fill="#000000" fill-opacity="0.0" clip-path="url(#id_0)" d="M173.59334 265.0889C173.59334 266.74576 172.25018 268.0889 170.59334 268.0889C168.93648 268.0889 167.59334 266.74576 167.59334 265.0889C167.59334 263.43204 168.93648 262.0889 170.59334 262.0889C172.25018 262.0889 173.59334 263.43204 173.59334 265.0889Z" fill-rule="nonzero"/><path fill="#000000" fill-opacity="0.0" clip-path="url(#id_0)" d="M182.525 194.36667C182.525 196.02351 181.18185 197.36667 179.525 197.36667C177.86815 197.36667 176.525 196.02351 176.525 194.36667C176.525 192.70981 177.86815 191.36667 179.525 191.36667C181.18185 191.36667 182.525 192.70981 182.525 194.36667Z" fill-rule="nonzero"/><path fill="#000000" fill-opacity="0.0" clip-path="url(#id_0)" d="M191.45667 88.28333C191.45667 89.940186 190.11353 91.28333 188.45667 91.28333C186.79982 91.28333 185.45667 89.940186 185.45667 88.28333C185.45667 86.62648 186.79982 85.28333 188.45667 85.28333C190.11353 85.28333 191.45667 86.62648 191.45667 88.28333Z" fill-rule="nonzero"/><path fill="#000000" fill-opacity="0.0" clip-path="url(#id_0)" d="M200.38834 123.64445C200.38834 125.3013 199.04518 126.64445 197.38834 126.64445C195.73148 126.64445 194.38834 125.3013 194.38834 123.64445C194.38834 121.98759 195.73148 120.64445 197.38834 120.64445C199.04518 120.64445 200.38834 121.98759 200.38834 123.64445Z" fill-rule="nonzero"/><path fill="#000000" fill-opacity="0.0" clip-path="url(#id_0)" d="M209.32 123.64445C209.32 125.3013 207.97685 126.64445 206.32 126.64445C204.66315 126.64445 203.32 125.3013 203.32 123.64445C203.32 121.98759 204.66315 120.64445 206.32 120.64445C207.97685 120.64445 209.32 121.98759 209.32 123.64445Z" fill-rule="nonzero"/><path fill="#000000" fill-opacity="0.0" clip-path="url(#id_0)" d="M477.27 123.64445C477.27 125.3013 475.92685 126.64445 474.27 126.64445C472.61316 126.64445 471.27 125.3013 471.27 123.64445C471.27 121.98759 472.61316 120.64445 474.27 120.64445C475.92685 120.64445 477.27 121.98759 477.27 123.64445Z" fill-rule="nonzero"/><path fill="#000000" fill-opacity="0.0" clip-path="url(#id_0)" d="M486.20166 159.00555C486.20166 160.66241 484.85852 162.00555 483.20166 162.00555C481.5448 162.00555 480.20166 160.66241 480.20166 159.00555C480.20166 157.3487 481.5448 156.00555 483.20166 156.00555C484.85852 156.00555 486.20166 157.3487 486.20166 159.00555Z" fill-rule="nonzero"/><path fill="#000000" fill-opacity="0.0" clip-path="url(#id_0)" d="M495.13333 229.72778C495.13333 231.38463 493.7902 232.72778 492.13333 232.72778C490.47647 232.72778 489.13333 231.38463 489.13333 229.72778C489.13333 228.07092 490.47647 226.72778 492.13333 226.72778C493.7902 226.72778 495.13333 228.07092 495.13333 229.72778Z" fill-rule="nonzero"/><path fill="#000000" fill-opacity="0.0" clip-path="url(#id_0)" d="M504.065 300.45C504.065 302.10684 502.72186 303.45 501.065 303.45C499.40814 303.45 498.065 302.10684 498.065 300.45C498.065 298.79315 499.40814 297.45 501.065 297.45C502.72186 297.45 504.065 298.79315 504.065 300.45Z" fill-rule="nonzero"/><path fill="#000000" fill-opacity="0.0" clip-path="url(#id_0)" d="M512.99664 300.45C512.99664 302.10684 511.65353 303.45 509.99667 303.45C508.3398 303.45 506.99667 302.10684 506.99667 300.45C506.99667 298.79315 508.3398 297.45 509.99667 297.45C511.65353 297.45 512.99664 298.79315 512.99664 300.45Z" fill-rule="nonzero"/><path fill="#000000" fill-opacity="0.0" clip-path="url(#id_0)" d="M521.92834 300.45C521.92834 302.10684 520.5852 303.45 518.92834 303.45C517.2715 303.45 515.92834 302.10684 515.92834 300.45C515.92834 298.79315 517.2715 297.45 518.92834 297.45C520.5852 297.45 521.92834 298.79315 521.92834 300.45Z" fill-rule="nonzero"/><path fill="#000000" fill-opacity="0.0" clip-path="url(#id_0)" d="M584.45 300.45C584.45 302.10684 583.1069 303.45 581.45 303.45C579.79315 303.45 578.45 302.10684 578.45 300.45C578.45 298.79315 579.79315 297.45 581.45 297.45C583.1069 297.45 584.45 298.79315 584.45 300.45Z" fill-rule="nonzero"/><path fill="#000000" fill-opacity="0.0" clip-path="url(#id_0)" d="M48.55 229.72778C48.55 231.38463 47.206856 232.72778 45.55 232.72778C43.893147 232.72778 42.55 231.38463 42.55 229.72778C42.55 228.07092 43.893147 226.72778 45.55 226.72778C47.206856 226.72778 48.55 228.07092 48.55 229.72778Z" fill-rule="nonzero"/><path fill="#000000" fill-opacity="0.0" clip-path="url(#id_0)" d="M155.73 229.72778C155.73 231.38463 154.38686 232.72778 152.73 232.72778C151.07315 232.72778 149.73 231.38463 149.73 229.72778C149.73 228.07092 151.07315 226.72778 152.73 226.72778C154.38686 226.72778 155.73 228.07092 155.73 229.72778Z" fill-rule="nonzero"/><path fill="#000000" fill-opacity="0.0" clip-path="url(#id_0)" d="M164.66167 229.72778C164.66167 231.38463 163.31853 232.72778 161.66167 232.72778C160.0048 232.72778 158.66167 231.38463 158.66167 229.72778C158.66167 228.07092 160.0048 226.72778 161.66167 226.72778C163.31853 226.72778 164.66167 228.07092 164.66167 229.72778Z" fill-rule="nonzero"/><path fill="#000000" fill-opacity="0.0" clip-path="url(#id_0)" d="M173.59334 229.72778C173.59334 231.38463 172.25018 232.72778 170.59334 232.72778C168.93648 232.72778 167.59334 231.38463 167.59334 229.72778C167.59334 228.07092 168.93648 226.72778 170.59334 226.72778C172.25018 226.72778 173.59334 228.07092 173.59334 229.72778Z" fill-rule="nonzero"/><path fill="#000000" fill-opacity="0.0" clip-path="url(#id_0)" d="M182.525 229.72778C182.525 231.38463 181.18185 232.72778 179.525 232.72778C177.86815 232.72778 176.525 231.38463 176.525 229.72778C176.525 228.07092 177.86815 226.72778 179.525 226.72778C181.18185 226.72778 182.525 228.07092 182.525 229.72778Z" fill-rule="nonzero"/><path fill="#000000" fill-opacity="0.0" clip-path="url(#id_0)" d="M191.45667 229.72778C191.45667 231.38463 190.11353 232.72778 188.45667 232.72778C186.79982 232.72778 185.45667 231.38463 185.45667 229.72778C185.45667 228.07092 186.79982 226.72778 188.45667 226.72778C190.11353 226.72778 191.45667 228.07092 191.45667 229.72778Z" fill-rule="nonzero"/><path fill="#000000" fill-opacity="0.0" clip-path="url(#id_0)" d="M200.38834 229.72778C200.38834 231.38463 199.04518 232.72778 197.38834 232.72778C195.73148 232.72778 194.38834 231.38463 194.38834 229.72778C194.38834 228.07092 195.73148 226.72778 197.38834 226.72778C199.04518 226.72778 200.38834 228.07092 200.38834 229.72778Z" fill-rule="nonzero"/><path fill="#000000" fill-opacity="0.0" clip-path="url(#id_0)" d="M209.32 229.72778C209.32 231.38463 207.97685 232.72778 206.32 232.72778C204.66315 232.72778 203.32 231.38463 203.32 229.72778C203.32 228.07092 204.66315 226.72778 206.32 226.72778C207.97685 226.72778 209.32 228.07092 209.32 229.72778Z" fill-rule="nonzero"/><path fill="#000000" fill-opacity="0.0" clip-path="url(#id_0)" d="M477.27 229.72778C477.27 231.38463 475.92685 232.72778 474.27 232.72778C472.61316 232.72778 471.27 231.38463 471.27 229.72778C471.27 228.07092 472.61316 226.72778 474.27 226.72778C475.92685 226.72778 477.27 228.07092 477.27 229.72778Z" fill-rule="nonzero"/><path fill="#000000" fill-opacity="0.0" clip-path="url(#id_0)" d="M486.20166 229.72778C486.20166 231.38463 484.85852 232.72778 483.20166 232.72778C481.5448 232.72778 480.20166 231.38463 480.20166 229.72778C480.20166 228.07092 481.5448 226.72778 483.20166 226.72778C484.85852 226.72778 486.20166 228.07092 486.20166 229.72778Z" fill-rule="nonzero"/><path fill="#000000" fill-opacity="0.0" clip-path="url(#id_0)" d="M495.13333 229.72778C495.13333 231.38463 493.7902 232.72778 492.13333 232.72778C490.47647 232.72778 489.13333 231.38463 489.13333 229.72778C489.13333 228.07092 490.47647 226.72778 492.13333 226.72778C493.7902 226.72778 495.13333 228.07092 495.13333 229.72778Z" fill-rule="nonzero"/><path fill="#000000" fill-opacity="0.0" clip-path="url(#id_0)" d="M504.065 229.72778C504.065 231.38463 502.72186 232.72778 501.065 232.72778C499.40814 232.72778 498.065 231.38463 498.065 229.72778C498.065 228.07092 499.40814 226.72778 501.065 226.72778C502.72186 226.72778 504.065 228.07092 504.065 229.72778Z" fill-rule="nonzero"/><path fill="#000000" fill-opacity="0.0" clip-path="url(#id_0)" d="M512.99664 229.72778C512.99664 231.38463 511.65353 232.72778 509.99667 232.72778C508.3398 232.72778 506.99667 231.38463 506.99667 229.72778C506.99667 228.07092 508.3398 226.72778 509.99667 226.72778C511.65353 226.72778 512.99664 228.07092 512.99664 229.72778Z" fill-rule="nonzero"/><path fill="#000000" fill-opacity="0.0" clip-path="url(#id_0)" d="M521.92834 229.72778C521.92834 231.38463 520.5852 232.72778 518.92834 232.72778C517.2715 232.72778 515.92834 231.38463 515.92834 229.72778C515.92834 228.07092 517.2715 226.72778 518.92834 226.72778C520.5852 226.72778 521.92834 228.07092 521.92834 229.72778Z" fill-rule="nonzero"/><path fill="#000000" fill-opacity="0.0" clip-path="url(#id_0)" d="M584.45 229.72778C584.45 231.38463 583.1069 232.72778 581.45 232.72778C579.79315 232.72778 578.45 231.38463 578.45 229.72778C578.45 228.07092 579.79315 226.72778 581.45 226.72778C583.1069 226.72778 584.45 228.07092 584.45 229.72778Z" fill-rule="nonzero"/><path fill="#000000" d="M302.60938 349.45L302.60938 341.8719L299.78125 341.8719L299.78125 340.85626L306.59375 340.85626L306.59375 341.8719L303.75 341.8719L303.75 349.45L302.60938 349.45ZM307.29688 342.075L307.29688 340.85626L308.35938 340.85626L308.35938 342.075L307.29688 342.075ZM307.29688 349.45L307.29688 343.23126L308.35938 343.23126L308.35938 349.45L307.29688 349.45ZM310.29688 349.45L310.29688 343.23126L311.23438 343.23126L311.23438 344.10626Q311.53125 343.6375 312.01562 343.3719Q312.5 343.09064 313.125 343.09064Q313.8125 343.09064 314.25 343.3719Q314.70312 343.65314 314.875 344.16876Q315.625 343.09064 316.79688 343.09064Q317.73438 343.09064 318.21875 343.60626Q318.71875 344.10626 318.71875 345.1844L318.71875 349.45L317.67188 349.45L317.67188 345.52814Q317.67188 344.90314 317.5625 344.6219Q317.46875 344.34064 317.20312 344.16876Q316.9375 343.9969 316.5625 343.9969Q315.90625 343.9969 315.46875 344.4344Q315.04688 344.8719 315.04688 345.84064L315.04688 349.45L313.98438 349.45L313.98438 345.40314Q313.98438 344.7 313.71875 344.35626Q313.46875 343.9969 312.89062 343.9969Q312.4375 343.9969 312.0625 344.23126Q311.6875 344.46564 311.51562 344.91876Q311.34375 345.3719 311.34375 346.21564L311.34375 349.45L310.29688 349.45ZM325.54688 347.45L326.64062 347.575Q326.39062 348.52814 325.6875 349.0594Q324.98438 349.59064 323.90625 349.59064Q322.54688 349.59064 321.73438 348.7469Q320.9375 347.90314 320.9375 346.3875Q320.9375 344.825 321.75 343.96564Q322.5625 343.09064 323.84375 343.09064Q325.09375 343.09064 325.875 343.9344Q326.67188 344.77814 326.67188 346.325Q326.67188 346.41876 326.67188 346.60626L322.03125 346.60626Q322.09375 347.6375 322.60938 348.1844Q323.125 348.71564 323.90625 348.71564Q324.48438 348.71564 324.89062 348.41876Q325.3125 348.10626 325.54688 347.45ZM322.09375 345.7469L325.5625 345.7469Q325.5 344.95 325.17188 344.5594Q324.65625 343.95 323.85938 343.95Q323.125 343.95 322.625 344.4344Q322.14062 344.91876 322.09375 345.7469Z" fill-rule="nonzero"/><path fill="#000000" d="M33.05 300.21564Q33.05 298.6844 33.3625 297.7625Q33.675 296.825 34.284374 296.325Q34.909374 295.825 35.846874 295.825Q36.534374 295.825 37.05 296.10626Q37.58125 296.3875 37.925 296.91876Q38.26875 297.4344 38.45625 298.1844Q38.64375 298.9344 38.64375 300.21564Q38.64375 301.73126 38.33125 302.65314Q38.034374 303.575 37.409374 304.09064Q36.8 304.59064 35.846874 304.59064Q34.6125 304.59064 33.89375 303.7Q33.05 302.6375 33.05 300.21564ZM34.128124 300.21564Q34.128124 302.325 34.628124 303.02814Q35.128124 303.73126 35.846874 303.73126Q36.58125 303.73126 37.065624 303.02814Q37.565624 302.325 37.565624 300.21564Q37.565624 298.09064 37.065624 297.40314Q36.58125 296.7 35.83125 296.7Q35.1125 296.7 34.675 297.3094Q34.128124 298.09064 34.128124 300.21564Z" fill-rule="nonzero"/><path fill="#000000" d="M31.596874 232.71216L31.596874 233.72778L25.909374 233.72778Q25.909374 233.35278 26.034374 232.99341Q26.253124 232.41528 26.721874 231.85278Q27.20625 231.29028 28.1125 230.55591Q29.51875 229.39966 30.003124 228.72778Q30.503124 228.05591 30.503124 227.46216Q30.503124 226.83716 30.05 226.41528Q29.596874 225.97778 28.878124 225.97778Q28.1125 225.97778 27.659374 226.43091Q27.20625 226.88403 27.190624 227.69653L26.1125 227.58716Q26.221874 226.36841 26.940624 225.74341Q27.675 225.10278 28.909374 225.10278Q30.14375 225.10278 30.8625 225.79028Q31.58125 226.47778 31.58125 227.49341Q31.58125 228.00903 31.3625 228.50903Q31.159374 228.99341 30.659374 229.55591Q30.175 230.10278 29.05 231.05591Q28.096874 231.85278 27.815624 232.14966Q27.55 232.43091 27.378124 232.71216L31.596874 232.71216ZM33.05 229.49341Q33.05 227.96216 33.3625 227.04028Q33.675 226.10278 34.284374 225.60278Q34.909374 225.10278 35.846874 225.10278Q36.534374 225.10278 37.05 225.38403Q37.58125 225.66528 37.925 226.19653Q38.26875 226.71216 38.45625 227.46216Q38.64375 228.21216 38.64375 229.49341Q38.64375 231.00903 38.33125 231.93091Q38.034374 232.85278 37.409374 233.36841Q36.8 233.86841 35.846874 233.86841Q34.6125 233.86841 33.89375 232.97778Q33.05 231.91528 33.05 229.49341ZM34.128124 229.49341Q34.128124 231.60278 34.628124 232.30591Q35.128124 233.00903 35.846874 233.00903Q36.58125 233.00903 37.065624 232.30591Q37.565624 231.60278 37.565624 229.49341Q37.565624 227.36841 37.065624 226.68091Q36.58125 225.97778 35.83125 225.97778Q35.1125 225.97778 34.675 226.58716Q34.128124 227.36841 34.128124 229.49341Z" fill-rule="nonzero"/><path fill="#000000" d="M29.425 163.00555L29.425 160.94305L25.70625 160.94305L25.70625 159.9743L29.628124 154.4118L30.4875 154.4118L30.4875 159.9743L31.64375 159.9743L31.64375 160.94305L30.4875 160.94305L30.4875 163.00555L29.425 163.00555ZM29.425 159.9743L29.425 156.11493L26.7375 159.9743L29.425 159.9743ZM33.05 158.77118Q33.05 157.23993 33.3625 156.31805Q33.675 155.38055 34.284374 154.88055Q34.909374 154.38055 35.846874 154.38055Q36.534374 154.38055 37.05 154.6618Q37.58125 154.94305 37.925 155.4743Q38.26875 155.98993 38.45625 156.73993Q38.64375 157.48993 38.64375 158.77118Q38.64375 160.2868 38.33125 161.20868Q38.034374 162.13055 37.409374 162.64618Q36.8 163.14618 35.846874 163.14618Q34.6125 163.14618 33.89375 162.25555Q33.05 161.19305 33.05 158.77118ZM34.128124 158.77118Q34.128124 160.88055 34.628124 161.58368Q35.128124 162.2868 35.846874 162.2868Q36.58125 162.2868 37.065624 161.58368Q37.565624 160.88055 37.565624 158.77118Q37.565624 156.64618 37.065624 155.95868Q36.58125 155.25555 35.83125 155.25555Q35.1125 155.25555 34.675 155.86493Q34.128124 156.64618 34.128124 158.77118Z" fill-rule="nonzero"/><path fill="#000000" d="M31.51875 85.79896L30.471874 85.87708Q30.33125 85.25208 30.08125 84.97083Q29.64375 84.51771 29.01875 84.51771Q28.51875 84.51771 28.128124 84.79896Q27.64375 85.17396 27.346874 85.87708Q27.065624 86.56458 27.05 87.84583Q27.425 87.26771 27.971874 86.98646Q28.534374 86.70521 29.14375 86.70521Q30.190624 86.70521 30.925 87.48646Q31.675 88.26771 31.675 89.48646Q31.675 90.29896 31.315624 91.00208Q30.971874 91.68958 30.3625 92.06458Q29.753124 92.42396 28.9875 92.42396Q27.659374 92.42396 26.83125 91.45521Q26.003124 90.48646 26.003124 88.26771Q26.003124 85.76771 26.925 84.64271Q27.721874 83.65833 29.08125 83.65833Q30.096874 83.65833 30.7375 84.23646Q31.39375 84.79896 31.51875 85.79896ZM27.221874 89.50208Q27.221874 90.04896 27.440624 90.54896Q27.675 91.03333 28.08125 91.29896Q28.503124 91.56458 28.971874 91.56458Q29.628124 91.56458 30.1125 91.03333Q30.596874 90.48646 30.596874 89.56458Q30.596874 88.67396 30.1125 88.15833Q29.64375 87.64271 28.925 87.64271Q28.20625 87.64271 27.70625 88.15833Q27.221874 88.67396 27.221874 89.50208ZM33.05 88.04896Q33.05 86.51771 33.3625 85.59583Q33.675 84.65833 34.284374 84.15833Q34.909374 83.65833 35.846874 83.65833Q36.534374 83.65833 37.05 83.93958Q37.58125 84.22083 37.925 84.75208Q38.26875 85.26771 38.45625 86.01771Q38.64375 86.76771 38.64375 88.04896Q38.64375 89.56458 38.33125 90.48646Q38.034374 91.40833 37.409374 91.92396Q36.8 92.42396 35.846874 92.42396Q34.6125 92.42396 33.89375 91.53333Q33.05 90.47083 33.05 88.04896ZM34.128124 88.04896Q34.128124 90.15833 34.628124 90.86146Q35.128124 91.56458 35.846874 91.56458Q36.58125 91.56458 37.065624 90.86146Q37.565624 90.15833 37.565624 88.04896Q37.565624 85.92396 37.065624 85.23646Q36.58125 84.53333 35.83125 84.53333Q35.1125 84.53333 34.675 85.14271Q34.128124 85.92396 34.128124 88.04896Z" fill-rule="nonzero"/><path fill="#000000" d="M25.55 313.21564Q25.55 311.6844 25.8625 310.7625Q26.175 309.825 26.784374 309.325Q27.409374 308.825 28.346874 308.825Q29.034374 308.825 29.55 309.10626Q30.08125 309.3875 30.425 309.91876Q30.76875 310.4344 30.95625 311.1844Q31.14375 311.9344 31.14375 313.21564Q31.14375 314.73126 30.83125 315.65314Q30.534374 316.575 29.909374 317.09064Q29.3 317.59064 28.346874 317.59064Q27.1125 317.59064 26.39375 316.7Q25.55 315.6375 25.55 313.21564ZM26.628124 313.21564Q26.628124 315.325 27.128124 316.02814Q27.628124 316.73126 28.346874 316.73126Q29.08125 316.73126 29.565624 316.02814Q30.065624 315.325 30.065624 313.21564Q30.065624 311.09064 29.565624 310.40314Q29.08125 309.7 28.33125 309.7Q27.6125 309.7 27.175 310.3094Q26.628124 311.09064 26.628124 313.21564ZM33.128124 312.4344L33.128124 311.23126L34.33125 311.23126L34.33125 312.4344L33.128124 312.4344ZM33.128124 317.45L33.128124 316.2469L34.33125 316.2469L34.33125 317.45L33.128124 317.45ZM35.55 313.21564Q35.55 311.6844 35.8625 310.7625Q36.175 309.825 36.784374 309.325Q37.409374 308.825 38.346874 308.825Q39.034374 308.825 39.55 309.10626Q40.08125 309.3875 40.425 309.91876Q40.76875 310.4344 40.95625 311.1844Q41.14375 311.9344 41.14375 313.21564Q41.14375 314.73126 40.83125 315.65314Q40.534374 316.575 39.909374 317.09064Q39.3 317.59064 38.346874 317.59064Q37.1125 317.59064 36.39375 316.7Q35.55 315.6375 35.55 313.21564ZM36.628124 313.21564Q36.628124 315.325 37.128124 316.02814Q37.628124 316.73126 38.346874 316.73126Q39.08125 316.73126 39.565624 316.02814Q40.065624 315.325 40.065624 313.21564Q40.065624 311.09064 39.565624 310.40314Q39.08125 309.7 38.33125 309.7Q37.6125 309.7 37.175 310.3094Q36.628124 311.09064 36.628124 313.21564ZM42.55 313.21564Q42.55 311.6844 42.8625 310.7625Q43.175 309.825 43.784374 309.325Q44.409374 308.825 45.346874 308.825Q46.034374 308.825 46.55 309.10626Q47.08125 309.3875 47.425 309.91876Q47.76875 310.4344 47.95625 311.1844Q48.14375 311.9344 48.14375 313.21564Q48.14375 314.73126 47.83125 315.65314Q47.534374 316.575 46.909374 317.09064Q46.3 317.59064 45.346874 317.59064Q44.1125 317.59064 43.39375 316.7Q42.55 315.6375 42.55 313.21564ZM43.628124 313.21564Q43.628124 315.325 44.128124 316.02814Q44.628124 316.73126 45.346874 316.73126Q46.08125 316.73126 46.565624 316.02814Q47.065624 315.325 47.065624 313.21564Q47.065624 311.09064 46.565624 310.40314Q46.08125 309.7 45.33125 309.7Q44.6125 309.7 44.175 310.3094Q43.628124 311.09064 43.628124 313.21564ZM50.128124 312.4344L50.128124 311.23126L51.33125 311.23126L51.33125 312.4344L50.128124 312.4344ZM50.128124 317.45L50.128124 316.2469L51.33125 316.2469L51.33125 317.45L50.128124 317.45ZM52.55 313.21564Q52.55 311.6844 52.8625 310.7625Q53.175 309.825 53.784374 309.325Q54.409374 308.825 55.346874 308.825Q56.034374 308.825 56.55 309.10626Q57.08125 309.3875 57.425 309.91876Q57.76875 310.4344 57.95625 311.1844Q58.14375 311.9344 58.14375 313.21564Q58.14375 314.73126 57.83125 315.65314Q57.534374 316.575 56.909374 317.09064Q56.3 317.59064 55.346874 317.59064Q54.1125 317.59064 53.39375 316.7Q52.55 315.6375 52.55 313.21564ZM53.628124 313.21564Q53.628124 315.325 54.128124 316.02814Q54.628124 316.73126 55.346874 316.73126Q56.08125 316.73126 56.565624 316.02814Q57.065624 315.325 57.065624 313.21564Q57.065624 311.09064 56.565624 310.40314Q56.08125 309.7 55.33125 309.7Q54.6125 309.7 54.175 310.3094Q53.628124 311.09064 53.628124 313.21564ZM59.55 313.21564Q59.55 311.6844 59.8625 310.7625Q60.175 309.825 60.784374 309.325Q61.409374 308.825 62.346874 308.825Q63.034374 308.825 63.55 309.10626Q64.08125 309.3875 64.425 309.91876Q64.76875 310.4344 64.95625 311.1844Q65.14375 311.9344 65.14375 313.21564Q65.14375 314.73126 64.83125 315.65314Q64.53438 316.575 63.909374 317.09064Q63.3 317.59064 62.346874 317.59064Q61.1125 317.59064 60.39375 316.7Q59.55 315.6375 59.55 313.21564ZM60.628124 313.21564Q60.628124 315.325 61.128124 316.02814Q61.628124 316.73126 62.346874 316.73126Q63.08125 316.73126 63.565624 316.02814Q64.06563 315.325 64.06563 313.21564Q64.06563 311.09064 63.565624 310.40314Q63.08125 309.7 62.33125 309.7Q61.6125 309.7 61.175 310.3094Q60.628124 311.09064 60.628124 313.21564Z" fill-rule="nonzero"/><path fill="#000000" d="M132.73 313.21564Q132.73 311.6844 133.0425 310.7625Q133.355 309.825 133.96437 309.325Q134.58937 308.825 135.52687 308.825Q136.21437 308.825 136.73 309.10626Q137.26125 309.3875 137.605 309.91876Q137.94875 310.4344 138.13625 311.1844Q138.32375 311.9344 138.32375 313.21564Q138.32375 314.73126 138.01125 315.65314Q137.71437 316.575 137.08937 317.09064Q136.48 317.59064 135.52687 317.59064Q134.2925 317.59064 133.57375 316.7Q132.73 315.6375 132.73 313.21564ZM133.80812 313.21564Q133.80812 315.325 134.30812 316.02814Q134.80812 316.73126 135.52687 316.73126Q136.26125 316.73126 136.74562 316.02814Q137.24562 315.325 137.24562 313.21564Q137.24562 311.09064 136.74562 310.40314Q136.26125 309.7 135.51125 309.7Q134.7925 309.7 134.355 310.3094Q133.80812 311.09064 133.80812 313.21564ZM140.30812 312.4344L140.30812 311.23126L141.51125 311.23126L141.51125 312.4344L140.30812 312.4344ZM140.30812 317.45L140.30812 316.2469L141.51125 316.2469L141.51125 317.45L140.30812 317.45ZM142.73 313.21564Q142.73 311.6844 143.0425 310.7625Q143.355 309.825 143.96437 309.325Q144.58937 308.825 145.52687 308.825Q146.21437 308.825 146.73 309.10626Q147.26125 309.3875 147.605 309.91876Q147.94875 310.4344 148.13625 311.1844Q148.32375 311.9344 148.32375 313.21564Q148.32375 314.73126 148.01125 315.65314Q147.71437 316.575 147.08937 317.09064Q146.48 317.59064 145.52687 317.59064Q144.2925 317.59064 143.57375 316.7Q142.73 315.6375 142.73 313.21564ZM143.80812 313.21564Q143.80812 315.325 144.30812 316.02814Q144.80812 316.73126 145.52687 316.73126Q146.26125 316.73126 146.74562 316.02814Q147.24562 315.325 147.24562 313.21564Q147.24562 311.09064 146.74562 310.40314Q146.26125 309.7 145.51125 309.7Q144.7925 309.7 144.355 310.3094Q143.80812 311.09064 143.80812 313.21564ZM155.27687 316.4344L155.27687 317.45L149.58937 317.45Q149.58937 317.075 149.71437 316.71564Q149.93312 316.1375 150.40187 315.575Q150.88625 315.0125 151.7925 314.27814Q153.19875 313.1219 153.68312 312.45Q154.18312 311.77814 154.18312 311.1844Q154.18312 310.5594 153.73 310.1375Q153.27687 309.7 152.55812 309.7Q151.7925 309.7 151.33937 310.15314Q150.88625 310.60626 150.87062 311.41876L149.7925 311.3094Q149.90187 310.09064 150.62062 309.46564Q151.355 308.825 152.58937 308.825Q153.82375 308.825 154.5425 309.5125Q155.26125 310.2 155.26125 311.21564Q155.26125 311.73126 155.0425 312.23126Q154.83937 312.71564 154.33937 313.27814Q153.855 313.825 152.73 314.77814Q151.77687 315.575 151.49562 315.8719Q151.23 316.15314 151.05812 316.4344L155.27687 316.4344ZM157.30812 312.4344L157.30812 311.23126L158.51125 311.23126L158.51125 312.4344L157.30812 312.4344ZM157.30812 317.45L157.30812 316.2469L158.51125 316.2469L158.51125 317.45L157.30812 317.45ZM159.73 313.21564Q159.73 311.6844 160.0425 310.7625Q160.355 309.825 160.96437 309.325Q161.58937 308.825 162.52687 308.825Q163.21437 308.825 163.73 309.10626Q164.26125 309.3875 164.605 309.91876Q164.94875 310.4344 165.13625 311.1844Q165.32375 311.9344 165.32375 313.21564Q165.32375 314.73126 165.01125 315.65314Q164.71437 316.575 164.08937 317.09064Q163.48 317.59064 162.52687 317.59064Q161.2925 317.59064 160.57375 316.7Q159.73 315.6375 159.73 313.21564ZM160.80812 313.21564Q160.80812 315.325 161.30812 316.02814Q161.80812 316.73126 162.52687 316.73126Q163.26125 316.73126 163.74562 316.02814Q164.24562 315.325 164.24562 313.21564Q164.24562 311.09064 163.74562 310.40314Q163.26125 309.7 162.51125 309.7Q161.7925 309.7 161.355 310.3094Q160.80812 311.09064 160.80812 313.21564ZM166.73 313.21564Q166.73 311.6844 167.0425 310.7625Q167.355 309.825 167.96437 309.325Q168.58937 308.825 169.52687 308.825Q170.21437 308.825 170.73 309.10626Q171.26125 309.3875 171.605 309.91876Q171.94875 310.4344 172.13625 311.1844Q172.32375 311.9344 172.32375 313.21564Q172.32375 314.73126 172.01125 315.65314Q171.71437 316.575 171.08937 317.09064Q170.48 317.59064 169.52687 317.59064Q168.2925 317.59064 167.57375 316.7Q166.73 315.6375 166.73 313.21564ZM167.80812 313.21564Q167.80812 315.325 168.30812 316.02814Q168.80812 316.73126 169.52687 316.73126Q170.26125 316.73126 170.74562 316.02814Q171.24562 315.325 171.24562 313.21564Q171.24562 311.09064 170.74562 310.40314Q170.26125 309.7 169.51125 309.7Q168.7925 309.7 168.355 310.3094Q167.80812 311.09064 167.80812 313.21564Z" fill-rule="nonzero"/><path fill="#000000" d="M239.91 313.21564Q239.91 311.6844 240.2225 310.7625Q240.535 309.825 241.14438 309.325Q241.76938 308.825 242.70688 308.825Q243.39438 308.825 243.91 309.10626Q244.44125 309.3875 244.785 309.91876Q245.12875 310.4344 245.31625 311.1844Q245.50375 311.9344 245.50375 313.21564Q245.50375 314.73126 245.19125 315.65314Q244.89438 316.575 244.26938 317.09064Q243.66 317.59064 242.70688 317.59064Q241.4725 317.59064 240.75375 316.7Q239.91 315.6375 239.91 313.21564ZM240.98813 313.21564Q240.98813 315.325 241.48813 316.02814Q241.98813 316.73126 242.70688 316.73126Q243.44125 316.73126 243.92563 316.02814Q244.42563 315.325 244.42563 313.21564Q244.42563 311.09064 243.92563 310.40314Q243.44125 309.7 242.69125 309.7Q241.9725 309.7 241.535 310.3094Q240.98813 311.09064 240.98813 313.21564ZM247.48813 312.4344L247.48813 311.23126L248.69125 311.23126L248.69125 312.4344L247.48813 312.4344ZM247.48813 317.45L247.48813 316.2469L248.69125 316.2469L248.69125 317.45L247.48813 317.45ZM249.91 313.21564Q249.91 311.6844 250.2225 310.7625Q250.535 309.825 251.14438 309.325Q251.76938 308.825 252.70688 308.825Q253.39438 308.825 253.91 309.10626Q254.44125 309.3875 254.785 309.91876Q255.12875 310.4344 255.31625 311.1844Q255.50375 311.9344 255.50375 313.21564Q255.50375 314.73126 255.19125 315.65314Q254.89438 316.575 254.26938 317.09064Q253.66 317.59064 252.70688 317.59064Q251.4725 317.59064 250.75375 316.7Q249.91 315.6375 249.91 313.21564ZM250.98813 313.21564Q250.98813 315.325 251.48813 316.02814Q251.98813 316.73126 252.70688 316.73126Q253.44125 316.73126 253.92563 316.02814Q254.42563 315.325 254.42563 313.21564Q254.42563 311.09064 253.92563 310.40314Q253.44125 309.7 252.69125 309.7Q251.9725 309.7 251.535 310.3094Q250.98813 311.09064 250.98813 313.21564ZM260.285 317.45L260.285 315.3875L256.56625 315.3875L256.56625 314.41876L260.48813 308.85626L261.3475 308.85626L261.3475 314.41876L262.50375 314.41876L262.50375 315.3875L261.3475 315.3875L261.3475 317.45L260.285 317.45ZM260.285 314.41876L260.285 310.5594L257.5975 314.41876L260.285 314.41876ZM264.48813 312.4344L264.48813 311.23126L265.69125 311.23126L265.69125 312.4344L264.48813 312.4344ZM264.48813 317.45L264.48813 316.2469L265.69125 316.2469L265.69125 317.45L264.48813 317.45ZM266.91 313.21564Q266.91 311.6844 267.2225 310.7625Q267.535 309.825 268.14438 309.325Q268.76938 308.825 269.70688 308.825Q270.39438 308.825 270.91 309.10626Q271.44125 309.3875 271.785 309.91876Q272.12875 310.4344 272.31625 311.1844Q272.50375 311.9344 272.50375 313.21564Q272.50375 314.73126 272.19125 315.65314Q271.89438 316.575 271.26938 317.09064Q270.66 317.59064 269.70688 317.59064Q268.4725 317.59064 267.75375 316.7Q266.91 315.6375 266.91 313.21564ZM267.98813 313.21564Q267.98813 315.325 268.48813 316.02814Q268.98813 316.73126 269.70688 316.73126Q270.44125 316.73126 270.92563 316.02814Q271.42563 315.325 271.42563 313.21564Q271.42563 311.09064 270.92563 310.40314Q270.44125 309.7 269.69125 309.7Q268.9725 309.7 268.535 310.3094Q267.98813 311.09064 267.98813 313.21564ZM273.91 313.21564Q273.91 311.6844 274.2225 310.7625Q274.535 309.825 275.14438 309.325Q275.76938 308.825 276.70688 308.825Q277.39438 308.825 277.91 309.10626Q278.44125 309.3875 278.785 309.91876Q279.12875 310.4344 279.31625 311.1844Q279.50375 311.9344 279.50375 313.21564Q279.50375 314.73126 279.19125 315.65314Q278.89438 316.575 278.26938 317.09064Q277.66 317.59064 276.70688 317.59064Q275.4725 317.59064 274.75375 316.7Q273.91 315.6375 273.91 313.21564ZM274.98813 313.21564Q274.98813 315.325 275.48813 316.02814Q275.98813 316.73126 276.70688 316.73126Q277.44125 316.73126 277.92563 316.02814Q278.42563 315.325 278.42563 313.21564Q278.42563 311.09064 277.92563 310.40314Q277.44125 309.7 276.69125 309.7Q275.9725 309.7 275.535 310.3094Q274.98813 311.09064 274.98813 313.21564Z" fill-rule="nonzero"/><path fill="#000000" d="M347.09 313.21564Q347.09 311.6844 347.4025 310.7625Q347.715 309.825 348.32437 309.325Q348.94937 308.825 349.88687 308.825Q350.57437 308.825 351.09 309.10626Q351.62125 309.3875 351.965 309.91876Q352.30875 310.4344 352.49625 311.1844Q352.68375 311.9344 352.68375 313.21564Q352.68375 314.73126 352.37125 315.65314Q352.07437 316.575 351.44937 317.09064Q350.84 317.59064 349.88687 317.59064Q348.6525 317.59064 347.93375 316.7Q347.09 315.6375 347.09 313.21564ZM348.16812 313.21564Q348.16812 315.325 348.66812 316.02814Q349.16812 316.73126 349.88687 316.73126Q350.62125 316.73126 351.10562 316.02814Q351.60562 315.325 351.60562 313.21564Q351.60562 311.09064 351.10562 310.40314Q350.62125 309.7 349.87125 309.7Q349.1525 309.7 348.715 310.3094Q348.16812 311.09064 348.16812 313.21564ZM354.66812 312.4344L354.66812 311.23126L355.87125 311.23126L355.87125 312.4344L354.66812 312.4344ZM354.66812 317.45L354.66812 316.2469L355.87125 316.2469L355.87125 317.45L354.66812 317.45ZM357.09 313.21564Q357.09 311.6844 357.4025 310.7625Q357.715 309.825 358.32437 309.325Q358.94937 308.825 359.88687 308.825Q360.57437 308.825 361.09 309.10626Q361.62125 309.3875 361.965 309.91876Q362.30875 310.4344 362.49625 311.1844Q362.68375 311.9344 362.68375 313.21564Q362.68375 314.73126 362.37125 315.65314Q362.07437 316.575 361.44937 317.09064Q360.84 317.59064 359.88687 317.59064Q358.6525 317.59064 357.93375 316.7Q357.09 315.6375 357.09 313.21564ZM358.16812 313.21564Q358.16812 315.325 358.66812 316.02814Q359.16812 316.73126 359.88687 316.73126Q360.62125 316.73126 361.10562 316.02814Q361.60562 315.325 361.60562 313.21564Q361.60562 311.09064 361.10562 310.40314Q360.62125 309.7 359.87125 309.7Q359.1525 309.7 358.715 310.3094Q358.16812 311.09064 358.16812 313.21564ZM369.55875 310.96564L368.51187 311.04376Q368.37125 310.41876 368.12125 310.1375Q367.68375 309.6844 367.05875 309.6844Q366.55875 309.6844 366.16812 309.96564Q365.68375 310.34064 365.38687 311.04376Q365.10562 311.73126 365.09 313.0125Q365.465 312.4344 366.01187 312.15314Q366.57437 311.8719 367.18375 311.8719Q368.23062 311.8719 368.965 312.65314Q369.715 313.4344 369.715 314.65314Q369.715 315.46564 369.35562 316.16876Q369.01187 316.85626 368.4025 317.23126Q367.79312 317.59064 367.0275 317.59064Q365.69937 317.59064 364.87125 316.6219Q364.04312 315.65314 364.04312 313.4344Q364.04312 310.9344 364.965 309.8094Q365.76187 308.825 367.12125 308.825Q368.13687 308.825 368.7775 309.40314Q369.43375 309.96564 369.55875 310.96564ZM365.26187 314.66876Q365.26187 315.21564 365.48062 315.71564Q365.715 316.2 366.12125 316.46564Q366.54312 316.73126 367.01187 316.73126Q367.66812 316.73126 368.1525 316.2Q368.63687 315.65314 368.63687 314.73126Q368.63687 313.84064 368.1525 313.325Q367.68375 312.8094 366.965 312.8094Q366.24625 312.8094 365.74625 313.325Q365.26187 313.84064 365.26187 314.66876ZM371.66812 312.4344L371.66812 311.23126L372.87125 311.23126L372.87125 312.4344L371.66812 312.4344ZM371.66812 317.45L371.66812 316.2469L372.87125 316.2469L372.87125 317.45L371.66812 317.45ZM374.09 313.21564Q374.09 311.6844 374.4025 310.7625Q374.715 309.825 375.32437 309.325Q375.94937 308.825 376.88687 308.825Q377.57437 308.825 378.09 309.10626Q378.62125 309.3875 378.965 309.91876Q379.30875 310.4344 379.49625 311.1844Q379.68375 311.9344 379.68375 313.21564Q379.68375 314.73126 379.37125 315.65314Q379.07437 316.575 378.44937 317.09064Q377.84 317.59064 376.88687 317.59064Q375.6525 317.59064 374.93375 316.7Q374.09 315.6375 374.09 313.21564ZM375.16812 313.21564Q375.16812 315.325 375.66812 316.02814Q376.16812 316.73126 376.88687 316.73126Q377.62125 316.73126 378.10562 316.02814Q378.60562 315.325 378.60562 313.21564Q378.60562 311.09064 378.10562 310.40314Q377.62125 309.7 376.87125 309.7Q376.1525 309.7 375.715 310.3094Q375.16812 311.09064 375.16812 313.21564ZM381.09 313.21564Q381.09 311.6844 381.4025 310.7625Q381.715 309.825 382.32437 309.325Q382.94937 308.825 383.88687 308.825Q384.57437 308.825 385.09 309.10626Q385.62125 309.3875 385.965 309.91876Q386.30875 310.4344 386.49625 311.1844Q386.68375 311.9344 386.68375 313.21564Q386.68375 314.73126 386.37125 315.65314Q386.07437 316.575 385.44937 317.09064Q384.84 317.59064 383.88687 317.59064Q382.6525 317.59064 381.93375 316.7Q381.09 315.6375 381.09 313.21564ZM382.16812 313.21564Q382.16812 315.325 382.66812 316.02814Q383.16812 316.73126 383.88687 316.73126Q384.62125 316.73126 385.10562 316.02814Q385.60562 315.325 385.60562 313.21564Q385.60562 311.09064 385.10562 310.40314Q384.62125 309.7 383.87125 309.7Q383.1525 309.7 382.715 310.3094Q382.16812 311.09064 382.16812 313.21564Z" fill-rule="nonzero"/><path fill="#000000" d="M454.27 313.21564Q454.27 311.6844 454.5825 310.7625Q454.895 309.825 455.50436 309.325Q456.12936 308.825 457.06686 308.825Q457.75436 308.825 458.27 309.10626Q458.80124 309.3875 459.145 309.91876Q459.48874 310.4344 459.67624 311.1844Q459.86374 311.9344 459.86374 313.21564Q459.86374 314.73126 459.55124 315.65314Q459.25436 316.575 458.62936 317.09064Q458.02 317.59064 457.06686 317.59064Q455.8325 317.59064 455.11374 316.7Q454.27 315.6375 454.27 313.21564ZM455.3481 313.21564Q455.3481 315.325 455.8481 316.02814Q456.3481 316.73126 457.06686 316.73126Q457.80124 316.73126 458.2856 316.02814Q458.7856 315.325 458.7856 313.21564Q458.7856 311.09064 458.2856 310.40314Q457.80124 309.7 457.05124 309.7Q456.3325 309.7 455.895 310.3094Q455.3481 311.09064 455.3481 313.21564ZM461.8481 312.4344L461.8481 311.23126L463.05124 311.23126L463.05124 312.4344L461.8481 312.4344ZM461.8481 317.45L461.8481 316.2469L463.05124 316.2469L463.05124 317.45L461.8481 317.45ZM464.27 313.21564Q464.27 311.6844 464.5825 310.7625Q464.895 309.825 465.50436 309.325Q466.12936 308.825 467.06686 308.825Q467.75436 308.825 468.27 309.10626Q468.80124 309.3875 469.145 309.91876Q469.48874 310.4344 469.67624 311.1844Q469.86374 311.9344 469.86374 313.21564Q469.86374 314.73126 469.55124 315.65314Q469.25436 316.575 468.62936 317.09064Q468.02 317.59064 467.06686 317.59064Q465.8325 317.59064 465.11374 316.7Q464.27 315.6375 464.27 313.21564ZM465.3481 313.21564Q465.3481 315.325 465.8481 316.02814Q466.3481 316.73126 467.06686 316.73126Q467.80124 316.73126 468.2856 316.02814Q468.7856 315.325 468.7856 313.21564Q468.7856 311.09064 468.2856 310.40314Q467.80124 309.7 467.05124 309.7Q466.3325 309.7 465.895 310.3094Q465.3481 311.09064 465.3481 313.21564ZM472.895 312.79376Q472.23874 312.54376 471.9106 312.10626Q471.5981 311.65314 471.5981 311.04376Q471.5981 310.10626 472.27 309.46564Q472.9575 308.825 474.06686 308.825Q475.19186 308.825 475.87936 309.48126Q476.56686 310.1375 476.56686 311.075Q476.56686 311.66876 476.25436 312.10626Q475.94186 312.54376 475.30124 312.79376Q476.0981 313.04376 476.50436 313.6219Q476.9106 314.2 476.9106 314.9969Q476.9106 316.09064 476.12936 316.84064Q475.36374 317.59064 474.0825 317.59064Q472.81686 317.59064 472.0356 316.84064Q471.25436 316.09064 471.25436 314.96564Q471.25436 314.1219 471.67624 313.5594Q472.11374 312.9969 472.895 312.79376ZM472.67624 310.9969Q472.67624 311.60626 473.06686 311.9969Q473.4731 312.3875 474.0981 312.3875Q474.7075 312.3875 475.0981 312.0125Q475.48874 311.6219 475.48874 311.0594Q475.48874 310.48126 475.0825 310.09064Q474.67624 309.6844 474.0825 309.6844Q473.4731 309.6844 473.06686 310.075Q472.67624 310.46564 472.67624 310.9969ZM472.3481 314.96564Q472.3481 315.41876 472.55124 315.84064Q472.77 316.2625 473.19186 316.4969Q473.61374 316.73126 474.0981 316.73126Q474.8481 316.73126 475.3325 316.2469Q475.8325 315.7625 475.8325 315.0125Q475.8325 314.2469 475.3325 313.7469Q474.8325 313.2469 474.06686 313.2469Q473.31686 313.2469 472.8325 313.7469Q472.3481 314.23126 472.3481 314.96564ZM478.8481 312.4344L478.8481 311.23126L480.05124 311.23126L480.05124 312.4344L478.8481 312.4344ZM478.8481 317.45L478.8481 316.2469L480.05124 316.2469L480.05124 317.45L478.8481 317.45ZM481.27 313.21564Q481.27 311.6844 481.5825 310.7625Q481.895 309.825 482.50436 309.325Q483.12936 308.825 484.06686 308.825Q484.75436 308.825 485.27 309.10626Q485.80124 309.3875 486.145 309.91876Q486.48874 310.4344 486.67624 311.1844Q486.86374 311.9344 486.86374 313.21564Q486.86374 314.73126 486.55124 315.65314Q486.25436 316.575 485.62936 317.09064Q485.02 317.59064 484.06686 317.59064Q482.8325 317.59064 482.11374 316.7Q481.27 315.6375 481.27 313.21564ZM482.3481 313.21564Q482.3481 315.325 482.8481 316.02814Q483.3481 316.73126 484.06686 316.73126Q484.80124 316.73126 485.2856 316.02814Q485.7856 315.325 485.7856 313.21564Q485.7856 311.09064 485.2856 310.40314Q484.80124 309.7 484.05124 309.7Q483.3325 309.7 482.895 310.3094Q482.3481 311.09064 482.3481 313.21564ZM488.27 313.21564Q488.27 311.6844 488.5825 310.7625Q488.895 309.825 489.50436 309.325Q490.12936 308.825 491.06686 308.825Q491.75436 308.825 492.27 309.10626Q492.80124 309.3875 493.145 309.91876Q493.48874 310.4344 493.67624 311.1844Q493.86374 311.9344 493.86374 313.21564Q493.86374 314.73126 493.55124 315.65314Q493.25436 316.575 492.62936 317.09064Q492.02 317.59064 491.06686 317.59064Q489.8325 317.59064 489.11374 316.7Q488.27 315.6375 488.27 313.21564ZM489.3481 313.21564Q489.3481 315.325 489.8481 316.02814Q490.3481 316.73126 491.06686 316.73126Q491.80124 316.73126 492.2856 316.02814Q492.7856 315.325 492.7856 313.21564Q492.7856 311.09064 492.2856 310.40314Q491.80124 309.7 491.05124 309.7Q490.3325 309.7 489.895 310.3094Q489.3481 311.09064 489.3481 313.21564Z" fill-rule="nonzero"/><path stroke="#4285f4" stroke-width="4.0" stroke-linecap="butt" d="M241.0 61.916668L253.0 61.916668" fill-rule="nonzero"/><path fill="#1a1a1a" d="M261.76562 65.916664L261.76562 57.322914L262.82812 57.322914L262.82812 65.916664L261.76562 65.916664ZM268.85938 65.15104Q268.26562 65.65104 267.71875 65.854164Q267.1875 66.05729 266.5625 66.05729Q265.53125 66.05729 264.98438 65.55729Q264.4375 65.05729 264.4375 64.27604Q264.4375 63.822914 264.64062 63.447914Q264.84375 63.05729 265.1875 62.83854Q265.53125 62.604164 265.95312 62.49479Q266.25 62.40104 266.89062 62.322914Q268.15625 62.18229 268.76562 61.96354Q268.76562 61.74479 268.76562 61.697914Q268.76562 61.041664 268.46875 60.77604Q268.0625 60.43229 267.26562 60.43229Q266.53125 60.43229 266.17188 60.697914Q265.8125 60.947914 265.64062 61.604164L264.60938 61.46354Q264.75 60.80729 265.07812 60.40104Q265.40625 59.99479 266.01562 59.77604Q266.625 59.55729 267.42188 59.55729Q268.21875 59.55729 268.71875 59.74479Q269.21875 59.93229 269.45312 60.21354Q269.6875 60.49479 269.78125 60.93229Q269.82812 61.197914 269.82812 61.90104L269.82812 63.30729Q269.82812 64.77604 269.89062 65.166664Q269.96875 65.55729 270.17188 65.916664L269.0625 65.916664Q268.90625 65.58854 268.85938 65.15104ZM268.76562 62.791664Q268.1875 63.02604 267.04688 63.197914Q266.39062 63.291664 266.125 63.416664Q265.85938 63.52604 265.70312 63.74479Q265.5625 63.96354 265.5625 64.24479Q265.5625 64.666664 265.875 64.947914Q266.20312 65.229164 266.8125 65.229164Q267.42188 65.229164 267.89062 64.96354Q268.375 64.697914 268.59375 64.229164Q268.76562 63.86979 268.76562 63.18229L268.76562 62.791664ZM271.59375 66.43229L272.625 66.58854Q272.6875 67.05729 272.98438 67.27604Q273.375 67.572914 274.04688 67.572914Q274.78125 67.572914 275.17188 67.27604Q275.57812 66.979164 275.71875 66.46354Q275.8125 66.135414 275.79688 65.104164Q275.10938 65.916664 274.07812 65.916664Q272.79688 65.916664 272.09375 64.99479Q271.39062 64.05729 271.39062 62.77604Q271.39062 61.885414 271.70312 61.135414Q272.03125 60.36979 272.64062 59.96354Q273.25 59.55729 274.07812 59.55729Q275.1875 59.55729 275.90625 60.447914L275.90625 59.697914L276.875 59.697914L276.875 65.072914Q276.875 66.52604 276.57812 67.135414Q276.28125 67.74479 275.64062 68.08854Q275.0 68.447914 274.0625 68.447914Q272.95312 68.447914 272.26562 67.947914Q271.57812 67.447914 271.59375 66.43229ZM272.46875 62.697914Q272.46875 63.916664 272.95312 64.479164Q273.4375 65.041664 274.17188 65.041664Q274.90625 65.041664 275.39062 64.479164Q275.89062 63.916664 275.89062 62.729164Q275.89062 61.58854 275.375 61.010414Q274.875 60.43229 274.15625 60.43229Q273.45312 60.43229 272.95312 61.010414Q272.46875 61.572914 272.46875 62.697914Z" fill-rule="nonzero"/><path stroke="#ea4335" stroke-width="4.0" stroke-linecap="butt" d="M294.0 61.916668L306.0 61.916668" fill-rule="nonzero"/><path fill="#1a1a1a" d="M317.09375 64.979164L317.25 65.90104Q316.79688 65.99479 316.45312 65.99479Q315.875 65.99479 315.5625 65.822914Q315.25 65.635414 315.10938 65.33854Q314.98438 65.041664 314.98438 64.08854L314.98438 60.510414L314.21875 60.510414L314.21875 59.697914L314.98438 59.697914L314.98438 58.15104L316.03125 57.52604L316.03125 59.697914L317.09375 59.697914L317.09375 60.510414L316.03125 60.510414L316.03125 64.15104Q316.03125 64.604164 316.07812 64.729164Q316.14062 64.854164 316.26562 64.93229Q316.39062 65.010414 316.625 65.010414Q316.8125 65.010414 317.09375 64.979164ZM317.79688 65.916664L317.79688 57.322914L318.84375 57.322914L318.84375 60.40104Q319.57812 59.55729 320.70312 59.55729Q321.40625 59.55729 321.90625 59.83854Q322.42188 60.104164 322.64062 60.58854Q322.85938 61.05729 322.85938 61.979164L322.85938 65.916664L321.8125 65.916664L321.8125 61.979164Q321.8125 61.18229 321.46875 60.822914Q321.125 60.46354 320.5 60.46354Q320.03125 60.46354 319.60938 60.71354Q319.20312 60.947914 319.01562 61.36979Q318.84375 61.77604 318.84375 62.510414L318.84375 65.916664L317.79688 65.916664ZM324.78125 65.916664L324.78125 59.697914L325.73438 59.697914L325.73438 60.635414Q326.09375 59.979164 326.39062 59.77604Q326.70312 59.55729 327.07812 59.55729Q327.60938 59.55729 328.15625 59.885414L327.79688 60.86979Q327.40625 60.635414 327.03125 60.635414Q326.67188 60.635414 326.39062 60.854164Q326.125 61.05729 326.01562 61.43229Q325.82812 61.99479 325.82812 62.65104L325.82812 65.916664L324.78125 65.916664ZM333.04688 63.916664L334.14062 64.041664Q333.89062 64.99479 333.1875 65.52604Q332.48438 66.05729 331.40625 66.05729Q330.04688 66.05729 329.23438 65.21354Q328.4375 64.36979 328.4375 62.854164Q328.4375 61.291664 329.25 60.43229Q330.0625 59.55729 331.34375 59.55729Q332.59375 59.55729 333.375 60.40104Q334.17188 61.24479 334.17188 62.791664Q334.17188 62.885414 334.17188 63.072914L329.53125 63.072914Q329.59375 64.104164 330.10938 64.65104Q330.625 65.18229 331.40625 65.18229Q331.98438 65.18229 332.39062 64.885414Q332.8125 64.572914 333.04688 63.916664ZM329.59375 62.21354L333.0625 62.21354Q333.0 61.416664 332.67188 61.02604Q332.15625 60.416664 331.35938 60.416664Q330.625 60.416664 330.125 60.90104Q329.64062 61.385414 329.59375 62.21354ZM335.375 64.05729L336.40625 63.90104Q336.5 64.52604 336.89062 64.854164Q337.29688 65.18229 338.03125 65.18229Q338.75 65.18229 339.09375 64.90104Q339.45312 64.604164 339.45312 64.197914Q339.45312 63.83854 339.14062 63.635414Q338.92188 63.49479 338.0625 63.27604Q336.90625 62.979164 336.45312 62.77604Q336.01562 62.55729 335.78125 62.18229Q335.54688 61.80729 335.54688 61.33854Q335.54688 60.93229 335.73438 60.572914Q335.92188 60.21354 336.25 59.979164Q336.5 59.80729 336.92188 59.68229Q337.34375 59.55729 337.84375 59.55729Q338.5625 59.55729 339.10938 59.77604Q339.67188 59.979164 339.9375 60.33854Q340.20312 60.697914 340.29688 61.291664L339.26562 61.43229Q339.20312 60.96354 338.85938 60.697914Q338.53125 60.416664 337.90625 60.416664Q337.1875 60.416664 336.875 60.666664Q336.5625 60.90104 336.5625 61.229164Q336.5625 61.43229 336.6875 61.58854Q336.82812 61.760414 337.09375 61.86979Q337.25 61.93229 338.03125 62.135414Q339.15625 62.447914 339.59375 62.635414Q340.03125 62.822914 340.28125 63.18229Q340.53125 63.541664 340.53125 64.08854Q340.53125 64.61979 340.21875 65.08854Q339.92188 65.541664 339.34375 65.80729Q338.76562 66.05729 338.03125 66.05729Q336.8125 66.05729 336.17188 65.55729Q335.54688 65.041664 335.375 64.05729ZM342.40625 62.80729Q342.40625 61.072914 343.35938 60.24479Q344.15625 59.55729 345.3125 59.55729Q346.59375 59.55729 347.40625 60.40104Q348.23438 61.229164 348.23438 62.71354Q348.23438 63.916664 347.875 64.604164Q347.51562 65.291664 346.8125 65.68229Q346.125 66.05729 345.3125 66.05729Q344.01562 66.05729 343.20312 65.229164Q342.40625 64.385414 342.40625 62.80729ZM343.48438 62.80729Q343.48438 63.99479 344.0 64.58854Q344.53125 65.18229 345.3125 65.18229Q346.10938 65.18229 346.625 64.58854Q347.14062 63.99479 347.14062 62.77604Q347.14062 61.61979 346.60938 61.02604Q346.09375 60.43229 345.3125 60.43229Q344.53125 60.43229 344.0 61.02604Q343.48438 61.604164 343.48438 62.80729ZM349.76562 65.916664L349.76562 57.322914L350.82812 57.322914L350.82812 65.916664L349.76562 65.916664ZM356.82812 65.916664L356.82812 65.135414Q356.23438 66.05729 355.09375 66.05729Q354.34375 66.05729 353.71875 65.65104Q353.09375 65.229164 352.75 64.49479Q352.40625 63.760414 352.40625 62.80729Q352.40625 61.885414 352.71875 61.11979Q353.03125 60.354164 353.65625 59.96354Q354.28125 59.55729 355.04688 59.55729Q355.60938 59.55729 356.04688 59.791664Q356.48438 60.02604 356.76562 60.40104L356.76562 57.322914L357.8125 57.322914L357.8125 65.916664L356.82812 65.916664ZM353.5 62.80729Q353.5 64.010414 354.0 64.604164Q354.5 65.18229 355.1875 65.18229Q355.875 65.18229 356.35938 64.61979Q356.84375 64.05729 356.84375 62.90104Q356.84375 61.61979 356.34375 61.02604Q355.85938 60.43229 355.14062 60.43229Q354.4375 60.43229 353.96875 61.010414Q353.5 61.572914 353.5 62.80729Z" fill-rule="nonzero"/><path fill="#757575" d="M30.315624 32.534374L32.20625 33.003124Q31.6125 35.346874 30.065624 36.58125Q28.51875 37.8 26.26875 37.8Q23.95625 37.8 22.503124 36.8625Q21.065624 35.909374 20.3 34.128124Q19.55 32.33125 19.55 30.284374Q19.55 28.05 20.39375 26.39375Q21.253124 24.721874 22.83125 23.8625Q24.409374 22.9875 26.3 22.9875Q28.45625 22.9875 29.909374 24.08125Q31.378124 25.175 31.95625 27.159374L30.096874 27.596874Q29.596874 26.034374 28.64375 25.33125Q27.70625 24.6125 26.26875 24.6125Q24.6125 24.6125 23.503124 25.409374Q22.39375 26.190624 21.940624 27.534374Q21.503124 28.8625 21.503124 30.26875Q21.503124 32.096874 22.034374 33.471874Q22.565624 34.83125 23.690624 35.503124Q24.815624 36.175 26.1125 36.175Q27.70625 36.175 28.815624 35.253124Q29.925 34.33125 30.315624 32.534374ZM33.221874 32.3625Q33.221874 29.4875 34.815624 28.096874Q36.159374 26.940624 38.08125 26.940624Q40.221874 26.940624 41.565624 28.346874Q42.925 29.753124 42.925 32.221874Q42.925 34.221874 42.33125 35.378124Q41.7375 36.51875 40.58125 37.159374Q39.440624 37.784374 38.08125 37.784374Q35.89375 37.784374 34.55 36.39375Q33.221874 34.9875 33.221874 32.3625ZM35.01875 32.3625Q35.01875 34.3625 35.878124 35.346874Q36.753124 36.33125 38.08125 36.33125Q39.39375 36.33125 40.253124 35.346874Q41.128124 34.346874 41.128124 32.3Q41.128124 30.378124 40.253124 29.39375Q39.378124 28.39375 38.08125 28.39375Q36.753124 28.39375 35.878124 29.39375Q35.01875 30.378124 35.01875 32.3625ZM44.8625 37.55L44.8625 27.175L46.45625 27.175L46.45625 28.659374Q47.596874 26.940624 49.753124 26.940624Q50.690624 26.940624 51.471874 27.284374Q52.26875 27.6125 52.659374 28.159374Q53.05 28.70625 53.20625 29.45625Q53.3 29.95625 53.3 31.175L53.3 37.55L51.534374 37.55L51.534374 31.2375Q51.534374 30.159374 51.33125 29.628124Q51.128124 29.096874 50.596874 28.784374Q50.08125 28.471874 49.378124 28.471874Q48.253124 28.471874 47.440624 29.190624Q46.628124 29.89375 46.628124 31.878124L46.628124 37.55L44.8625 37.55ZM54.159374 34.45625L55.909374 34.175Q56.05 35.221874 56.721874 35.784374Q57.39375 36.33125 58.596874 36.33125Q59.8 36.33125 60.378124 35.846874Q60.971874 35.346874 60.971874 34.690624Q60.971874 34.096874 60.45625 33.753124Q60.096874 33.51875 58.659374 33.159374Q56.721874 32.659374 55.971874 32.315624Q55.2375 31.95625 54.846874 31.33125Q54.45625 30.690624 54.45625 29.925Q54.45625 29.2375 54.76875 28.64375Q55.096874 28.05 55.64375 27.659374Q56.05 27.3625 56.753124 27.159374Q57.471874 26.940624 58.284374 26.940624Q59.503124 26.940624 60.425 27.3Q61.346874 27.64375 61.784374 28.253124Q62.221874 28.846874 62.39375 29.846874L60.675 30.08125Q60.55 29.284374 59.9875 28.846874Q59.425 28.39375 58.409374 28.39375Q57.190624 28.39375 56.675 28.8Q56.159374 29.190624 56.159374 29.721874Q56.159374 30.065624 56.378124 30.346874Q56.58125 30.628124 57.05 30.815624Q57.315624 30.909374 58.596874 31.253124Q60.471874 31.753124 61.20625 32.08125Q61.940624 32.39375 62.3625 33.003124Q62.784374 33.596874 62.784374 34.503124Q62.784374 35.378124 62.26875 36.159374Q61.753124 36.940624 60.784374 37.3625Q59.815624 37.784374 58.596874 37.784374Q56.58125 37.784374 55.51875 36.940624Q54.45625 36.096874 54.159374 34.45625ZM71.65938 37.55L71.65938 36.01875Q70.45625 37.784374 68.37813 37.784374Q67.45625 37.784374 66.65938 37.440624Q65.8625 37.08125 65.47188 36.55Q65.09688 36.01875 64.94063 35.2375Q64.83125 34.721874 64.83125 33.596874L64.83125 27.175L66.58125 27.175L66.58125 32.925Q66.58125 34.3 66.69063 34.784374Q66.8625 35.471874 67.39375 35.878124Q67.94063 36.26875 68.72188 36.26875Q69.51875 36.26875 70.20625 35.8625Q70.90938 35.45625 71.19063 34.76875Q71.4875 34.065624 71.4875 32.7375L71.4875 27.175L73.2375 27.175L73.2375 37.55L71.65938 37.55ZM74.8625 37.55L74.8625 27.175L76.44063 27.175L76.44063 28.628124Q76.925 27.878124 77.7375 27.409374Q78.55 26.940624 79.58125 26.940624Q80.7375 26.940624 81.47188 27.425Q82.20625 27.89375 82.51875 28.753124Q83.75313 26.940624 85.72188 26.940624Q87.26875 26.940624 88.09688 27.8Q88.925 28.659374 88.925 30.425L88.925 37.55L87.175 37.55L87.175 31.01875Q87.175 29.95625 87.00313 29.503124Q86.83125 29.034374 86.37813 28.753124Q85.94063 28.471874 85.33125 28.471874Q84.2375 28.471874 83.50313 29.20625Q82.78438 29.925 82.78438 31.51875L82.78438 37.55L81.03438 37.55L81.03438 30.815624Q81.03438 29.64375 80.59688 29.065624Q80.175 28.471874 79.19063 28.471874Q78.45625 28.471874 77.81563 28.8625Q77.19063 29.253124 76.90938 30.003124Q76.62813 30.753124 76.62813 32.175L76.62813 37.55L74.8625 37.55ZM97.97188 34.20625L99.78438 34.440624Q99.3625 36.01875 98.19063 36.909374Q97.03438 37.784374 95.22188 37.784374Q92.95625 37.784374 91.6125 36.39375Q90.28438 34.9875 90.28438 32.45625Q90.28438 29.83125 91.62813 28.39375Q92.97188 26.940624 95.12813 26.940624Q97.20625 26.940624 98.51875 28.3625Q99.84688 29.76875 99.84688 32.346874Q99.84688 32.503124 99.83125 32.815624L92.09688 32.815624Q92.19063 34.51875 93.06563 35.425Q93.94063 36.33125 95.2375 36.33125Q96.20625 36.33125 96.87813 35.83125Q97.56563 35.315624 97.97188 34.20625ZM92.19063 31.3625L97.9875 31.3625Q97.87813 30.065624 97.33125 29.409374Q96.4875 28.39375 95.14375 28.39375Q93.94063 28.39375 93.1125 29.20625Q92.28438 30.003124 92.19063 31.3625ZM101.84688 37.55L101.84688 27.175L103.425 27.175L103.425 28.753124Q104.03438 27.64375 104.55 27.3Q105.06563 26.940624 105.675 26.940624Q106.56563 26.940624 107.4875 27.503124L106.87813 29.14375Q106.2375 28.753124 105.59688 28.753124Q105.01875 28.753124 104.55 29.1125Q104.09688 29.45625 103.89375 30.065624Q103.6125 31.003124 103.6125 32.1125L103.6125 37.55L101.84688 37.55ZM115.01875 37.55L115.01875 23.2375L116.90938 23.2375L116.90938 35.8625L123.95625 35.8625L123.95625 37.55L115.01875 37.55ZM132.64375 36.26875Q131.65938 37.096874 130.75313 37.440624Q129.84688 37.784374 128.81563 37.784374Q127.1125 37.784374 126.19063 36.95625Q125.26875 36.1125 125.26875 34.815624Q125.26875 34.05 125.6125 33.425Q125.97188 32.8 126.53438 32.425Q127.09688 32.034374 127.8 31.83125Q128.31563 31.70625 129.3625 31.565624Q131.4875 31.315624 132.4875 30.971874Q132.50313 30.6125 132.50313 30.503124Q132.50313 29.440624 132.00313 28.9875Q131.33125 28.39375 130.00313 28.39375Q128.75313 28.39375 128.15938 28.83125Q127.58125 29.26875 127.3 30.378124L125.58125 30.14375Q125.81563 29.034374 126.34688 28.3625Q126.87813 27.675 127.89375 27.315624Q128.90938 26.940624 130.25313 26.940624Q131.58125 26.940624 132.40938 27.253124Q133.2375 27.565624 133.62813 28.05Q134.01875 28.51875 134.175 29.2375Q134.26875 29.690624 134.26875 30.8625L134.26875 33.20625Q134.26875 35.659374 134.37813 36.315624Q134.4875 36.95625 134.83125 37.55L132.9875 37.55Q132.72188 37.003124 132.64375 36.26875ZM132.4875 32.346874Q131.53438 32.7375 129.6125 33.003124Q128.53438 33.159374 128.08125 33.3625Q127.64375 33.55 127.39375 33.925Q127.14375 34.3 127.14375 34.76875Q127.14375 35.471874 127.675 35.940624Q128.20625 36.409374 129.2375 36.409374Q130.25313 36.409374 131.03438 35.971874Q131.83125 35.51875 132.20625 34.753124Q132.4875 34.14375 132.4875 32.9875L132.4875 32.346874ZM136.55 38.409374L138.25313 38.659374Q138.3625 39.45625 138.84688 39.815624Q139.50313 40.3 140.64375 40.3Q141.8625 40.3 142.51875 39.815624Q143.19063 39.33125 143.425 38.45625Q143.56563 37.909374 143.55 36.190624Q142.39375 37.55 140.675 37.55Q138.53438 37.55 137.3625 36.003124Q136.19063 34.45625 136.19063 32.3Q136.19063 30.815624 136.72188 29.565624Q137.26875 28.315624 138.28438 27.628124Q139.31563 26.940624 140.69063 26.940624Q142.51875 26.940624 143.72188 28.425L143.72188 27.175L145.33125 27.175L145.33125 36.14375Q145.33125 38.565624 144.83125 39.565624Q144.34688 40.58125 143.26875 41.159374Q142.20625 41.753124 140.64375 41.753124Q138.8 41.753124 137.64375 40.925Q136.50313 40.096874 136.55 38.409374ZM138.00313 32.175Q138.00313 34.221874 138.81563 35.159374Q139.62813 36.096874 140.84688 36.096874Q142.05 36.096874 142.8625 35.159374Q143.69063 34.221874 143.69063 32.2375Q143.69063 30.33125 142.84688 29.3625Q142.00313 28.39375 140.81563 28.39375Q139.64375 28.39375 138.81563 29.346874Q138.00313 30.3 138.00313 32.175Z" fill-rule="nonzero"/></svg>