<svg version="1.1" viewBox="0.0 0.0 600.0 371.0" fill="none" stroke="none" stroke-linecap="square" stroke-miterlimit="10" width="600" height="371" xmlns:xlink="http://www.w3.org/1999/xlink" xmlns="http://www.w3.org/2000/svg"><path fill="#ffffff" d="M0 0L600.0 0L600.0 371.0L0 371.0L0 0Z" fill-rule="nonzero"/><path stroke="#cccccc" stroke-width="1.0" stroke-linecap="butt" d="M55.5 61.5L55.5 274.5" fill-rule="nonzero"/><path stroke="#cccccc" stroke-width="1.0" stroke-linecap="butt" d="M158.5 61.5L158.5 274.5" fill-rule="nonzero"/><path stroke="#cccccc" stroke-width="1.0" stroke-linecap="butt" d="M261.5 61.5L261.5 274.5" fill-rule="nonzero"/><path stroke="#cccccc" stroke-width="1.0" stroke-linecap="butt" d="M365.5 61.5L365.5 274.5" fill-rule="nonzero"/><path stroke="#cccccc" stroke-width="1.0" stroke-linecap="butt" d="M468.5 61.5L468.5 274.5" fill-rule="nonzero"/><path stroke="#cccccc" stroke-width="1.0" stroke-linecap="butt" d="M571.5 61.5L571.5 274.5" fill-rule="nonzero"/><path stroke="#333333" stroke-width="1.0" stroke-linecap="butt" d="M45.5 274.5L581.5 274.5" fill-rule="nonzero"/><path stroke="#cccccc" stroke-width="1.0" stroke-linecap="butt" d="M45.5 203.5L581.5 203.5" fill-rule="nonzero"/><path stroke="#cccccc" stroke-width="1.0" stroke-linecap="butt" d="M45.5 132.5L581.5 132.5" fill-rule="nonzero"/><path stroke="#cccccc" stroke-width="1.0" stroke-linecap="butt" d="M45.5 61.5L581.5 61.5" fill-rule="nonzero"/><clipPath id="id_0"><path d="M45.55 61.916668L581.45 61.916668L581.45 274.08334L45.55 274.08334L45.55 61.916668Z" clip-rule="nonzero"/></clipPath><path stroke="#783f04" stroke-width="2.0" stroke-linecap="butt" clip-path="url(#id_0)" d="M55.190224 238.72223L158.51413 238.72223L167.12447 238.72223L175.73479 203.36111L184.34511 168.0L192.95544 132.63889L201.56577 97.27778L210.17609 61.916668L468.48587 61.916668L477.0962 97.27778L485.7065 132.63889L494.31683 168.0L502.92715 203.36111L511.5375 238.72223L571.80975 238.72223" fill-rule="nonzero"/><path stroke="#38761d" stroke-width="2.0" stroke-linecap="butt" clip-path="url(#id_0)" d="M55.190224 238.72223L158.51413 238.72223L167.12447 238.72223L175.73479 238.72223L184.34511 238.72223L192.95544 238.72223L201.56577 61.916668L210.17609 61.916668L468.48587 61.916668L477.0962 61.916668L485.7065 61.916668L494.31683 61.916668L502.92715 61.916668L511.5375 61.916668L571.80975 61.916668" fill-rule="nonzero"/><path fill="#783f04" clip-path="url(#id_0)" d="M59.690224 238.72223C59.690224 241.2075 57.675503 243.22223 55.190224 243.22223C52.70494 243.22223 50.690224 241.2075 50.690224 238.72223C50.690224 236.23694 52.70494 234.22223 55.190224 234.22223C57.675503 234.22223 59.690224 236.23694 59.690224 238.72223Z" fill-rule="nonzero"/><path fill="#783f04" clip-path="url(#id_0)" d="M163.01413 238.72223C163.01413 241.2075 160.99942 243.22223 158.51413 243.22223C156.02885 243.22223 154.01413 241.2075 154.01413 238.72223C154.01413 236.23694 156.02885 234.22223 158.51413 234.22223C160.99942 234.22223 163.01413 236.23694 163.01413 238.72223Z" fill-rule="nonzero"/><path fill="#783f04" clip-path="url(#id_0)" d="M171.62447 238.72223C171.62447 241.2075 169.60974 243.22223 167.12447 243.22223C164.63918 243.22223 162.62447 241.2075 162.62447 238.72223C162.62447 236.23694 164.63918 234.22223 167.12447 234.22223C169.60974 234.22223 171.62447 236.23694 171.62447 238.72223Z" fill-rule="nonzero"/><path fill="#783f04" clip-path="url(#id_0)" d="M180.23479 203.36111C180.23479 205.84639 178.22006 207.86111 175.73479 207.86111C173.24951 207.86111 171.23479 205.84639 171.23479 203.36111C171.23479 200.87582 173.24951 198.86111 175.73479 198.86111C178.22006 198.86111 180.23479 200.87582 180.23479 203.36111Z" fill-rule="nonzero"/><path fill="#783f04" clip-path="url(#id_0)" d="M188.84511 168.0C188.84511 170.48528 186.8304 172.5 184.34511 172.5C181.85983 172.5 179.84511 170.48528 179.84511 168.0C179.84511 165.51472 181.85983 163.5 184.34511 163.5C186.8304 163.5 188.84511 165.51472 188.84511 168.0Z" fill-rule="nonzero"/><path fill="#783f04" clip-path="url(#id_0)" d="M197.45544 132.63889C197.45544 135.12418 195.44072 137.13889 192.95544 137.13889C190.47015 137.13889 188.45544 135.12418 188.45544 132.63889C188.45544 130.15361 190.47015 128.13889 192.95544 128.13889C195.44072 128.13889 197.45544 130.15361 197.45544 132.63889Z" fill-rule="nonzero"/><path fill="#783f04" clip-path="url(#id_0)" d="M206.06577 97.27778C206.06577 99.76306 204.05104 101.77778 201.56577 101.77778C199.08047 101.77778 197.06577 99.76306 197.06577 97.27778C197.06577 94.792496 199.08047 92.77778 201.56577 92.77778C204.05104 92.77778 206.06577 94.792496 206.06577 97.27778Z" fill-rule="nonzero"/><path fill="#783f04" clip-path="url(#id_0)" d="M214.67609 61.916668C214.67609 64.40195 212.66138 66.416664 210.17609 66.416664C207.69081 66.416664 205.67609 64.40195 205.67609 61.916668C205.67609 59.431385 207.69081 57.416668 210.17609 57.416668C212.66138 57.416668 214.67609 59.431385 214.67609 61.916668Z" fill-rule="nonzero"/><path fill="#783f04" clip-path="url(#id_0)" d="M472.98587 61.916668C472.98587 64.40195 470.97116 66.416664 468.48587 66.416664C466.00058 66.416664 463.98587 64.40195 463.98587 61.916668C463.98587 59.431385 466.00058 57.416668 468.48587 57.416668C470.97116 57.416668 472.98587 59.431385 472.98587 61.916668Z" fill-rule="nonzero"/><path fill="#783f04" clip-path="url(#id_0)" d="M481.5962 97.27778C481.5962 99.76306 479.58148 101.77778 477.0962 101.77778C474.6109 101.77778 472.5962 99.76306 472.5962 97.27778C472.5962 94.792496 474.6109 92.77778 477.0962 92.77778C479.58148 92.77778 481.5962 94.792496 481.5962 97.27778Z" fill-rule="nonzero"/><path fill="#783f04" clip-path="url(#id_0)" d="M490.2065 132.63889C490.2065 135.12418 488.1918 137.13889 485.7065 137.13889C483.22122 137.13889 481.2065 135.12418 481.2065 132.63889C481.2065 130.15361 483.22122 128.13889 485.7065 128.13889C488.1918 128.13889 490.2065 130.15361 490.2065 132.63889Z" fill-rule="nonzero"/><path fill="#783f04" clip-path="url(#id_0)" d="M498.81683 168.0C498.81683 170.48528 496.80212 172.5 494.31683 172.5C491.83157 172.5 489.81683 170.48528 489.81683 168.0C489.81683 165.51472 491.83157 163.5 494.31683 163.5C496.80212 163.5 498.81683 165.51472 498.81683 168.0Z" fill-rule="nonzero"/><path fill="#783f04" clip-path="url(#id_0)" d="M507.42715 203.36111C507.42715 205.84639 505.41245 207.86111 502.92715 207.86111C500.4419 207.86111 498.42715 205.84639 498.42715 203.36111C498.42715 200.87582 500.4419 198.86111 502.92715 198.86111C505.41245 198.86111 507.42715 200.87582 507.42715 203.36111Z" fill-rule="nonzero"/><path fill="#783f04" clip-path="url(#id_0)" d="M516.0375 238.72223C516.0375 241.2075 514.02277 243.22223 511.5375 243.22223C509.05222 243.22223 507.0375 241.2075 507.0375 238.72223C507.0375 236.23694 509.05222 234.22223 511.5375 234.22223C514.02277 234.22223 516.0375 236.23694 516.0375 238.72223Z" fill-rule="nonzero"/><path fill="#783f04" clip-path="url(#id_0)" d="M576.30975 238.72223C576.30975 241.2075 574.29504 243.22223 571.80975 243.22223C569.3245 243.22223 567.30975 241.2075 567.30975 238.72223C567.30975 236.23694 569.3245 234.22223 571.80975 234.22223C574.29504 234.22223 576.30975 236.23694 576.30975 238.72223Z" fill-rule="nonzero"/><path fill="#38761d" clip-path="url(#id_0)" d="M55.190224 232.72223L56.537308 236.86812L60.89656 236.86812L57.36985 239.43042L58.716934 243.57632L55.190224 241.01402L51.663513 243.57632L53.010597 239.43042L49.483883 236.86812L53.84314 236.86812Z" fill-rule="nonzero"/><path fill="#38761d" clip-path="url(#id_0)" d="M158.51413 232.72223L159.86122 236.86812L164.22047 236.86812L160.69376 239.43042L162.04085 243.57632L158.51413 241.01402L154.98743 243.57632L156.3345 239.43042L152.8078 236.86812L157.16705 236.86812Z" fill-rule="nonzero"/><path fill="#38761d" clip-path="url(#id_0)" d="M167.12447 232.72223L168.47154 236.86812L172.8308 236.86812L169.3041 239.43042L170.65117 243.57632L167.12447 241.01402L163.59775 243.57632L164.94484 239.43042L161.41812 236.86812L165.77737 236.86812Z" fill-rule="nonzero"/><path fill="#38761d" clip-path="url(#id_0)" d="M175.73479 232.72223L177.08186 236.86812L181.44113 236.86812L177.91441 239.43042L179.26149 243.57632L175.73479 241.01402L172.20807 243.57632L173.55516 239.43042L170.02844 236.86812L174.3877 236.86812Z" fill-rule="nonzero"/><path fill="#38761d" clip-path="url(#id_0)" d="M184.34511 232.72223L185.6922 236.86812L190.05145 236.86812L186.52473 239.43042L187.87183 243.57632L184.34511 241.01402L180.8184 243.57632L182.16548 239.43042L178.63878 236.86812L182.99803 236.86812Z" fill-rule="nonzero"/><path fill="#38761d" clip-path="url(#id_0)" d="M192.95544 232.72223L194.30252 236.86812L198.66177 236.86812L195.13507 239.43042L196.48215 243.57632L192.95544 241.01402L189.42873 243.57632L190.7758 239.43042L187.2491 236.86812L191.60835 236.86812Z" fill-rule="nonzero"/><path fill="#38761d" clip-path="url(#id_0)" d="M201.56577 55.916668L202.91284 60.062565L207.27211 60.062565L203.74539 62.62487L205.09247 66.77077L201.56577 64.208466L198.03905 66.77077L199.38614 62.62487L195.85942 60.062565L200.21867 60.062565Z" fill-rule="nonzero"/><path fill="#38761d" clip-path="url(#id_0)" d="M210.17609 55.916668L211.52318 60.062565L215.88243 60.062565L212.35571 62.62487L213.7028 66.77077L210.17609 64.208466L206.64938 66.77077L207.99646 62.62487L204.46976 60.062565L208.82901 60.062565Z" fill-rule="nonzero"/><path fill="#38761d" clip-path="url(#id_0)" d="M468.48587 55.916668L469.83295 60.062565L474.1922 60.062565L470.6655 62.62487L472.01257 66.77077L468.48587 64.208466L464.95917 66.77077L466.30624 62.62487L462.77954 60.062565L467.1388 60.062565Z" fill-rule="nonzero"/><path fill="#38761d" clip-path="url(#id_0)" d="M477.0962 55.916668L478.44327 60.062565L482.80252 60.062565L479.27582 62.62487L480.6229 66.77077L477.0962 64.208466L473.5695 66.77077L474.91656 62.62487L471.38986 60.062565L475.7491 60.062565Z" fill-rule="nonzero"/><path fill="#38761d" clip-path="url(#id_0)" d="M485.7065 55.916668L487.0536 60.062565L491.41287 60.062565L487.88614 62.62487L489.23322 66.77077L485.7065 64.208466L482.1798 66.77077L483.5269 62.62487L480.00018 60.062565L484.35944 60.062565Z" fill-rule="nonzero"/><path fill="#38761d" clip-path="url(#id_0)" d="M494.31683 55.916668L495.66394 60.062565L500.0232 60.062565L496.49646 62.62487L497.84357 66.77077L494.31683 64.208466L490.79013 66.77077L492.1372 62.62487L488.6105 60.062565L492.96976 60.062565Z" fill-rule="nonzero"/><path fill="#38761d" clip-path="url(#id_0)" d="M502.92715 55.916668L504.27426 60.062565L508.6335 60.062565L505.1068 62.62487L506.4539 66.77077L502.92715 64.208466L499.40045 66.77077L500.74753 62.62487L497.22083 60.062565L501.58008 60.062565Z" fill-rule="nonzero"/><path fill="#38761d" clip-path="url(#id_0)" d="M511.5375 55.916668L512.8846 60.062565L517.24384 60.062565L513.7171 62.62487L515.0642 66.77077L511.5375 64.208466L508.01077 66.77077L509.35788 62.62487L505.83115 60.062565L510.1904 60.062565Z" fill-rule="nonzero"/><path fill="#38761d" clip-path="url(#id_0)" d="M571.80975 55.916668L573.15686 60.062565L577.5161 60.062565L573.9894 62.62487L575.3365 66.77077L571.80975 64.208466L568.2831 66.77077L569.6301 62.62487L566.10345 60.062565L570.4627 60.062565Z" fill-rule="nonzero"/><path fill="#000000" d="M302.60938 323.08334L302.60938 315.50522L299.78125 315.50522L299.78125 314.4896L306.59375 314.4896L306.59375 315.50522L303.75 315.50522L303.75 323.08334L302.60938 323.08334ZM307.29688 315.70834L307.29688 314.4896L308.35938 314.4896L308.35938 315.70834L307.29688 315.70834ZM307.29688 323.08334L307.29688 316.8646L308.35938 316.8646L308.35938 323.08334L307.29688 323.08334ZM310.29688 323.08334L310.29688 316.8646L311.23438 316.8646L311.23438 317.7396Q311.53125 317.27084 312.01562 317.00522Q312.5 316.72397 313.125 316.72397Q313.8125 316.72397 314.25 317.00522Q314.70312 317.28647 314.875 317.8021Q315.625 316.72397 316.79688 316.72397Q317.73438 316.72397 318.21875 317.2396Q318.71875 317.7396 318.71875 318.81772L318.71875 323.08334L317.67188 323.08334L317.67188 319.16147Q317.67188 318.53647 317.5625 318.25522Q317.46875 317.97397 317.20312 317.8021Q316.9375 317.63022 316.5625 317.63022Q315.90625 317.63022 315.46875 318.06772Q315.04688 318.50522 315.04688 319.47397L315.04688 323.08334L313.98438 323.08334L313.98438 319.03647Q313.98438 318.33334 313.71875 317.9896Q313.46875 317.63022 312.89062 317.63022Q312.4375 317.63022 312.0625 317.8646Q311.6875 318.09897 311.51562 318.5521Q311.34375 319.00522 311.34375 319.84897L311.34375 323.08334L310.29688 323.08334ZM325.54688 321.08334L326.64062 321.20834Q326.39062 322.16147 325.6875 322.69272Q324.98438 323.22397 323.90625 323.22397Q322.54688 323.22397 321.73438 322.38022Q320.9375 321.53647 320.9375 320.02084Q320.9375 318.45834 321.75 317.59897Q322.5625 316.72397 323.84375 316.72397Q325.09375 316.72397 325.875 317.56772Q326.67188 318.41147 326.67188 319.95834Q326.67188 320.0521 326.67188 320.2396L322.03125 320.2396Q322.09375 321.27084 322.60938 321.81772Q323.125 322.34897 323.90625 322.34897Q324.48438 322.34897 324.89062 322.0521Q325.3125 321.7396 325.54688 321.08334ZM322.09375 319.38022L325.5625 319.38022Q325.5 318.58334 325.17188 318.19272Q324.65625 317.58334 323.85938 317.58334Q323.125 317.58334 322.625 318.06772Q322.14062 318.5521 322.09375 319.38022Z" fill-rule="nonzero"/><path fill="#000000" d="M33.05 273.84897Q33.05 272.31772 33.3625 271.39584Q33.675 270.45834 34.284374 269.95834Q34.909374 269.45834 35.846874 269.45834Q36.534374 269.45834 37.05 269.7396Q37.58125 270.02084 37.925 270.5521Q38.26875 271.06772 38.45625 271.81772Q38.64375 272.56772 38.64375 273.84897Q38.64375 275.3646 38.33125 276.28647Q38.034374 277.20834 37.409374 277.72397Q36.8 278.22397 35.846874 278.22397Q34.6125 278.22397 33.89375 277.33334Q33.05 276.27084 33.05 273.84897ZM34.128124 273.84897Q34.128124 275.95834 34.628124 276.66147Q35.128124 277.3646 35.846874 277.3646Q36.58125 277.3646 37.065624 276.66147Q37.565624 275.95834 37.565624 273.84897Q37.565624 271.72397 37.065624 271.03647Q36.58125 270.33334 35.83125 270.33334Q35.1125 270.33334 34.675 270.94272Q34.128124 271.72397 34.128124 273.84897Z" fill-rule="nonzero"/><path fill="#000000" d="M38.596874 206.34549L38.596874 207.36111L32.909374 207.36111Q32.909374 206.98611 33.034374 206.62674Q33.253124 206.04861 33.721874 205.48611Q34.20625 204.92361 35.1125 204.18924Q36.51875 203.03299 37.003124 202.36111Q37.503124 201.68924 37.503124 201.09549Q37.503124 200.47049 37.05 200.04861Q36.596874 199.61111 35.878124 199.61111Q35.1125 199.61111 34.659374 200.06424Q34.20625 200.51736 34.190624 201.32986L33.1125 201.22049Q33.221874 200.00174 33.940624 199.37674Q34.675 198.73611 35.909374 198.73611Q37.14375 198.73611 37.8625 199.42361Q38.58125 200.11111 38.58125 201.12674Q38.58125 201.64236 38.3625 202.14236Q38.159374 202.62674 37.659374 203.18924Q37.175 203.73611 36.05 204.68924Q35.096874 205.48611 34.815624 205.78299Q34.55 206.06424 34.378124 206.34549L38.596874 206.34549Z" fill-rule="nonzero"/><path fill="#000000" d="M36.425 136.63889L36.425 134.57639L32.70625 134.57639L32.70625 133.60764L36.628124 128.04514L37.4875 128.04514L37.4875 133.60764L38.64375 133.60764L38.64375 134.57639L37.4875 134.57639L37.4875 136.63889L36.425 136.63889ZM36.425 133.60764L36.425 129.74826L33.7375 133.60764L36.425 133.60764Z" fill-rule="nonzero"/><path fill="#000000" d="M38.51875 59.43229L37.471874 59.510414Q37.33125 58.885414 37.08125 58.604164Q36.64375 58.15104 36.01875 58.15104Q35.51875 58.15104 35.128124 58.43229Q34.64375 58.80729 34.346874 59.510414Q34.065624 60.197914 34.05 61.479164Q34.425 60.90104 34.971874 60.61979Q35.534374 60.33854 36.14375 60.33854Q37.190624 60.33854 37.925 61.11979Q38.675 61.90104 38.675 63.11979Q38.675 63.93229 38.315624 64.635414Q37.971874 65.322914 37.3625 65.697914Q36.753124 66.05729 35.9875 66.05729Q34.659374 66.05729 33.83125 65.08854Q33.003124 64.11979 33.003124 61.90104Q33.003124 59.40104 33.925 58.27604Q34.721874 57.291664 36.08125 57.291664Q37.096874 57.291664 37.7375 57.86979Q38.39375 58.43229 38.51875 59.43229ZM34.221874 63.135414Q34.221874 63.68229 34.440624 64.18229Q34.675 64.666664 35.08125 64.93229Q35.503124 65.197914 35.971874 65.197914Q36.628124 65.197914 37.1125 64.666664Q37.596874 64.11979 37.596874 63.197914Q37.596874 62.30729 37.1125 61.791664Q36.64375 61.27604 35.925 61.27604Q35.20625 61.27604 34.70625 61.791664Q34.221874 62.30729 34.221874 63.135414Z" fill-rule="nonzero"/><path fill="#000000" d="M35.190224 286.84897Q35.190224 285.31772 35.502724 284.39584Q35.815224 283.45834 36.4246 282.95834Q37.0496 282.45834 37.9871 282.45834Q38.6746 282.45834 39.190224 282.7396Q39.721474 283.02084 40.065224 283.5521Q40.408974 284.06772 40.596474 284.81772Q40.783974 285.56772 40.783974 286.84897Q40.783974 288.3646 40.471474 289.28647Q40.1746 290.20834 39.5496 290.72397Q38.940224 291.22397 37.9871 291.22397Q36.752724 291.22397 36.033974 290.33334Q35.190224 289.27084 35.190224 286.84897ZM36.26835 286.84897Q36.26835 288.95834 36.76835 289.66147Q37.26835 290.3646 37.9871 290.3646Q38.721474 290.3646 39.20585 289.66147Q39.70585 288.95834 39.70585 286.84897Q39.70585 284.72397 39.20585 284.03647Q38.721474 283.33334 37.971474 283.33334Q37.252724 283.33334 36.815224 283.94272Q36.26835 284.72397 36.26835 286.84897ZM42.76835 286.06772L42.76835 284.8646L43.971474 284.8646L43.971474 286.06772L42.76835 286.06772ZM42.76835 291.08334L42.76835 289.88022L43.971474 289.88022L43.971474 291.08334L42.76835 291.08334ZM45.190224 286.84897Q45.190224 285.31772 45.502724 284.39584Q45.815224 283.45834 46.4246 282.95834Q47.0496 282.45834 47.9871 282.45834Q48.6746 282.45834 49.190224 282.7396Q49.721474 283.02084 50.065224 283.5521Q50.408974 284.06772 50.596474 284.81772Q50.783974 285.56772 50.783974 286.84897Q50.783974 288.3646 50.471474 289.28647Q50.1746 290.20834 49.5496 290.72397Q48.940224 291.22397 47.9871 291.22397Q46.752724 291.22397 46.033974 290.33334Q45.190224 289.27084 45.190224 286.84897ZM46.26835 286.84897Q46.26835 288.95834 46.76835 289.66147Q47.26835 290.3646 47.9871 290.3646Q48.721474 290.3646 49.20585 289.66147Q49.70585 288.95834 49.70585 286.84897Q49.70585 284.72397 49.20585 284.03647Q48.721474 283.33334 47.971474 283.33334Q47.252724 283.33334 46.815224 283.94272Q46.26835 284.72397 46.26835 286.84897ZM52.190224 286.84897Q52.190224 285.31772 52.502724 284.39584Q52.815224 283.45834 53.4246 282.95834Q54.0496 282.45834 54.9871 282.45834Q55.6746 282.45834 56.190224 282.7396Q56.721474 283.02084 57.065224 283.5521Q57.408974 284.06772 57.596474 284.81772Q57.783974 285.56772 57.783974 286.84897Q57.783974 288.3646 57.471474 289.28647Q57.1746 290.20834 56.5496 290.72397Q55.940224 291.22397 54.9871 291.22397Q53.752724 291.22397 53.033974 290.33334Q52.190224 289.27084 52.190224 286.84897ZM53.26835 286.84897Q53.26835 288.95834 53.76835 289.66147Q54.26835 290.3646 54.9871 290.3646Q55.721474 290.3646 56.20585 289.66147Q56.70585 288.95834 56.70585 286.84897Q56.70585 284.72397 56.20585 284.03647Q55.721474 283.33334 54.971474 283.33334Q54.252724 283.33334 53.815224 283.94272Q53.26835 284.72397 53.26835 286.84897ZM59.76835 286.06772L59.76835 284.8646L60.971474 284.8646L60.971474 286.06772L59.76835 286.06772ZM59.76835 291.08334L59.76835 289.88022L60.971474 289.88022L60.971474 291.08334L59.76835 291.08334ZM62.190224 286.84897Q62.190224 285.31772 62.502724 284.39584Q62.815224 283.45834 63.4246 282.95834Q64.0496 282.45834 64.9871 282.45834Q65.6746 282.45834 66.19022 282.7396Q66.72147 283.02084 67.06522 283.5521Q67.40897 284.06772 67.59647 284.81772Q67.78397 285.56772 67.78397 286.84897Q67.78397 288.3646 67.47147 289.28647Q67.1746 290.20834 66.5496 290.72397Q65.94022 291.22397 64.9871 291.22397Q63.752724 291.22397 63.033974 290.33334Q62.190224 289.27084 62.190224 286.84897ZM63.26835 286.84897Q63.26835 288.95834 63.76835 289.66147Q64.26835 290.3646 64.9871 290.3646Q65.72147 290.3646 66.20585 289.66147Q66.70585 288.95834 66.70585 286.84897Q66.70585 284.72397 66.20585 284.03647Q65.72147 283.33334 64.97147 283.33334Q64.25272 283.33334 63.815224 283.94272Q63.26835 284.72397 63.26835 286.84897ZM69.19022 286.84897Q69.19022 285.31772 69.50272 284.39584Q69.81522 283.45834 70.4246 282.95834Q71.0496 282.45834 71.9871 282.45834Q72.6746 282.45834 73.19022 282.7396Q73.72147 283.02084 74.06522 283.5521Q74.40897 284.06772 74.59647 284.81772Q74.78397 285.56772 74.78397 286.84897Q74.78397 288.3646 74.47147 289.28647Q74.1746 290.20834 73.5496 290.72397Q72.94022 291.22397 71.9871 291.22397Q70.75272 291.22397 70.03397 290.33334Q69.19022 289.27084 69.19022 286.84897ZM70.26835 286.84897Q70.26835 288.95834 70.76835 289.66147Q71.26835 290.3646 71.9871 290.3646Q72.72147 290.3646 73.20585 289.66147Q73.70585 288.95834 73.70585 286.84897Q73.70585 284.72397 73.20585 284.03647Q72.72147 283.33334 71.97147 283.33334Q71.25272 283.33334 70.81522 283.94272Q70.26835 284.72397 70.26835 286.84897Z" fill-rule="nonzero"/><path fill="#000000" d="M138.51413 286.84897Q138.51413 285.31772 138.82663 284.39584Q139.13913 283.45834 139.7485 282.95834Q140.3735 282.45834 141.311 282.45834Q141.9985 282.45834 142.51413 282.7396Q143.04538 283.02084 143.38913 283.5521Q143.73288 284.06772 143.92038 284.81772Q144.10788 285.56772 144.10788 286.84897Q144.10788 288.3646 143.79538 289.28647Q143.4985 290.20834 142.8735 290.72397Q142.26413 291.22397 141.311 291.22397Q140.07663 291.22397 139.35788 290.33334Q138.51413 289.27084 138.51413 286.84897ZM139.59225 286.84897Q139.59225 288.95834 140.09225 289.66147Q140.59225 290.3646 141.311 290.3646Q142.04538 290.3646 142.52975 289.66147Q143.02975 288.95834 143.02975 286.84897Q143.02975 284.72397 142.52975 284.03647Q142.04538 283.33334 141.29538 283.33334Q140.57663 283.33334 140.13913 283.94272Q139.59225 284.72397 139.59225 286.84897ZM146.09225 286.06772L146.09225 284.8646L147.29538 284.8646L147.29538 286.06772L146.09225 286.06772ZM146.09225 291.08334L146.09225 289.88022L147.29538 289.88022L147.29538 291.08334L146.09225 291.08334ZM148.51413 286.84897Q148.51413 285.31772 148.82663 284.39584Q149.13913 283.45834 149.7485 282.95834Q150.3735 282.45834 151.311 282.45834Q151.9985 282.45834 152.51413 282.7396Q153.04538 283.02084 153.38913 283.5521Q153.73288 284.06772 153.92038 284.81772Q154.10788 285.56772 154.10788 286.84897Q154.10788 288.3646 153.79538 289.28647Q153.4985 290.20834 152.8735 290.72397Q152.26413 291.22397 151.311 291.22397Q150.07663 291.22397 149.35788 290.33334Q148.51413 289.27084 148.51413 286.84897ZM149.59225 286.84897Q149.59225 288.95834 150.09225 289.66147Q150.59225 290.3646 151.311 290.3646Q152.04538 290.3646 152.52975 289.66147Q153.02975 288.95834 153.02975 286.84897Q153.02975 284.72397 152.52975 284.03647Q152.04538 283.33334 151.29538 283.33334Q150.57663 283.33334 150.13913 283.94272Q149.59225 284.72397 149.59225 286.84897ZM161.061 290.06772L161.061 291.08334L155.3735 291.08334Q155.3735 290.70834 155.4985 290.34897Q155.71725 289.77084 156.186 289.20834Q156.67038 288.64584 157.57663 287.91147Q158.98288 286.75522 159.46725 286.08334Q159.96725 285.41147 159.96725 284.81772Q159.96725 284.19272 159.51413 283.77084Q159.061 283.33334 158.34225 283.33334Q157.57663 283.33334 157.1235 283.78647Q156.67038 284.2396 156.65475 285.0521L155.57663 284.94272Q155.686 283.72397 156.40475 283.09897Q157.13913 282.45834 158.3735 282.45834Q159.60788 282.45834 160.32663 283.14584Q161.04538 283.83334 161.04538 284.84897Q161.04538 285.3646 160.82663 285.8646Q160.6235 286.34897 160.1235 286.91147Q159.63913 287.45834 158.51413 288.41147Q157.561 289.20834 157.27975 289.50522Q157.01413 289.78647 156.84225 290.06772L161.061 290.06772ZM163.09225 286.06772L163.09225 284.8646L164.29538 284.8646L164.29538 286.06772L163.09225 286.06772ZM163.09225 291.08334L163.09225 289.88022L164.29538 289.88022L164.29538 291.08334L163.09225 291.08334ZM165.51413 286.84897Q165.51413 285.31772 165.82663 284.39584Q166.13913 283.45834 166.7485 282.95834Q167.3735 282.45834 168.311 282.45834Q168.9985 282.45834 169.51413 282.7396Q170.04538 283.02084 170.38913 283.5521Q170.73288 284.06772 170.92038 284.81772Q171.10788 285.56772 171.10788 286.84897Q171.10788 288.3646 170.79538 289.28647Q170.4985 290.20834 169.8735 290.72397Q169.26413 291.22397 168.311 291.22397Q167.07663 291.22397 166.35788 290.33334Q165.51413 289.27084 165.51413 286.84897ZM166.59225 286.84897Q166.59225 288.95834 167.09225 289.66147Q167.59225 290.3646 168.311 290.3646Q169.04538 290.3646 169.52975 289.66147Q170.02975 288.95834 170.02975 286.84897Q170.02975 284.72397 169.52975 284.03647Q169.04538 283.33334 168.29538 283.33334Q167.57663 283.33334 167.13913 283.94272Q166.59225 284.72397 166.59225 286.84897ZM172.51413 286.84897Q172.51413 285.31772 172.82663 284.39584Q173.13913 283.45834 173.7485 282.95834Q174.3735 282.45834 175.311 282.45834Q175.9985 282.45834 176.51413 282.7396Q177.04538 283.02084 177.38913 283.5521Q177.73288 284.06772 177.92038 284.81772Q178.10788 285.56772 178.10788 286.84897Q178.10788 288.3646 177.79538 289.28647Q177.4985 290.20834 176.8735 290.72397Q176.26413 291.22397 175.311 291.22397Q174.07663 291.22397 173.35788 290.33334Q172.51413 289.27084 172.51413 286.84897ZM173.59225 286.84897Q173.59225 288.95834 174.09225 289.66147Q174.59225 290.3646 175.311 290.3646Q176.04538 290.3646 176.52975 289.66147Q177.02975 288.95834 177.02975 286.84897Q177.02975 284.72397 176.52975 284.03647Q176.04538 283.33334 175.29538 283.33334Q174.57663 283.33334 174.13913 283.94272Q173.59225 284.72397 173.59225 286.84897Z" fill-rule="nonzero"/><path fill="#000000" d="M241.83804 286.84897Q241.83804 285.31772 242.15054 284.39584Q242.46304 283.45834 243.07242 282.95834Q243.69742 282.45834 244.63492 282.45834Q245.32242 282.45834 245.83804 282.7396Q246.3693 283.02084 246.71304 283.5521Q247.0568 284.06772 247.2443 284.81772Q247.4318 285.56772 247.4318 286.84897Q247.4318 288.3646 247.1193 289.28647Q246.82242 290.20834 246.19742 290.72397Q245.58804 291.22397 244.63492 291.22397Q243.40054 291.22397 242.6818 290.33334Q241.83804 289.27084 241.83804 286.84897ZM242.91617 286.84897Q242.91617 288.95834 243.41617 289.66147Q243.91617 290.3646 244.63492 290.3646Q245.3693 290.3646 245.85367 289.66147Q246.35367 288.95834 246.35367 286.84897Q246.35367 284.72397 245.85367 284.03647Q245.3693 283.33334 244.6193 283.33334Q243.90054 283.33334 243.46304 283.94272Q242.91617 284.72397 242.91617 286.84897ZM249.41617 286.06772L249.41617 284.8646L250.6193 284.8646L250.6193 286.06772L249.41617 286.06772ZM249.41617 291.08334L249.41617 289.88022L250.6193 289.88022L250.6193 291.08334L249.41617 291.08334ZM251.83804 286.84897Q251.83804 285.31772 252.15054 284.39584Q252.46304 283.45834 253.07242 282.95834Q253.69742 282.45834 254.63492 282.45834Q255.32242 282.45834 255.83804 282.7396Q256.3693 283.02084 256.71304 283.5521Q257.0568 284.06772 257.2443 284.81772Q257.4318 285.56772 257.4318 286.84897Q257.4318 288.3646 257.1193 289.28647Q256.82242 290.20834 256.19742 290.72397Q255.58804 291.22397 254.63492 291.22397Q253.40054 291.22397 252.6818 290.33334Q251.83804 289.27084 251.83804 286.84897ZM252.91617 286.84897Q252.91617 288.95834 253.41617 289.66147Q253.91617 290.3646 254.63492 290.3646Q255.3693 290.3646 255.85367 289.66147Q256.35367 288.95834 256.35367 286.84897Q256.35367 284.72397 255.85367 284.03647Q255.3693 283.33334 254.6193 283.33334Q253.90054 283.33334 253.46304 283.94272Q252.91617 284.72397 252.91617 286.84897ZM262.21304 291.08334L262.21304 289.02084L258.4943 289.02084L258.4943 288.0521L262.41617 282.4896L263.27554 282.4896L263.27554 288.0521L264.4318 288.0521L264.4318 289.02084L263.27554 289.02084L263.27554 291.08334L262.21304 291.08334ZM262.21304 288.0521L262.21304 284.19272L259.52554 288.0521L262.21304 288.0521ZM266.41617 286.06772L266.41617 284.8646L267.6193 284.8646L267.6193 286.06772L266.41617 286.06772ZM266.41617 291.08334L266.41617 289.88022L267.6193 289.88022L267.6193 291.08334L266.41617 291.08334ZM268.83804 286.84897Q268.83804 285.31772 269.15054 284.39584Q269.46304 283.45834 270.07242 282.95834Q270.69742 282.45834 271.63492 282.45834Q272.32242 282.45834 272.83804 282.7396Q273.3693 283.02084 273.71304 283.5521Q274.0568 284.06772 274.2443 284.81772Q274.4318 285.56772 274.4318 286.84897Q274.4318 288.3646 274.1193 289.28647Q273.82242 290.20834 273.19742 290.72397Q272.58804 291.22397 271.63492 291.22397Q270.40054 291.22397 269.6818 290.33334Q268.83804 289.27084 268.83804 286.84897ZM269.91617 286.84897Q269.91617 288.95834 270.41617 289.66147Q270.91617 290.3646 271.63492 290.3646Q272.3693 290.3646 272.85367 289.66147Q273.35367 288.95834 273.35367 286.84897Q273.35367 284.72397 272.85367 284.03647Q272.3693 283.33334 271.6193 283.33334Q270.90054 283.33334 270.46304 283.94272Q269.91617 284.72397 269.91617 286.84897ZM275.83804 286.84897Q275.83804 285.31772 276.15054 284.39584Q276.46304 283.45834 277.07242 282.95834Q277.69742 282.45834 278.63492 282.45834Q279.32242 282.45834 279.83804 282.7396Q280.3693 283.02084 280.71304 283.5521Q281.0568 284.06772 281.2443 284.81772Q281.4318 285.56772 281.4318 286.84897Q281.4318 288.3646 281.1193 289.28647Q280.82242 290.20834 280.19742 290.72397Q279.58804 291.22397 278.63492 291.22397Q277.40054 291.22397 276.6818 290.33334Q275.83804 289.27084 275.83804 286.84897ZM276.91617 286.84897Q276.91617 288.95834 277.41617 289.66147Q277.91617 290.3646 278.63492 290.3646Q279.3693 290.3646 279.85367 289.66147Q280.35367 288.95834 280.35367 286.84897Q280.35367 284.72397 279.85367 284.03647Q279.3693 283.33334 278.6193 283.33334Q277.90054 283.33334 277.46304 283.94272Q276.91617 284.72397 276.91617 286.84897Z" fill-rule="nonzero"/><path fill="#000000" d="M345.16196 286.84897Q345.16196 285.31772 345.47446 284.39584Q345.78696 283.45834 346.39633 282.95834Q347.02133 282.45834 347.95883 282.45834Q348.64633 282.45834 349.16196 282.7396Q349.6932 283.02084 350.03696 283.5521Q350.3807 284.06772 350.5682 284.81772Q350.7557 285.56772 350.7557 286.84897Q350.7557 288.3646 350.4432 289.28647Q350.14633 290.20834 349.52133 290.72397Q348.91196 291.22397 347.95883 291.22397Q346.72446 291.22397 346.0057 290.33334Q345.16196 289.27084 345.16196 286.84897ZM346.24008 286.84897Q346.24008 288.95834 346.74008 289.66147Q347.24008 290.3646 347.95883 290.3646Q348.6932 290.3646 349.17758 289.66147Q349.67758 288.95834 349.67758 286.84897Q349.67758 284.72397 349.17758 284.03647Q348.6932 283.33334 347.9432 283.33334Q347.22446 283.33334 346.78696 283.94272Q346.24008 284.72397 346.24008 286.84897ZM352.74008 286.06772L352.74008 284.8646L353.9432 284.8646L353.9432 286.06772L352.74008 286.06772ZM352.74008 291.08334L352.74008 289.88022L353.9432 289.88022L353.9432 291.08334L352.74008 291.08334ZM355.16196 286.84897Q355.16196 285.31772 355.47446 284.39584Q355.78696 283.45834 356.39633 282.95834Q357.02133 282.45834 357.95883 282.45834Q358.64633 282.45834 359.16196 282.7396Q359.6932 283.02084 360.03696 283.5521Q360.3807 284.06772 360.5682 284.81772Q360.7557 285.56772 360.7557 286.84897Q360.7557 288.3646 360.4432 289.28647Q360.14633 290.20834 359.52133 290.72397Q358.91196 291.22397 357.95883 291.22397Q356.72446 291.22397 356.0057 290.33334Q355.16196 289.27084 355.16196 286.84897ZM356.24008 286.84897Q356.24008 288.95834 356.74008 289.66147Q357.24008 290.3646 357.95883 290.3646Q358.6932 290.3646 359.17758 289.66147Q359.67758 288.95834 359.67758 286.84897Q359.67758 284.72397 359.17758 284.03647Q358.6932 283.33334 357.9432 283.33334Q357.22446 283.33334 356.78696 283.94272Q356.24008 284.72397 356.24008 286.84897ZM367.6307 284.59897L366.58383 284.6771Q366.4432 284.0521 366.1932 283.77084Q365.7557 283.31772 365.1307 283.31772Q364.6307 283.31772 364.24008 283.59897Q363.7557 283.97397 363.45883 284.6771Q363.17758 285.3646 363.16196 286.64584Q363.53696 286.06772 364.08383 285.78647Q364.64633 285.50522 365.2557 285.50522Q366.30258 285.50522 367.03696 286.28647Q367.78696 287.06772 367.78696 288.28647Q367.78696 289.09897 367.42758 289.8021Q367.08383 290.4896 366.47446 290.8646Q365.86508 291.22397 365.09946 291.22397Q363.77133 291.22397 362.9432 290.25522Q362.11508 289.28647 362.11508 287.06772Q362.11508 284.56772 363.03696 283.44272Q363.83383 282.45834 365.1932 282.45834Q366.20883 282.45834 366.84946 283.03647Q367.5057 283.59897 367.6307 284.59897ZM363.33383 288.3021Q363.33383 288.84897 363.55258 289.34897Q363.78696 289.83334 364.1932 290.09897Q364.61508 290.3646 365.08383 290.3646Q365.74008 290.3646 366.22446 289.83334Q366.70883 289.28647 366.70883 288.3646Q366.70883 287.47397 366.22446 286.95834Q365.7557 286.44272 365.03696 286.44272Q364.3182 286.44272 363.8182 286.95834Q363.33383 287.47397 363.33383 288.3021ZM369.74008 286.06772L369.74008 284.8646L370.9432 284.8646L370.9432 286.06772L369.74008 286.06772ZM369.74008 291.08334L369.74008 289.88022L370.9432 289.88022L370.9432 291.08334L369.74008 291.08334ZM372.16196 286.84897Q372.16196 285.31772 372.47446 284.39584Q372.78696 283.45834 373.39633 282.95834Q374.02133 282.45834 374.95883 282.45834Q375.64633 282.45834 376.16196 282.7396Q376.6932 283.02084 377.03696 283.5521Q377.3807 284.06772 377.5682 284.81772Q377.7557 285.56772 377.7557 286.84897Q377.7557 288.3646 377.4432 289.28647Q377.14633 290.20834 376.52133 290.72397Q375.91196 291.22397 374.95883 291.22397Q373.72446 291.22397 373.0057 290.33334Q372.16196 289.27084 372.16196 286.84897ZM373.24008 286.84897Q373.24008 288.95834 373.74008 289.66147Q374.24008 290.3646 374.95883 290.3646Q375.6932 290.3646 376.17758 289.66147Q376.67758 288.95834 376.67758 286.84897Q376.67758 284.72397 376.17758 284.03647Q375.6932 283.33334 374.9432 283.33334Q374.22446 283.33334 373.78696 283.94272Q373.24008 284.72397 373.24008 286.84897ZM379.16196 286.84897Q379.16196 285.31772 379.47446 284.39584Q379.78696 283.45834 380.39633 282.95834Q381.02133 282.45834 381.95883 282.45834Q382.64633 282.45834 383.16196 282.7396Q383.6932 283.02084 384.03696 283.5521Q384.3807 284.06772 384.5682 284.81772Q384.7557 285.56772 384.7557 286.84897Q384.7557 288.3646 384.4432 289.28647Q384.14633 290.20834 383.52133 290.72397Q382.91196 291.22397 381.95883 291.22397Q380.72446 291.22397 380.0057 290.33334Q379.16196 289.27084 379.16196 286.84897ZM380.24008 286.84897Q380.24008 288.95834 380.74008 289.66147Q381.24008 290.3646 381.95883 290.3646Q382.6932 290.3646 383.17758 289.66147Q383.67758 288.95834 383.67758 286.84897Q383.67758 284.72397 383.17758 284.03647Q382.6932 283.33334 381.9432 283.33334Q381.22446 283.33334 380.78696 283.94272Q380.24008 284.72397 380.24008 286.84897Z" fill-rule="nonzero"/><path fill="#000000" d="M448.48587 286.84897Q448.48587 285.31772 448.79837 284.39584Q449.11087 283.45834 449.72025 282.95834Q450.34525 282.45834 451.28275 282.45834Q451.97025 282.45834 452.48587 282.7396Q453.01712 283.02084 453.36087 283.5521Q453.70462 284.06772 453.89212 284.81772Q454.07962 285.56772 454.07962 286.84897Q454.07962 288.3646 453.76712 289.28647Q453.47025 290.20834 452.84525 290.72397Q452.23587 291.22397 451.28275 291.22397Q450.04837 291.22397 449.32962 290.33334Q448.48587 289.27084 448.48587 286.84897ZM449.564 286.84897Q449.564 288.95834 450.064 289.66147Q450.564 290.3646 451.28275 290.3646Q452.01712 290.3646 452.5015 289.66147Q453.0015 288.95834 453.0015 286.84897Q453.0015 284.72397 452.5015 284.03647Q452.01712 283.33334 451.26712 283.33334Q450.54837 283.33334 450.11087 283.94272Q449.564 284.72397 449.564 286.84897ZM456.064 286.06772L456.064 284.8646L457.26712 284.8646L457.26712 286.06772L456.064 286.06772ZM456.064 291.08334L456.064 289.88022L457.26712 289.88022L457.26712 291.08334L456.064 291.08334ZM458.48587 286.84897Q458.48587 285.31772 458.79837 284.39584Q459.11087 283.45834 459.72025 282.95834Q460.34525 282.45834 461.28275 282.45834Q461.97025 282.45834 462.48587 282.7396Q463.01712 283.02084 463.36087 283.5521Q463.70462 284.06772 463.89212 284.81772Q464.07962 285.56772 464.07962 286.84897Q464.07962 288.3646 463.76712 289.28647Q463.47025 290.20834 462.84525 290.72397Q462.23587 291.22397 461.28275 291.22397Q460.04837 291.22397 459.32962 290.33334Q458.48587 289.27084 458.48587 286.84897ZM459.564 286.84897Q459.564 288.95834 460.064 289.66147Q460.564 290.3646 461.28275 290.3646Q462.01712 290.3646 462.5015 289.66147Q463.0015 288.95834 463.0015 286.84897Q463.0015 284.72397 462.5015 284.03647Q462.01712 283.33334 461.26712 283.33334Q460.54837 283.33334 460.11087 283.94272Q459.564 284.72397 459.564 286.84897ZM467.11087 286.4271Q466.45462 286.1771 466.1265 285.7396Q465.814 285.28647 465.814 284.6771Q465.814 283.7396 466.48587 283.09897Q467.17337 282.45834 468.28275 282.45834Q469.40775 282.45834 470.09525 283.1146Q470.78275 283.77084 470.78275 284.70834Q470.78275 285.3021 470.47025 285.7396Q470.15775 286.1771 469.51712 286.4271Q470.314 286.6771 470.72025 287.25522Q471.1265 287.83334 471.1265 288.63022Q471.1265 289.72397 470.34525 290.47397Q469.57962 291.22397 468.29837 291.22397Q467.03275 291.22397 466.2515 290.47397Q465.47025 289.72397 465.47025 288.59897Q465.47025 287.75522 465.89212 287.19272Q466.32962 286.63022 467.11087 286.4271ZM466.89212 284.63022Q466.89212 285.2396 467.28275 285.63022Q467.689 286.02084 468.314 286.02084Q468.92337 286.02084 469.314 285.64584Q469.70462 285.25522 469.70462 284.69272Q469.70462 284.1146 469.29837 283.72397Q468.89212 283.31772 468.29837 283.31772Q467.689 283.31772 467.28275 283.70834Q466.89212 284.09897 466.89212 284.63022ZM466.564 288.59897Q466.564 289.0521 466.76712 289.47397Q466.98587 289.89584 467.40775 290.13022Q467.82962 290.3646 468.314 290.3646Q469.064 290.3646 469.54837 289.88022Q470.04837 289.39584 470.04837 288.64584Q470.04837 287.88022 469.54837 287.38022Q469.04837 286.88022 468.28275 286.88022Q467.53275 286.88022 467.04837 287.38022Q466.564 287.8646 466.564 288.59897ZM473.064 286.06772L473.064 284.8646L474.26712 284.8646L474.26712 286.06772L473.064 286.06772ZM473.064 291.08334L473.064 289.88022L474.26712 289.88022L474.26712 291.08334L473.064 291.08334ZM475.48587 286.84897Q475.48587 285.31772 475.79837 284.39584Q476.11087 283.45834 476.72025 282.95834Q477.34525 282.45834 478.28275 282.45834Q478.97025 282.45834 479.48587 282.7396Q480.01712 283.02084 480.36087 283.5521Q480.70462 284.06772 480.89212 284.81772Q481.07962 285.56772 481.07962 286.84897Q481.07962 288.3646 480.76712 289.28647Q480.47025 290.20834 479.84525 290.72397Q479.23587 291.22397 478.28275 291.22397Q477.04837 291.22397 476.32962 290.33334Q475.48587 289.27084 475.48587 286.84897ZM476.564 286.84897Q476.564 288.95834 477.064 289.66147Q477.564 290.3646 478.28275 290.3646Q479.01712 290.3646 479.5015 289.66147Q480.0015 288.95834 480.0015 286.84897Q480.0015 284.72397 479.5015 284.03647Q479.01712 283.33334 478.26712 283.33334Q477.54837 283.33334 477.11087 283.94272Q476.564 284.72397 476.564 286.84897ZM482.48587 286.84897Q482.48587 285.31772 482.79837 284.39584Q483.11087 283.45834 483.72025 282.95834Q484.34525 282.45834 485.28275 282.45834Q485.97025 282.45834 486.48587 282.7396Q487.01712 283.02084 487.36087 283.5521Q487.70462 284.06772 487.89212 284.81772Q488.07962 285.56772 488.07962 286.84897Q488.07962 288.3646 487.76712 289.28647Q487.47025 290.20834 486.84525 290.72397Q486.23587 291.22397 485.28275 291.22397Q484.04837 291.22397 483.32962 290.33334Q482.48587 289.27084 482.48587 286.84897ZM483.564 286.84897Q483.564 288.95834 484.064 289.66147Q484.564 290.3646 485.28275 290.3646Q486.01712 290.3646 486.5015 289.66147Q487.0015 288.95834 487.0015 286.84897Q487.0015 284.72397 486.5015 284.03647Q486.01712 283.33334 485.26712 283.33334Q484.54837 283.33334 484.11087 283.94272Q483.564 284.72397 483.564 286.84897Z" fill-rule="nonzero"/><path fill="#000000" d="M551.80975 286.84897Q551.80975 285.31772 552.12225 284.39584Q552.43475 283.45834 553.0441 282.95834Q553.6691 282.45834 554.6066 282.45834Q555.2941 282.45834 555.80975 282.7396Q556.341 283.02084 556.68475 283.5521Q557.0285 284.06772 557.216 284.81772Q557.4035 285.56772 557.4035 286.84897Q557.4035 288.3646 557.091 289.28647Q556.7941 290.20834 556.1691 290.72397Q555.55975 291.22397 554.6066 291.22397Q553.37225 291.22397 552.6535 290.33334Q551.80975 289.27084 551.80975 286.84897ZM552.8879 286.84897Q552.8879 288.95834 553.3879 289.66147Q553.8879 290.3646 554.6066 290.3646Q555.341 290.3646 555.8254 289.66147Q556.3254 288.95834 556.3254 286.84897Q556.3254 284.72397 555.8254 284.03647Q555.341 283.33334 554.591 283.33334Q553.87225 283.33334 553.43475 283.94272Q552.8879 284.72397 552.8879 286.84897ZM559.3879 286.06772L559.3879 284.8646L560.591 284.8646L560.591 286.06772L559.3879 286.06772ZM559.3879 291.08334L559.3879 289.88022L560.591 289.88022L560.591 291.08334L559.3879 291.08334ZM565.7785 291.08334L564.7316 291.08334L564.7316 284.3646Q564.341 284.72397 563.716 285.09897Q563.1066 285.45834 562.62225 285.63022L562.62225 284.6146Q563.49725 284.19272 564.1535 283.6146Q564.8254 283.02084 565.1066 282.45834L565.7785 282.45834L565.7785 291.08334ZM568.80975 286.84897Q568.80975 285.31772 569.12225 284.39584Q569.43475 283.45834 570.0441 282.95834Q570.6691 282.45834 571.6066 282.45834Q572.2941 282.45834 572.80975 282.7396Q573.341 283.02084 573.68475 283.5521Q574.0285 284.06772 574.216 284.81772Q574.4035 285.56772 574.4035 286.84897Q574.4035 288.3646 574.091 289.28647Q573.7941 290.20834 573.1691 290.72397Q572.55975 291.22397 571.6066 291.22397Q570.37225 291.22397 569.6535 290.33334Q568.80975 289.27084 568.80975 286.84897ZM569.8879 286.84897Q569.8879 288.95834 570.3879 289.66147Q570.8879 290.3646 571.6066 290.3646Q572.341 290.3646 572.8254 289.66147Q573.3254 288.95834 573.3254 286.84897Q573.3254 284.72397 572.8254 284.03647Q572.341 283.33334 571.591 283.33334Q570.87225 283.33334 570.43475 283.94272Q569.8879 284.72397 569.8879 286.84897ZM576.3879 286.06772L576.3879 284.8646L577.591 284.8646L577.591 286.06772L576.3879 286.06772ZM576.3879 291.08334L576.3879 289.88022L577.591 289.88022L577.591 291.08334L576.3879 291.08334ZM578.80975 286.84897Q578.80975 285.31772 579.12225 284.39584Q579.43475 283.45834 580.0441 282.95834Q580.6691 282.45834 581.6066 282.45834Q582.2941 282.45834 582.80975 282.7396Q583.341 283.02084 583.68475 283.5521Q584.0285 284.06772 584.216 284.81772Q584.4035 285.56772 584.4035 286.84897Q584.4035 288.3646 584.091 289.28647Q583.7941 290.20834 583.1691 290.72397Q582.55975 291.22397 581.6066 291.22397Q580.37225 291.22397 579.6535 290.33334Q578.80975 289.27084 578.80975 286.84897ZM579.8879 286.84897Q579.8879 288.95834 580.3879 289.66147Q580.8879 290.3646 581.6066 290.3646Q582.341 290.3646 582.8254 289.66147Q583.3254 288.95834 583.3254 286.84897Q583.3254 284.72397 582.8254 284.03647Q582.341 283.33334 581.591 283.33334Q580.87225 283.33334 580.43475 283.94272Q579.8879 284.72397 579.8879 286.84897ZM585.80975 286.84897Q585.80975 285.31772 586.12225 284.39584Q586.43475 283.45834 587.0441 282.95834Q587.6691 282.45834 588.6066 282.45834Q589.2941 282.45834 589.80975 282.7396Q590.341 283.02084 590.68475 283.5521Q591.0285 284.06772 591.216 284.81772Q591.4035 285.56772 591.4035 286.84897Q591.4035 288.3646 591.091 289.28647Q590.7941 290.20834 590.1691 290.72397Q589.55975 291.22397 588.6066 291.22397Q587.37225 291.22397 586.6535 290.33334Q585.80975 289.27084 585.80975 286.84897ZM586.8879 286.84897Q586.8879 288.95834 587.3879 289.66147Q587.8879 290.3646 588.6066 290.3646Q589.341 290.3646 589.8254 289.66147Q590.3254 288.95834 590.3254 286.84897Q590.3254 284.72397 589.8254 284.03647Q589.341 283.33334 588.591 283.33334Q587.87225 283.33334 587.43475 283.94272Q586.8879 284.72397 586.8879 286.84897Z" fill-rule="nonzero"/><path fill="#783f04" d="M203.5 345.45C203.5 348.7637 200.8137 351.45 197.5 351.45C194.1863 351.45 191.5 348.7637 191.5 345.45C191.5 342.1363 194.1863 339.45 197.5 339.45C200.8137 339.45 203.5 342.1363 203.5 345.45Z" fill-rule="nonzero"/><path fill="#1a1a1a" d="M212.42188 349.45L212.42188 340.85626L215.67188 340.85626Q216.51562 340.85626 216.96875 340.9344Q217.60938 341.04376 218.03125 341.34064Q218.46875 341.6375 218.71875 342.16876Q218.98438 342.7 218.98438 343.34064Q218.98438 344.4344 218.28125 345.2Q217.59375 345.95 215.76562 345.95L213.5625 345.95L213.5625 349.45L212.42188 349.45ZM213.5625 344.95L215.78125 344.95Q216.89062 344.95 217.34375 344.54376Q217.8125 344.1219 217.8125 343.3719Q217.8125 342.84064 217.53125 342.46564Q217.26562 342.075 216.82812 341.95Q216.53125 341.8719 215.76562 341.8719L213.5625 341.8719L213.5625 344.95ZM220.28125 349.45L220.28125 343.23126L221.23438 343.23126L221.23438 344.16876Q221.59375 343.5125 221.89062 343.3094Q222.20312 343.09064 222.57812 343.09064Q223.10938 343.09064 223.65625 343.41876L223.29688 344.40314Q222.90625 344.16876 222.53125 344.16876Q222.17188 344.16876 221.89062 344.3875Q221.625 344.59064 221.51562 344.96564Q221.32812 345.52814 221.32812 346.1844L221.32812 349.45L220.28125 349.45ZM223.90625 346.34064Q223.90625 344.60626 224.85938 343.77814Q225.65625 343.09064 226.8125 343.09064Q228.09375 343.09064 228.90625 343.9344Q229.73438 344.7625 229.73438 346.2469Q229.73438 347.45 229.375 348.1375Q229.01562 348.825 228.3125 349.21564Q227.625 349.59064 226.8125 349.59064Q225.51562 349.59064 224.70312 348.7625Q223.90625 347.91876 223.90625 346.34064ZM224.98438 346.34064Q224.98438 347.52814 225.5 348.1219Q226.03125 348.71564 226.8125 348.71564Q227.60938 348.71564 228.125 348.1219Q228.64062 347.52814 228.64062 346.3094Q228.64062 345.15314 228.10938 344.5594Q227.59375 343.96564 226.8125 343.96564Q226.03125 343.96564 225.5 344.5594Q224.98438 345.1375 224.98438 346.34064ZM235.32812 349.45L235.32812 348.66876Q234.73438 349.59064 233.59375 349.59064Q232.84375 349.59064 232.21875 349.1844Q231.59375 348.7625 231.25 348.02814Q230.90625 347.29376 230.90625 346.34064Q230.90625 345.41876 231.21875 344.65314Q231.53125 343.8875 232.15625 343.4969Q232.78125 343.09064 233.54688 343.09064Q234.10938 343.09064 234.54688 343.325Q234.98438 343.5594 235.26562 343.9344L235.26562 340.85626L236.3125 340.85626L236.3125 349.45L235.32812 349.45ZM232.0 346.34064Q232.0 347.54376 232.5 348.1375Q233.0 348.71564 233.6875 348.71564Q234.375 348.71564 234.85938 348.15314Q235.34375 347.59064 235.34375 346.4344Q235.34375 345.15314 234.84375 344.5594Q234.35938 343.96564 233.64062 343.96564Q232.9375 343.96564 232.46875 344.54376Q232.0 345.10626 232.0 346.34064ZM242.375 349.45L242.375 348.52814Q241.64062 349.59064 240.39062 349.59064Q239.84375 349.59064 239.35938 349.3875Q238.89062 349.16876 238.65625 348.85626Q238.42188 348.52814 238.32812 348.0594Q238.26562 347.7625 238.26562 347.075L238.26562 343.23126L239.32812 343.23126L239.32812 346.6844Q239.32812 347.4969 239.39062 347.79376Q239.48438 348.2 239.79688 348.45Q240.125 348.6844 240.60938 348.6844Q241.07812 348.6844 241.48438 348.45Q241.90625 348.2 242.07812 347.77814Q242.26562 347.35626 242.26562 346.5594L242.26562 343.23126L243.3125 343.23126L243.3125 349.45L242.375 349.45ZM249.35938 347.16876L250.39062 347.3094Q250.21875 348.3719 249.51562 348.98126Q248.8125 349.59064 247.79688 349.59064Q246.51562 349.59064 245.73438 348.7625Q244.96875 347.91876 244.96875 346.35626Q244.96875 345.35626 245.29688 344.60626Q245.64062 343.84064 246.3125 343.46564Q247.0 343.09064 247.8125 343.09064Q248.8125 343.09064 249.45312 343.60626Q250.10938 344.10626 250.29688 345.0594L249.26562 345.21564Q249.125 344.59064 248.75 344.27814Q248.375 343.95 247.84375 343.95Q247.04688 343.95 246.54688 344.52814Q246.04688 345.09064 246.04688 346.325Q246.04688 347.59064 246.53125 348.15314Q247.01562 348.71564 247.78125 348.71564Q248.40625 348.71564 248.8125 348.34064Q249.23438 347.96564 249.35938 347.16876ZM255.54688 347.45L256.64062 347.575Q256.39062 348.52814 255.6875 349.0594Q254.98438 349.59064 253.90625 349.59064Q252.54688 349.59064 251.73438 348.7469Q250.9375 347.90314 250.9375 346.3875Q250.9375 344.825 251.75 343.96564Q252.5625 343.09064 253.84375 343.09064Q255.09375 343.09064 255.875 343.9344Q256.67188 344.77814 256.67188 346.325Q256.67188 346.41876 256.67188 346.60626L252.03125 346.60626Q252.09375 347.6375 252.60938 348.1844Q253.125 348.71564 253.90625 348.71564Q254.48438 348.71564 254.89062 348.41876Q255.3125 348.10626 255.54688 347.45ZM252.09375 345.7469L255.5625 345.7469Q255.5 344.95 255.17188 344.5594Q254.65625 343.95 253.85938 343.95Q253.125 343.95 252.625 344.4344Q252.14062 344.91876 252.09375 345.7469ZM258.28125 349.45L258.28125 343.23126L259.23438 343.23126L259.23438 344.16876Q259.59375 343.5125 259.89062 343.3094Q260.20312 343.09064 260.57812 343.09064Q261.10938 343.09064 261.65625 343.41876L261.29688 344.40314Q260.90625 344.16876 260.53125 344.16876Q260.17188 344.16876 259.89062 344.3875Q259.625 344.59064 259.51562 344.96564Q259.32812 345.52814 259.32812 346.1844L259.32812 349.45L258.28125 349.45ZM267.60938 349.45L267.60938 341.8719L264.78125 341.8719L264.78125 340.85626L271.59375 340.85626L271.59375 341.8719L268.75 341.8719L268.75 349.45L267.60938 349.45ZM272.42188 349.45L272.42188 340.85626L275.67188 340.85626Q276.51562 340.85626 276.96875 340.9344Q277.60938 341.04376 278.03125 341.34064Q278.46875 341.6375 278.71875 342.16876Q278.98438 342.7 278.98438 343.34064Q278.98438 344.4344 278.28125 345.2Q277.59375 345.95 275.76562 345.95L273.5625 345.95L273.5625 349.45L272.42188 349.45ZM273.5625 344.95L275.78125 344.95Q276.89062 344.95 277.34375 344.54376Q277.8125 344.1219 277.8125 343.3719Q277.8125 342.84064 277.53125 342.46564Q277.26562 342.075 276.82812 341.95Q276.53125 341.8719 275.76562 341.8719L273.5625 341.8719L273.5625 344.95ZM280.04688 346.6844L281.10938 346.59064Q281.1875 347.2469 281.46875 347.65314Q281.75 348.0594 282.32812 348.325Q282.92188 348.575 283.65625 348.575Q284.29688 348.575 284.79688 348.3875Q285.29688 348.1844 285.53125 347.85626Q285.78125 347.5125 285.78125 347.1219Q285.78125 346.71564 285.54688 346.41876Q285.3125 346.10626 284.78125 345.90314Q284.42188 345.7625 283.23438 345.48126Q282.0625 345.2 281.59375 344.95Q280.96875 344.6219 280.67188 344.15314Q280.375 343.66876 280.375 343.075Q280.375 342.4344 280.73438 341.8719Q281.10938 341.29376 281.8125 341.0125Q282.53125 340.71564 283.39062 340.71564Q284.34375 340.71564 285.07812 341.02814Q285.8125 341.325 286.20312 341.9344Q286.59375 342.52814 286.625 343.27814L285.53125 343.35626Q285.4375 342.54376 284.92188 342.1375Q284.42188 341.71564 283.4375 341.71564Q282.40625 341.71564 281.9375 342.09064Q281.46875 342.46564 281.46875 342.9969Q281.46875 343.46564 281.79688 343.7625Q282.125 344.0594 283.5 344.3719Q284.89062 344.6844 285.40625 344.91876Q286.15625 345.27814 286.51562 345.8094Q286.875 346.325 286.875 347.02814Q286.875 347.71564 286.48438 348.325Q286.09375 348.91876 285.35938 349.2625Q284.625 349.59064 283.70312 349.59064Q282.53125 349.59064 281.73438 349.2625Q280.95312 348.91876 280.5 348.23126Q280.0625 347.54376 280.04688 346.6844Z" fill-rule="nonzero"/><path fill="#38761d" d="M309.5 339.45L310.84708 343.5959L315.20633 343.5959L311.67963 346.1582L313.0267 350.3041L309.5 347.7418L305.9733 350.3041L307.32037 346.1582L303.79367 343.5959L308.15292 343.5959Z" fill-rule="nonzero"/><path fill="#1a1a1a" d="M330.5625 346.4344L331.6875 346.73126Q331.32812 348.1219 330.40625 348.85626Q329.48438 349.59064 328.14062 349.59064Q326.75 349.59064 325.875 349.02814Q325.0 348.46564 324.54688 347.40314Q324.09375 346.325 324.09375 345.09064Q324.09375 343.7469 324.60938 342.7469Q325.125 341.7469 326.0625 341.23126Q327.01562 340.71564 328.15625 340.71564Q329.4375 340.71564 330.3125 341.3719Q331.20312 342.02814 331.54688 343.21564L330.42188 343.48126Q330.125 342.54376 329.54688 342.1219Q328.98438 341.6844 328.125 341.6844Q327.14062 341.6844 326.46875 342.16876Q325.8125 342.6375 325.53125 343.4344Q325.26562 344.23126 325.26562 345.09064Q325.26562 346.1844 325.57812 346.9969Q325.90625 347.8094 326.57812 348.21564Q327.25 348.6219 328.04688 348.6219Q329.0 348.6219 329.65625 348.075Q330.32812 347.52814 330.5625 346.4344ZM332.90625 346.34064Q332.90625 344.60626 333.85938 343.77814Q334.65625 343.09064 335.8125 343.09064Q337.09375 343.09064 337.90625 343.9344Q338.73438 344.7625 338.73438 346.2469Q338.73438 347.45 338.375 348.1375Q338.01562 348.825 337.3125 349.21564Q336.625 349.59064 335.8125 349.59064Q334.51562 349.59064 333.70312 348.7625Q332.90625 347.91876 332.90625 346.34064ZM333.98438 346.34064Q333.98438 347.52814 334.5 348.1219Q335.03125 348.71564 335.8125 348.71564Q336.60938 348.71564 337.125 348.1219Q337.64062 347.52814 337.64062 346.3094Q337.64062 345.15314 337.10938 344.5594Q336.59375 343.96564 335.8125 343.96564Q335.03125 343.96564 334.5 344.5594Q333.98438 345.1375 333.98438 346.34064ZM340.29688 349.45L340.29688 343.23126L341.23438 343.23126L341.23438 344.10626Q341.92188 343.09064 343.21875 343.09064Q343.78125 343.09064 344.25 343.29376Q344.73438 343.4969 344.96875 343.825Q345.20312 344.15314 345.29688 344.59064Q345.34375 344.8875 345.34375 345.6219L345.34375 349.45L344.29688 349.45L344.29688 345.66876Q344.29688 345.0125 344.17188 344.7Q344.04688 344.3875 343.73438 344.2Q343.42188 343.9969 343.0 343.9969Q342.32812 343.9969 341.82812 344.4344Q341.34375 344.85626 341.34375 346.04376L341.34375 349.45L340.29688 349.45ZM346.875 347.59064L347.90625 347.4344Q348.0 348.0594 348.39062 348.3875Q348.79688 348.71564 349.53125 348.71564Q350.25 348.71564 350.59375 348.4344Q350.95312 348.1375 350.95312 347.73126Q350.95312 347.3719 350.64062 347.16876Q350.42188 347.02814 349.5625 346.8094Q348.40625 346.5125 347.95312 346.3094Q347.51562 346.09064 347.28125 345.71564Q347.04688 345.34064 347.04688 344.8719Q347.04688 344.46564 347.23438 344.10626Q347.42188 343.7469 347.75 343.5125Q348.0 343.34064 348.42188 343.21564Q348.84375 343.09064 349.34375 343.09064Q350.0625 343.09064 350.60938 343.3094Q351.17188 343.5125 351.4375 343.8719Q351.70312 344.23126 351.79688 344.825L350.76562 344.96564Q350.70312 344.4969 350.35938 344.23126Q350.03125 343.95 349.40625 343.95Q348.6875 343.95 348.375 344.2Q348.0625 344.4344 348.0625 344.7625Q348.0625 344.96564 348.1875 345.1219Q348.32812 345.29376 348.59375 345.40314Q348.75 345.46564 349.53125 345.66876Q350.65625 345.98126 351.09375 346.16876Q351.53125 346.35626 351.78125 346.71564Q352.03125 347.075 352.03125 347.6219Q352.03125 348.15314 351.71875 348.6219Q351.42188 349.075 350.84375 349.34064Q350.26562 349.59064 349.53125 349.59064Q348.3125 349.59064 347.67188 349.09064Q347.04688 348.575 346.875 347.59064ZM358.375 349.45L358.375 348.52814Q357.64062 349.59064 356.39062 349.59064Q355.84375 349.59064 355.35938 349.3875Q354.89062 349.16876 354.65625 348.85626Q354.42188 348.52814 354.32812 348.0594Q354.26562 347.7625 354.26562 347.075L354.26562 343.23126L355.32812 343.23126L355.32812 346.6844Q355.32812 347.4969 355.39062 347.79376Q355.48438 348.2 355.79688 348.45Q356.125 348.6844 356.60938 348.6844Q357.07812 348.6844 357.48438 348.45Q357.90625 348.2 358.07812 347.77814Q358.26562 347.35626 358.26562 346.5594L358.26562 343.23126L359.3125 343.23126L359.3125 349.45L358.375 349.45ZM361.29688 349.45L361.29688 343.23126L362.23438 343.23126L362.23438 344.10626Q362.53125 343.6375 363.01562 343.3719Q363.5 343.09064 364.125 343.09064Q364.8125 343.09064 365.25 343.3719Q365.70312 343.65314 365.875 344.16876Q366.625 343.09064 367.79688 343.09064Q368.73438 343.09064 369.21875 343.60626Q369.71875 344.10626 369.71875 345.1844L369.71875 349.45L368.67188 349.45L368.67188 345.52814Q368.67188 344.90314 368.5625 344.6219Q368.46875 344.34064 368.20312 344.16876Q367.9375 343.9969 367.5625 343.9969Q366.90625 343.9969 366.46875 344.4344Q366.04688 344.8719 366.04688 345.84064L366.04688 349.45L364.98438 349.45L364.98438 345.40314Q364.98438 344.7 364.71875 344.35626Q364.46875 343.9969 363.89062 343.9969Q363.4375 343.9969 363.0625 344.23126Q362.6875 344.46564 362.51562 344.91876Q362.34375 345.3719 362.34375 346.21564L362.34375 349.45L361.29688 349.45ZM376.54688 347.45L377.64062 347.575Q377.39062 348.52814 376.6875 349.0594Q375.98438 349.59064 374.90625 349.59064Q373.54688 349.59064 372.73438 348.7469Q371.9375 347.90314 371.9375 346.3875Q371.9375 344.825 372.75 343.96564Q373.5625 343.09064 374.84375 343.09064Q376.09375 343.09064 376.875 343.9344Q377.67188 344.77814 377.67188 346.325Q377.67188 346.41876 377.67188 346.60626L373.03125 346.60626Q373.09375 347.6375 373.60938 348.1844Q374.125 348.71564 374.90625 348.71564Q375.48438 348.71564 375.89062 348.41876Q376.3125 348.10626 376.54688 347.45ZM373.09375 345.7469L376.5625 345.7469Q376.5 344.95 376.17188 344.5594Q375.65625 343.95 374.85938 343.95Q374.125 343.95 373.625 344.4344Q373.14062 344.91876 373.09375 345.7469ZM379.28125 349.45L379.28125 343.23126L380.23438 343.23126L380.23438 344.16876Q380.59375 343.5125 380.89062 343.3094Q381.20312 343.09064 381.57812 343.09064Q382.10938 343.09064 382.65625 343.41876L382.29688 344.40314Q381.90625 344.16876 381.53125 344.16876Q381.17188 344.16876 380.89062 344.3875Q380.625 344.59064 380.51562 344.96564Q380.32812 345.52814 380.32812 346.1844L380.32812 349.45L379.28125 349.45ZM388.60938 349.45L388.60938 341.8719L385.78125 341.8719L385.78125 340.85626L392.59375 340.85626L392.59375 341.8719L389.75 341.8719L389.75 349.45L388.60938 349.45ZM393.42188 349.45L393.42188 340.85626L396.67188 340.85626Q397.51562 340.85626 397.96875 340.9344Q398.60938 341.04376 399.03125 341.34064Q399.46875 341.6375 399.71875 342.16876Q399.98438 342.7 399.98438 343.34064Q399.98438 344.4344 399.28125 345.2Q398.59375 345.95 396.76562 345.95L394.5625 345.95L394.5625 349.45L393.42188 349.45ZM394.5625 344.95L396.78125 344.95Q397.89062 344.95 398.34375 344.54376Q398.8125 344.1219 398.8125 343.3719Q398.8125 342.84064 398.53125 342.46564Q398.26562 342.075 397.82812 341.95Q397.53125 341.8719 396.76562 341.8719L394.5625 341.8719L394.5625 344.95ZM401.04688 346.6844L402.10938 346.59064Q402.1875 347.2469 402.46875 347.65314Q402.75 348.0594 403.32812 348.325Q403.92188 348.575 404.65625 348.575Q405.29688 348.575 405.79688 348.3875Q406.29688 348.1844 406.53125 347.85626Q406.78125 347.5125 406.78125 347.1219Q406.78125 346.71564 406.54688 346.41876Q406.3125 346.10626 405.78125 345.90314Q405.42188 345.7625 404.23438 345.48126Q403.0625 345.2 402.59375 344.95Q401.96875 344.6219 401.67188 344.15314Q401.375 343.66876 401.375 343.075Q401.375 342.4344 401.73438 341.8719Q402.10938 341.29376 402.8125 341.0125Q403.53125 340.71564 404.39062 340.71564Q405.34375 340.71564 406.07812 341.02814Q406.8125 341.325 407.20312 341.9344Q407.59375 342.52814 407.625 343.27814L406.53125 343.35626Q406.4375 342.54376 405.92188 342.1375Q405.42188 341.71564 404.4375 341.71564Q403.40625 341.71564 402.9375 342.09064Q402.46875 342.46564 402.46875 342.9969Q402.46875 343.46564 402.79688 343.7625Q403.125 344.0594 404.5 344.3719Q405.89062 344.6844 406.40625 344.91876Q407.15625 345.27814 407.51562 345.8094Q407.875 346.325 407.875 347.02814Q407.875 347.71564 407.48438 348.325Q407.09375 348.91876 406.35938 349.2625Q405.625 349.59064 404.70312 349.59064Q403.53125 349.59064 402.73438 349.2625Q401.95312 348.91876 401.5 348.23126Q401.0625 347.54376 401.04688 346.6844Z" fill-rule="nonzero"/><path fill="#757575" d="M19.45625 32.95625L21.2375 32.8Q21.3625 33.8625 21.815624 34.55Q22.284374 35.2375 23.253124 35.675Q24.2375 36.096874 25.471874 36.096874Q26.55 36.096874 27.378124 35.784374Q28.20625 35.45625 28.6125 34.89375Q29.01875 34.33125 29.01875 33.659374Q29.01875 32.9875 28.628124 32.4875Q28.2375 31.9875 27.346874 31.64375Q26.76875 31.409374 24.784374 30.940624Q22.815624 30.471874 22.034374 30.05Q21.003124 29.51875 20.503124 28.721874Q20.003124 27.925 20.003124 26.940624Q20.003124 25.846874 20.6125 24.909374Q21.221874 23.971874 22.409374 23.4875Q23.596874 22.9875 25.034374 22.9875Q26.628124 22.9875 27.846874 23.503124Q29.065624 24.01875 29.70625 25.01875Q30.3625 26.003124 30.409374 27.26875L28.596874 27.409374Q28.45625 26.05 27.6125 25.3625Q26.76875 24.659374 25.1125 24.659374Q23.39375 24.659374 22.596874 25.3Q21.815624 25.925 21.815624 26.8Q21.815624 27.58125 22.378124 28.08125Q22.925 28.58125 25.2375 29.096874Q27.55 29.6125 28.409374 30.003124Q29.659374 30.58125 30.253124 31.471874Q30.846874 32.346874 30.846874 33.503124Q30.846874 34.64375 30.190624 35.659374Q29.534374 36.675 28.3 37.2375Q27.08125 37.8 25.55 37.8Q23.6125 37.8 22.3 37.2375Q20.9875 36.659374 20.2375 35.51875Q19.4875 34.378124 19.45625 32.95625ZM39.64375 33.753124L41.3625 33.971874Q41.08125 35.76875 39.909374 36.784374Q38.753124 37.784374 37.05 37.784374Q34.925 37.784374 33.628124 36.39375Q32.33125 35.003124 32.33125 32.409374Q32.33125 30.721874 32.878124 29.471874Q33.440624 28.20625 34.58125 27.58125Q35.721874 26.940624 37.065624 26.940624Q38.753124 26.940624 39.815624 27.8Q40.89375 28.659374 41.20625 30.221874L39.4875 30.4875Q39.253124 29.440624 38.628124 28.925Q38.003124 28.39375 37.128124 28.39375Q35.8 28.39375 34.971874 29.346874Q34.14375 30.3 34.14375 32.346874Q34.14375 34.440624 34.940624 35.39375Q35.7375 36.33125 37.034374 36.33125Q38.065624 36.33125 38.753124 35.70625Q39.45625 35.065624 39.64375 33.753124ZM49.971874 34.20625L51.784374 34.440624Q51.3625 36.01875 50.190624 36.909374Q49.034374 37.784374 47.221874 37.784374Q44.95625 37.784374 43.6125 36.39375Q42.284374 34.9875 42.284374 32.45625Q42.284374 29.83125 43.628124 28.39375Q44.971874 26.940624 47.128124 26.940624Q49.20625 26.940624 50.51875 28.3625Q51.846874 29.76875 51.846874 32.346874Q51.846874 32.503124 51.83125 32.815624L44.096874 32.815624Q44.190624 34.51875 45.065624 35.425Q45.940624 36.33125 47.2375 36.33125Q48.20625 36.33125 48.878124 35.83125Q49.565624 35.315624 49.971874 34.20625ZM44.190624 31.3625L49.9875 31.3625Q49.878124 30.065624 49.33125 29.409374Q48.4875 28.39375 47.14375 28.39375Q45.940624 28.39375 45.1125 29.20625Q44.284374 30.003124 44.190624 31.3625ZM53.8625 37.55L53.8625 27.175L55.45625 27.175L55.45625 28.659374Q56.596874 26.940624 58.753124 26.940624Q59.690624 26.940624 60.471874 27.284374Q61.26875 27.6125 61.659374 28.159374Q62.05 28.70625 62.20625 29.45625Q62.3 29.95625 62.3 31.175L62.3 37.55L60.534374 37.55L60.534374 31.2375Q60.534374 30.159374 60.33125 29.628124Q60.128124 29.096874 59.596874 28.784374Q59.08125 28.471874 58.378124 28.471874Q57.253124 28.471874 56.440624 29.190624Q55.628124 29.89375 55.628124 31.878124L55.628124 37.55L53.8625 37.55ZM70.64375 36.26875Q69.65938 37.096874 68.75313 37.440624Q67.84688 37.784374 66.81563 37.784374Q65.1125 37.784374 64.19063 36.95625Q63.26875 36.1125 63.26875 34.815624Q63.26875 34.05 63.6125 33.425Q63.971874 32.8 64.53438 32.425Q65.09688 32.034374 65.8 31.83125Q66.31563 31.70625 67.3625 31.565624Q69.4875 31.315624 70.4875 30.971874Q70.50313 30.6125 70.50313 30.503124Q70.50313 29.440624 70.00313 28.9875Q69.33125 28.39375 68.00313 28.39375Q66.75313 28.39375 66.15938 28.83125Q65.58125 29.26875 65.3 30.378124L63.58125 30.14375Q63.815624 29.034374 64.34688 28.3625Q64.87813 27.675 65.89375 27.315624Q66.90938 26.940624 68.25313 26.940624Q69.58125 26.940624 70.40938 27.253124Q71.2375 27.565624 71.62813 28.05Q72.01875 28.51875 72.175 29.2375Q72.26875 29.690624 72.26875 30.8625L72.26875 33.20625Q72.26875 35.659374 72.37813 36.315624Q72.4875 36.95625 72.83125 37.55L70.9875 37.55Q70.72188 37.003124 70.64375 36.26875ZM70.4875 32.346874Q69.53438 32.7375 67.6125 33.003124Q66.53438 33.159374 66.08125 33.3625Q65.64375 33.55 65.39375 33.925Q65.14375 34.3 65.14375 34.76875Q65.14375 35.471874 65.675 35.940624Q66.20625 36.409374 67.2375 36.409374Q68.25313 36.409374 69.03438 35.971874Q69.83125 35.51875 70.20625 34.753124Q70.4875 34.14375 70.4875 32.9875L70.4875 32.346874ZM74.84688 37.55L74.84688 27.175L76.425 27.175L76.425 28.753124Q77.03438 27.64375 77.55 27.3Q78.06563 26.940624 78.675 26.940624Q79.56563 26.940624 80.4875 27.503124L79.87813 29.14375Q79.2375 28.753124 78.59688 28.753124Q78.01875 28.753124 77.55 29.1125Q77.09688 29.45625 76.89375 30.065624Q76.6125 31.003124 76.6125 32.1125L76.6125 37.55L74.84688 37.55ZM81.87813 25.253124L81.87813 23.2375L83.64375 23.2375L83.64375 25.253124L81.87813 25.253124ZM81.87813 37.55L81.87813 27.175L83.64375 27.175L83.64375 37.55L81.87813 37.55ZM85.22188 32.3625Q85.22188 29.4875 86.81563 28.096874Q88.15938 26.940624 90.08125 26.940624Q92.22188 26.940624 93.56563 28.346874Q94.925 29.753124 94.925 32.221874Q94.925 34.221874 94.33125 35.378124Q93.7375 36.51875 92.58125 37.159374Q91.44063 37.784374 90.08125 37.784374Q87.89375 37.784374 86.55 36.39375Q85.22188 34.9875 85.22188 32.3625ZM87.01875 32.3625Q87.01875 34.3625 87.87813 35.346874Q88.75313 36.33125 90.08125 36.33125Q91.39375 36.33125 92.25313 35.346874Q93.12813 34.346874 93.12813 32.3Q93.12813 30.378124 92.25313 29.39375Q91.37813 28.39375 90.08125 28.39375Q88.75313 28.39375 87.87813 29.39375Q87.01875 30.378124 87.01875 32.3625Z" fill-rule="nonzero"/></svg>