<?xml version="1.0" encoding="UTF-8" standalone="no"?>
<svg
   xmlns:dc="http://purl.org/dc/elements/1.1/"
   xmlns:cc="http://creativecommons.org/ns#"
   xmlns:rdf="http://www.w3.org/1999/02/22-rdf-syntax-ns#"
   xmlns:svg="http://www.w3.org/2000/svg"
   xmlns="http://www.w3.org/2000/svg"
   xmlns:sodipodi="http://sodipodi.sourceforge.net/DTD/sodipodi-0.dtd"
   xmlns:inkscape="http://www.inkscape.org/namespaces/inkscape"
   version="1.1"
   viewBox="0 0 316.83728 259.1496"
   fill="none"
   stroke="none"
   stroke-linecap="square"
   stroke-miterlimit="10"
   id="svg43"
   sodipodi:docname="SB with Infinispan Embedded.svg"
   inkscape:version="1.0.1 (3bc2e813f5, 2020-09-07)"
   width="316.83728"
   height="259.1496">
  <metadata
     id="metadata49">
    <rdf:RDF>
      <cc:Work
         rdf:about="">
        <dc:format>image/svg+xml</dc:format>
        <dc:type
           rdf:resource="http://purl.org/dc/dcmitype/StillImage" />
        <dc:title></dc:title>
      </cc:Work>
    </rdf:RDF>
  </metadata>
  <defs
     id="defs47" />
  <sodipodi:namedview
     pagecolor="#ffffff"
     bordercolor="#666666"
     borderopacity="1"
     objecttolerance="10"
     gridtolerance="10"
     guidetolerance="10"
     inkscape:pageopacity="0"
     inkscape:pageshadow="2"
     inkscape:window-width="1920"
     inkscape:window-height="983"
     id="namedview45"
     showgrid="false"
     inkscape:zoom="1.1055556"
     inkscape:cx="25.9218"
     inkscape:cy="172.44882"
     inkscape:window-x="0"
     inkscape:window-y="27"
     inkscape:window-maximized="1"
     inkscape:current-layer="svg43"
     inkscape:document-rotation="0"
     fit-margin-top="0"
     fit-margin-left="0"
     fit-margin-right="0"
     fit-margin-bottom="0" />
  <clipPath
     id="p.0">
    <path
       d="M 0,0 H 960 V 720 H 0 Z"
       clip-rule="nonzero"
       id="path2" />
  </clipPath>
  <path
     fill="#000000"
     fill-opacity="0"
     d="m -442.77167,-187.55118 h 960 v 720 h -960 z"
     fill-rule="evenodd"
     id="path5" />
  <path
     fill="#cfe2f3"
     d="M 0,259.1496 V 0 h 74.45667 v 259.1496 z"
     fill-rule="evenodd"
     id="path7" />
  <path
     fill="#000000"
     d="M 37.52833,159.1271 H 36.8252 q 0.39063,0.42187 0.60938,0.98437 0.20312,0.54688 0.20312,1.17188 0,0.70312 -0.26562,1.32812 -0.26563,0.60938 -0.71875,1.0625 -0.46875,0.45313 -1.10938,0.71875 -0.64062,0.25 -1.35937,0.25 -0.71875,0 -1.34375,-0.25 -0.64063,-0.26562 -1.09375,-0.71875 -0.46875,-0.45312 -0.73438,-1.07812 -0.26562,-0.625 -0.26562,-1.32813 0,-0.57812 0.20312,-1.125 0.1875,-0.54687 0.54688,-1 H 28.2002 l -0.23437,-1 h 9.5625 z m -3.35938,4.54687 q 0.54688,0 1.03125,-0.1875 0.46875,-0.20312 0.82813,-0.53125 0.34375,-0.34375 0.54687,-0.79687 0.1875,-0.45313 0.1875,-0.96875 0,-0.625 -0.23437,-1.15625 -0.25,-0.54688 -0.6875,-0.89063 h -3.3125 q -0.42188,0.34375 -0.67188,0.89063 -0.25,0.54687 -0.25,1.15625 0,1.03125 0.73438,1.76562 0.73437,0.71875 1.82812,0.71875 z m 2.65625,-12.8323 q 0.40625,0.5625 0.625,1.17187 0.20313,0.60938 0.20313,1.32813 0,0.71875 -0.26563,1.35937 -0.26562,0.625 -0.73437,1.09375 -0.46875,0.45313 -1.09375,0.71875 -0.64063,0.26563 -1.375,0.26563 -0.71875,0 -1.34375,-0.25 -0.625,-0.26563 -1.09375,-0.70313 -0.46875,-0.45312 -0.73438,-1.04687 -0.26562,-0.60938 -0.26562,-1.29688 0,-0.65625 0.26562,-1.23437 0.26563,-0.59375 0.73438,-1 0.46875,-0.42188 1.09375,-0.67188 0.625,-0.25 1.34375,-0.25 h 0.3125 v 5.48438 q 0.98437,-0.10938 1.64062,-0.8125 0.64063,-0.71875 0.64063,-1.70313 0,-0.51562 -0.15625,-1 -0.15625,-0.5 -0.45313,-0.82812 z m -5.21875,2.67187 q 0,0.85938 0.59375,1.5 0.57813,0.625 1.5,0.76563 v -4.46875 q -0.875,0.14062 -1.48437,0.76562 -0.60938,0.60938 -0.60938,1.4375 z m 8.65625,-4.5639 h -9.40625 v -0.96875 h 0.71875 q -0.42187,-0.42188 -0.625,-0.96875 -0.20312,-0.5625 -0.20312,-1.1875 0,-0.70313 0.26562,-1.3125 0.26563,-0.625 0.73438,-1.07813 0.45312,-0.45312 1.09375,-0.70312 0.625,-0.26563 1.34375,-0.26563 0.71875,0 1.35937,0.26563 0.64063,0.25 1.10938,0.70312 0.45312,0.45313 0.71875,1.07813 0.26562,0.60937 0.26562,1.32812 0,0.57813 -0.20312,1.125 -0.20313,0.54688 -0.57813,1 h 3.40625 z m -8.65625,-3.03125 q 0,0.625 0.25,1.17187 0.25,0.53125 0.6875,0.875 h 3.3125 q 0.42188,-0.34375 0.67188,-0.89062 0.23437,-0.54688 0.23437,-1.15625 0,-1.0625 -0.73437,-1.76563 -0.73438,-0.71875 -1.82813,-0.71875 -0.54687,0 -1.01562,0.20313 -0.48438,0.1875 -0.82813,0.53125 -0.34375,0.32812 -0.54687,0.78125 -0.20313,0.45312 -0.20313,0.96875 z m -3.64062,-5.81671 h 9.5625 v 0.98437 H 28.2002 Z m 6.21875,-1.36875 q -0.71875,0 -1.35938,-0.26562 -0.64062,-0.26563 -1.10937,-0.71875 -0.46875,-0.46875 -0.73438,-1.09375 -0.26562,-0.625 -0.26562,-1.32813 0,-0.71875 0.26562,-1.32812 0.26563,-0.625 0.73438,-1.07813 0.46875,-0.46875 1.10937,-0.73437 0.64063,-0.26563 1.35938,-0.26563 0.73437,0 1.375,0.26563 0.64062,0.26562 1.10937,0.73437 0.45313,0.45313 0.73438,1.07813 0.26562,0.60937 0.26562,1.32812 0,0.70313 -0.26562,1.32813 -0.28125,0.625 -0.73438,1.09375 -0.46875,0.45312 -1.10937,0.71875 -0.64063,0.26562 -1.375,0.26562 z m 2.59375,-3.40625 q 0,-0.51562 -0.1875,-0.95312 -0.20313,-0.45313 -0.5625,-0.78125 -0.35938,-0.32813 -0.82813,-0.51563 -0.46875,-0.1875 -1.01562,-0.1875 -0.54688,0 -1.01563,0.1875 -0.48437,0.1875 -0.82812,0.51563 -0.34375,0.32812 -0.54688,0.78125 -0.20312,0.4375 -0.20312,0.95312 0,0.5 0.20312,0.95313 0.20313,0.4375 0.54688,0.76562 0.34375,0.32813 0.82812,0.53125 0.46875,0.1875 1.01563,0.1875 0.54687,0 1.01562,-0.1875 0.46875,-0.1875 0.82813,-0.51562 0.35937,-0.32813 0.5625,-0.78125 0.1875,-0.45313 0.1875,-0.95313 z m 1.60937,-6.07897 -0.875,-0.375 -6.65625,2.71875 v -1.09375 l 5.46875,-2.15625 -5.46875,-2.34375 v -1.0625 l 7.67188,3.3125 q 0.95312,0.4375 1.375,0.95312 0.4375,0.51563 0.4375,1.3125 0,0.1875 -0.0312,0.35938 -0.0156,0.17187 -0.0312,0.28125 H 39.3878 q 0.0156,-0.14063 0.0312,-0.26563 0.0156,-0.125 0.0156,-0.29687 0,-0.45313 -0.25,-0.76563 -0.25,-0.32812 -0.79688,-0.57812 z m -0.85937,-5.23481 h -6.67188 v -0.98437 h 0.73438 q -0.4375,-0.375 -0.65625,-0.85938 -0.21875,-0.5 -0.21875,-1.09375 0,-0.70312 0.32812,-1.25 0.32813,-0.54687 0.89063,-0.85937 -0.60938,-0.40625 -0.90625,-0.98438 -0.3125,-0.59375 -0.3125,-1.3125 0,-1.07812 0.71875,-1.76562 0.71875,-0.6875 1.875,-0.6875 h 4.21875 v 0.98437 h -4.03125 q -0.875,0 -1.39063,0.46875 -0.51562,0.45313 -0.51562,1.25 0,0.54688 0.28125,1 0.26562,0.45313 0.8125,0.78125 0.14062,-0.0312 0.29687,-0.0469 0.15625,-0.0156 0.32813,-0.0156 h 4.21875 v 0.96875 h -4.03125 q -0.875,0 -1.39063,0.46875 -0.51562,0.46875 -0.51562,1.25 0,0.53125 0.25,0.96875 0.23437,0.4375 0.71875,0.73438 h 4.96875 z M 36.8252,106.93908 q 0.40625,0.5625 0.625,1.17188 0.20313,0.60937 0.20313,1.32812 0,0.71875 -0.26563,1.35938 -0.26562,0.625 -0.73437,1.09375 -0.46875,0.45312 -1.09375,0.71875 -0.64063,0.26562 -1.375,0.26562 -0.71875,0 -1.34375,-0.25 -0.625,-0.26562 -1.09375,-0.70312 -0.46875,-0.45313 -0.73438,-1.04688 -0.26562,-0.60937 -0.26562,-1.29687 0,-0.65625 0.26562,-1.23438 0.26563,-0.59375 0.73438,-1 0.46875,-0.42187 1.09375,-0.67187 0.625,-0.25 1.34375,-0.25 h 0.3125 v 5.48437 q 0.98437,-0.10937 1.64062,-0.8125 0.64063,-0.71875 0.64063,-1.70312 0,-0.51563 -0.15625,-1 -0.15625,-0.5 -0.45313,-0.82813 z m -5.21875,2.67188 q 0,0.85937 0.59375,1.5 0.57813,0.625 1.5,0.76562 v -4.46875 q -0.875,0.14063 -1.48437,0.76563 -0.60938,0.60937 -0.60938,1.4375 z m 5.92188,-4.56391 h -6.67188 v -0.98437 h 0.78125 q -0.45312,-0.39063 -0.6875,-0.92188 -0.23437,-0.53125 -0.23437,-1.1875 0,-1.125 0.71875,-1.84375 0.71875,-0.71875 1.875,-0.71875 h 4.21875 v 0.96875 h -4.03125 q -0.875,0 -1.39063,0.51563 -0.51562,0.5 -0.51562,1.34375 0,0.60937 0.26562,1.07812 0.26563,0.46875 0.75,0.76563 h 4.92188 z m -1.5,-7.87857 h -4.34375 v 1.4375 h -0.82813 v -1.4375 h -1.70312 l -0.25,-0.96875 h 1.95312 v -2.01562 h 0.82813 v 2.01562 h 4.09375 q 0.53125,0 0.76562,-0.23437 0.23438,-0.25 0.23438,-0.79688 0,-0.26562 -0.0312,-0.48437 -0.0469,-0.23438 -0.14063,-0.48438 h 0.875 q 0.0937,0.25 0.125,0.5625 0.0469,0.3125 0.0469,0.60938 0,0.875 -0.40625,1.34375 -0.42188,0.45312 -1.21875,0.45312 z"
     fill-rule="nonzero"
     id="path9" />
  <path
     fill="#fff2cc"
     d="M 58.56955,7.99212 H 250.82153 V 46.38583 H 58.56955 Z"
     fill-rule="evenodd"
     id="path11" />
  <path
     fill="#000000"
     d="m 144.21633,22.94211 1.01563,-1.15625 q 0.5625,0.48437 1.125,0.73437 0.57812,0.23438 1.15625,0.23438 0.54687,0 0.89062,-0.21875 0.34375,-0.21875 0.34375,-0.54688 0,-0.21875 -0.20312,-0.375 -0.1875,-0.15625 -0.5625,-0.25 l -1.28125,-0.28125 q -0.84375,-0.1875 -1.29688,-0.67187 -0.45312,-0.48438 -0.45312,-1.20313 0,-1.04687 0.73437,-1.65625 0.75,-0.60937 2.01563,-0.60937 0.84375,0 1.60937,0.28125 0.78125,0.26562 1.39063,0.78125 l -1,1.10937 q -0.53125,-0.40625 -1.07813,-0.60937 -0.53125,-0.20313 -1.03125,-0.20313 -0.48437,0 -0.76562,0.1875 -0.28125,0.1875 -0.28125,0.5 0,0.25 0.1875,0.40625 0.1875,0.15625 0.64062,0.25 l 1.26563,0.28125 q 0.875,0.1875 1.34375,0.67188 0.46875,0.48437 0.46875,1.17187 0,0.51563 -0.23438,0.95313 -0.21875,0.42187 -0.60937,0.73437 -0.39063,0.3125 -0.9375,0.5 -0.53125,0.17188 -1.17188,0.17188 -0.95312,0 -1.84375,-0.3125 -0.875,-0.32813 -1.4375,-0.875 z m 8.42163,1.04687 -1.45312,-6.9375 h 1.90625 l 0.85937,4.625 2.84375,-4.625 h 1.95313 l -4.39063,6.9375 z m 9.21558,-1.4375 q 0.42187,0 0.8125,-0.17187 0.39062,-0.17188 0.78125,-0.51563 l 0.92187,1.1875 q -0.59375,0.53125 -1.29687,0.8125 -0.6875,0.26563 -1.42188,0.26563 -0.70312,0 -1.3125,-0.23438 -0.59375,-0.25 -1.04687,-0.6875 -0.4375,-0.4375 -0.6875,-1.03125 -0.25,-0.59375 -0.25,-1.3125 0,-0.8125 0.29687,-1.53125 0.29688,-0.73437 0.8125,-1.25 0.53125,-0.53125 1.23438,-0.84375 0.70312,-0.3125 1.5,-0.3125 0.85937,0 1.625,0.375 0.76562,0.375 1.21875,1.01563 l -1.23438,1.125 q -0.3125,-0.46875 -0.73437,-0.6875 -0.40625,-0.23438 -0.90625,-0.23438 -0.40625,0 -0.78125,0.1875 -0.375,0.17188 -0.65625,0.48438 -0.26563,0.29687 -0.4375,0.71875 -0.15625,0.40625 -0.15625,0.85937 0,0.78125 0.48437,1.28125 0.48438,0.5 1.23438,0.5 z"
     fill-rule="nonzero"
     id="path13" />
  <path
     fill="#000000"
     d="m 76.7619,40.12961 q -0.75,0 -1.40625,-0.20313 -0.64062,-0.20312 -1.09375,-0.54687 -0.45312,-0.35938 -0.71875,-0.84375 -0.26562,-0.5 -0.26562,-1.0625 0,-0.8125 0.5625,-1.45313 0.5625,-0.65625 1.45312,-0.9375 -0.73437,-0.28125 -1.1875,-0.84375 -0.45312,-0.57812 -0.45312,-1.29687 0,-0.53125 0.23437,-0.96875 0.25,-0.45313 0.65625,-0.76563 0.42188,-0.32812 0.98438,-0.5 0.5625,-0.1875 1.23437,-0.1875 0.67188,0 1.23438,0.1875 0.57812,0.17188 0.98437,0.5 0.42188,0.3125 0.65625,0.76563 0.23438,0.4375 0.23438,0.96875 0,0.71875 -0.45313,1.29687 -0.45312,0.5625 -1.17187,0.84375 0.89062,0.28125 1.4375,0.9375 0.5625,0.64063 0.5625,1.45313 0,0.5625 -0.26563,1.0625 -0.25,0.48437 -0.71875,0.84375 -0.46875,0.34375 -1.10937,0.54687 -0.64063,0.20313 -1.39063,0.20313 z m 0,-5.46875 q 0.90625,0 1.53125,-0.48438 0.625,-0.48437 0.625,-1.20312 0,-0.70313 -0.625,-1.1875 -0.60937,-0.5 -1.53125,-0.5 -0.90625,0 -1.53125,0.5 -0.60937,0.48437 -0.60937,1.1875 0,0.71875 0.60937,1.20312 0.625,0.48438 1.53125,0.48438 z m 0,4.65625 q 1.0625,0 1.78125,-0.54688 0.73438,-0.54687 0.73438,-1.35937 0,-0.8125 -0.73438,-1.35938 -0.71875,-0.54687 -1.78125,-0.54687 -1.0625,0 -1.79687,0.54687 -0.71875,0.54688 -0.71875,1.35938 0,0.8125 0.71875,1.35937 0.73437,0.54688 1.79687,0.54688 z m 8.38696,0.8125 q -0.82812,0 -1.53125,-0.35938 -0.70312,-0.35937 -1.20312,-0.98437 -0.5,-0.64063 -0.78125,-1.51563 -0.28125,-0.89062 -0.28125,-1.95312 0,-1.04688 0.28125,-1.92188 0.28125,-0.89062 0.78125,-1.51562 0.5,-0.64063 1.20312,-1 0.71875,-0.35938 1.53125,-0.35938 0.84375,0 1.54688,0.35938 0.70312,0.35937 1.20312,1 0.51563,0.625 0.78125,1.51562 0.28125,0.875 0.28125,1.92188 0,1.0625 -0.28125,1.95312 -0.26562,0.875 -0.78125,1.51563 -0.5,0.625 -1.20312,0.98437 -0.70313,0.35938 -1.54688,0.35938 z m 0,-0.89063 q 1.29688,0 2.0625,-1.0625 0.78125,-1.0625 0.78125,-2.85937 0,-1.78125 -0.78125,-2.84375 -0.76562,-1.07813 -2.0625,-1.07813 -1.26562,0 -2.04687,1.07813 -0.76563,1.0625 -0.76563,2.84375 0,1.79687 0.76563,2.85937 0.78125,1.0625 2.04687,1.0625 z m 8.513,0.89063 q -0.75,0 -1.40625,-0.20313 -0.64062,-0.20312 -1.09375,-0.54687 -0.45312,-0.35938 -0.71875,-0.84375 -0.26562,-0.5 -0.26562,-1.0625 0,-0.8125 0.5625,-1.45313 0.5625,-0.65625 1.45312,-0.9375 -0.73437,-0.28125 -1.1875,-0.84375 -0.45312,-0.57812 -0.45312,-1.29687 0,-0.53125 0.23437,-0.96875 0.25,-0.45313 0.65625,-0.76563 0.42188,-0.32812 0.98438,-0.5 0.5625,-0.1875 1.23437,-0.1875 0.67188,0 1.23438,0.1875 0.57812,0.17188 0.98437,0.5 0.42188,0.3125 0.65625,0.76563 0.23438,0.4375 0.23438,0.96875 0,0.71875 -0.45313,1.29687 -0.45312,0.5625 -1.17187,0.84375 0.89062,0.28125 1.4375,0.9375 0.5625,0.64063 0.5625,1.45313 0,0.5625 -0.26563,1.0625 -0.25,0.48437 -0.71875,0.84375 -0.46875,0.34375 -1.10937,0.54687 -0.64063,0.20313 -1.39063,0.20313 z m 0,-5.46875 q 0.90625,0 1.53125,-0.48438 0.625,-0.48437 0.625,-1.20312 0,-0.70313 -0.625,-1.1875 -0.60937,-0.5 -1.53125,-0.5 -0.90625,0 -1.53125,0.5 -0.60937,0.48437 -0.60937,1.1875 0,0.71875 0.60937,1.20312 0.625,0.48438 1.53125,0.48438 z m 0,4.65625 q 1.0625,0 1.78125,-0.54688 0.73438,-0.54687 0.73438,-1.35937 0,-0.8125 -0.73438,-1.35938 -0.71875,-0.54687 -1.78125,-0.54687 -1.0625,0 -1.79687,0.54687 -0.71875,0.54688 -0.71875,1.35938 0,0.8125 0.71875,1.35937 0.73437,0.54688 1.79687,0.54688 z m 8.38697,0.8125 q -0.82813,0 -1.53125,-0.35938 -0.70313,-0.35937 -1.20313,-0.98437 -0.5,-0.64063 -0.78125,-1.51563 -0.28125,-0.89062 -0.28125,-1.95312 0,-1.04688 0.28125,-1.92188 0.28125,-0.89062 0.78125,-1.51562 0.5,-0.64063 1.20313,-1 0.71875,-0.35938 1.53125,-0.35938 0.84375,0 1.54687,0.35938 0.70313,0.35937 1.20313,1 0.51562,0.625 0.78125,1.51562 0.28125,0.875 0.28125,1.92188 0,1.0625 -0.28125,1.95312 -0.26563,0.875 -0.78125,1.51563 -0.5,0.625 -1.20313,0.98437 -0.70312,0.35938 -1.54687,0.35938 z m 0,-0.89063 q 1.29687,0 2.0625,-1.0625 0.78125,-1.0625 0.78125,-2.85937 0,-1.78125 -0.78125,-2.84375 -0.76563,-1.07813 -2.0625,-1.07813 -1.26563,0 -2.04688,1.07813 -0.76562,1.0625 -0.76562,2.84375 0,1.79687 0.76562,2.85937 0.78125,1.0625 2.04688,1.0625 z m 8.1441,-2.5625 q 0,-2.03125 0.85938,-3.60937 0.85937,-1.59375 2.45312,-2.54688 l 0.51563,0.67188 q -1.375,0.79687 -2.14063,2.23437 -0.75,1.4375 -0.75,3.25 0,1.8125 0.75,3.25 0.76563,1.42188 2.14063,2.21875 l -0.51563,0.6875 q -1.59375,-0.96875 -2.45312,-2.5625 -0.85938,-1.57812 -0.85938,-3.59375 z m 5.35651,3.3125 v -9.32812 h 4 q 1.35937,0 2.1875,0.75 0.84375,0.73437 0.84375,1.92187 0,0.92188 -0.54688,1.59375 -0.53125,0.67188 -1.4375,0.92188 l 2.09375,4.14062 h -1.14062 l -2,-4.01562 h -2.98438 v 4.01562 z m 3.92187,-8.40625 h -2.90625 v 3.53125 h 2.90625 q 0.9375,0 1.5,-0.48437 0.57813,-0.48438 0.57813,-1.29688 0,-0.79687 -0.57813,-1.26562 -0.5625,-0.48438 -1.5,-0.48438 z m 4.67475,8.40625 v -9.32812 h 6.67187 v 0.90625 h -5.65625 v 3.26562 h 3.70313 v 0.89063 h -3.70313 v 3.35937 h 5.70313 v 0.90625 z m 7.31945,-1.59375 0.6875,-0.71875 q 0.71875,0.76563 1.53125,1.15625 0.82813,0.39063 1.73438,0.39063 1.09375,0 1.79687,-0.51563 0.70313,-0.51562 0.70313,-1.3125 0,-0.71875 -0.5,-1.10937 -0.5,-0.39063 -1.64063,-0.57813 l -1.34375,-0.20312 q -1.34375,-0.21875 -1.98437,-0.79688 -0.64063,-0.57812 -0.64063,-1.5625 0,-1.17187 0.90625,-1.89062 0.90625,-0.71875 2.375,-0.71875 0.96875,0 1.92188,0.32812 0.96875,0.3125 1.75,0.92188 l -0.59375,0.79687 q -0.75,-0.57812 -1.54688,-0.85937 -0.78125,-0.29688 -1.57812,-0.29688 -1,0 -1.625,0.45313 -0.60938,0.45312 -0.60938,1.17187 0,0.65625 0.4375,1.01563 0.4375,0.34375 1.45313,0.5 l 1.32812,0.20312 q 1.51563,0.26563 2.21875,0.875 0.70313,0.60938 0.70313,1.6875 0,0.60938 -0.26563,1.125 -0.25,0.51563 -0.73437,0.89063 -0.46875,0.35937 -1.125,0.57812 -0.65625,0.20313 -1.45313,0.20313 -1.09375,0 -2.125,-0.45313 -1.01562,-0.45312 -1.78125,-1.28125 z m 7.82392,-6.8125 v -0.92187 h 7.76562 v 0.92187 h -3.375 v 8.40625 h -1.03125 v -8.40625 z m 14.77649,6.46875 h -0.84375 v -2.42187 h -2.34375 v -0.82813 h 2.34375 v -2.375 h 0.84375 v 2.375 h 2.34375 v 0.82813 h -2.34375 z m 6.78466,4.67188 v -9.40625 h 0.96875 v 0.71875 q 0.42188,-0.42188 0.96875,-0.625 0.5625,-0.20313 1.1875,-0.20313 0.70313,0 1.3125,0.26563 0.625,0.26562 1.07813,0.73437 0.45312,0.45313 0.70312,1.09375 0.26563,0.625 0.26563,1.34375 0,0.71875 -0.26563,1.35938 -0.25,0.64062 -0.70312,1.10937 -0.45313,0.45313 -1.07813,0.71875 -0.60937,0.26563 -1.32812,0.26563 -0.57813,0 -1.125,-0.20313 -0.54688,-0.20312 -1,-0.57812 v 3.40625 z m 3.03125,-8.65625 q -0.625,0 -1.17187,0.25 -0.53125,0.25 -0.875,0.6875 v 3.3125 q 0.34375,0.42187 0.89062,0.67187 0.54688,0.23438 1.15625,0.23438 1.0625,0 1.76563,-0.73438 0.71875,-0.73437 0.71875,-1.82812 0,-0.54688 -0.20313,-1.01563 -0.1875,-0.48437 -0.53125,-0.82812 -0.32812,-0.34375 -0.78125,-0.54688 -0.45312,-0.20312 -0.96875,-0.20312 z m 4.83228,5.92187 v -6.67187 h 0.98437 v 0.9375 q 0.29688,-0.51563 0.76563,-0.79688 0.48437,-0.29687 1.09375,-0.29687 0.1875,0 0.32812,0.0312 0.15625,0.0156 0.29688,0.0625 v 0.90625 q -0.17188,-0.0469 -0.34375,-0.0781 -0.17188,-0.0312 -0.34375,-0.0312 -0.60938,0 -1.07813,0.35938 -0.46875,0.34375 -0.71875,1 v 4.57812 z m 3.81903,-3.34375 q 0,-0.71875 0.26563,-1.35937 0.26562,-0.64063 0.71875,-1.10938 0.46875,-0.46875 1.09375,-0.73437 0.625,-0.26563 1.32812,-0.26563 0.71875,0 1.32813,0.26563 0.625,0.26562 1.07812,0.73437 0.46875,0.46875 0.73438,1.10938 0.26562,0.64062 0.26562,1.35937 0,0.73438 -0.26562,1.375 -0.26563,0.64063 -0.73438,1.10938 -0.45312,0.45312 -1.07812,0.73437 -0.60938,0.26563 -1.32813,0.26563 -0.70312,0 -1.32812,-0.26563 -0.625,-0.28125 -1.09375,-0.73437 -0.45313,-0.46875 -0.71875,-1.10938 -0.26563,-0.64062 -0.26563,-1.375 z m 3.40625,2.59375 q 0.51563,0 0.95313,-0.1875 0.45312,-0.20312 0.78125,-0.5625 0.32812,-0.35937 0.51562,-0.82812 0.1875,-0.46875 0.1875,-1.01563 0,-0.54687 -0.1875,-1.01562 -0.1875,-0.48438 -0.51562,-0.82813 -0.32813,-0.34375 -0.78125,-0.54687 -0.4375,-0.20313 -0.95313,-0.20313 -0.5,0 -0.95312,0.20313 -0.4375,0.20312 -0.76563,0.54687 -0.32812,0.34375 -0.53125,0.82813 -0.1875,0.46875 -0.1875,1.01562 0,0.54688 0.1875,1.01563 0.1875,0.46875 0.51563,0.82812 0.32812,0.35938 0.78125,0.5625 0.45312,0.1875 0.95312,0.1875 z m 4.78314,0.75 v -6.67187 h 0.98438 v 0.73437 q 0.375,-0.4375 0.85937,-0.65625 0.5,-0.21875 1.09375,-0.21875 0.70313,0 1.25,0.32813 0.54688,0.32812 0.85938,0.89062 0.40625,-0.60937 0.98437,-0.90625 0.59375,-0.3125 1.3125,-0.3125 1.07813,0 1.76563,0.71875 0.6875,0.71875 0.6875,1.875 v 4.21875 h -0.98438 v -4.03125 q 0,-0.875 -0.46875,-1.39062 -0.45312,-0.51563 -1.25,-0.51563 -0.54687,0 -1,0.28125 -0.45312,0.26563 -0.78125,0.8125 0.0312,0.14063 0.0469,0.29688 0.0156,0.15625 0.0156,0.32812 v 4.21875 h -0.96875 v -4.03125 q 0,-0.875 -0.46875,-1.39062 -0.46875,-0.51563 -1.25,-0.51563 -0.53125,0 -0.96875,0.25 -0.4375,0.23438 -0.73437,0.71875 v 4.96875 z m 17.07386,-0.70312 q -0.5625,0.40625 -1.17188,0.625 -0.60937,0.20312 -1.32812,0.20312 -0.71875,0 -1.35938,-0.26562 -0.625,-0.26563 -1.09375,-0.73438 -0.45312,-0.46875 -0.71875,-1.09375 -0.26562,-0.64062 -0.26562,-1.375 0,-0.71875 0.25,-1.34375 0.26562,-0.625 0.70312,-1.09375 0.45313,-0.46875 1.04688,-0.73437 0.60937,-0.26563 1.29687,-0.26563 0.65625,0 1.23438,0.26563 0.59375,0.26562 1,0.73437 0.42187,0.46875 0.67187,1.09375 0.25,0.625 0.25,1.34375 v 0.3125 h -5.48437 q 0.10937,0.98438 0.8125,1.64063 0.71875,0.64062 1.70312,0.64062 0.51563,0 1,-0.15625 0.5,-0.15625 0.82813,-0.45312 z m -2.67188,-5.21875 q -0.85937,0 -1.5,0.59375 -0.625,0.57812 -0.76562,1.5 h 4.46875 q -0.14063,-0.875 -0.76563,-1.48438 -0.60937,-0.60937 -1.4375,-0.60937 z m 5.12537,4.42187 v -4.34375 h -1.4375 v -0.82812 h 1.4375 v -1.70313 l 0.96875,-0.25 v 1.95313 h 2.01562 v 0.82812 h -2.01562 v 4.09375 q 0,0.53125 0.23437,0.76563 0.25,0.23437 0.79688,0.23437 0.26562,0 0.48437,-0.0312 0.23438,-0.0469 0.48438,-0.14062 v 0.875 q -0.25,0.0937 -0.5625,0.125 -0.3125,0.0469 -0.60938,0.0469 -0.875,0 -1.34375,-0.40625 -0.45312,-0.42187 -0.45312,-1.21875 z m 4.03662,1.5 v -9.32812 l 0.98437,-0.23438 v 3.67188 q 0.39063,-0.45313 0.92188,-0.6875 0.53125,-0.23438 1.1875,-0.23438 1.125,0 1.84375,0.71875 0.71875,0.71875 0.71875,1.875 v 4.21875 H 208.974 v -4.03125 q 0,-0.875 -0.51563,-1.39062 -0.5,-0.51563 -1.34375,-0.51563 -0.60937,0 -1.07812,0.26563 -0.46875,0.26562 -0.76563,0.75 v 4.92187 z m 12.94208,-0.70312 q -0.5625,0.40625 -1.17188,0.625 -0.60937,0.20312 -1.32812,0.20312 -0.71875,0 -1.35938,-0.26562 -0.625,-0.26563 -1.09375,-0.73438 -0.45312,-0.46875 -0.71875,-1.09375 -0.26562,-0.64062 -0.26562,-1.375 0,-0.71875 0.25,-1.34375 0.26562,-0.625 0.70312,-1.09375 0.45313,-0.46875 1.04688,-0.73437 0.60937,-0.26563 1.29687,-0.26563 0.65625,0 1.23438,0.26563 0.59375,0.26562 1,0.73437 0.42187,0.46875 0.67187,1.09375 0.25,0.625 0.25,1.34375 v 0.3125 h -5.48437 q 0.10937,0.98438 0.8125,1.64063 0.71875,0.64062 1.70312,0.64062 0.51563,0 1,-0.15625 0.5,-0.15625 0.82813,-0.45312 z m -2.67188,-5.21875 q -0.85937,0 -1.5,0.59375 -0.625,0.57812 -0.76562,1.5 h 4.46875 q -0.14063,-0.875 -0.76563,-1.48438 -0.60937,-0.60937 -1.4375,-0.60937 z m 5.5014,-0.75 v 4.01562 q 0,0.89063 0.5,1.40625 0.51563,0.51563 1.375,0.51563 0.59375,0 1.0625,-0.26563 0.48438,-0.28125 0.76563,-0.76562 v -4.90625 h 1 v 6.67187 h -1 v -0.76562 q -0.375,0.45312 -0.90625,0.6875 -0.53125,0.21875 -1.17188,0.21875 -1.15625,0 -1.875,-0.71875 -0.71875,-0.73438 -0.71875,-1.875 v -4.21875 z m 5.69214,5.75 0.60938,-0.64063 q 0.45312,0.42188 1.01562,0.65625 0.5625,0.23438 1.15625,0.23438 0.79688,0 1.29688,-0.32813 0.51562,-0.32812 0.51562,-0.85937 0,-0.4375 -0.3125,-0.67188 -0.29687,-0.25 -0.9375,-0.34375 l -1.15625,-0.15625 q -1,-0.15625 -1.48437,-0.59375 -0.48438,-0.45312 -0.48438,-1.21875 0,-0.82812 0.70313,-1.375 0.70312,-0.5625 1.79687,-0.5625 0.71875,0 1.35938,0.21875 0.65625,0.20313 1.26562,0.65625 l -0.51562,0.67188 q -0.5625,-0.375 -1.09375,-0.5625 -0.51563,-0.1875 -1.0625,-0.1875 -0.6875,0 -1.125,0.3125 -0.42188,0.29687 -0.42188,0.79687 0,0.42188 0.28125,0.65625 0.29688,0.23438 0.95313,0.32813 l 1.15625,0.15625 q 1,0.14062 1.5,0.60937 0.5,0.45313 0.5,1.20313 0,0.42187 -0.20313,0.8125 -0.20312,0.375 -0.57812,0.65625 -0.35938,0.26562 -0.85938,0.42187 -0.48437,0.15625 -1.0625,0.15625 -0.82812,0 -1.5625,-0.26562 -0.71875,-0.28125 -1.25,-0.78125 z m 10.11615,-2.46875 q 0,2.03125 -0.85937,3.60937 -0.85938,1.59375 -2.45313,2.54688 l -0.51562,-0.67188 q 1.375,-0.79687 2.125,-2.23437 0.76562,-1.45313 0.76562,-3.25 0,-1.8125 -0.76562,-3.23438 -0.75,-1.4375 -2.125,-2.23437 l 0.51562,-0.6875 q 1.59375,0.96875 2.45313,2.5625 0.85937,1.57812 0.85937,3.59375 z"
     fill-rule="nonzero"
     id="path15" />
  <path
     fill="#fce5cd"
     d="m 58.56955,156.43307 h 258.26773 v 93.98425 H 58.56955 Z"
     fill-rule="evenodd"
     id="path17" />
  <path
     fill="#000000"
     d="m 180.57379,182.78769 q 0.42187,0 0.8125,-0.17188 0.39062,-0.17187 0.78125,-0.51562 l 0.92187,1.1875 q -0.59375,0.53125 -1.29687,0.8125 -0.6875,0.26562 -1.42188,0.26562 -0.70312,0 -1.3125,-0.23437 -0.59375,-0.25 -1.04687,-0.6875 -0.4375,-0.4375 -0.6875,-1.03125 -0.25,-0.59375 -0.25,-1.3125 0,-0.8125 0.29687,-1.53125 0.29688,-0.73438 0.8125,-1.25 0.53125,-0.53125 1.23438,-0.84375 0.70312,-0.3125 1.5,-0.3125 0.85937,0 1.625,0.375 0.76562,0.375 1.21875,1.01562 l -1.23438,1.125 q -0.3125,-0.46875 -0.73437,-0.6875 -0.40625,-0.23437 -0.90625,-0.23437 -0.40625,0 -0.78125,0.1875 -0.375,0.17187 -0.65625,0.48437 -0.26563,0.29688 -0.4375,0.71875 -0.15625,0.40625 -0.15625,0.85938 0,0.78125 0.48437,1.28125 0.48438,0.5 1.23438,0.5 z m 3.03998,1.4375 1.46875,-6.9375 h 1.78125 l -0.10938,0.54687 q 0.40625,-0.32812 0.84375,-0.48437 0.45313,-0.17188 0.95313,-0.17188 0.67187,0 1.17187,0.29688 0.5,0.29687 0.75,0.8125 0.51563,-0.54688 1.125,-0.82813 0.60938,-0.28125 1.29688,-0.28125 0.57812,0 1.03125,0.21875 0.45312,0.21875 0.71875,0.60938 0.28125,0.375 0.375,0.90625 0.0937,0.53125 -0.0469,1.14062 l -0.89062,4.17188 h -1.78125 l 0.84375,-4.01563 q 0.14062,-0.65625 -0.15625,-1.0625 -0.28125,-0.42187 -0.85938,-0.42187 -0.375,0 -0.73437,0.1875 -0.35938,0.17187 -0.70313,0.54687 0,0.14063 -0.0156,0.29688 -0.0156,0.15625 -0.0469,0.29687 l -0.89062,4.17188 h -1.78125 l 0.84375,-3.98438 q 0.14062,-0.6875 -0.14063,-1.09375 -0.28125,-0.42187 -0.89062,-0.42187 -0.35938,0 -0.70313,0.15625 -0.32812,0.15625 -0.64062,0.48437 l -1.01563,4.85938 z m 11.86658,0 z m 1.17187,-2.03125 q 0.40625,0 0.65625,0.28125 0.26563,0.26562 0.26563,0.67187 0,0.48438 -0.35938,0.85938 -0.35937,0.35937 -0.82812,0.35937 -0.40625,0 -0.6875,-0.26562 -0.26563,-0.28125 -0.26563,-0.6875 0,-0.5 0.35938,-0.85938 0.375,-0.35937 0.85937,-0.35937 z m 1.0625,-5.03125 q 0.40625,0 0.65625,0.28125 0.26563,0.26562 0.26563,0.67187 0,0.48438 -0.35938,0.85938 -0.35937,0.35937 -0.82812,0.35937 -0.40625,0 -0.6875,-0.26562 -0.26563,-0.28125 -0.26563,-0.6875 0,-0.5 0.35938,-0.85938 0.375,-0.35937 0.85937,-0.35937 z"
     fill-rule="nonzero"
     id="path19" />
  <path
     fill="#000000"
     d="m 90.73623,200.35019 q -1.09375,0 -1.78125,-0.5625 -0.6875,-0.5625 -0.6875,-1.45313 0,-0.9375 0.71875,-1.48437 0.71875,-0.5625 1.9375,-0.5625 0.53125,0 1.03125,0.125 0.5,0.125 0.9375,0.32812 v -0.875 q 0,-0.79687 -0.45313,-1.20312 -0.45312,-0.40625 -1.32812,-0.40625 -0.48438,0 -0.98438,0.14062 -0.5,0.14063 -1.10937,0.4375 l -0.375,-0.75 q 0.73437,-0.34375 1.34375,-0.5 0.60937,-0.17187 1.21875,-0.17187 1.26562,0 1.95312,0.60937 0.6875,0.59375 0.6875,1.71875 v 4.48438 h -0.95312 v -0.65625 q -0.45313,0.39062 -1,0.59375 -0.53125,0.1875 -1.15625,0.1875 z m -1.53125,-2.04688 q 0,0.5625 0.46875,0.92188 0.48437,0.34375 1.23437,0.34375 0.59375,0 1.07813,-0.1875 0.5,-0.1875 0.90625,-0.57813 v -1.25 q -0.42188,-0.28125 -0.89063,-0.40625 -0.46875,-0.14062 -1.04687,-0.14062 -0.79688,0 -1.28125,0.35937 -0.46875,0.35938 -0.46875,0.9375 z m 6.29919,4.65625 v -9.40625 h 0.96875 v 0.71875 q 0.42188,-0.42187 0.96875,-0.625 0.5625,-0.20312 1.1875,-0.20312 0.70313,0 1.3125,0.26562 0.625,0.26563 1.07813,0.73438 0.45312,0.45312 0.70312,1.09375 0.26563,0.625 0.26563,1.34375 0,0.71875 -0.26563,1.35937 -0.25,0.64063 -0.70312,1.10938 -0.45313,0.45312 -1.07813,0.71875 -0.60937,0.26562 -1.32812,0.26562 -0.57813,0 -1.125,-0.20312 -0.54688,-0.20313 -1,-0.57813 v 3.40625 z m 3.03125,-8.65625 q -0.625,0 -1.17187,0.25 -0.53125,0.25 -0.875,0.6875 v 3.3125 q 0.34375,0.42188 0.89062,0.67188 0.54688,0.23437 1.15625,0.23437 1.0625,0 1.76563,-0.73437 0.71875,-0.73438 0.71875,-1.82813 0,-0.54687 -0.20313,-1.01562 -0.1875,-0.48438 -0.53125,-0.82813 -0.32812,-0.34375 -0.78125,-0.54687 -0.45312,-0.20313 -0.96875,-0.20313 z m 4.83234,8.65625 v -9.40625 h 0.96875 v 0.71875 q 0.42188,-0.42187 0.96875,-0.625 0.5625,-0.20312 1.1875,-0.20312 0.70313,0 1.3125,0.26562 0.625,0.26563 1.07813,0.73438 0.45312,0.45312 0.70312,1.09375 0.26563,0.625 0.26563,1.34375 0,0.71875 -0.26563,1.35937 -0.25,0.64063 -0.70312,1.10938 -0.45313,0.45312 -1.07813,0.71875 -0.60937,0.26562 -1.32812,0.26562 -0.57813,0 -1.125,-0.20312 -0.54688,-0.20313 -1,-0.57813 v 3.40625 z m 3.03125,-8.65625 q -0.625,0 -1.17187,0.25 -0.53125,0.25 -0.875,0.6875 v 3.3125 q 0.34375,0.42188 0.89062,0.67188 0.54688,0.23437 1.15625,0.23437 1.0625,0 1.76563,-0.73437 0.71875,-0.73438 0.71875,-1.82813 0,-0.54687 -0.20313,-1.01562 -0.1875,-0.48438 -0.53125,-0.82813 -0.32812,-0.34375 -0.78125,-0.54687 -0.45312,-0.20313 -0.96875,-0.20313 z m 5.81665,-3.64062 v 9.5625 h -0.98437 v -9.32813 z m 2.16565,1.60937 q -0.26562,0 -0.46875,-0.20312 -0.1875,-0.20313 -0.1875,-0.46875 0,-0.28125 0.1875,-0.46875 0.20313,-0.20313 0.46875,-0.20313 0.28125,0 0.46875,0.20313 0.20313,0.1875 0.20313,0.46875 0,0.26562 -0.20313,0.46875 -0.1875,0.20312 -0.46875,0.20312 z m 0.5,1.28125 v 6.67188 h -0.98437 v -6.67188 z m 4.79059,5.90625 q 0.53125,0 1.03125,-0.21875 0.5,-0.21875 0.92187,-0.625 l 0.60938,0.65625 q -0.53125,0.51563 -1.20313,0.79688 -0.65625,0.28125 -1.375,0.28125 -0.71875,0 -1.34375,-0.26563 -0.625,-0.26562 -1.07812,-0.73437 -0.45313,-0.46875 -0.71875,-1.10938 -0.26563,-0.64062 -0.26563,-1.35937 0,-0.71875 0.26563,-1.34375 0.26562,-0.64063 0.71875,-1.10938 0.45312,-0.46875 1.07812,-0.73437 0.625,-0.28125 1.34375,-0.28125 0.71875,0 1.40625,0.28125 0.6875,0.28125 1.20313,0.78125 l -0.625,0.71875 q -0.40625,-0.42188 -0.92188,-0.64063 -0.51562,-0.23437 -1.0625,-0.23437 -0.5,0 -0.95312,0.20312 -0.45313,0.20313 -0.78125,0.54688 -0.32813,0.34375 -0.51563,0.8125 -0.1875,0.46875 -0.1875,1 0,0.54687 0.1875,1.01562 0.20313,0.46875 0.53125,0.8125 0.32813,0.34375 0.78125,0.54688 0.45313,0.20312 0.95313,0.20312 z m 5.83734,0.89063 q -1.09375,0 -1.78125,-0.5625 -0.6875,-0.5625 -0.6875,-1.45313 0,-0.9375 0.71875,-1.48437 0.71875,-0.5625 1.9375,-0.5625 0.53125,0 1.03125,0.125 0.5,0.125 0.9375,0.32812 v -0.875 q 0,-0.79687 -0.45312,-1.20312 -0.45313,-0.40625 -1.32813,-0.40625 -0.48437,0 -0.98437,0.14062 -0.5,0.14063 -1.10938,0.4375 l -0.375,-0.75 q 0.73438,-0.34375 1.34375,-0.5 0.60938,-0.17187 1.21875,-0.17187 1.26563,0 1.95313,0.60937 0.6875,0.59375 0.6875,1.71875 v 4.48438 h -0.95313 v -0.65625 q -0.45312,0.39062 -1,0.59375 -0.53125,0.1875 -1.15625,0.1875 z m -1.53125,-2.04688 q 0,0.5625 0.46875,0.92188 0.48438,0.34375 1.23438,0.34375 0.59375,0 1.07812,-0.1875 0.5,-0.1875 0.90625,-0.57813 v -1.25 q -0.42187,-0.28125 -0.89062,-0.40625 -0.46875,-0.14062 -1.04688,-0.14062 -0.79687,0 -1.28125,0.35937 -0.46875,0.35938 -0.46875,0.9375 z m 6.8606,0.42188 v -4.34375 h -1.4375 v -0.82813 h 1.4375 v -1.70312 l 0.96875,-0.25 v 1.95312 h 2.01562 v 0.82813 h -2.01562 v 4.09375 q 0,0.53125 0.23437,0.76562 0.25,0.23438 0.79688,0.23438 0.26562,0 0.48437,-0.0312 0.23438,-0.0469 0.48438,-0.14063 v 0.875 q -0.25,0.0937 -0.5625,0.125 -0.3125,0.0469 -0.60938,0.0469 -0.875,0 -1.34375,-0.40625 -0.45312,-0.42188 -0.45312,-1.21875 z m 4.52099,-6.45313 q -0.26562,0 -0.46875,-0.20312 -0.1875,-0.20313 -0.1875,-0.46875 0,-0.28125 0.1875,-0.46875 0.20313,-0.20313 0.46875,-0.20313 0.28125,0 0.46875,0.20313 0.20313,0.1875 0.20313,0.46875 0,0.26562 -0.20313,0.46875 -0.1875,0.20312 -0.46875,0.20312 z m 0.5,1.28125 v 6.67188 h -0.98437 v -6.67188 z m 1.36878,3.32813 q 0,-0.71875 0.26562,-1.35938 0.26563,-0.64062 0.71875,-1.10937 0.46875,-0.46875 1.09375,-0.73438 0.625,-0.26562 1.32813,-0.26562 0.71875,0 1.32812,0.26562 0.625,0.26563 1.07813,0.73438 0.46875,0.46875 0.73437,1.10937 0.26563,0.64063 0.26563,1.35938 0,0.73437 -0.26563,1.375 -0.26562,0.64062 -0.73437,1.10937 -0.45313,0.45313 -1.07813,0.73438 -0.60937,0.26562 -1.32812,0.26562 -0.70313,0 -1.32813,-0.26562 -0.625,-0.28125 -1.09375,-0.73438 -0.45312,-0.46875 -0.71875,-1.10937 -0.26562,-0.64063 -0.26562,-1.375 z m 3.40625,2.59375 q 0.51562,0 0.95312,-0.1875 0.45313,-0.20313 0.78125,-0.5625 0.32813,-0.35938 0.51563,-0.82813 0.1875,-0.46875 0.1875,-1.01562 0,-0.54688 -0.1875,-1.01563 -0.1875,-0.48437 -0.51563,-0.82812 -0.32812,-0.34375 -0.78125,-0.54688 -0.4375,-0.20312 -0.95312,-0.20312 -0.5,0 -0.95313,0.20312 -0.4375,0.20313 -0.76562,0.54688 -0.32813,0.34375 -0.53125,0.82812 -0.1875,0.46875 -0.1875,1.01563 0,0.54687 0.1875,1.01562 0.1875,0.46875 0.51562,0.82813 0.32813,0.35937 0.78125,0.5625 0.45313,0.1875 0.95313,0.1875 z m 4.78314,0.75 v -6.67188 h 0.98437 v 0.78125 q 0.39063,-0.45312 0.92188,-0.6875 0.53125,-0.23437 1.1875,-0.23437 1.125,0 1.84375,0.71875 0.71875,0.71875 0.71875,1.875 v 4.21875 h -0.96875 v -4.03125 q 0,-0.875 -0.51563,-1.39063 -0.5,-0.51562 -1.34375,-0.51562 -0.60937,0 -1.07812,0.26562 -0.46875,0.26563 -0.76563,0.75 v 4.92188 z m 7.12958,-4.1875 h 4.64062 v 0.875 h -4.64062 z m 6.14514,4.1875 v -9.32813 l 0.98437,-0.23437 v 5.89062 l 3.48438,-3 h 1.20312 l -3.65625,3.17188 3.82813,3.5 h -1.34375 l -3.51563,-3.20313 v 3.20313 z m 7.25494,-6.67188 v 4.01563 q 0,0.89062 0.5,1.40625 0.51563,0.51562 1.375,0.51562 0.59375,0 1.0625,-0.26562 0.48438,-0.28125 0.76563,-0.76563 v -4.90625 h 1 v 6.67188 h -1 v -0.76563 q -0.375,0.45313 -0.90625,0.6875 -0.53125,0.21875 -1.17188,0.21875 -1.15625,0 -1.875,-0.71875 -0.71875,-0.73437 -0.71875,-1.875 v -4.21875 z m 12.86395,3.32813 q 0,0.71875 -0.26562,1.35937 -0.25,0.64063 -0.70313,1.10938 -0.45312,0.45312 -1.07812,0.71875 -0.60938,0.26562 -1.32813,0.26562 -0.57812,0 -1.14062,-0.20312 -0.54688,-0.20313 -1,-0.57813 v 0.67188 h -0.96875 v -9.32813 l 0.98437,-0.23437 v 3.59375 q 0.40625,-0.40625 0.95313,-0.60938 0.5625,-0.20312 1.1875,-0.20312 0.70312,0 1.3125,0.26562 0.625,0.26563 1.07812,0.73438 0.45313,0.45312 0.70313,1.09375 0.26562,0.625 0.26562,1.34375 z m -3.45312,-2.57813 q -0.625,0 -1.17188,0.25 -0.53125,0.25 -0.875,0.6875 v 3.3125 q 0.34375,0.42188 0.89063,0.67188 0.54687,0.23437 1.15625,0.23437 1.0625,0 1.76562,-0.73437 0.71875,-0.73438 0.71875,-1.82813 0,-0.54687 -0.20312,-1.01562 -0.1875,-0.48438 -0.53125,-0.82813 -0.32813,-0.34375 -0.78125,-0.54687 -0.45313,-0.20313 -0.96875,-0.20313 z m 10.4707,5.21875 q -0.5625,0.40625 -1.17187,0.625 -0.60938,0.20313 -1.32813,0.20313 -0.71875,0 -1.35937,-0.26563 -0.625,-0.26562 -1.09375,-0.73437 -0.45313,-0.46875 -0.71875,-1.09375 -0.26563,-0.64063 -0.26563,-1.375 0,-0.71875 0.25,-1.34375 0.26563,-0.625 0.70313,-1.09375 0.45312,-0.46875 1.04687,-0.73438 0.60938,-0.26562 1.29688,-0.26562 0.65625,0 1.23437,0.26562 0.59375,0.26563 1,0.73438 0.42188,0.46875 0.67188,1.09375 0.25,0.625 0.25,1.34375 v 0.3125 h -5.48438 q 0.10938,0.98437 0.8125,1.64062 0.71875,0.64063 1.70313,0.64063 0.51562,0 1,-0.15625 0.5,-0.15625 0.82812,-0.45313 z m -2.67187,-5.21875 q -0.85938,0 -1.5,0.59375 -0.625,0.57813 -0.76563,1.5 h 4.46875 q -0.14062,-0.875 -0.76562,-1.48437 -0.60938,-0.60938 -1.4375,-0.60938 z m 4.5639,5.92188 v -6.67188 h 0.98438 v 0.9375 q 0.29687,-0.51562 0.76562,-0.79687 0.48438,-0.29688 1.09375,-0.29688 0.1875,0 0.32813,0.0312 0.15625,0.0156 0.29687,0.0625 v 0.90625 q -0.17187,-0.0469 -0.34375,-0.0781 -0.17187,-0.0312 -0.34375,-0.0312 -0.60937,0 -1.07812,0.35937 -0.46875,0.34375 -0.71875,1 v 4.57813 z m 4.61151,0 v -6.67188 h 0.98438 v 0.78125 q 0.39062,-0.45312 0.92187,-0.6875 0.53125,-0.23437 1.1875,-0.23437 1.125,0 1.84375,0.71875 0.71875,0.71875 0.71875,1.875 v 4.21875 h -0.96875 v -4.03125 q 0,-0.875 -0.51562,-1.39063 -0.5,-0.51562 -1.34375,-0.51562 -0.60938,0 -1.07813,0.26562 -0.46875,0.26563 -0.76562,0.75 v 4.92188 z m 12.94208,-0.70313 q -0.5625,0.40625 -1.17187,0.625 -0.60938,0.20313 -1.32813,0.20313 -0.71875,0 -1.35937,-0.26563 -0.625,-0.26562 -1.09375,-0.73437 -0.45313,-0.46875 -0.71875,-1.09375 -0.26563,-0.64063 -0.26563,-1.375 0,-0.71875 0.25,-1.34375 0.26563,-0.625 0.70313,-1.09375 0.45312,-0.46875 1.04687,-0.73438 0.60938,-0.26562 1.29688,-0.26562 0.65625,0 1.23437,0.26562 0.59375,0.26563 1,0.73438 0.42188,0.46875 0.67188,1.09375 0.25,0.625 0.25,1.34375 v 0.3125 h -5.48438 q 0.10938,0.98437 0.8125,1.64062 0.71875,0.64063 1.70313,0.64063 0.51562,0 1,-0.15625 0.5,-0.15625 0.82812,-0.45313 z m -2.67187,-5.21875 q -0.85938,0 -1.5,0.59375 -0.625,0.57813 -0.76563,1.5 h 4.46875 q -0.14062,-0.875 -0.76562,-1.48437 -0.60938,-0.60938 -1.4375,-0.60938 z m 5.12536,4.42188 v -4.34375 h -1.4375 v -0.82813 h 1.4375 v -1.70312 l 0.96875,-0.25 v 1.95312 h 2.01563 v 0.82813 h -2.01563 v 4.09375 q 0,0.53125 0.23438,0.76562 0.25,0.23438 0.79687,0.23438 0.26563,0 0.48438,-0.0312 0.23437,-0.0469 0.48437,-0.14063 v 0.875 q -0.25,0.0937 -0.5625,0.125 -0.3125,0.0469 -0.60937,0.0469 -0.875,0 -1.34375,-0.40625 -0.45313,-0.42188 -0.45313,-1.21875 z m 9.4483,0.79687 q -0.5625,0.40625 -1.17187,0.625 -0.60938,0.20313 -1.32813,0.20313 -0.71875,0 -1.35937,-0.26563 -0.625,-0.26562 -1.09375,-0.73437 -0.45313,-0.46875 -0.71875,-1.09375 -0.26563,-0.64063 -0.26563,-1.375 0,-0.71875 0.25,-1.34375 0.26563,-0.625 0.70313,-1.09375 0.45312,-0.46875 1.04687,-0.73438 0.60938,-0.26562 1.29688,-0.26562 0.65625,0 1.23437,0.26562 0.59375,0.26563 1,0.73438 0.42188,0.46875 0.67188,1.09375 0.25,0.625 0.25,1.34375 v 0.3125 h -5.48438 q 0.10938,0.98437 0.8125,1.64062 0.71875,0.64063 1.70313,0.64063 0.51562,0 1,-0.15625 0.5,-0.15625 0.82812,-0.45313 z m -2.67187,-5.21875 q -0.85938,0 -1.5,0.59375 -0.625,0.57813 -0.76563,1.5 h 4.46875 q -0.14062,-0.875 -0.76562,-1.48437 -0.60938,-0.60938 -1.4375,-0.60938 z m 3.94305,5 0.60938,-0.64062 q 0.45312,0.42187 1.01562,0.65625 0.5625,0.23437 1.15625,0.23437 0.79688,0 1.29688,-0.32812 0.51562,-0.32813 0.51562,-0.85938 0,-0.4375 -0.3125,-0.67187 -0.29687,-0.25 -0.9375,-0.34375 l -1.15625,-0.15625 q -1,-0.15625 -1.48437,-0.59375 -0.48438,-0.45313 -0.48438,-1.21875 0,-0.82813 0.70313,-1.375 0.70312,-0.5625 1.79687,-0.5625 0.71875,0 1.35938,0.21875 0.65625,0.20312 1.26562,0.65625 l -0.51562,0.67187 q -0.5625,-0.375 -1.09375,-0.5625 -0.51563,-0.1875 -1.0625,-0.1875 -0.6875,0 -1.125,0.3125 -0.42188,0.29688 -0.42188,0.79688 0,0.42187 0.28125,0.65625 0.29688,0.23437 0.95313,0.32812 l 1.15625,0.15625 q 1,0.14063 1.5,0.60938 0.5,0.45312 0.5,1.20312 0,0.42188 -0.20313,0.8125 -0.20312,0.375 -0.57812,0.65625 -0.35938,0.26563 -0.85938,0.42188 -0.48437,0.15625 -1.0625,0.15625 -0.82812,0 -1.5625,-0.26563 -0.71875,-0.28125 -1.25,-0.78125 z m 6.88727,-0.35937 q 0.28125,0 0.48438,0.20312 0.20312,0.20313 0.20312,0.48438 0,0.28125 -0.20312,0.48437 -0.20313,0.1875 -0.48438,0.1875 -0.26562,0 -0.46875,-0.1875 -0.20312,-0.20312 -0.20312,-0.48437 0,-0.28125 0.20312,-0.48438 0.20313,-0.20312 0.46875,-0.20312 z m 2.17017,4.01562 v -9.40625 h 0.96875 v 0.71875 q 0.42187,-0.42187 0.96875,-0.625 0.5625,-0.20312 1.1875,-0.20312 0.70312,0 1.3125,0.26562 0.625,0.26563 1.07812,0.73438 0.45313,0.45312 0.70313,1.09375 0.26562,0.625 0.26562,1.34375 0,0.71875 -0.26562,1.35937 -0.25,0.64063 -0.70313,1.10938 -0.45312,0.45312 -1.07812,0.71875 -0.60938,0.26562 -1.32813,0.26562 -0.57812,0 -1.125,-0.20312 -0.54687,-0.20313 -1,-0.57813 v 3.40625 z m 3.03125,-8.65625 q -0.625,0 -1.17188,0.25 -0.53125,0.25 -0.875,0.6875 v 3.3125 q 0.34375,0.42188 0.89063,0.67188 0.54687,0.23437 1.15625,0.23437 1.0625,0 1.76562,-0.73437 0.71875,-0.73438 0.71875,-1.82813 0,-0.54687 -0.20312,-1.01562 -0.1875,-0.48438 -0.53125,-0.82813 -0.32813,-0.34375 -0.78125,-0.54687 -0.45313,-0.20313 -0.96875,-0.20313 z m 4.83233,5.92188 v -6.67188 h 0.98438 v 0.9375 q 0.29687,-0.51562 0.76562,-0.79687 0.48438,-0.29688 1.09375,-0.29688 0.1875,0 0.32813,0.0312 0.15625,0.0156 0.29687,0.0625 v 0.90625 q -0.17187,-0.0469 -0.34375,-0.0781 -0.17187,-0.0312 -0.34375,-0.0312 -0.60937,0 -1.07812,0.35937 -0.46875,0.34375 -0.71875,1 v 4.57813 z m 3.81903,-3.34375 q 0,-0.71875 0.26563,-1.35938 0.26562,-0.64062 0.71875,-1.10937 0.46875,-0.46875 1.09375,-0.73438 0.625,-0.26562 1.32812,-0.26562 0.71875,0 1.32813,0.26562 0.625,0.26563 1.07812,0.73438 0.46875,0.46875 0.73438,1.10937 0.26562,0.64063 0.26562,1.35938 0,0.73437 -0.26562,1.375 -0.26563,0.64062 -0.73438,1.10937 -0.45312,0.45313 -1.07812,0.73438 -0.60938,0.26562 -1.32813,0.26562 -0.70312,0 -1.32812,-0.26562 -0.625,-0.28125 -1.09375,-0.73438 -0.45313,-0.46875 -0.71875,-1.10937 -0.26563,-0.64063 -0.26563,-1.375 z m 3.40625,2.59375 q 0.51563,0 0.95313,-0.1875 0.45312,-0.20313 0.78125,-0.5625 0.32812,-0.35938 0.51562,-0.82813 0.1875,-0.46875 0.1875,-1.01562 0,-0.54688 -0.1875,-1.01563 -0.1875,-0.48437 -0.51562,-0.82812 -0.32813,-0.34375 -0.78125,-0.54688 -0.4375,-0.20312 -0.95313,-0.20312 -0.5,0 -0.95312,0.20312 -0.4375,0.20313 -0.76563,0.54688 -0.32812,0.34375 -0.53125,0.82812 -0.1875,0.46875 -0.1875,1.01563 0,0.54687 0.1875,1.01562 0.1875,0.46875 0.51563,0.82813 0.32812,0.35937 0.78125,0.5625 0.45312,0.1875 0.95312,0.1875 z m 4.78315,3.48437 v -9.40625 h 0.96875 v 0.71875 q 0.42187,-0.42187 0.96875,-0.625 0.5625,-0.20312 1.1875,-0.20312 0.70312,0 1.3125,0.26562 0.625,0.26563 1.07812,0.73438 0.45313,0.45312 0.70313,1.09375 0.26562,0.625 0.26562,1.34375 0,0.71875 -0.26562,1.35937 -0.25,0.64063 -0.70313,1.10938 -0.45312,0.45312 -1.07812,0.71875 -0.60938,0.26562 -1.32813,0.26562 -0.57812,0 -1.125,-0.20312 -0.54687,-0.20313 -1,-0.57813 v 3.40625 z m 3.03125,-8.65625 q -0.625,0 -1.17188,0.25 -0.53125,0.25 -0.875,0.6875 v 3.3125 q 0.34375,0.42188 0.89063,0.67188 0.54687,0.23437 1.15625,0.23437 1.0625,0 1.76562,-0.73437 0.71875,-0.73438 0.71875,-1.82813 0,-0.54687 -0.20312,-1.01562 -0.1875,-0.48438 -0.53125,-0.82813 -0.32813,-0.34375 -0.78125,-0.54687 -0.45313,-0.20313 -0.96875,-0.20313 z m 10.47064,5.21875 q -0.5625,0.40625 -1.17188,0.625 -0.60937,0.20313 -1.32812,0.20313 -0.71875,0 -1.35938,-0.26563 -0.625,-0.26562 -1.09375,-0.73437 -0.45312,-0.46875 -0.71875,-1.09375 -0.26562,-0.64063 -0.26562,-1.375 0,-0.71875 0.25,-1.34375 0.26562,-0.625 0.70312,-1.09375 0.45313,-0.46875 1.04688,-0.73438 0.60937,-0.26562 1.29687,-0.26562 0.65625,0 1.23438,0.26562 0.59375,0.26563 1,0.73438 0.42187,0.46875 0.67187,1.09375 0.25,0.625 0.25,1.34375 v 0.3125 h -5.48437 q 0.10937,0.98437 0.8125,1.64062 0.71875,0.64063 1.70312,0.64063 0.51563,0 1,-0.15625 0.5,-0.15625 0.82813,-0.45313 z m -2.67188,-5.21875 q -0.85937,0 -1.5,0.59375 -0.625,0.57813 -0.76562,1.5 h 4.46875 q -0.14063,-0.875 -0.76563,-1.48437 -0.60937,-0.60938 -1.4375,-0.60938 z m 4.56391,5.92188 v -6.67188 h 0.98437 v 0.9375 q 0.29688,-0.51562 0.76563,-0.79687 0.48437,-0.29688 1.09375,-0.29688 0.1875,0 0.32812,0.0312 0.15625,0.0156 0.29688,0.0625 v 0.90625 q -0.17188,-0.0469 -0.34375,-0.0781 -0.17188,-0.0312 -0.34375,-0.0312 -0.60938,0 -1.07813,0.35937 -0.46875,0.34375 -0.71875,1 v 4.57813 z m 5.46631,-1.5 v -4.34375 h -1.4375 v -0.82813 h 1.4375 v -1.70312 l 0.96875,-0.25 v 1.95312 h 2.01562 v 0.82813 h -2.01562 v 4.09375 q 0,0.53125 0.23437,0.76562 0.25,0.23438 0.79688,0.23438 0.26562,0 0.48437,-0.0312 0.23438,-0.0469 0.48438,-0.14063 v 0.875 q -0.25,0.0937 -0.5625,0.125 -0.3125,0.0469 -0.60938,0.0469 -0.875,0 -1.34375,-0.40625 -0.45312,-0.42188 -0.45312,-1.21875 z m 4.52099,-6.45313 q -0.26562,0 -0.46875,-0.20312 -0.1875,-0.20313 -0.1875,-0.46875 0,-0.28125 0.1875,-0.46875 0.20313,-0.20313 0.46875,-0.20313 0.28125,0 0.46875,0.20313 0.20313,0.1875 0.20313,0.46875 0,0.26562 -0.20313,0.46875 -0.1875,0.20312 -0.46875,0.20312 z m 0.5,1.28125 v 6.67188 h -0.98437 v -6.67188 z m 7.30628,5.96875 q -0.5625,0.40625 -1.17188,0.625 -0.60937,0.20313 -1.32812,0.20313 -0.71875,0 -1.35938,-0.26563 -0.625,-0.26562 -1.09375,-0.73437 -0.45312,-0.46875 -0.71875,-1.09375 -0.26562,-0.64063 -0.26562,-1.375 0,-0.71875 0.25,-1.34375 0.26562,-0.625 0.70312,-1.09375 0.45313,-0.46875 1.04688,-0.73438 0.60937,-0.26562 1.29687,-0.26562 0.65625,0 1.23438,0.26562 0.59375,0.26563 1,0.73438 0.42187,0.46875 0.67187,1.09375 0.25,0.625 0.25,1.34375 v 0.3125 h -5.48437 q 0.10937,0.98437 0.8125,1.64062 0.71875,0.64063 1.70312,0.64063 0.51563,0 1,-0.15625 0.5,-0.15625 0.82813,-0.45313 z m -2.67188,-5.21875 q -0.85937,0 -1.5,0.59375 -0.625,0.57813 -0.76562,1.5 h 4.46875 q -0.14063,-0.875 -0.76563,-1.48437 -0.60937,-0.60938 -1.4375,-0.60938 z m 3.94306,5 0.60937,-0.64062 q 0.45313,0.42187 1.01563,0.65625 0.5625,0.23437 1.15625,0.23437 0.79687,0 1.29687,-0.32812 0.51563,-0.32813 0.51563,-0.85938 0,-0.4375 -0.3125,-0.67187 -0.29688,-0.25 -0.9375,-0.34375 l -1.15625,-0.15625 q -1,-0.15625 -1.48438,-0.59375 -0.48437,-0.45313 -0.48437,-1.21875 0,-0.82813 0.70312,-1.375 0.70313,-0.5625 1.79688,-0.5625 0.71875,0 1.35937,0.21875 0.65625,0.20312 1.26563,0.65625 l -0.51563,0.67187 q -0.5625,-0.375 -1.09375,-0.5625 -0.51562,-0.1875 -1.0625,-0.1875 -0.6875,0 -1.125,0.3125 -0.42187,0.29688 -0.42187,0.79688 0,0.42187 0.28125,0.65625 0.29687,0.23437 0.95312,0.32812 l 1.15625,0.15625 q 1,0.14063 1.5,0.60938 0.5,0.45312 0.5,1.20312 0,0.42188 -0.20312,0.8125 -0.20313,0.375 -0.57813,0.65625 -0.35937,0.26563 -0.85937,0.42188 -0.48438,0.15625 -1.0625,0.15625 -0.82813,0 -1.5625,-0.26563 -0.71875,-0.28125 -1.25,-0.78125 z"
     fill-rule="nonzero"
     id="path21" />
  <path
     fill="#000000"
     d="m 126.23583,215.45956 q 0.53125,0 1.03125,-0.21875 0.5,-0.21875 0.92188,-0.625 l 0.60937,0.65625 q -0.53125,0.51562 -1.20312,0.79687 -0.65625,0.28125 -1.375,0.28125 -0.71875,0 -1.34375,-0.26562 -0.625,-0.26563 -1.07813,-0.73438 -0.45312,-0.46875 -0.71875,-1.10937 -0.26562,-0.64063 -0.26562,-1.35938 0,-0.71875 0.26562,-1.34375 0.26563,-0.64062 0.71875,-1.10937 0.45313,-0.46875 1.07813,-0.73438 0.625,-0.28125 1.34375,-0.28125 0.71875,0 1.40625,0.28125 0.6875,0.28125 1.20312,0.78125 l -0.625,0.71875 q -0.40625,-0.42187 -0.92187,-0.64062 -0.51563,-0.23438 -1.0625,-0.23438 -0.5,0 -0.95313,0.20313 -0.45312,0.20312 -0.78125,0.54687 -0.32812,0.34375 -0.51562,0.8125 -0.1875,0.46875 -0.1875,1 0,0.54688 0.1875,1.01563 0.20312,0.46875 0.53125,0.8125 0.32812,0.34375 0.78125,0.54687 0.45312,0.20313 0.95312,0.20313 z m 5.83728,0.89062 q -1.09375,0 -1.78125,-0.5625 -0.6875,-0.5625 -0.6875,-1.45312 0,-0.9375 0.71875,-1.48438 0.71875,-0.5625 1.9375,-0.5625 0.53125,0 1.03125,0.125 0.5,0.125 0.9375,0.32813 v -0.875 q 0,-0.79688 -0.45312,-1.20313 -0.45313,-0.40625 -1.32813,-0.40625 -0.48437,0 -0.98437,0.14063 -0.5,0.14062 -1.10938,0.4375 l -0.375,-0.75 q 0.73438,-0.34375 1.34375,-0.5 0.60938,-0.17188 1.21875,-0.17188 1.26563,0 1.95313,0.60938 0.6875,0.59375 0.6875,1.71875 v 4.48437 h -0.95313 v -0.65625 q -0.45312,0.39063 -1,0.59375 -0.53125,0.1875 -1.15625,0.1875 z m -1.53125,-2.04687 q 0,0.5625 0.46875,0.92187 0.48438,0.34375 1.23438,0.34375 0.59375,0 1.07812,-0.1875 0.5,-0.1875 0.90625,-0.57812 v -1.25 q -0.42187,-0.28125 -0.89062,-0.40625 -0.46875,-0.14063 -1.04688,-0.14063 -0.79687,0 -1.28125,0.35938 -0.46875,0.35937 -0.46875,0.9375 z m 9.40857,1.15625 q 0.53125,0 1.03125,-0.21875 0.5,-0.21875 0.92187,-0.625 l 0.60938,0.65625 q -0.53125,0.51562 -1.20313,0.79687 -0.65625,0.28125 -1.375,0.28125 -0.71875,0 -1.34375,-0.26562 -0.625,-0.26563 -1.07812,-0.73438 -0.45313,-0.46875 -0.71875,-1.10937 -0.26563,-0.64063 -0.26563,-1.35938 0,-0.71875 0.26563,-1.34375 0.26562,-0.64062 0.71875,-1.10937 0.45312,-0.46875 1.07812,-0.73438 0.625,-0.28125 1.34375,-0.28125 0.71875,0 1.40625,0.28125 0.6875,0.28125 1.20313,0.78125 l -0.625,0.71875 q -0.40625,-0.42187 -0.92188,-0.64062 -0.51562,-0.23438 -1.0625,-0.23438 -0.5,0 -0.95312,0.20313 -0.45313,0.20312 -0.78125,0.54687 -0.32813,0.34375 -0.51563,0.8125 -0.1875,0.46875 -0.1875,1 0,0.54688 0.1875,1.01563 0.20313,0.46875 0.53125,0.8125 0.32813,0.34375 0.78125,0.54687 0.45313,0.20313 0.95313,0.20313 z m 3.7279,0.76562 v -9.32812 l 0.98438,-0.23438 v 3.67188 q 0.39062,-0.45313 0.92187,-0.6875 0.53125,-0.23438 1.1875,-0.23438 1.125,0 1.84375,0.71875 0.71875,0.71875 0.71875,1.875 v 4.21875 h -0.96875 v -4.03125 q 0,-0.875 -0.51562,-1.39062 -0.5,-0.51563 -1.34375,-0.51563 -0.60938,0 -1.07813,0.26563 -0.46875,0.26562 -0.76562,0.75 v 4.92187 z m 12.94208,-0.70312 q -0.5625,0.40625 -1.17187,0.625 -0.60938,0.20312 -1.32813,0.20312 -0.71875,0 -1.35937,-0.26562 -0.625,-0.26563 -1.09375,-0.73438 -0.45313,-0.46875 -0.71875,-1.09375 -0.26563,-0.64062 -0.26563,-1.375 0,-0.71875 0.25,-1.34375 0.26563,-0.625 0.70313,-1.09375 0.45312,-0.46875 1.04687,-0.73437 0.60938,-0.26563 1.29688,-0.26563 0.65625,0 1.23437,0.26563 0.59375,0.26562 1,0.73437 0.42188,0.46875 0.67188,1.09375 0.25,0.625 0.25,1.34375 v 0.3125 h -5.48438 q 0.10938,0.98438 0.8125,1.64063 0.71875,0.64062 1.70313,0.64062 0.51562,0 1,-0.15625 0.5,-0.15625 0.82812,-0.45312 z m -2.67187,-5.21875 q -0.85938,0 -1.5,0.59375 -0.625,0.57812 -0.76563,1.5 h 4.46875 q -0.14062,-0.875 -0.76562,-1.48438 -0.60938,-0.60937 -1.4375,-0.60937 z m 4.40307,1.73437 h 4.64063 v 0.875 h -4.64063 z m 6.14521,4.1875 v -9.32812 l 0.98437,-0.23438 v 5.89063 l 3.48438,-3 h 1.20312 l -3.65625,3.17187 3.82813,3.5 h -1.34375 l -3.51563,-3.20312 v 3.20312 z m 7.25488,-6.67187 v 4.01562 q 0,0.89063 0.5,1.40625 0.51562,0.51563 1.375,0.51563 0.59375,0 1.0625,-0.26563 0.48437,-0.28125 0.76562,-0.76562 v -4.90625 h 1 v 6.67187 h -1 v -0.76562 q -0.375,0.45312 -0.90625,0.6875 -0.53125,0.21875 -1.17187,0.21875 -1.15625,0 -1.875,-0.71875 -0.71875,-0.73438 -0.71875,-1.875 v -4.21875 z m 12.86401,3.32812 q 0,0.71875 -0.26562,1.35938 -0.25,0.64062 -0.70313,1.10937 -0.45312,0.45313 -1.07812,0.71875 -0.60938,0.26563 -1.32813,0.26563 -0.57812,0 -1.14062,-0.20313 -0.54688,-0.20312 -1,-0.57812 v 0.67187 h -0.96875 v -9.32812 l 0.98437,-0.23438 v 3.59375 q 0.40625,-0.40625 0.95313,-0.60937 0.5625,-0.20313 1.1875,-0.20313 0.70312,0 1.3125,0.26563 0.625,0.26562 1.07812,0.73437 0.45313,0.45313 0.70313,1.09375 0.26562,0.625 0.26562,1.34375 z m -3.45312,-2.57812 q -0.625,0 -1.17188,0.25 -0.53125,0.25 -0.875,0.6875 v 3.3125 q 0.34375,0.42187 0.89063,0.67187 0.54687,0.23438 1.15625,0.23438 1.0625,0 1.76562,-0.73438 0.71875,-0.73437 0.71875,-1.82812 0,-0.54688 -0.20312,-1.01563 -0.1875,-0.48437 -0.53125,-0.82812 -0.32813,-0.34375 -0.78125,-0.54688 -0.45313,-0.20312 -0.96875,-0.20312 z m 10.47064,5.21875 q -0.5625,0.40625 -1.17187,0.625 -0.60938,0.20312 -1.32813,0.20312 -0.71875,0 -1.35937,-0.26562 -0.625,-0.26563 -1.09375,-0.73438 -0.45313,-0.46875 -0.71875,-1.09375 -0.26563,-0.64062 -0.26563,-1.375 0,-0.71875 0.25,-1.34375 0.26563,-0.625 0.70313,-1.09375 0.45312,-0.46875 1.04687,-0.73437 0.60938,-0.26563 1.29688,-0.26563 0.65625,0 1.23437,0.26563 0.59375,0.26562 1,0.73437 0.42188,0.46875 0.67188,1.09375 0.25,0.625 0.25,1.34375 v 0.3125 h -5.48438 q 0.10938,0.98438 0.8125,1.64063 0.71875,0.64062 1.70313,0.64062 0.51562,0 1,-0.15625 0.5,-0.15625 0.82812,-0.45312 z m -2.67187,-5.21875 q -0.85938,0 -1.5,0.59375 -0.625,0.57812 -0.76563,1.5 h 4.46875 q -0.14062,-0.875 -0.76562,-1.48438 -0.60938,-0.60937 -1.4375,-0.60937 z m 4.5639,5.92187 v -6.67187 h 0.98437 v 0.9375 q 0.29688,-0.51563 0.76563,-0.79688 0.48437,-0.29687 1.09375,-0.29687 0.1875,0 0.32812,0.0312 0.15625,0.0156 0.29688,0.0625 v 0.90625 q -0.17188,-0.0469 -0.34375,-0.0781 -0.17188,-0.0312 -0.34375,-0.0312 -0.60938,0 -1.07813,0.35938 -0.46875,0.34375 -0.71875,1 v 4.57812 z m 4.61151,0 v -6.67187 h 0.98438 v 0.78125 q 0.39062,-0.45313 0.92187,-0.6875 0.53125,-0.23438 1.1875,-0.23438 1.125,0 1.84375,0.71875 0.71875,0.71875 0.71875,1.875 v 4.21875 h -0.96875 v -4.03125 q 0,-0.875 -0.51562,-1.39062 -0.5,-0.51563 -1.34375,-0.51563 -0.60938,0 -1.07813,0.26563 -0.46875,0.26562 -0.76562,0.75 v 4.92187 z m 12.94208,-0.70312 q -0.5625,0.40625 -1.17188,0.625 -0.60937,0.20312 -1.32812,0.20312 -0.71875,0 -1.35938,-0.26562 -0.625,-0.26563 -1.09375,-0.73438 -0.45312,-0.46875 -0.71875,-1.09375 -0.26562,-0.64062 -0.26562,-1.375 0,-0.71875 0.25,-1.34375 0.26562,-0.625 0.70312,-1.09375 0.45313,-0.46875 1.04688,-0.73437 0.60937,-0.26563 1.29687,-0.26563 0.65625,0 1.23438,0.26563 0.59375,0.26562 1,0.73437 0.42187,0.46875 0.67187,1.09375 0.25,0.625 0.25,1.34375 v 0.3125 h -5.48437 q 0.10937,0.98438 0.8125,1.64063 0.71875,0.64062 1.70312,0.64062 0.51563,0 1,-0.15625 0.5,-0.15625 0.82813,-0.45312 z m -2.67188,-5.21875 q -0.85937,0 -1.5,0.59375 -0.625,0.57812 -0.76562,1.5 h 4.46875 q -0.14063,-0.875 -0.76563,-1.48438 -0.60937,-0.60937 -1.4375,-0.60937 z m 5.12537,4.42187 v -4.34375 h -1.4375 v -0.82812 h 1.4375 v -1.70313 l 0.96875,-0.25 v 1.95313 h 2.01562 v 0.82812 h -2.01562 v 4.09375 q 0,0.53125 0.23437,0.76563 0.25,0.23437 0.79688,0.23437 0.26562,0 0.48437,-0.0312 0.23438,-0.0469 0.48438,-0.14062 v 0.875 q -0.25,0.0937 -0.5625,0.125 -0.3125,0.0469 -0.60938,0.0469 -0.875,0 -1.34375,-0.40625 -0.45312,-0.42187 -0.45312,-1.21875 z m 9.4483,0.79688 q -0.5625,0.40625 -1.17187,0.625 -0.60938,0.20312 -1.32813,0.20312 -0.71875,0 -1.35937,-0.26562 -0.625,-0.26563 -1.09375,-0.73438 -0.45313,-0.46875 -0.71875,-1.09375 -0.26563,-0.64062 -0.26563,-1.375 0,-0.71875 0.25,-1.34375 0.26563,-0.625 0.70313,-1.09375 0.45312,-0.46875 1.04687,-0.73437 0.60938,-0.26563 1.29688,-0.26563 0.65625,0 1.23437,0.26563 0.59375,0.26562 1,0.73437 0.42188,0.46875 0.67188,1.09375 0.25,0.625 0.25,1.34375 v 0.3125 h -5.48438 q 0.10938,0.98438 0.8125,1.64063 0.71875,0.64062 1.70313,0.64062 0.51562,0 1,-0.15625 0.5,-0.15625 0.82812,-0.45312 z m -2.67187,-5.21875 q -0.85938,0 -1.5,0.59375 -0.625,0.57812 -0.76563,1.5 h 4.46875 q -0.14062,-0.875 -0.76562,-1.48438 -0.60938,-0.60937 -1.4375,-0.60937 z m 3.94305,5 0.60938,-0.64063 q 0.45312,0.42188 1.01562,0.65625 0.5625,0.23438 1.15625,0.23438 0.79688,0 1.29688,-0.32813 0.51562,-0.32812 0.51562,-0.85937 0,-0.4375 -0.3125,-0.67188 -0.29687,-0.25 -0.9375,-0.34375 l -1.15625,-0.15625 q -1,-0.15625 -1.48437,-0.59375 -0.48438,-0.45312 -0.48438,-1.21875 0,-0.82812 0.70313,-1.375 0.70312,-0.5625 1.79687,-0.5625 0.71875,0 1.35938,0.21875 0.65625,0.20313 1.26562,0.65625 l -0.51562,0.67188 q -0.5625,-0.375 -1.09375,-0.5625 -0.51563,-0.1875 -1.0625,-0.1875 -0.6875,0 -1.125,0.3125 -0.42188,0.29687 -0.42188,0.79687 0,0.42188 0.28125,0.65625 0.29688,0.23438 0.95313,0.32813 l 1.15625,0.15625 q 1,0.14062 1.5,0.60937 0.5,0.45313 0.5,1.20313 0,0.42187 -0.20313,0.8125 -0.20312,0.375 -0.57812,0.65625 -0.35938,0.26562 -0.85938,0.42187 -0.48437,0.15625 -1.0625,0.15625 -0.82812,0 -1.5625,-0.26562 -0.71875,-0.28125 -1.25,-0.78125 z m 6.88727,-0.35938 q 0.28125,0 0.48437,0.20313 0.20313,0.20312 0.20313,0.48437 0,0.28125 -0.20313,0.48438 -0.20312,0.1875 -0.48437,0.1875 -0.26563,0 -0.46875,-0.1875 -0.20313,-0.20313 -0.20313,-0.48438 0,-0.28125 0.20313,-0.48437 0.20312,-0.20313 0.46875,-0.20313 z m 1.38898,1.28125 2.625,-3.4375 -2.48438,-3.23437 h 1.17188 l 1.89062,2.5 1.89063,-2.5 h 1.14062 l -2.46875,3.21875 2.64063,3.45312 h -1.17188 l -2.04687,-2.71875 -2.0625,2.71875 z m 7.32531,0 v -6.67187 h 0.98438 v 0.73437 q 0.375,-0.4375 0.85937,-0.65625 0.5,-0.21875 1.09375,-0.21875 0.70313,0 1.25,0.32813 0.54688,0.32812 0.85938,0.89062 0.40625,-0.60937 0.98437,-0.90625 0.59375,-0.3125 1.3125,-0.3125 1.07813,0 1.76563,0.71875 0.6875,0.71875 0.6875,1.875 v 4.21875 h -0.98438 v -4.03125 q 0,-0.875 -0.46875,-1.39062 -0.45312,-0.51563 -1.25,-0.51563 -0.54687,0 -1,0.28125 -0.45312,0.26563 -0.78125,0.8125 0.0312,0.14063 0.0469,0.29688 0.0156,0.15625 0.0156,0.32812 v 4.21875 h -0.96875 v -4.03125 q 0,-0.875 -0.46875,-1.39062 -0.46875,-0.51563 -1.25,-0.51563 -0.53125,0 -0.96875,0.25 -0.4375,0.23438 -0.73437,0.71875 v 4.96875 z m 12.43317,-9.5625 v 9.5625 h -0.98437 v -9.32812 z"
     fill-rule="nonzero"
     id="path23" />
  <path
     fill="#fff2cc"
     d="M 58.56955,57.47244 H 250.82153 V 95.86615 H 58.56955 Z"
     fill-rule="evenodd"
     id="path25" />
  <path
     fill="#000000"
     d="m 144.21633,72.42242 1.01563,-1.15625 q 0.5625,0.48437 1.125,0.73437 0.57812,0.23438 1.15625,0.23438 0.54687,0 0.89062,-0.21875 0.34375,-0.21875 0.34375,-0.54688 0,-0.21875 -0.20312,-0.375 -0.1875,-0.15625 -0.5625,-0.25 l -1.28125,-0.28125 q -0.84375,-0.1875 -1.29688,-0.67187 -0.45312,-0.48438 -0.45312,-1.20313 0,-1.04687 0.73437,-1.65625 0.75,-0.60937 2.01563,-0.60937 0.84375,0 1.60937,0.28125 0.78125,0.26562 1.39063,0.78125 l -1,1.10937 q -0.53125,-0.40625 -1.07813,-0.60937 -0.53125,-0.20313 -1.03125,-0.20313 -0.48437,0 -0.76562,0.1875 -0.28125,0.1875 -0.28125,0.5 0,0.25 0.1875,0.40625 0.1875,0.15625 0.64062,0.25 l 1.26563,0.28125 q 0.875,0.1875 1.34375,0.67188 0.46875,0.48437 0.46875,1.17187 0,0.51563 -0.23438,0.95313 -0.21875,0.42187 -0.60937,0.73437 -0.39063,0.3125 -0.9375,0.5 -0.53125,0.17188 -1.17188,0.17188 -0.95312,0 -1.84375,-0.3125 -0.875,-0.32813 -1.4375,-0.875 z m 8.42163,1.04687 -1.45312,-6.9375 h 1.90625 l 0.85937,4.625 2.84375,-4.625 h 1.95313 l -4.39063,6.9375 z m 9.21558,-1.4375 q 0.42187,0 0.8125,-0.17187 0.39062,-0.17188 0.78125,-0.51563 l 0.92187,1.1875 q -0.59375,0.53125 -1.29687,0.8125 -0.6875,0.26563 -1.42188,0.26563 -0.70312,0 -1.3125,-0.23438 -0.59375,-0.25 -1.04687,-0.6875 -0.4375,-0.4375 -0.6875,-1.03125 -0.25,-0.59375 -0.25,-1.3125 0,-0.8125 0.29687,-1.53125 0.29688,-0.73437 0.8125,-1.25 0.53125,-0.53125 1.23438,-0.84375 0.70312,-0.3125 1.5,-0.3125 0.85937,0 1.625,0.375 0.76562,0.375 1.21875,1.01563 l -1.23438,1.125 q -0.3125,-0.46875 -0.73437,-0.6875 -0.40625,-0.23438 -0.90625,-0.23438 -0.40625,0 -0.78125,0.1875 -0.375,0.17188 -0.65625,0.48438 -0.26563,0.29687 -0.4375,0.71875 -0.15625,0.40625 -0.15625,0.85937 0,0.78125 0.48437,1.28125 0.48438,0.5 1.23438,0.5 z"
     fill-rule="nonzero"
     id="path27" />
  <path
     fill="#000000"
     d="m 120.04853,89.4693 4.875,-8.46875 h -5.89063 v -0.85937 h 7 v 0.75 l -4.85937,8.57812 z m 10.00537,0.14063 q -0.75,0 -1.40625,-0.20313 -0.64062,-0.20312 -1.09375,-0.54687 -0.45312,-0.35938 -0.71875,-0.84375 -0.26562,-0.5 -0.26562,-1.0625 0,-0.8125 0.5625,-1.45313 0.5625,-0.65625 1.45312,-0.9375 -0.73437,-0.28125 -1.1875,-0.84375 -0.45312,-0.57812 -0.45312,-1.29687 0,-0.53125 0.23437,-0.96875 0.25,-0.45313 0.65625,-0.76563 0.42188,-0.32812 0.98438,-0.5 0.5625,-0.1875 1.23437,-0.1875 0.67188,0 1.23438,0.1875 0.57812,0.17188 0.98437,0.5 0.42188,0.3125 0.65625,0.76563 0.23438,0.4375 0.23438,0.96875 0,0.71875 -0.45313,1.29687 -0.45312,0.5625 -1.17187,0.84375 0.89062,0.28125 1.4375,0.9375 0.5625,0.64063 0.5625,1.45313 0,0.5625 -0.26563,1.0625 -0.25,0.48437 -0.71875,0.84375 -0.46875,0.34375 -1.10937,0.54687 -0.64063,0.20313 -1.39063,0.20313 z m 0,-5.46875 q 0.90625,0 1.53125,-0.48438 0.625,-0.48437 0.625,-1.20312 0,-0.70313 -0.625,-1.1875 -0.60937,-0.5 -1.53125,-0.5 -0.90625,0 -1.53125,0.5 -0.60937,0.48437 -0.60937,1.1875 0,0.71875 0.60937,1.20312 0.625,0.48438 1.53125,0.48438 z m 0,4.65625 q 1.0625,0 1.78125,-0.54688 0.73438,-0.54687 0.73438,-1.35937 0,-0.8125 -0.73438,-1.35938 -0.71875,-0.54687 -1.78125,-0.54687 -1.0625,0 -1.79687,0.54687 -0.71875,0.54688 -0.71875,1.35938 0,0.8125 0.71875,1.35937 0.73437,0.54688 1.79687,0.54688 z m 8.38696,0.8125 q -0.82812,0 -1.53125,-0.35938 -0.70312,-0.35937 -1.20312,-0.98437 -0.5,-0.64063 -0.78125,-1.51563 -0.28125,-0.89062 -0.28125,-1.95312 0,-1.04688 0.28125,-1.92188 0.28125,-0.89062 0.78125,-1.51562 0.5,-0.64063 1.20312,-1 0.71875,-0.35938 1.53125,-0.35938 0.84375,0 1.54688,0.35938 0.70312,0.35937 1.20312,1 0.51563,0.625 0.78125,1.51562 0.28125,0.875 0.28125,1.92188 0,1.0625 -0.28125,1.95312 -0.26562,0.875 -0.78125,1.51563 -0.5,0.625 -1.20312,0.98437 -0.70313,0.35938 -1.54688,0.35938 z m 0,-0.89063 q 1.29688,0 2.0625,-1.0625 0.78125,-1.0625 0.78125,-2.85937 0,-1.78125 -0.78125,-2.84375 -0.76562,-1.07813 -2.0625,-1.07813 -1.26562,0 -2.04687,1.07813 -0.76563,1.0625 -0.76563,2.84375 0,1.79687 0.76563,2.85937 0.78125,1.0625 2.04687,1.0625 z m 8.80988,0.89063 q -0.82813,0 -1.53125,-0.35938 -0.70313,-0.35937 -1.20313,-0.98437 -0.5,-0.64063 -0.78125,-1.51563 -0.28125,-0.89062 -0.28125,-1.95312 0,-1.04688 0.28125,-1.92188 0.28125,-0.89062 0.78125,-1.51562 0.5,-0.64063 1.20313,-1 0.71875,-0.35938 1.53125,-0.35938 0.84375,0 1.54687,0.35938 0.70313,0.35937 1.20313,1 0.51562,0.625 0.78125,1.51562 0.28125,0.875 0.28125,1.92188 0,1.0625 -0.28125,1.95312 -0.26563,0.875 -0.78125,1.51563 -0.5,0.625 -1.20313,0.98437 -0.70312,0.35938 -1.54687,0.35938 z m 0,-0.89063 q 1.29687,0 2.0625,-1.0625 0.78125,-1.0625 0.78125,-2.85937 0,-1.78125 -0.78125,-2.84375 -0.76563,-1.07813 -2.0625,-1.07813 -1.26563,0 -2.04688,1.07813 -0.76562,1.0625 -0.76562,2.84375 0,1.79687 0.76562,2.85937 0.78125,1.0625 2.04688,1.0625 z m 8.14416,-2.5625 q 0,-2.03125 0.85938,-3.60937 0.85937,-1.59375 2.45312,-2.54688 l 0.51563,0.67188 q -1.375,0.79687 -2.14063,2.23437 -0.75,1.4375 -0.75,3.25 0,1.8125 0.75,3.25 0.76563,1.42188 2.14063,2.21875 l -0.51563,0.6875 q -1.59375,-0.96875 -2.45312,-2.5625 -0.85938,-1.57812 -0.85938,-3.59375 z m 5.16901,6.04688 v -9.40625 h 0.96875 v 0.71875 q 0.42188,-0.42188 0.96875,-0.625 0.5625,-0.20313 1.1875,-0.20313 0.70313,0 1.3125,0.26563 0.625,0.26562 1.07813,0.73437 0.45312,0.45313 0.70312,1.09375 0.26563,0.625 0.26563,1.34375 0,0.71875 -0.26563,1.35938 -0.25,0.64062 -0.70312,1.10937 -0.45313,0.45313 -1.07813,0.71875 -0.60937,0.26563 -1.32812,0.26563 -0.57813,0 -1.125,-0.20313 -0.54688,-0.20312 -1,-0.57812 v 3.40625 z m 3.03125,-8.65625 q -0.625,0 -1.17187,0.25 -0.53125,0.25 -0.875,0.6875 v 3.3125 q 0.34375,0.42187 0.89062,0.67187 0.54688,0.23438 1.15625,0.23438 1.0625,0 1.76563,-0.73438 0.71875,-0.73437 0.71875,-1.82812 0,-0.54688 -0.20313,-1.01563 -0.1875,-0.48437 -0.53125,-0.82812 -0.32812,-0.34375 -0.78125,-0.54688 -0.45312,-0.20312 -0.96875,-0.20312 z m 5.31665,-2.03125 q -0.26562,0 -0.46875,-0.20313 -0.1875,-0.20312 -0.1875,-0.46875 0,-0.28125 0.1875,-0.46875 0.20313,-0.20312 0.46875,-0.20312 0.28125,0 0.46875,0.20312 0.20313,0.1875 0.20313,0.46875 0,0.26563 -0.20313,0.46875 -0.1875,0.20313 -0.46875,0.20313 z m 0.5,1.28125 v 6.67187 h -0.98437 v -6.67187 z m 1.68128,6.67187 v -6.67187 h 0.98437 v 0.78125 q 0.39063,-0.45313 0.92188,-0.6875 0.53125,-0.23438 1.1875,-0.23438 1.125,0 1.84375,0.71875 0.71875,0.71875 0.71875,1.875 v 4.21875 h -0.96875 v -4.03125 q 0,-0.875 -0.51563,-1.39062 -0.5,-0.51563 -1.34375,-0.51563 -0.60937,0 -1.07812,0.26563 -0.46875,0.26562 -0.76563,0.75 v 4.92187 z m 10.3327,0.0469 q -0.6875,0 -1.29688,-0.26563 -0.60937,-0.26562 -1.0625,-0.71875 -0.45312,-0.46875 -0.71875,-1.09375 -0.25,-0.625 -0.25,-1.34375 0,-0.71875 0.25,-1.34375 0.26563,-0.625 0.71875,-1.07812 0.45313,-0.46875 1.0625,-0.73438 0.625,-0.26562 1.32813,-0.26562 0.57812,0 1.10937,0.20312 0.54688,0.20313 1,0.57813 v -0.65625 h 0.96875 v 6.82812 q 0,1.28125 -0.75,1.96875 -0.73437,0.6875 -2.125,0.6875 -0.6875,0 -1.375,-0.1875 -0.67187,-0.17187 -1.23437,-0.5 l 0.42187,-0.78125 q 0.59375,0.32813 1.10938,0.46875 0.51562,0.14063 1.03125,0.14063 0.95312,0 1.4375,-0.45313 0.5,-0.45312 0.5,-1.32812 v -0.89063 q -0.45313,0.375 -1,0.57813 -0.53125,0.1875 -1.125,0.1875 z m -2.35938,-3.42188 q 0,0.53125 0.1875,1.01563 0.1875,0.46875 0.51563,0.8125 0.32812,0.32812 0.78125,0.53125 0.45312,0.20312 0.95312,0.20312 0.64063,0 1.17188,-0.23437 0.54687,-0.25 0.875,-0.6875 V 84.4537 q -0.32813,-0.42188 -0.875,-0.65625 -0.53125,-0.25 -1.17188,-0.25 -0.51562,0 -0.96875,0.20312 -0.4375,0.1875 -0.76562,0.53125 -0.32813,0.34375 -0.51563,0.8125 -0.1875,0.46875 -0.1875,1 z m 10.63843,-0.0156 q 0,2.03125 -0.85937,3.60937 -0.85938,1.59375 -2.45313,2.54688 l -0.51562,-0.67188 q 1.375,-0.79687 2.125,-2.23437 0.76562,-1.45313 0.76562,-3.25 0,-1.8125 -0.76562,-3.23438 -0.75,-1.4375 -2.125,-2.23437 l 0.51562,-0.6875 q 1.59375,0.96875 2.45313,2.5625 0.85937,1.57812 0.85937,3.59375 z"
     fill-rule="nonzero"
     id="path29" />
  <path
     fill="#fff2cc"
     d="m 58.56955,106.95276 h 192.25198 v 38.39371 H 58.56955 Z"
     fill-rule="evenodd"
     id="path31" />
  <path
     fill="#000000"
     d="m 112.06243,121.90274 1.01563,-1.15625 q 0.5625,0.48437 1.125,0.73437 0.57812,0.23438 1.15625,0.23438 0.54687,0 0.89062,-0.21875 0.34375,-0.21875 0.34375,-0.54688 0,-0.21875 -0.20312,-0.375 -0.1875,-0.15625 -0.5625,-0.25 l -1.28125,-0.28125 q -0.84375,-0.1875 -1.29688,-0.67187 -0.45312,-0.48438 -0.45312,-1.20313 0,-1.04687 0.73437,-1.65625 0.75,-0.60937 2.01563,-0.60937 0.84375,0 1.60937,0.28125 0.78125,0.26562 1.39063,0.78125 l -1,1.10937 q -0.53125,-0.40625 -1.07813,-0.60937 -0.53125,-0.20313 -1.03125,-0.20313 -0.48437,0 -0.76562,0.1875 -0.28125,0.1875 -0.28125,0.5 0,0.25 0.1875,0.40625 0.1875,0.15625 0.64062,0.25 l 1.26563,0.28125 q 0.875,0.1875 1.34375,0.67188 0.46875,0.48437 0.46875,1.17187 0,0.51563 -0.23438,0.95313 -0.21875,0.42187 -0.60937,0.73437 -0.39063,0.3125 -0.9375,0.5 -0.53125,0.17188 -1.17188,0.17188 -0.95312,0 -1.84375,-0.3125 -0.875,-0.32813 -1.4375,-0.875 z m 8.42163,1.04687 -1.45312,-6.9375 h 1.90625 l 0.85937,4.625 2.84375,-4.625 h 1.95313 l -4.39063,6.9375 z m 9.21552,-1.4375 q 0.42187,0 0.8125,-0.17187 0.39062,-0.17188 0.78125,-0.51563 l 0.92187,1.1875 q -0.59375,0.53125 -1.29687,0.8125 -0.6875,0.26563 -1.42188,0.26563 -0.70312,0 -1.3125,-0.23438 -0.59375,-0.25 -1.04687,-0.6875 -0.4375,-0.4375 -0.6875,-1.03125 -0.25,-0.59375 -0.25,-1.3125 0,-0.8125 0.29687,-1.53125 0.29688,-0.73437 0.8125,-1.25 0.53125,-0.53125 1.23438,-0.84375 0.70312,-0.3125 1.5,-0.3125 0.85937,0 1.625,0.375 0.76562,0.375 1.21875,1.01563 l -1.23438,1.125 q -0.3125,-0.46875 -0.73437,-0.6875 -0.40625,-0.23438 -0.90625,-0.23438 -0.40625,0 -0.78125,0.1875 -0.375,0.17188 -0.65625,0.48438 -0.26563,0.29687 -0.4375,0.71875 -0.15625,0.40625 -0.15625,0.85937 0,0.78125 0.48437,1.28125 0.48438,0.5 1.23438,0.5 z m 6.2658,-0.39062 q 0,-1.23438 0.34375,-2.39063 0.34375,-1.17187 0.96875,-2.15625 0.625,-1 1.51563,-1.79687 0.90625,-0.79688 2.01562,-1.29688 l 0.75,1.20313 q -0.89062,0.4375 -1.625,1.10937 -0.71875,0.65625 -1.23437,1.46875 -0.5,0.79688 -0.78125,1.73438 -0.26563,0.9375 -0.26563,1.9375 0,1.20312 0.45313,2.1875 0.45312,0.98437 1.3125,1.6875 l -1.20313,1.04687 q -1.09375,-0.82812 -1.67187,-2.04687 -0.57813,-1.21875 -0.57813,-2.6875 z m 5.16852,-1.39063 q 0,-0.78125 0.29688,-1.48437 0.3125,-0.70313 0.82812,-1.23438 0.53125,-0.53125 1.23438,-0.82812 0.71875,-0.3125 1.51562,-0.3125 0.71875,0 1.34375,0.25 0.64063,0.25 1.09375,0.70312 0.45313,0.45313 0.70313,1.0625 0.26562,0.60938 0.26562,1.3125 0,0.79688 -0.3125,1.5 -0.3125,0.70313 -0.84375,1.23438 -0.51562,0.51562 -1.23437,0.84375 -0.70313,0.3125 -1.48438,0.3125 -0.71875,0 -1.35937,-0.25 -0.625,-0.26563 -1.07813,-0.70313 -0.45312,-0.45312 -0.71875,-1.0625 -0.25,-0.625 -0.25,-1.34375 z m 3.48438,1.76563 q 0.42187,0 0.78125,-0.17188 0.375,-0.17187 0.65625,-0.46875 0.28125,-0.3125 0.4375,-0.71875 0.17187,-0.40625 0.17187,-0.85937 0,-0.78125 -0.5,-1.29688 -0.5,-0.51562 -1.25,-0.51562 -0.42187,0 -0.79687,0.17187 -0.35938,0.17188 -0.64063,0.46875 -0.26562,0.29688 -0.4375,0.70313 -0.15625,0.39062 -0.15625,0.84375 0,0.79687 0.48438,1.32812 0.5,0.51563 1.25,0.51563 z m 3.57452,4.23437 2.0625,-9.71875 h 1.78125 l -0.0781,0.34375 q 0.375,-0.21875 0.78125,-0.32812 0.40625,-0.10938 0.84375,-0.10938 0.64062,0 1.21875,0.25 0.57812,0.23438 0.98437,0.67188 0.40625,0.42187 0.64063,1.01562 0.23437,0.59375 0.23437,1.26563 0,0.8125 -0.3125,1.53125 -0.29687,0.70312 -0.8125,1.25 -0.51562,0.53125 -1.23437,0.84375 -0.70313,0.29687 -1.5,0.29687 -0.60938,0 -1.14063,-0.1875 -0.53125,-0.20312 -0.9375,-0.57812 l -0.75,3.45312 z m 4.92188,-8.26562 q -0.42188,0 -0.79688,0.14062 -0.375,0.125 -0.67187,0.375 l -0.59375,2.73438 q 0.26562,0.35937 0.71875,0.5625 0.45312,0.20312 0.96875,0.20312 0.92187,0 1.54687,-0.64062 0.64063,-0.64063 0.64063,-1.5625 0,-0.76563 -0.51563,-1.28125 -0.51562,-0.53125 -1.29687,-0.53125 z m 4.87024,3.40625 0.70312,-3.32813 h -1.39062 l 0.3125,-1.53125 h 1.40625 l 0.375,-1.78125 1.875,-0.40625 -0.46875,2.1875 h 1.9375 l -0.32813,1.53125 h -1.92187 l -0.65625,3.03125 q -0.10938,0.51563 0.0937,0.73438 0.20312,0.21875 0.76562,0.21875 0.21875,0 0.42188,-0.0312 0.20312,-0.0312 0.4375,-0.0781 l -0.32813,1.48438 q -0.23437,0.0469 -0.59375,0.0937 -0.35937,0.0469 -0.67187,0.0469 -1.15625,0 -1.67188,-0.5625 -0.5,-0.57812 -0.29687,-1.60937 z m 6.81011,-5.6875 q -0.375,0 -0.64062,-0.26563 -0.26563,-0.26562 -0.26563,-0.65625 0,-0.46875 0.34375,-0.8125 0.35938,-0.34375 0.8125,-0.34375 0.35938,0 0.625,0.26563 0.28125,0.26562 0.28125,0.64062 0,0.45313 -0.35937,0.8125 -0.34375,0.35938 -0.79688,0.35938 z m 0.60938,0.82812 -1.45313,6.9375 h -1.79687 l 1.46875,-6.9375 z m 0.38623,3.71875 q 0,-0.78125 0.29688,-1.48437 0.3125,-0.70313 0.82812,-1.23438 0.53125,-0.53125 1.23438,-0.82812 0.71875,-0.3125 1.51562,-0.3125 0.71875,0 1.34375,0.25 0.64063,0.25 1.09375,0.70312 0.45313,0.45313 0.70313,1.0625 0.26562,0.60938 0.26562,1.3125 0,0.79688 -0.3125,1.5 -0.3125,0.70313 -0.84375,1.23438 -0.51562,0.51562 -1.23437,0.84375 -0.70313,0.3125 -1.48438,0.3125 -0.71875,0 -1.35937,-0.25 -0.625,-0.26563 -1.07813,-0.70313 -0.45312,-0.45312 -0.71875,-1.0625 -0.25,-0.625 -0.25,-1.34375 z m 3.48438,1.76563 q 0.42187,0 0.78125,-0.17188 0.375,-0.17187 0.65625,-0.46875 0.28125,-0.3125 0.4375,-0.71875 0.17187,-0.40625 0.17187,-0.85937 0,-0.78125 -0.5,-1.29688 -0.5,-0.51562 -1.25,-0.51562 -0.42187,0 -0.79687,0.17187 -0.35938,0.17188 -0.64063,0.46875 -0.26562,0.29688 -0.4375,0.70313 -0.15625,0.39062 -0.15625,0.84375 0,0.79687 0.48438,1.32812 0.5,0.51563 1.25,0.51563 z m 4.16827,1.45312 1.46875,-6.9375 h 1.78125 l -0.0937,0.48438 q 0.40625,-0.29688 0.875,-0.4375 0.48437,-0.15625 1.01562,-0.15625 0.60938,0 1.07813,0.21875 0.48437,0.21875 0.78125,0.60937 0.29687,0.375 0.40625,0.92188 0.10937,0.53125 -0.0312,1.15625 l -0.875,4.14062 h -1.79688 l 0.84375,-3.96875 q 0.14063,-0.6875 -0.1875,-1.10937 -0.32812,-0.42188 -0.98437,-0.42188 -0.40625,0 -0.79688,0.15625 -0.375,0.15625 -0.67187,0.48438 l -1.01563,4.85937 z m 10.27258,0.0781 q -1.07812,0 -1.71875,-0.51563 -0.64062,-0.53125 -0.64062,-1.42187 0,-1.04688 0.78125,-1.65625 0.78125,-0.625 2.125,-0.625 0.5,0 0.98437,0.0937 0.48438,0.0937 0.92188,0.25 l 0.0781,-0.34375 q 0.14063,-0.70313 -0.21875,-1.0625 -0.35937,-0.35938 -1.20312,-0.35938 -0.375,0 -0.84375,0.10938 -0.46875,0.10937 -1.10938,0.34375 l -0.4375,-1.375 q 0.75,-0.28125 1.45313,-0.42188 0.70312,-0.15625 1.32812,-0.15625 1.59375,0 2.32813,0.78125 0.73437,0.76563 0.45312,2.10938 l -0.875,4.17187 h -1.76562 l 0.0937,-0.42187 q -0.42188,0.25 -0.84375,0.375 -0.42188,0.125 -0.89063,0.125 z m -0.67187,-2.09375 q 0,0.375 0.34375,0.59375 0.34375,0.20312 0.9375,0.20312 0.375,0 0.71875,-0.0937 0.34375,-0.0937 0.65625,-0.28125 l 0.21875,-1.04687 q -0.32813,-0.14063 -0.71875,-0.21875 -0.39063,-0.0937 -0.79688,-0.0937 -0.625,0 -1,0.26562 -0.35937,0.25 -0.35937,0.67188 z m 9.27942,-7.71875 -2.0625,9.73437 h -1.79688 l 1.98438,-9.32812 z m 4.22998,4.96875 q 0,1.25 -0.34375,2.40625 -0.32813,1.15625 -0.95313,2.15625 -0.625,0.98437 -1.53125,1.78125 -0.89062,0.8125 -2,1.3125 l -0.75,-1.21875 q 0.89063,-0.4375 1.60938,-1.09375 0.73437,-0.65625 1.23437,-1.45313 0.51563,-0.8125 0.78125,-1.75 0.28125,-0.95312 0.28125,-1.95312 0,-1.1875 -0.45312,-2.17188 -0.45313,-1 -1.32813,-1.70312 l 1.20313,-1.03125 q 1.09375,0.82812 1.67187,2.04687 0.57813,1.21875 0.57813,2.67188 z"
     fill-rule="nonzero"
     id="path33" />
  <path
     fill="#000000"
     d="m 119.10217,138.94962 4.875,-8.46875 h -5.89063 v -0.85937 h 7 v 0.75 l -4.85937,8.57812 z m 9.95959,-9.45312 q 0.82813,0 1.51563,0.32812 0.70312,0.32813 1.20312,0.92188 0.5,0.57812 0.78125,1.40625 0.28125,0.8125 0.28125,1.79687 0,1.15625 -0.3125,2.10938 -0.3125,0.95312 -0.89062,1.625 -0.5625,0.67187 -1.35938,1.04687 -0.79687,0.35938 -1.78125,0.35938 -0.60937,0 -1.20312,-0.15625 -0.57813,-0.17188 -1.03125,-0.46875 l 0.48437,-0.75 q 0.40625,0.23437 0.875,0.35937 0.46875,0.125 0.92188,0.125 1.5,0 2.375,-1.07812 0.89062,-1.09375 0.9375,-3 -0.51563,0.60937 -1.28125,0.98437 -0.75,0.35938 -1.54688,0.35938 -0.70312,0 -1.29687,-0.21875 -0.59375,-0.23438 -1.03125,-0.60938 -0.42188,-0.39062 -0.67188,-0.92187 -0.23437,-0.54688 -0.23437,-1.17188 0,-0.65625 0.25,-1.21875 0.25,-0.5625 0.67187,-0.96875 0.4375,-0.40625 1.03125,-0.625 0.60938,-0.23437 1.3125,-0.23437 z m 0.14063,5.14062 q 0.73437,0 1.42187,-0.35937 0.6875,-0.35938 1.20313,-1.01563 -0.15625,-1.3125 -0.90625,-2.10937 -0.75,-0.79688 -1.84375,-0.79688 -0.98438,0 -1.64063,0.625 -0.65625,0.60938 -0.65625,1.53125 0,0.95313 0.67188,1.54688 0.6875,0.57812 1.75,0.57812 z m 8.62555,4.45313 q -0.82813,0 -1.53125,-0.35938 -0.70313,-0.35937 -1.20313,-0.98437 -0.5,-0.64063 -0.78125,-1.51563 -0.28125,-0.89062 -0.28125,-1.95312 0,-1.04688 0.28125,-1.92188 0.28125,-0.89062 0.78125,-1.51562 0.5,-0.64063 1.20313,-1 0.71875,-0.35938 1.53125,-0.35938 0.84375,0 1.54687,0.35938 0.70313,0.35937 1.20313,1 0.51562,0.625 0.78125,1.51562 0.28125,0.875 0.28125,1.92188 0,1.0625 -0.28125,1.95312 -0.26563,0.875 -0.78125,1.51563 -0.5,0.625 -1.20313,0.98437 -0.70312,0.35938 -1.54687,0.35938 z m 0,-0.89063 q 1.29687,0 2.0625,-1.0625 0.78125,-1.0625 0.78125,-2.85937 0,-1.78125 -0.78125,-2.84375 -0.76563,-1.07813 -2.0625,-1.07813 -1.26563,0 -2.04688,1.07813 -0.76562,1.0625 -0.76562,2.84375 0,1.79687 0.76562,2.85937 0.78125,1.0625 2.04688,1.0625 z m 8.80987,0.89063 q -0.82812,0 -1.53125,-0.35938 -0.70312,-0.35937 -1.20312,-0.98437 -0.5,-0.64063 -0.78125,-1.51563 -0.28125,-0.89062 -0.28125,-1.95312 0,-1.04688 0.28125,-1.92188 0.28125,-0.89062 0.78125,-1.51562 0.5,-0.64063 1.20312,-1 0.71875,-0.35938 1.53125,-0.35938 0.84375,0 1.54688,0.35938 0.70312,0.35937 1.20312,1 0.51563,0.625 0.78125,1.51562 0.28125,0.875 0.28125,1.92188 0,1.0625 -0.28125,1.95312 -0.26562,0.875 -0.78125,1.51563 -0.5,0.625 -1.20312,0.98437 -0.70313,0.35938 -1.54688,0.35938 z m 0,-0.89063 q 1.29688,0 2.0625,-1.0625 0.78125,-1.0625 0.78125,-2.85937 0,-1.78125 -0.78125,-2.84375 -0.76562,-1.07813 -2.0625,-1.07813 -1.26562,0 -2.04687,1.07813 -0.76563,1.0625 -0.76563,2.84375 0,1.79687 0.76563,2.85937 0.78125,1.0625 2.04687,1.0625 z m 8.14411,-2.5625 q 0,-2.03125 0.85937,-3.60937 0.85938,-1.59375 2.45313,-2.54688 l 0.51562,0.67188 q -1.375,0.79687 -2.14062,2.23437 -0.75,1.4375 -0.75,3.25 0,1.8125 0.75,3.25 0.76562,1.42188 2.14062,2.21875 l -0.51562,0.6875 q -1.59375,-0.96875 -2.45313,-2.5625 -0.85937,-1.57812 -0.85937,-3.59375 z m 4.38775,3.3125 2.625,-3.4375 -2.48437,-3.23437 h 1.17187 l 1.89063,2.5 1.89062,-2.5 h 1.14063 l -2.46875,3.21875 2.64062,3.45312 h -1.17187 l -2.04688,-2.71875 -2.0625,2.71875 z m 6.53119,-0.92187 0.60938,-0.64063 q 0.45312,0.42188 1.01562,0.65625 0.5625,0.23438 1.15625,0.23438 0.79688,0 1.29688,-0.32813 0.51562,-0.32812 0.51562,-0.85937 0,-0.4375 -0.3125,-0.67188 -0.29687,-0.25 -0.9375,-0.34375 l -1.15625,-0.15625 q -1,-0.15625 -1.48437,-0.59375 -0.48438,-0.45312 -0.48438,-1.21875 0,-0.82812 0.70313,-1.375 0.70312,-0.5625 1.79687,-0.5625 0.71875,0 1.35938,0.21875 0.65625,0.20313 1.26562,0.65625 l -0.51562,0.67188 q -0.5625,-0.375 -1.09375,-0.5625 -0.51563,-0.1875 -1.0625,-0.1875 -0.6875,0 -1.125,0.3125 -0.42188,0.29687 -0.42188,0.79687 0,0.42188 0.28125,0.65625 0.29688,0.23438 0.95313,0.32813 l 1.15625,0.15625 q 1,0.14062 1.5,0.60937 0.5,0.45313 0.5,1.20313 0,0.42187 -0.20313,0.8125 -0.20312,0.375 -0.57812,0.65625 -0.35938,0.26562 -0.85938,0.42187 -0.48437,0.15625 -1.0625,0.15625 -0.82812,0 -1.5625,-0.26562 -0.71875,-0.28125 -1.25,-0.78125 z m 7.11615,-7.03125 q -0.26562,0 -0.46875,-0.20313 -0.1875,-0.20312 -0.1875,-0.46875 0,-0.28125 0.1875,-0.46875 0.20313,-0.20312 0.46875,-0.20312 0.28125,0 0.46875,0.20312 0.20313,0.1875 0.20313,0.46875 0,0.26563 -0.20313,0.46875 -0.1875,0.20313 -0.46875,0.20313 z m 0.5,1.28125 v 6.67187 h -0.98437 v -6.67187 z m 2.5094,5.17187 v -4.34375 h -1.4375 v -0.82812 h 1.4375 v -1.70313 l 0.96875,-0.25 v 1.95313 h 2.01563 v 0.82812 h -2.01563 v 4.09375 q 0,0.53125 0.23438,0.76563 0.25,0.23437 0.79687,0.23437 0.26563,0 0.48438,-0.0312 0.23437,-0.0469 0.48437,-0.14062 v 0.875 q -0.25,0.0937 -0.5625,0.125 -0.3125,0.0469 -0.60937,0.0469 -0.875,0 -1.34375,-0.40625 -0.45313,-0.42187 -0.45313,-1.21875 z m 9.44831,0.79688 q -0.5625,0.40625 -1.17188,0.625 -0.60937,0.20312 -1.32812,0.20312 -0.71875,0 -1.35938,-0.26562 -0.625,-0.26563 -1.09375,-0.73438 -0.45312,-0.46875 -0.71875,-1.09375 -0.26562,-0.64062 -0.26562,-1.375 0,-0.71875 0.25,-1.34375 0.26562,-0.625 0.70312,-1.09375 0.45313,-0.46875 1.04688,-0.73437 0.60937,-0.26563 1.29687,-0.26563 0.65625,0 1.23438,0.26563 0.59375,0.26562 1,0.73437 0.42187,0.46875 0.67187,1.09375 0.25,0.625 0.25,1.34375 v 0.3125 h -5.48437 q 0.10937,0.98438 0.8125,1.64063 0.71875,0.64062 1.70312,0.64062 0.51563,0 1,-0.15625 0.5,-0.15625 0.82813,-0.45312 z m -2.67188,-5.21875 q -0.85937,0 -1.5,0.59375 -0.625,0.57812 -0.76562,1.5 h 4.46875 q -0.14063,-0.875 -0.76563,-1.48438 -0.60937,-0.60937 -1.4375,-0.60937 z m 8.04828,2.53125 q 0,2.03125 -0.85937,3.60937 -0.85938,1.59375 -2.45313,2.54688 l -0.51562,-0.67188 q 1.375,-0.79687 2.125,-2.23437 0.76562,-1.45313 0.76562,-3.25 0,-1.8125 -0.76562,-3.23438 -0.75,-1.4375 -2.125,-2.23437 l 0.51562,-0.6875 q 1.59375,0.96875 2.45313,2.5625 0.85937,1.57812 0.85937,3.59375 z"
     fill-rule="nonzero"
     id="path35" />
  <path
     fill="#ead1dc"
     d="m 250.82153,7.99212 h 66.01575 v 38.39371 h -66.01575 z"
     fill-rule="evenodd"
     id="path37" />
  <path
     fill="#000000"
     d="m 263.88763,16.22336 q -0.375,0 -0.64062,-0.26563 -0.26563,-0.26562 -0.26563,-0.65625 0,-0.46875 0.34375,-0.8125 0.35938,-0.34375 0.8125,-0.34375 0.35938,0 0.625,0.26563 0.28125,0.26562 0.28125,0.64062 0,0.45313 -0.35937,0.8125 -0.34375,0.35938 -0.79688,0.35938 z m 0.60938,0.82812 -1.45313,6.9375 h -1.79687 l 1.46875,-6.9375 z m -0.0512,6.9375 1.46875,-6.9375 h 1.78125 l -0.0937,0.48438 q 0.40625,-0.29688 0.875,-0.4375 0.48437,-0.15625 1.01562,-0.15625 0.60938,0 1.07813,0.21875 0.48437,0.21875 0.78125,0.60937 0.29687,0.375 0.40625,0.92188 0.10937,0.53125 -0.0312,1.15625 l -0.875,4.14062 h -1.79688 l 0.84375,-3.96875 q 0.14063,-0.6875 -0.1875,-1.10937 -0.32812,-0.42188 -0.98437,-0.42188 -0.40625,0 -0.79688,0.15625 -0.375,0.15625 -0.67187,0.48438 l -1.01563,4.85937 z m 11.27252,0.0469 q -0.64063,0 -1.20313,-0.23438 -0.5625,-0.25 -0.98437,-0.67187 -0.40625,-0.4375 -0.64063,-1.01563 -0.23437,-0.59375 -0.23437,-1.26562 0,-0.79688 0.29687,-1.51563 0.3125,-0.71875 0.82813,-1.23437 0.51562,-0.53125 1.21875,-0.82813 0.70312,-0.3125 1.5,-0.3125 0.60937,0 1.14062,0.1875 0.53125,0.1875 0.9375,0.51563 l 0.14063,-0.60938 h 1.78125 l -1.53125,7.28125 q -0.25,1.23438 -1.10938,1.89063 -0.84375,0.65625 -2.15625,0.65625 -0.85937,0 -1.73437,-0.26563 -0.85938,-0.25 -1.5,-0.70312 l 0.8125,-1.34375 q 0.57812,0.375 1.1875,0.57812 0.60937,0.20313 1.17187,0.20313 0.65625,0 1.04688,-0.3125 0.39062,-0.29688 0.51562,-0.90625 l 0.10938,-0.51563 q -0.35938,0.20313 -0.76563,0.3125 -0.40625,0.10938 -0.82812,0.10938 z m -1.29688,-3.35938 q 0,0.79688 0.5,1.3125 0.51563,0.51563 1.28125,0.51563 0.42188,0 0.78125,-0.125 0.375,-0.14063 0.67188,-0.39063 l 0.59375,-2.76562 q -0.28125,-0.32813 -0.73438,-0.51563 -0.4375,-0.20312 -0.95312,-0.20312 -0.89063,0 -1.51563,0.64062 -0.625,0.64063 -0.625,1.53125 z m 6.01575,3.3125 1.48438,-6.9375 h 1.78125 l -0.14063,0.67188 q 0.39063,-0.39063 0.84375,-0.59375 0.46875,-0.21875 1,-0.21875 0.26563,0 0.5,0.0469 0.23438,0.0469 0.35938,0.14063 l -0.32813,1.59375 q -0.14062,-0.0937 -0.4375,-0.15625 -0.29687,-0.0781 -0.54687,-0.0781 -0.5,0 -0.95313,0.25 -0.45312,0.23438 -0.78125,0.6875 l -0.96875,4.59375 z m 11.82935,-0.71875 q -0.64063,0.45313 -1.26563,0.65625 -0.625,0.20313 -1.375,0.20313 -0.76562,0 -1.42187,-0.23438 -0.64063,-0.25 -1.10938,-0.6875 -0.46875,-0.4375 -0.73437,-1.04687 -0.25,-0.625 -0.25,-1.34375 0,-0.78125 0.29687,-1.5 0.29688,-0.71875 0.79688,-1.23438 0.51562,-0.53125 1.20312,-0.82812 0.6875,-0.3125 1.45313,-0.3125 0.6875,0 1.26562,0.25 0.59375,0.25 1,0.6875 0.42188,0.4375 0.65625,1.0625 0.23438,0.625 0.23438,1.34375 0,0.14062 -0.0156,0.3125 -0.0156,0.17187 -0.0625,0.53125 h -5.0625 q 0.125,0.65625 0.64063,1.07812 0.51562,0.40625 1.25,0.40625 0.4375,0 0.8125,-0.125 0.39062,-0.14062 0.6875,-0.375 z m -2.5,-4.8125 q -0.59375,0 -1.07813,0.39063 -0.46875,0.375 -0.6875,0.98437 h 3.32813 q -0.10938,-0.60937 -0.53125,-0.98437 -0.42188,-0.39063 -1.03125,-0.39063 z m 3.40905,4.48438 1.01563,-1.15625 q 0.5625,0.48437 1.125,0.73437 0.57812,0.23438 1.15625,0.23438 0.54687,0 0.89062,-0.21875 0.34375,-0.21875 0.34375,-0.54688 0,-0.21875 -0.20312,-0.375 -0.1875,-0.15625 -0.5625,-0.25 l -1.28125,-0.28125 q -0.84375,-0.1875 -1.29688,-0.67187 -0.45312,-0.48438 -0.45312,-1.20313 0,-1.04687 0.73437,-1.65625 0.75,-0.60937 2.01563,-0.60937 0.84375,0 1.60937,0.28125 0.78125,0.26562 1.39063,0.78125 l -1,1.10937 q -0.53125,-0.40625 -1.07813,-0.60937 -0.53125,-0.20313 -1.03125,-0.20313 -0.48437,0 -0.76562,0.1875 -0.28125,0.1875 -0.28125,0.5 0,0.25 0.1875,0.40625 0.1875,0.15625 0.64062,0.25 l 1.26563,0.28125 q 0.875,0.1875 1.34375,0.67188 0.46875,0.48437 0.46875,1.17187 0,0.51563 -0.23438,0.95313 -0.21875,0.42187 -0.60937,0.73437 -0.39063,0.3125 -0.9375,0.5 -0.53125,0.17188 -1.17188,0.17188 -0.95312,0 -1.84375,-0.3125 -0.875,-0.32813 -1.4375,-0.875 z m 6.49079,0 1.01562,-1.15625 q 0.5625,0.48437 1.125,0.73437 0.57813,0.23438 1.15625,0.23438 0.54688,0 0.89063,-0.21875 0.34375,-0.21875 0.34375,-0.54688 0,-0.21875 -0.20313,-0.375 -0.1875,-0.15625 -0.5625,-0.25 l -1.28125,-0.28125 q -0.84375,-0.1875 -1.29687,-0.67187 -0.45313,-0.48438 -0.45313,-1.20313 0,-1.04687 0.73438,-1.65625 0.75,-0.60937 2.01562,-0.60937 0.84375,0 1.60938,0.28125 0.78125,0.26562 1.39062,0.78125 l -1,1.10937 q -0.53125,-0.40625 -1.07812,-0.60937 -0.53125,-0.20313 -1.03125,-0.20313 -0.48438,0 -0.76563,0.1875 -0.28125,0.1875 -0.28125,0.5 0,0.25 0.1875,0.40625 0.1875,0.15625 0.64063,0.25 l 1.26562,0.28125 q 0.875,0.1875 1.34375,0.67188 0.46875,0.48437 0.46875,1.17187 0,0.51563 -0.23437,0.95313 -0.21875,0.42187 -0.60938,0.73437 -0.39062,0.3125 -0.9375,0.5 -0.53125,0.17188 -1.17187,0.17188 -0.95313,0 -1.84375,-0.3125 -0.875,-0.32813 -1.4375,-0.875 z"
     fill-rule="nonzero"
     id="path39" />
</svg>
